999
DXF file created by HALCON
  0
SECTION
  2
HEADER
  9
$ACADVER
  1
AC1009
  0
ENDSEC
  0
SECTION
  2
TABLES
  0
TABLE
  2
LTYPE
 70
1
  0
LTYPE
  2
CONTINUOUS
 70
0
  3
Solid line
 72
65
 73
0
 40
0
  0
ENDTAB
  0
TABLE
  2
LAYER
 70
1
  0
LAYER
  2
0
 70
0
 62
7
  6
CONTINUOUS
  0
ENDTAB
  0
TABLE
  2
APPID
 70
2
  0
APPID
  2
ACAD
 70
64
  0
APPID
  2
HALCON
 70
64
  0
ENDTAB
  0
ENDSEC
  0
SECTION
  2
BLOCKS
  0
ENDSEC
  0
SECTION
  2
ENTITIES
  0
POLYLINE
  8
0
 66
1
 10
0.0
 20
0.0
 30
0.0
 70
0
  0
VERTEX
  8
0
 10
496.89120483
 20
315.37884521
 30
0.0
  0
VERTEX
  8
0
 10
497.19796753
 20
314.80166626
 30
0.0
  0
VERTEX
  8
0
 10
497.58584595
 20
314.24313354
 30
0.0
  0
VERTEX
  8
0
 10
498.02609253
 20
313.7046814
 30
0.0
  0
VERTEX
  8
0
 10
498.49639893
 20
313.19049072
 30
0.0
  0
VERTEX
  8
0
 10
498.97821045
 20
312.7008667
 30
0.0
  0
VERTEX
  8
0
 10
499.45993042
 20
312.21936035
 30
0.0
  0
VERTEX
  8
0
 10
499.94354248
 20
311.73324585
 30
0.0
  0
VERTEX
  8
0
 10
500.42532349
 20
311.24545288
 30
0.0
  0
VERTEX
  8
0
 10
500.9046936
 20
310.75820923
 30
0.0
  0
VERTEX
  8
0
 10
501.3789978
 20
310.26895142
 30
0.0
  0
VERTEX
  8
0
 10
501.85250854
 20
309.77474976
 30
0.0
  0
VERTEX
  8
0
 10
502.33093262
 20
309.27749634
 30
0.0
  0
VERTEX
  8
0
 10
502.80865479
 20
308.78875732
 30
0.0
  0
VERTEX
  8
0
 10
503.28424072
 20
308.30245972
 30
0.0
  0
VERTEX
  8
0
 10
503.76324463
 20
307.81188965
 30
0.0
  0
VERTEX
  8
0
 10
504.24493408
 20
307.31945801
 30
0.0
  0
VERTEX
  8
0
 10
504.72668457
 20
306.8331604
 30
0.0
  0
VERTEX
  8
0
 10
505.21096802
 20
306.34939575
 30
0.0
  0
VERTEX
  8
0
 10
505.69320679
 20
305.86495972
 30
0.0
  0
VERTEX
  8
0
 10
506.16772461
 20
305.37686157
 30
0.0
  0
VERTEX
  8
0
 10
506.63934326
 20
304.88223267
 30
0.0
  0
VERTEX
  8
0
 10
507.11325073
 20
304.38552856
 30
0.0
  0
VERTEX
  8
0
 10
507.59707642
 20
303.89398193
 30
0.0
  0
VERTEX
  8
0
 10
508.0788269
 20
303.4078064
 30
0.0
  0
VERTEX
  8
0
 10
508.55426025
 20
302.92211914
 30
0.0
  0
VERTEX
  8
0
 10
509.02853394
 20
302.42993164
 30
0.0
  0
VERTEX
  8
0
 10
509.50994873
 20
301.93624878
 30
0.0
  0
VERTEX
  8
0
 10
509.98931885
 20
301.44897461
 30
0.0
  0
VERTEX
  8
0
 10
510.46643066
 20
300.96084595
 30
0.0
  0
VERTEX
  8
0
 10
510.94042969
 20
300.46841431
 30
0.0
  0
VERTEX
  8
0
 10
511.41372681
 20
299.97540283
 30
0.0
  0
VERTEX
  8
0
 10
511.88705444
 20
299.480896
 30
0.0
  0
VERTEX
  8
0
 10
512.36206055
 20
298.98498535
 30
0.0
  0
VERTEX
  8
0
 10
512.83612061
 20
298.48953247
 30
0.0
  0
VERTEX
  8
0
 10
513.30743408
 20
297.99468994
 30
0.0
  0
VERTEX
  8
0
 10
513.78424072
 20
297.50180054
 30
0.0
  0
VERTEX
  8
0
 10
514.26977539
 20
297.01235962
 30
0.0
  0
VERTEX
  8
0
 10
514.76348877
 20
296.53683472
 30
0.0
  0
VERTEX
  8
0
 10
515.26452637
 20
296.06665039
 30
0.0
  0
VERTEX
  8
0
 10
515.77905273
 20
295.60540771
 30
0.0
  0
VERTEX
  8
0
 10
516.30548096
 20
295.16644287
 30
0.0
  0
VERTEX
  8
0
 10
516.85577393
 20
294.78372192
 30
0.0
  0
VERTEX
  8
0
 10
517.72064209
 20
294.44573975
 30
0.0
  0
VERTEX
  8
0
 10
518.74346924
 20
294.31771851
 30
0.0
  0
VERTEX
  8
0
 10
519.75634766
 20
294.41381836
 30
0.0
  0
VERTEX
  8
0
 10
520.71185303
 20
294.59350586
 30
0.0
  0
VERTEX
  8
0
 10
521.63671875
 20
294.76745605
 30
0.0
  0
VERTEX
  8
0
 10
522.54040527
 20
295.00857544
 30
0.0
  0
VERTEX
  8
0
 10
523.11877441
 20
295.13000488
 30
0.0
  0
VERTEX
  8
0
 10
524.03424072
 20
295.32287598
 30
0.0
  0
VERTEX
  8
0
 10
524.60369873
 20
295.49499512
 30
0.0
  0
VERTEX
  8
0
 10
525.51489258
 20
295.6947937
 30
0.0
  0
VERTEX
  8
0
 10
526.40118408
 20
295.97848511
 30
0.0
  0
VERTEX
  8
0
 10
526.98986816
 20
296.09341431
 30
0.0
  0
VERTEX
  8
0
 10
527.89001465
 20
296.33215332
 30
0.0
  0
VERTEX
  8
0
 10
528.46795654
 20
296.48965454
 30
0.0
  0
VERTEX
  8
0
 10
529.37768555
 20
296.6937561
 30
0.0
  0
VERTEX
  8
0
 10
529.94787598
 20
296.87820435
 30
0.0
  0
VERTEX
  8
0
 10
530.86206055
 20
297.07189941
 30
0.0
  0
VERTEX
  8
0
 10
531.74725342
 20
297.33413696
 30
0.0
  0
VERTEX
  8
0
 10
532.33917236
 20
297.45742798
 30
0.0
  0
VERTEX
  8
0
 10
533.24536133
 20
297.68353271
 30
0.0
  0
VERTEX
  8
0
 10
533.8170166
 20
297.85473633
 30
0.0
  0
VERTEX
  8
0
 10
534.72521973
 20
298.06451416
 30
0.0
  0
VERTEX
  8
0
 10
535.60723877
 20
298.37576294
 30
0.0
  0
VERTEX
  8
0
 10
536.20288086
 20
298.44195557
 30
0.0
  0
VERTEX
  8
0
 10
537.09240723
 20
298.72372437
 30
0.0
  0
VERTEX
  8
0
 10
537.67834473
 20
298.85150146
 30
0.0
  0
VERTEX
  8
0
 10
538.57324219
 20
299.10296631
 30
0.0
  0
VERTEX
  8
0
 10
539.15368652
 20
299.25527954
 30
0.0
  0
VERTEX
  8
0
 10
540.07440186
 20
299.43875122
 30
0.0
  0
VERTEX
  8
0
 10
540.956604
 20
299.70718384
 30
0.0
  0
VERTEX
  8
0
 10
541.55181885
 20
299.80361938
 30
0.0
  0
VERTEX
  8
0
 10
542.43701172
 20
300.08065796
 30
0.0
  0
VERTEX
  8
0
 10
543.01751709
 20
300.24572754
 30
0.0
  0
VERTEX
  8
0
 10
543.89129639
 20
300.52734375
 30
0.0
  0
VERTEX
  8
0
 10
544.48022461
 20
300.69622803
 30
0.0
  0
VERTEX
  8
0
 10
545.06958008
 20
300.89996338
 30
0.0
  0
VERTEX
  8
0
 10
545.88024902
 20
301.2562561
 30
0.0
  0
VERTEX
  8
0
 10
546.39447021
 20
301.66116333
 30
0.0
  0
VERTEX
  8
0
 10
546.84344482
 20
302.15042114
 30
0.0
  0
VERTEX
  8
0
 10
547.18719482
 20
302.68893433
 30
0.0
  0
VERTEX
  8
0
 10
547.51483154
 20
303.50344849
 30
0.0
  0
VERTEX
  8
0
 10
547.77404785
 20
304.07269287
 30
0.0
  0
VERTEX
  8
0
 10
548.02893066
 20
304.95355225
 30
0.0
  0
VERTEX
  8
0
 10
548.2578125
 20
305.51940918
 30
0.0
  0
VERTEX
  8
0
 10
548.50366211
 20
306.41033936
 30
0.0
  0
VERTEX
  8
0
 10
548.71380615
 20
306.97149658
 30
0.0
  0
VERTEX
  8
0
 10
548.93151855
 20
307.87866211
 30
0.0
  0
VERTEX
  8
0
 10
549.09710693
 20
308.44897461
 30
0.0
  0
VERTEX
  8
0
 10
549.32489014
 20
309.35772705
 30
0.0
  0
VERTEX
  8
0
 10
549.38000488
 20
309.95489502
 30
0.0
  0
VERTEX
  8
0
 10
549.70196533
 20
310.83972168
 30
0.0
  0
VERTEX
  8
0
 10
549.94378662
 20
311.74026489
 30
0.0
  0
VERTEX
  8
0
 10
550.14593506
 20
312.31826782
 30
0.0
  0
VERTEX
  8
0
 10
550.41357422
 20
313.19641113
 30
0.0
  0
VERTEX
  8
0
 10
550.5736084
 20
313.78356934
 30
0.0
  0
VERTEX
  8
0
 10
550.84716797
 20
314.66384888
 30
0.0
  0
VERTEX
  8
0
 10
550.89385986
 20
315.26135254
 30
0.0
  0
VERTEX
  8
0
 10
551.25543213
 20
316.13412476
 30
0.0
  0
VERTEX
  8
0
 10
551.4800415
 20
317.040802
 30
0.0
  0
VERTEX
  8
0
 10
551.62652588
 20
317.61251831
 30
0.0
  0
VERTEX
  8
0
 10
551.88964844
 20
318.51495361
 30
0.0
  0
VERTEX
  8
0
 10
551.98205566
 20
319.11434937
 30
0.0
  0
VERTEX
  8
0
 10
552.32141113
 20
319.98129272
 30
0.0
  0
VERTEX
  8
0
 10
552.54431152
 20
320.88601685
 30
0.0
  0
VERTEX
  8
0
 10
552.73156738
 20
321.45309448
 30
0.0
  0
VERTEX
  8
0
 10
552.96472168
 20
322.35675049
 30
0.0
  0
VERTEX
  8
0
 10
553.10369873
 20
322.93572998
 30
0.0
  0
VERTEX
  8
0
 10
553.38415527
 20
323.82632446
 30
0.0
  0
VERTEX
  8
0
 10
553.42358398
 20
324.45169067
 30
0.0
  0
VERTEX
  8
0
 10
553.78405762
 20
325.29815674
 30
0.0
  0
VERTEX
  8
0
 10
553.99938965
 20
326.21109009
 30
0.0
  0
VERTEX
  8
0
 10
554.1227417
 20
326.78372192
 30
0.0
  0
VERTEX
  8
0
 10
554.38568115
 20
327.68856812
 30
0.0
  0
VERTEX
  8
0
 10
554.56158447
 20
328.61569214
 30
0.0
  0
VERTEX
  8
0
 10
554.63665771
 20
329.13949585
 30
0.0
  0
VERTEX
  8
0
 10
554.56542969
 20
330.01965332
 30
0.0
  0
VERTEX
  8
0
 10
554.46990967
 20
330.53201294
 30
0.0
  0
VERTEX
  8
0
 10
554.17767334
 20
331.11502075
 30
0.0
  0
VERTEX
  8
0
 10
553.81689453
 20
331.70620728
 30
0.0
  0
VERTEX
  8
0
 10
553.38165283
 20
332.32650757
 30
0.0
  0
VERTEX
  8
0
 10
552.95532227
 20
332.84793091
 30
0.0
  0
VERTEX
  8
0
 10
552.5055542
 20
333.35784912
 30
0.0
  0
VERTEX
  8
0
 10
552.03985596
 20
333.85928345
 30
0.0
  0
VERTEX
  8
0
 10
551.57116699
 20
334.35919189
 30
0.0
  0
VERTEX
  8
0
 10
551.10662842
 20
334.86260986
 30
0.0
  0
VERTEX
  8
0
 10
550.6472168
 20
335.36962891
 30
0.0
  0
VERTEX
  8
0
 10
550.18707275
 20
335.8760376
 30
0.0
  0
VERTEX
  8
0
 10
549.7232666
 20
336.37915039
 30
0.0
  0
VERTEX
  8
0
 10
549.25384521
 20
336.87579346
 30
0.0
  0
VERTEX
  8
0
 10
548.77954102
 20
337.36853027
 30
0.0
  0
VERTEX
  8
0
 10
548.30096436
 20
337.85803223
 30
0.0
  0
VERTEX
  8
0
 10
547.8236084
 20
338.34829712
 30
0.0
  0
VERTEX
  8
0
 10
547.34698486
 20
338.83926392
 30
0.0
  0
VERTEX
  8
0
 10
546.86987305
 20
339.32974243
 30
0.0
  0
VERTEX
  8
0
 10
546.38867188
 20
339.81661987
 30
0.0
  0
VERTEX
  8
0
 10
545.90631104
 20
340.30319214
 30
0.0
  0
VERTEX
  8
0
 10
545.42529297
 20
340.79074097
 30
0.0
  0
VERTEX
  8
0
 10
544.94812012
 20
341.28012085
 30
0.0
  0
VERTEX
  8
0
 10
544.46966553
 20
341.77023315
 30
0.0
  0
VERTEX
  8
0
 10
543.99090576
 20
342.25949097
 30
0.0
  0
VERTEX
  8
0
 10
543.51116943
 20
342.74679565
 30
0.0
  0
VERTEX
  8
0
 10
543.02874756
 20
343.23181152
 30
0.0
  0
VERTEX
  8
0
 10
542.54321289
 20
343.71478271
 30
0.0
  0
VERTEX
  8
0
 10
542.05810547
 20
344.19976807
 30
0.0
  0
VERTEX
  8
0
 10
541.57910156
 20
344.68951416
 30
0.0
  0
VERTEX
  8
0
 10
541.10430908
 20
345.1819458
 30
0.0
  0
VERTEX
  8
0
 10
540.62878418
 20
345.67443848
 30
0.0
  0
VERTEX
  8
0
 10
540.15197754
 20
346.1668396
 30
0.0
  0
VERTEX
  8
0
 10
539.67602539
 20
346.65884399
 30
0.0
  0
VERTEX
  8
0
 10
539.20288086
 20
347.15124512
 30
0.0
  0
VERTEX
  8
0
 10
538.72650146
 20
347.64395142
 30
0.0
  0
VERTEX
  8
0
 10
538.2477417
 20
348.1321106
 30
0.0
  0
VERTEX
  8
0
 10
537.76348877
 20
348.61465454
 30
0.0
  0
VERTEX
  8
0
 10
537.27435303
 20
349.09259033
 30
0.0
  0
VERTEX
  8
0
 10
536.78149414
 20
349.56448364
 30
0.0
  0
VERTEX
  8
0
 10
536.28405762
 20
350.02908325
 30
0.0
  0
VERTEX
  8
0
 10
535.77685547
 20
350.47659302
 30
0.0
  0
VERTEX
  8
0
 10
535.25268555
 20
350.89730835
 30
0.0
  0
VERTEX
  8
0
 10
534.58795166
 20
351.32540894
 30
0.0
  0
VERTEX
  8
0
 10
533.99176025
 20
351.63122559
 30
0.0
  0
VERTEX
  8
0
 10
533.02783203
 20
351.81564331
 30
0.0
  0
VERTEX
  8
0
 10
532.04333496
 20
351.7371521
 30
0.0
  0
VERTEX
  8
0
 10
531.10614014
 20
351.58874512
 30
0.0
  0
VERTEX
  8
0
 10
530.54077148
 20
351.4473877
 30
0.0
  0
VERTEX
  8
0
 10
529.61877441
 20
351.24972534
 30
0.0
  0
VERTEX
  8
0
 10
529.02862549
 20
351.16690063
 30
0.0
  0
VERTEX
  8
0
 10
528.13494873
 20
350.88253784
 30
0.0
  0
VERTEX
  8
0
 10
527.22387695
 20
350.68359375
 30
0.0
  0
VERTEX
  8
0
 10
526.6463623
 20
350.49206543
 30
0.0
  0
VERTEX
  8
0
 10
525.75054932
 20
350.26800537
 30
0.0
  0
VERTEX
  8
0
 10
525.17242432
 20
350.10949707
 30
0.0
  0
VERTEX
  8
0
 10
524.26885986
 20
349.88702393
 30
0.0
  0
VERTEX
  8
0
 10
523.66766357
 20
349.82037354
 30
0.0
  0
VERTEX
  8
0
 10
522.78869629
 20
349.50030518
 30
0.0
  0
VERTEX
  8
0
 10
521.87713623
 20
349.30432129
 30
0.0
  0
VERTEX
  8
0
 10
521.30053711
 20
349.13818359
 30
0.0
  0
VERTEX
  8
0
 10
520.39776611
 20
348.92062378
 30
0.0
  0
VERTEX
  8
0
 10
519.81323242
 20
348.79241943
 30
0.0
  0
VERTEX
  8
0
 10
518.91851807
 20
348.53018188
 30
0.0
  0
VERTEX
  8
0
 10
518.31732178
 20
348.51199341
 30
0.0
  0
VERTEX
  8
0
 10
517.43383789
 20
348.16275024
 30
0.0
  0
VERTEX
  8
0
 10
516.52539063
 20
347.95672607
 30
0.0
  0
VERTEX
  8
0
 10
515.95019531
 20
347.81439209
 30
0.0
  0
VERTEX
  8
0
 10
515.04003906
 20
347.59558105
 30
0.0
  0
VERTEX
  8
0
 10
514.44403076
 20
347.56793213
 30
0.0
  0
VERTEX
  8
0
 10
513.55169678
 20
347.24417114
 30
0.0
  0
VERTEX
  8
0
 10
512.64300537
 20
347.03244019
 30
0.0
  0
VERTEX
  8
0
 10
512.06439209
 20
346.86715698
 30
0.0
  0
VERTEX
  8
0
 10
511.16470337
 20
346.63949585
 30
0.0
  0
VERTEX
  8
0
 10
510.57919312
 20
346.54830933
 30
0.0
  0
VERTEX
  8
0
 10
509.67889404
 20
346.2677002
 30
0.0
  0
VERTEX
  8
0
 10
508.77926636
 20
346.0501709
 30
0.0
  0
VERTEX
  8
0
 10
508.20223999
 20
345.84881592
 30
0.0
  0
VERTEX
  8
0
 10
507.30996704
 20
345.62084961
 30
0.0
  0
VERTEX
  8
0
 10
506.72363281
 20
345.40936279
 30
0.0
  0
VERTEX
  8
0
 10
505.87136841
 20
345.12557983
 30
0.0
  0
VERTEX
  8
0
 10
505.30999756
 20
344.78311157
 30
0.0
  0
VERTEX
  8
0
 10
504.78637695
 20
344.31112671
 30
0.0
  0
VERTEX
  8
0
 10
504.38247681
 20
343.76559448
 30
0.0
  0
VERTEX
  8
0
 10
504.03594971
 20
342.91729736
 30
0.0
  0
VERTEX
  8
0
 10
503.86245728
 20
342.32849121
 30
0.0
  0
VERTEX
  8
0
 10
503.61398315
 20
341.43637085
 30
0.0
  0
VERTEX
  8
0
 10
503.41699219
 20
340.86459351
 30
0.0
  0
VERTEX
  8
0
 10
503.175354
 20
339.97320557
 30
0.0
  0
VERTEX
  8
0
 10
502.95550537
 20
339.40365601
 30
0.0
  0
VERTEX
  8
0
 10
502.71975708
 20
338.50866699
 30
0.0
  0
VERTEX
  8
0
 10
502.39956665
 20
337.63308716
 30
0.0
  0
VERTEX
  8
0
 10
502.28128052
 20
337.04394531
 30
0.0
  0
VERTEX
  8
0
 10
502.0017395
 20
336.15063477
 30
0.0
  0
VERTEX
  8
0
 10
501.84585571
 20
335.5753479
 30
0.0
  0
VERTEX
  8
0
 10
501.62322998
 20
334.66799927
 30
0.0
  0
VERTEX
  8
0
 10
501.42608643
 20
334.10418701
 30
0.0
  0
VERTEX
  8
0
 10
501.19854736
 20
333.20385742
 30
0.0
  0
VERTEX
  8
0
 10
500.86776733
 20
332.33358765
 30
0.0
  0
VERTEX
  8
0
 10
500.75979614
 20
331.73709106
 30
0.0
  0
VERTEX
  8
0
 10
500.49359131
 20
330.84417725
 30
0.0
  0
VERTEX
  8
0
 10
500.33129883
 20
330.26815796
 30
0.0
  0
VERTEX
  8
0
 10
500.10189819
 20
329.36569214
 30
0.0
  0
VERTEX
  8
0
 10
499.90911865
 20
328.79742432
 30
0.0
  0
VERTEX
  8
0
 10
499.69226074
 20
327.89141846
 30
0.0
  0
VERTEX
  8
0
 10
499.3828125
 20
327.01855469
 30
0.0
  0
VERTEX
  8
0
 10
499.25186157
 20
326.42922974
 30
0.0
  0
VERTEX
  8
0
 10
498.9727478
 20
325.54492188
 30
0.0
  0
VERTEX
  8
0
 10
498.80578613
 20
324.96426392
 30
0.0
  0
VERTEX
  8
0
 10
498.57113647
 20
324.06515503
 30
0.0
  0
VERTEX
  8
0
 10
498.36605835
 20
323.49710083
 30
0.0
  0
VERTEX
  8
0
 10
498.14105225
 20
322.59292603
 30
0.0
  0
VERTEX
  8
0
 10
497.83758545
 20
321.71102905
 30
0.0
  0
VERTEX
  8
0
 10
497.73001099
 20
321.12246704
 30
0.0
  0
VERTEX
  8
0
 10
497.46054077
 20
320.23120117
 30
0.0
  0
VERTEX
  8
0
 10
497.29733276
 20
319.65527344
 30
0.0
  0
VERTEX
  8
0
 10
497.07351685
 20
318.74768066
 30
0.0
  0
VERTEX
  8
0
 10
496.72415161
 20
317.81958008
 30
0.0
  0
VERTEX
  8
0
 10
496.72549438
 20
317.25244141
 30
0.0
  0
VERTEX
  8
0
 10
496.6645813
 20
316.27102661
 30
0.0
  0
VERTEX
  8
0
 10
496.89120483
 20
315.37884521
 30
0.0
  0
SEQEND
  0
POLYLINE
  8
0
 66
1
 10
0.0
 20
0.0
 30
0.0
 70
0
  0
VERTEX
  8
0
 10
513.84082031
 20
314.73114014
 30
0.0
  0
VERTEX
  8
0
 10
514.24645996
 20
314.19241333
 30
0.0
  0
VERTEX
  8
0
 10
514.684021
 20
313.67370605
 30
0.0
  0
VERTEX
  8
0
 10
515.14709473
 20
313.1741333
 30
0.0
  0
VERTEX
  8
0
 10
515.63299561
 20
312.69552612
 30
0.0
  0
VERTEX
  8
0
 10
516.13800049
 20
312.2414856
 30
0.0
  0
VERTEX
  8
0
 10
516.66333008
 20
311.81842041
 30
0.0
  0
VERTEX
  8
0
 10
517.22015381
 20
311.44497681
 30
0.0
  0
VERTEX
  8
0
 10
517.89447021
 20
311.01956177
 30
0.0
  0
VERTEX
  8
0
 10
518.45385742
 20
310.64907837
 30
0.0
  0
VERTEX
  8
0
 10
519.01452637
 20
310.31201172
 30
0.0
  0
VERTEX
  8
0
 10
519.84710693
 20
310.00064087
 30
0.0
  0
VERTEX
  8
0
 10
520.41943359
 20
309.74795532
 30
0.0
  0
VERTEX
  8
0
 10
521.29943848
 20
309.47598267
 30
0.0
  0
VERTEX
  8
0
 10
522.19189453
 20
309.10498047
 30
0.0
  0
VERTEX
  8
0
 10
522.7911377
 20
309.09118652
 30
0.0
  0
VERTEX
  8
0
 10
523.73925781
 20
308.92236328
 30
0.0
  0
VERTEX
  8
0
 10
524.72979736
 20
308.80258179
 30
0.0
  0
VERTEX
  8
0
 10
525.71850586
 20
308.78039551
 30
0.0
  0
VERTEX
  8
0
 10
526.70739746
 20
308.81008911
 30
0.0
  0
VERTEX
  8
0
 10
527.67944336
 20
308.92221069
 30
0.0
  0
VERTEX
  8
0
 10
528.625
 20
309.07330322
 30
0.0
  0
VERTEX
  8
0
 10
529.53320313
 20
309.27377319
 30
0.0
  0
VERTEX
  8
0
 10
530.10839844
 20
309.46932983
 30
0.0
  0
VERTEX
  8
0
 10
530.97180176
 20
309.73831177
 30
0.0
  0
VERTEX
  8
0
 10
531.54553223
 20
310.0083313
 30
0.0
  0
VERTEX
  8
0
 10
532.13128662
 20
310.32009888
 30
0.0
  0
VERTEX
  8
0
 10
532.87487793
 20
310.68365479
 30
0.0
  0
VERTEX
  8
0
 10
533.43548584
 20
311.04272461
 30
0.0
  0
VERTEX
  8
0
 10
533.97485352
 20
311.4513855
 30
0.0
  0
VERTEX
  8
0
 10
534.50415039
 20
311.88320923
 30
0.0
  0
VERTEX
  8
0
 10
535.02252197
 20
312.32672119
 30
0.0
  0
VERTEX
  8
0
 10
535.53283691
 20
312.79077148
 30
0.0
  0
VERTEX
  8
0
 10
536.02459717
 20
313.28335571
 30
0.0
  0
VERTEX
  8
0
 10
536.48138428
 20
313.79232788
 30
0.0
  0
VERTEX
  8
0
 10
536.91619873
 20
314.31933594
 30
0.0
  0
VERTEX
  8
0
 10
537.31896973
 20
314.85824585
 30
0.0
  0
VERTEX
  8
0
 10
537.65509033
 20
315.42929077
 30
0.0
  0
VERTEX
  8
0
 10
538.04846191
 20
316.1628418
 30
0.0
  0
VERTEX
  8
0
 10
538.3895874
 20
316.72665405
 30
0.0
  0
VERTEX
  8
0
 10
538.65197754
 20
317.30752563
 30
0.0
  0
VERTEX
  8
0
 10
538.98278809
 20
318.13623047
 30
0.0
  0
VERTEX
  8
0
 10
539.20062256
 20
318.70956421
 30
0.0
  0
VERTEX
  8
0
 10
539.43792725
 20
319.60525513
 30
0.0
  0
VERTEX
  8
0
 10
539.51959229
 20
320.17150879
 30
0.0
  0
VERTEX
  8
0
 10
539.75128174
 20
321.08148193
 30
0.0
  0
VERTEX
  8
0
 10
539.84716797
 20
322.03417969
 30
0.0
  0
VERTEX
  8
0
 10
539.90655518
 20
322.99758911
 30
0.0
  0
VERTEX
  8
0
 10
539.90759277
 20
323.96386719
 30
0.0
  0
VERTEX
  8
0
 10
539.84674072
 20
324.92160034
 30
0.0
  0
VERTEX
  8
0
 10
539.70025635
 20
325.84820557
 30
0.0
  0
VERTEX
  8
0
 10
539.58197021
 20
326.41384888
 30
0.0
  0
VERTEX
  8
0
 10
539.37701416
 20
327.32287598
 30
0.0
  0
VERTEX
  8
0
 10
539.15185547
 20
327.89596558
 30
0.0
  0
VERTEX
  8
0
 10
538.87359619
 20
328.75482178
 30
0.0
  0
VERTEX
  8
0
 10
538.59997559
 20
329.33050537
 30
0.0
  0
VERTEX
  8
0
 10
538.28930664
 20
329.91168213
 30
0.0
  0
VERTEX
  8
0
 10
537.92736816
 20
330.66726685
 30
0.0
  0
VERTEX
  8
0
 10
537.57403564
 20
331.22982788
 30
0.0
  0
VERTEX
  8
0
 10
537.16900635
 20
331.77340698
 30
0.0
  0
VERTEX
  8
0
 10
536.7434082
 20
332.30718994
 30
0.0
  0
VERTEX
  8
0
 10
536.30004883
 20
332.8352356
 30
0.0
  0
VERTEX
  8
0
 10
535.84539795
 20
333.349823
 30
0.0
  0
VERTEX
  8
0
 10
535.36627197
 20
333.85028076
 30
0.0
  0
VERTEX
  8
0
 10
534.86083984
 20
334.32723999
 30
0.0
  0
VERTEX
  8
0
 10
534.34094238
 20
334.77883911
 30
0.0
  0
VERTEX
  8
0
 10
533.81188965
 20
335.21090698
 30
0.0
  0
VERTEX
  8
0
 10
533.27557373
 20
335.61904907
 30
0.0
  0
VERTEX
  8
0
 10
532.72235107
 20
335.98696899
 30
0.0
  0
VERTEX
  8
0
 10
531.9720459
 20
336.36828613
 30
0.0
  0
VERTEX
  8
0
 10
531.39135742
 20
336.67364502
 30
0.0
  0
VERTEX
  8
0
 10
530.81634521
 20
336.92950439
 30
0.0
  0
VERTEX
  8
0
 10
529.96343994
 20
337.224823
 30
0.0
  0
VERTEX
  8
0
 10
529.39306641
 20
337.46533203
 30
0.0
  0
VERTEX
  8
0
 10
528.50567627
 20
337.71160889
 30
0.0
  0
VERTEX
  8
0
 10
527.5559082
 20
337.88082886
 30
0.0
  0
VERTEX
  8
0
 10
526.58325195
 20
338.00296021
 30
0.0
  0
VERTEX
  8
0
 10
525.59918213
 20
338.0826416
 30
0.0
  0
VERTEX
  8
0
 10
524.60552979
 20
338.06231689
 30
0.0
  0
VERTEX
  8
0
 10
523.61706543
 20
337.93548584
 30
0.0
  0
VERTEX
  8
0
 10
522.67614746
 20
337.7723999
 30
0.0
  0
VERTEX
  8
0
 10
522.0894165
 20
337.67651367
 30
0.0
  0
VERTEX
  8
0
 10
521.1907959
 20
337.38156128
 30
0.0
  0
VERTEX
  8
0
 10
520.56396484
 20
337.26119995
 30
0.0
  0
VERTEX
  8
0
 10
519.74389648
 20
336.85916138
 30
0.0
  0
VERTEX
  8
0
 10
519.15679932
 20
336.58303833
 30
0.0
  0
VERTEX
  8
0
 10
518.37103271
 20
336.22866821
 30
0.0
  0
VERTEX
  8
0
 10
517.81164551
 20
335.87341309
 30
0.0
  0
VERTEX
  8
0
 10
517.25720215
 20
335.49447632
 30
0.0
  0
VERTEX
  8
0
 10
516.69659424
 20
335.10717773
 30
0.0
  0
VERTEX
  8
0
 10
516.08758545
 20
334.65609741
 30
0.0
  0
VERTEX
  8
0
 10
515.58599854
 20
334.22680664
 30
0.0
  0
VERTEX
  8
0
 10
515.10882568
 20
333.75283813
 30
0.0
  0
VERTEX
  8
0
 10
514.66149902
 20
333.25100708
 30
0.0
  0
VERTEX
  8
0
 10
514.18945313
 20
332.68209839
 30
0.0
  0
VERTEX
  8
0
 10
513.76818848
 20
332.13833618
 30
0.0
  0
VERTEX
  8
0
 10
513.3604126
 20
331.59283447
 30
0.0
  0
VERTEX
  8
0
 10
512.97161865
 20
331.04623413
 30
0.0
  0
VERTEX
  8
0
 10
512.64215088
 20
330.48413086
 30
0.0
  0
VERTEX
  8
0
 10
512.29779053
 20
329.69256592
 30
0.0
  0
VERTEX
  8
0
 10
512.01525879
 20
329.12023926
 30
0.0
  0
VERTEX
  8
0
 10
511.74224854
 20
328.25445557
 30
0.0
  0
VERTEX
  8
0
 10
511.50265503
 20
327.68637085
 30
0.0
  0
VERTEX
  8
0
 10
511.29568481
 20
326.76818848
 30
0.0
  0
VERTEX
  8
0
 10
511.1199646
 20
325.8187561
 30
0.0
  0
VERTEX
  8
0
 10
510.9630127
 20
324.84463501
 30
0.0
  0
VERTEX
  8
0
 10
510.87057495
 20
323.84127808
 30
0.0
  0
VERTEX
  8
0
 10
510.93927002
 20
322.84371948
 30
0.0
  0
VERTEX
  8
0
 10
511.07019043
 20
321.86181641
 30
0.0
  0
VERTEX
  8
0
 10
511.23629761
 20
320.9130249
 30
0.0
  0
VERTEX
  8
0
 10
511.38934326
 20
319.98092651
 30
0.0
  0
VERTEX
  8
0
 10
511.5519104
 20
319.40634155
 30
0.0
  0
VERTEX
  8
0
 10
511.80886841
 20
318.51464844
 30
0.0
  0
VERTEX
  8
0
 10
512.05493164
 20
317.92825317
 30
0.0
  0
VERTEX
  8
0
 10
512.35046387
 20
317.09301758
 30
0.0
  0
VERTEX
  8
0
 10
512.68023682
 20
316.52676392
 30
0.0
  0
VERTEX
  8
0
 10
513.05480957
 20
315.95547485
 30
0.0
  0
VERTEX
  8
0
 10
513.42102051
 20
315.37985229
 30
0.0
  0
VERTEX
  8
0
 10
513.84082031
 20
314.73114014
 30
0.0
  0
SEQEND
  0
ENDSEC
  0
SECTION
  2
OBJECTS
  0
ENDSEC
  0
EOF
