999
DXF file created by HALCON
  0
SECTION
  2
HEADER
  9
$ACADVER
  1
AC1009
  0
ENDSEC
  0
SECTION
  2
TABLES
  0
TABLE
  2
LTYPE
 70
1
  0
LTYPE
  2
CONTINUOUS
 70
0
  3
Solid line
 72
65
 73
0
 40
0
  0
ENDTAB
  0
TABLE
  2
LAYER
 70
1
  0
LAYER
  2
0
 70
0
 62
7
  6
CONTINUOUS
  0
ENDTAB
  0
TABLE
  2
APPID
 70
2
  0
APPID
  2
ACAD
 70
64
  0
APPID
  2
HALCON
 70
64
  0
ENDTAB
  0
ENDSEC
  0
SECTION
  2
BLOCKS
  0
ENDSEC
  0
SECTION
  2
ENTITIES
  0
POLYLINE
  8
0
 66
1
 10
0.0
 20
0.0
 30
0.0
 70
0
  0
VERTEX
  8
0
 10
298.01800537
 20
72.48938751
 30
0.0
  0
VERTEX
  8
0
 10
299.00253296
 20
72.44400787
 30
0.0
  0
VERTEX
  8
0
 10
299.98696899
 20
72.4371109
 30
0.0
  0
VERTEX
  8
0
 10
300.98666382
 20
72.45626831
 30
0.0
  0
VERTEX
  8
0
 10
301.98010254
 20
72.49391937
 30
0.0
  0
VERTEX
  8
0
 10
303.02050781
 20
72.55767822
 30
0.0
  0
VERTEX
  8
0
 10
304.02807617
 20
72.65433502
 30
0.0
  0
VERTEX
  8
0
 10
305.03079224
 20
72.80323792
 30
0.0
  0
VERTEX
  8
0
 10
305.98141479
 20
73.03214264
 30
0.0
  0
VERTEX
  8
0
 10
307.18557739
 20
73.81498718
 30
0.0
  0
VERTEX
  8
0
 10
307.88439941
 20
75.02458191
 30
0.0
  0
VERTEX
  8
0
 10
308.04388428
 20
75.99001312
 30
0.0
  0
VERTEX
  8
0
 10
308.12387085
 20
76.98692322
 30
0.0
  0
VERTEX
  8
0
 10
308.17254639
 20
77.98767853
 30
0.0
  0
VERTEX
  8
0
 10
308.20944214
 20
78.98734283
 30
0.0
  0
VERTEX
  8
0
 10
308.25372314
 20
79.9818573
 30
0.0
  0
VERTEX
  8
0
 10
308.33511353
 20
80.96120453
 30
0.0
  0
VERTEX
  8
0
 10
308.51467896
 20
81.9131012
 30
0.0
  0
VERTEX
  8
0
 10
308.84280396
 20
83.04453278
 30
0.0
  0
VERTEX
  8
0
 10
309.39413452
 20
84.48429108
 30
0.0
  0
VERTEX
  8
0
 10
310.62088013
 20
85.56596375
 30
0.0
  0
VERTEX
  8
0
 10
311.91821289
 20
86.16123199
 30
0.0
  0
VERTEX
  8
0
 10
313.08953857
 20
86.76237488
 30
0.0
  0
VERTEX
  8
0
 10
313.96395874
 20
87.07844543
 30
0.0
  0
VERTEX
  8
0
 10
315.12872314
 20
87.59214783
 30
0.0
  0
VERTEX
  8
0
 10
316.03210449
 20
87.85540009
 30
0.0
  0
VERTEX
  8
0
 10
316.99725342
 20
87.98448181
 30
0.0
  0
VERTEX
  8
0
 10
317.99633789
 20
88.00034332
 30
0.0
  0
VERTEX
  8
0
 10
318.96432495
 20
87.87676239
 30
0.0
  0
VERTEX
  8
0
 10
319.79431152
 20
87.58933258
 30
0.0
  0
VERTEX
  8
0
 10
320.89004517
 20
86.86526489
 30
0.0
  0
VERTEX
  8
0
 10
321.92776489
 20
85.92273712
 30
0.0
  0
VERTEX
  8
0
 10
322.93826294
 20
84.93469238
 30
0.0
  0
VERTEX
  8
0
 10
323.97640991
 20
83.97297668
 30
0.0
  0
VERTEX
  8
0
 10
324.52453613
 20
83.36087036
 30
0.0
  0
VERTEX
  8
0
 10
325.94958496
 20
82.82097626
 30
0.0
  0
VERTEX
  8
0
 10
327.02749634
 20
82.76965332
 30
0.0
  0
VERTEX
  8
0
 10
327.99865723
 20
82.99154663
 30
0.0
  0
VERTEX
  8
0
 10
329.18640137
 20
83.70935822
 30
0.0
  0
VERTEX
  8
0
 10
330.38977051
 20
84.46782684
 30
0.0
  0
VERTEX
  8
0
 10
330.98446655
 20
85.0114212
 30
0.0
  0
VERTEX
  8
0
 10
332.04266357
 20
85.94461823
 30
0.0
  0
VERTEX
  8
0
 10
333.07211304
 20
86.91857147
 30
0.0
  0
VERTEX
  8
0
 10
334.0836792
 20
87.90815735
 30
0.0
  0
VERTEX
  8
0
 10
335.06567383
 20
88.93269348
 30
0.0
  0
VERTEX
  8
0
 10
336.02865601
 20
89.96940613
 30
0.0
  0
VERTEX
  8
0
 10
336.93115234
 20
91.04458618
 30
0.0
  0
VERTEX
  8
0
 10
337.59960938
 20
92.18392944
 30
0.0
  0
VERTEX
  8
0
 10
337.86941528
 20
93.02301788
 30
0.0
  0
VERTEX
  8
0
 10
337.92245483
 20
93.99123383
 30
0.0
  0
VERTEX
  8
0
 10
337.77203369
 20
94.91269684
 30
0.0
  0
VERTEX
  8
0
 10
337.29421997
 20
95.5608902
 30
0.0
  0
VERTEX
  8
0
 10
336.63873291
 20
96.67926788
 30
0.0
  0
VERTEX
  8
0
 10
335.71002197
 20
97.7183075
 30
0.0
  0
VERTEX
  8
0
 10
334.70419312
 20
98.71956635
 30
0.0
  0
VERTEX
  8
0
 10
333.74880981
 20
99.78774261
 30
0.0
  0
VERTEX
  8
0
 10
332.91827393
 20
100.95215607
 30
0.0
  0
VERTEX
  8
0
 10
332.41506958
 20
102.10432434
 30
0.0
  0
VERTEX
  8
0
 10
332.24984741
 20
103.01338959
 30
0.0
  0
VERTEX
  8
0
 10
332.25292969
 20
103.96881866
 30
0.0
  0
VERTEX
  8
0
 10
332.41357422
 20
104.90564728
 30
0.0
  0
VERTEX
  8
0
 10
332.80389404
 20
106.05990601
 30
0.0
  0
VERTEX
  8
0
 10
333.08346558
 20
106.96589661
 30
0.0
  0
VERTEX
  8
0
 10
333.59857178
 20
108.16754913
 30
0.0
  0
VERTEX
  8
0
 10
333.98110962
 20
109.00489807
 30
0.0
  0
VERTEX
  8
0
 10
334.64996338
 20
110.22673798
 30
0.0
  0
VERTEX
  8
0
 10
335.60812378
 20
111.44039917
 30
0.0
  0
VERTEX
  8
0
 10
336.91757202
 20
112.17327881
 30
0.0
  0
VERTEX
  8
0
 10
338.08514404
 20
112.6100769
 30
0.0
  0
VERTEX
  8
0
 10
339.01605225
 20
112.77892303
 30
0.0
  0
VERTEX
  8
0
 10
339.99841309
 20
112.84753418
 30
0.0
  0
VERTEX
  8
0
 10
340.99389648
 20
112.86236572
 30
0.0
  0
VERTEX
  8
0
 10
341.9977417
 20
112.86597443
 30
0.0
  0
VERTEX
  8
0
 10
343.00335693
 20
112.90595245
 30
0.0
  0
VERTEX
  8
0
 10
343.99279785
 20
113.02942657
 30
0.0
  0
VERTEX
  8
0
 10
345.3296814
 20
113.4704361
 30
0.0
  0
VERTEX
  8
0
 10
346.39282227
 20
114.82597351
 30
0.0
  0
VERTEX
  8
0
 10
346.79876709
 20
116.03083038
 30
0.0
  0
VERTEX
  8
0
 10
346.93170166
 20
117.00536346
 30
0.0
  0
VERTEX
  8
0
 10
347.01483154
 20
117.99691772
 30
0.0
  0
VERTEX
  8
0
 10
347.07962036
 20
118.99337769
 30
0.0
  0
VERTEX
  8
0
 10
347.13290405
 20
119.9908371
 30
0.0
  0
VERTEX
  8
0
 10
347.16781616
 20
120.99144745
 30
0.0
  0
VERTEX
  8
0
 10
347.17962646
 20
121.99954987
 30
0.0
  0
VERTEX
  8
0
 10
347.16870117
 20
123.00392914
 30
0.0
  0
VERTEX
  8
0
 10
347.13616943
 20
124.00506592
 30
0.0
  0
VERTEX
  8
0
 10
347.08206177
 20
125.00569153
 30
0.0
  0
VERTEX
  8
0
 10
347.00201416
 20
125.99931335
 30
0.0
  0
VERTEX
  8
0
 10
346.88342285
 20
126.98144531
 30
0.0
  0
VERTEX
  8
0
 10
346.68859863
 20
127.92212677
 30
0.0
  0
VERTEX
  8
0
 10
346.14083862
 20
129.09249878
 30
0.0
  0
VERTEX
  8
0
 10
345.03341675
 20
130.07122803
 30
0.0
  0
VERTEX
  8
0
 10
344.07998657
 20
130.36471558
 30
0.0
  0
VERTEX
  8
0
 10
342.95828247
 20
130.56797791
 30
0.0
  0
VERTEX
  8
0
 10
341.98324585
 20
130.67578125
 30
0.0
  0
VERTEX
  8
0
 10
340.99337769
 20
130.74351501
 30
0.0
  0
VERTEX
  8
0
 10
339.98864746
 20
130.79304504
 30
0.0
  0
VERTEX
  8
0
 10
338.98822021
 20
130.84083557
 30
0.0
  0
VERTEX
  8
0
 10
337.9911499
 20
130.91384888
 30
0.0
  0
VERTEX
  8
0
 10
337.00643921
 20
131.05055237
 30
0.0
  0
VERTEX
  8
0
 10
335.6895752
 20
131.47822571
 30
0.0
  0
VERTEX
  8
0
 10
334.44360352
 20
132.62110901
 30
0.0
  0
VERTEX
  8
0
 10
333.81298828
 20
133.90478516
 30
0.0
  0
VERTEX
  8
0
 10
333.16122437
 20
135.07395935
 30
0.0
  0
VERTEX
  8
0
 10
332.82650757
 20
135.92860413
 30
0.0
  0
VERTEX
  8
0
 10
332.27508545
 20
137.0965271
 30
0.0
  0
VERTEX
  8
0
 10
332.00842285
 20
138.00308228
 30
0.0
  0
VERTEX
  8
0
 10
331.80899048
 20
138.95840454
 30
0.0
  0
VERTEX
  8
0
 10
331.68399048
 20
139.97685242
 30
0.0
  0
VERTEX
  8
0
 10
331.74108887
 20
141.04573059
 30
0.0
  0
VERTEX
  8
0
 10
331.96591187
 20
142.01300049
 30
0.0
  0
VERTEX
  8
0
 10
332.62411499
 20
143.26184082
 30
0.0
  0
VERTEX
  8
0
 10
333.54000854
 20
144.43742371
 30
0.0
  0
VERTEX
  8
0
 10
334.58883667
 20
145.4299469
 30
0.0
  0
VERTEX
  8
0
 10
335.56048584
 20
146.41149902
 30
0.0
  0
VERTEX
  8
0
 10
336.05587769
 20
146.9549408
 30
0.0
  0
VERTEX
  8
0
 10
336.77822876
 20
148.09754944
 30
0.0
  0
VERTEX
  8
0
 10
336.99038696
 20
149.00167847
 30
0.0
  0
VERTEX
  8
0
 10
336.99551392
 20
150.00048828
 30
0.0
  0
VERTEX
  8
0
 10
336.79537964
 20
150.91313171
 30
0.0
  0
VERTEX
  8
0
 10
336.07092285
 20
152.05491638
 30
0.0
  0
VERTEX
  8
0
 10
335.57952881
 20
152.66949463
 30
0.0
  0
VERTEX
  8
0
 10
334.71807861
 20
153.75170898
 30
0.0
  0
VERTEX
  8
0
 10
333.79141235
 20
154.81388855
 30
0.0
  0
VERTEX
  8
0
 10
332.81958008
 20
155.80987549
 30
0.0
  0
VERTEX
  8
0
 10
331.78393555
 20
156.77825928
 30
0.0
  0
VERTEX
  8
0
 10
330.73019409
 20
157.67967224
 30
0.0
  0
VERTEX
  8
0
 10
329.60372925
 20
158.48432922
 30
0.0
  0
VERTEX
  8
0
 10
328.98440552
 20
158.9823761
 30
0.0
  0
VERTEX
  8
0
 10
327.84246826
 20
159.46450806
 30
0.0
  0
VERTEX
  8
0
 10
326.99209595
 20
159.64247131
 30
0.0
  0
VERTEX
  8
0
 10
326.04272461
 20
159.62937927
 30
0.0
  0
VERTEX
  8
0
 10
324.90591431
 20
159.39987183
 30
0.0
  0
VERTEX
  8
0
 10
323.96502686
 20
159.09329224
 30
0.0
  0
VERTEX
  8
0
 10
323.12606812
 20
158.76260376
 30
0.0
  0
VERTEX
  8
0
 10
321.99810791
 20
157.99847412
 30
0.0
  0
VERTEX
  8
0
 10
321.53921509
 20
157.40708923
 30
0.0
  0
VERTEX
  8
0
 10
320.50152588
 20
156.47302246
 30
0.0
  0
VERTEX
  8
0
 10
319.35235596
 20
155.57049561
 30
0.0
  0
VERTEX
  8
0
 10
318.07962036
 20
154.82054138
 30
0.0
  0
VERTEX
  8
0
 10
316.94436646
 20
154.45898438
 30
0.0
  0
VERTEX
  8
0
 10
316.04626465
 20
154.43727112
 30
0.0
  0
VERTEX
  8
0
 10
314.90713501
 20
154.71533203
 30
0.0
  0
VERTEX
  8
0
 10
313.99569702
 20
155.00201416
 30
0.0
  0
VERTEX
  8
0
 10
313.11181641
 20
155.3192749
 30
0.0
  0
VERTEX
  8
0
 10
311.94116211
 20
155.86607361
 30
0.0
  0
VERTEX
  8
0
 10
311.07821655
 20
156.19137573
 30
0.0
  0
VERTEX
  8
0
 10
309.91021729
 20
156.82852173
 30
0.0
  0
VERTEX
  8
0
 10
308.64846802
 20
157.57281494
 30
0.0
  0
VERTEX
  8
0
 10
307.7361145
 20
158.87774658
 30
0.0
  0
VERTEX
  8
0
 10
307.27697754
 20
160.05458069
 30
0.0
  0
VERTEX
  8
0
 10
307.12164307
 20
161.01394653
 30
0.0
  0
VERTEX
  8
0
 10
307.04238892
 20
162.00457764
 30
0.0
  0
VERTEX
  8
0
 10
307.00311279
 20
163.00169373
 30
0.0
  0
VERTEX
  8
0
 10
306.98486328
 20
164.00166321
 30
0.0
  0
VERTEX
  8
0
 10
306.97161865
 20
165.00144958
 30
0.0
  0
VERTEX
  8
0
 10
306.94174194
 20
165.99960327
 30
0.0
  0
VERTEX
  8
0
 10
306.83718872
 20
166.97741699
 30
0.0
  0
VERTEX
  8
0
 10
306.5932312
 20
167.81524658
 30
0.0
  0
VERTEX
  8
0
 10
305.83258057
 20
168.80131531
 30
0.0
  0
VERTEX
  8
0
 10
305.06756592
 20
169.17601013
 30
0.0
  0
VERTEX
  8
0
 10
303.92211914
 20
169.56039429
 30
0.0
  0
VERTEX
  8
0
 10
302.97177124
 20
169.71316528
 30
0.0
  0
VERTEX
  8
0
 10
301.98022461
 20
169.80387878
 30
0.0
  0
VERTEX
  8
0
 10
300.98355103
 20
169.87115479
 30
0.0
  0
VERTEX
  8
0
 10
299.99127197
 20
169.91409302
 30
0.0
  0
VERTEX
  8
0
 10
298.9956665
 20
169.9276886
 30
0.0
  0
VERTEX
  8
0
 10
297.99752808
 20
169.90945435
 30
0.0
  0
VERTEX
  8
0
 10
296.99966431
 20
169.87168884
 30
0.0
  0
VERTEX
  8
0
 10
296.00280762
 20
169.82209778
 30
0.0
  0
VERTEX
  8
0
 10
295.00994873
 20
169.76036072
 30
0.0
  0
VERTEX
  8
0
 10
294.02935791
 20
169.67332458
 30
0.0
  0
VERTEX
  8
0
 10
293.06674194
 20
169.53775024
 30
0.0
  0
VERTEX
  8
0
 10
291.92672729
 20
169.26412964
 30
0.0
  0
VERTEX
  8
0
 10
291.01705933
 20
168.95272827
 30
0.0
  0
VERTEX
  8
0
 10
289.88952637
 20
168.08912659
 30
0.0
  0
VERTEX
  8
0
 10
289.24313354
 20
166.92663574
 30
0.0
  0
VERTEX
  8
0
 10
289.06430054
 20
165.99380493
 30
0.0
  0
VERTEX
  8
0
 10
288.98388672
 20
165.00177002
 30
0.0
  0
VERTEX
  8
0
 10
288.94213867
 20
164.00382996
 30
0.0
  0
VERTEX
  8
0
 10
288.90625
 20
163.00630188
 30
0.0
  0
VERTEX
  8
0
 10
288.87051392
 20
162.00447083
 30
0.0
  0
VERTEX
  8
0
 10
288.8241272
 20
161.0090332
 30
0.0
  0
VERTEX
  8
0
 10
288.73727417
 20
160.03453064
 30
0.0
  0
VERTEX
  8
0
 10
288.54336548
 20
159.09806824
 30
0.0
  0
VERTEX
  8
0
 10
288.08029175
 20
157.95262146
 30
0.0
  0
VERTEX
  8
0
 10
287.08297729
 20
156.86875916
 30
0.0
  0
VERTEX
  8
0
 10
285.91467285
 20
156.17837524
 30
0.0
  0
VERTEX
  8
0
 10
285.05032349
 20
155.85688782
 30
0.0
  0
VERTEX
  8
0
 10
283.87863159
 20
155.29943848
 30
0.0
  0
VERTEX
  8
0
 10
282.99911499
 20
154.98396301
 30
0.0
  0
VERTEX
  8
0
 10
282.09326172
 20
154.68891907
 30
0.0
  0
VERTEX
  8
0
 10
280.93331909
 20
154.37316895
 30
0.0
  0
VERTEX
  8
0
 10
279.99740601
 20
154.30714417
 30
0.0
  0
VERTEX
  8
0
 10
279.0456543
 20
154.38624573
 30
0.0
  0
VERTEX
  8
0
 10
277.89862061
 20
154.73266602
 30
0.0
  0
VERTEX
  8
0
 10
277.04562378
 20
155.08695984
 30
0.0
  0
VERTEX
  8
0
 10
275.9548645
 20
155.95948792
 30
0.0
  0
VERTEX
  8
0
 10
274.93917847
 20
156.95011902
 30
0.0
  0
VERTEX
  8
0
 10
273.96228027
 20
157.97145081
 30
0.0
  0
VERTEX
  8
0
 10
272.95755005
 20
158.96380615
 30
0.0
  0
VERTEX
  8
0
 10
271.87173462
 20
159.8120575
 30
0.0
  0
VERTEX
  8
0
 10
271.00967407
 20
160.06719971
 30
0.0
  0
VERTEX
  8
0
 10
269.97210693
 20
160.10224915
 30
0.0
  0
VERTEX
  8
0
 10
269.04885864
 20
159.89631653
 30
0.0
  0
VERTEX
  8
0
 10
267.89373779
 20
159.12695313
 30
0.0
  0
VERTEX
  8
0
 10
266.7963562
 20
158.23738098
 30
0.0
  0
VERTEX
  8
0
 10
265.7114563
 20
157.31066895
 30
0.0
  0
VERTEX
  8
0
 10
264.6791687
 20
156.31570435
 30
0.0
  0
VERTEX
  8
0
 10
263.69119263
 20
155.28105164
 30
0.0
  0
VERTEX
  8
0
 10
262.69903564
 20
154.25724792
 30
0.0
  0
VERTEX
  8
0
 10
261.77050781
 20
153.18188477
 30
0.0
  0
VERTEX
  8
0
 10
260.87844849
 20
152.08738708
 30
0.0
  0
VERTEX
  8
0
 10
260.03869629
 20
150.9692688
 30
0.0
  0
VERTEX
  8
0
 10
259.58126831
 20
150.22859192
 30
0.0
  0
VERTEX
  8
0
 10
259.10778809
 20
148.97547913
 30
0.0
  0
VERTEX
  8
0
 10
259.0921936
 20
148.0136261
 30
0.0
  0
VERTEX
  8
0
 10
259.4225769
 20
146.70547485
 30
0.0
  0
VERTEX
  8
0
 10
259.95748901
 20
145.97543335
 30
0.0
  0
VERTEX
  8
0
 10
260.87139893
 20
144.890625
 30
0.0
  0
VERTEX
  8
0
 10
261.83242798
 20
143.85063171
 30
0.0
  0
VERTEX
  8
0
 10
262.77740479
 20
142.81945801
 30
0.0
  0
VERTEX
  8
0
 10
263.60580444
 20
141.75053406
 30
0.0
  0
VERTEX
  8
0
 10
264.05661011
 20
141.03581238
 30
0.0
  0
VERTEX
  8
0
 10
264.66751099
 20
139.87210083
 30
0.0
  0
VERTEX
  8
0
 10
264.85656738
 20
138.98271179
 30
0.0
  0
VERTEX
  8
0
 10
264.87155151
 20
138.01434326
 30
0.0
  0
VERTEX
  8
0
 10
264.72396851
 20
137.06791687
 30
0.0
  0
VERTEX
  8
0
 10
264.27539063
 20
135.88975525
 30
0.0
  0
VERTEX
  8
0
 10
263.97000122
 20
135.00700378
 30
0.0
  0
VERTEX
  8
0
 10
263.6428833
 20
134.13450623
 30
0.0
  0
VERTEX
  8
0
 10
263.06054688
 20
132.96650696
 30
0.0
  0
VERTEX
  8
0
 10
262.41146851
 20
131.73181152
 30
0.0
  0
VERTEX
  8
0
 10
261.3399353
 20
130.49607849
 30
0.0
  0
VERTEX
  8
0
 10
259.99203491
 20
129.99565125
 30
0.0
  0
VERTEX
  8
0
 10
259.01016235
 20
129.8223877
 30
0.0
  0
VERTEX
  8
0
 10
258.00619507
 20
129.72451782
 30
0.0
  0
VERTEX
  8
0
 10
256.99273682
 20
129.69165039
 30
0.0
  0
VERTEX
  8
0
 10
255.98442078
 20
129.69915771
 30
0.0
  0
VERTEX
  8
0
 10
254.9908905
 20
129.70707703
 30
0.0
  0
VERTEX
  8
0
 10
254.0012207
 20
129.67788696
 30
0.0
  0
VERTEX
  8
0
 10
253.04118347
 20
129.55728149
 30
0.0
  0
VERTEX
  8
0
 10
251.9032135
 20
129.19317627
 30
0.0
  0
VERTEX
  8
0
 10
250.73858643
 20
128.13774109
 30
0.0
  0
VERTEX
  8
0
 10
250.23371887
 20
126.94580841
 30
0.0
  0
VERTEX
  8
0
 10
250.06190491
 20
125.98770142
 30
0.0
  0
VERTEX
  8
0
 10
249.95185852
 20
125.00198364
 30
0.0
  0
VERTEX
  8
0
 10
249.88391113
 20
124.00522614
 30
0.0
  0
VERTEX
  8
0
 10
249.84336853
 20
123.00034332
 30
0.0
  0
VERTEX
  8
0
 10
249.82302856
 20
122.00147247
 30
0.0
  0
VERTEX
  8
0
 10
249.81822205
 20
120.9979248
 30
0.0
  0
VERTEX
  8
0
 10
249.83166504
 20
119.99111938
 30
0.0
  0
VERTEX
  8
0
 10
249.85720825
 20
118.99145508
 30
0.0
  0
VERTEX
  8
0
 10
249.89642334
 20
117.99320984
 30
0.0
  0
VERTEX
  8
0
 10
249.94749451
 20
116.99465179
 30
0.0
  0
VERTEX
  8
0
 10
250.0322876
 20
116.00283051
 30
0.0
  0
VERTEX
  8
0
 10
250.17935181
 20
115.03479767
 30
0.0
  0
VERTEX
  8
0
 10
250.46243286
 20
114.13718414
 30
0.0
  0
VERTEX
  8
0
 10
250.9775238
 20
112.98862457
 30
0.0
  0
VERTEX
  8
0
 10
251.98117065
 20
111.98274994
 30
0.0
  0
VERTEX
  8
0
 10
252.87149048
 20
111.62998962
 30
0.0
  0
VERTEX
  8
0
 10
254.01899719
 20
111.35001373
 30
0.0
  0
VERTEX
  8
0
 10
254.99682617
 20
111.26051331
 30
0.0
  0
VERTEX
  8
0
 10
255.99714661
 20
111.22138977
 30
0.0
  0
VERTEX
  8
0
 10
256.9942627
 20
111.19045258
 30
0.0
  0
VERTEX
  8
0
 10
258.00030518
 20
111.13907623
 30
0.0
  0
VERTEX
  8
0
 10
258.99807739
 20
111.04288483
 30
0.0
  0
VERTEX
  8
0
 10
259.96774292
 20
110.89080048
 30
0.0
  0
VERTEX
  8
0
 10
260.87365723
 20
110.63962555
 30
0.0
  0
VERTEX
  8
0
 10
261.99176025
 20
109.99742126
 30
0.0
  0
VERTEX
  8
0
 10
262.9475708
 20
108.96871185
 30
0.0
  0
VERTEX
  8
0
 10
263.63894653
 20
107.83335876
 30
0.0
  0
VERTEX
  8
0
 10
263.99197388
 20
106.99703217
 30
0.0
  0
VERTEX
  8
0
 10
264.53414917
 20
105.7999115
 30
0.0
  0
VERTEX
  8
0
 10
264.90737915
 20
104.96346283
 30
0.0
  0
VERTEX
  8
0
 10
265.19882202
 20
104.06646729
 30
0.0
  0
VERTEX
  8
0
 10
265.56506348
 20
102.91498566
 30
0.0
  0
VERTEX
  8
0
 10
265.63943481
 20
102.00208282
 30
0.0
  0
VERTEX
  8
0
 10
265.48834229
 20
101.13114929
 30
0.0
  0
VERTEX
  8
0
 10
264.97116089
 20
100.01000214
 30
0.0
  0
VERTEX
  8
0
 10
264.44918823
 20
99.45892334
 30
0.0
  0
VERTEX
  8
0
 10
263.55233765
 20
98.41751099
 30
0.0
  0
VERTEX
  8
0
 10
262.56707764
 20
97.41721344
 30
0.0
  0
VERTEX
  8
0
 10
261.55871582
 20
96.42533112
 30
0.0
  0
VERTEX
  8
0
 10
260.55407715
 20
95.36168671
 30
0.0
  0
VERTEX
  8
0
 10
259.86572266
 20
94.04238892
 30
0.0
  0
VERTEX
  8
0
 10
259.76159668
 20
92.98229218
 30
0.0
  0
VERTEX
  8
0
 10
259.94293213
 20
91.97515869
 30
0.0
  0
VERTEX
  8
0
 10
260.59552002
 20
90.73531342
 30
0.0
  0
VERTEX
  8
0
 10
261.34124756
 20
89.48911285
 30
0.0
  0
VERTEX
  8
0
 10
261.95697021
 20
88.96768951
 30
0.0
  0
VERTEX
  8
0
 10
262.89624023
 20
87.91099548
 30
0.0
  0
VERTEX
  8
0
 10
263.84606934
 20
86.86156464
 30
0.0
  0
VERTEX
  8
0
 10
264.84738159
 20
85.84015656
 30
0.0
  0
VERTEX
  8
0
 10
265.902771
 20
84.89490509
 30
0.0
  0
VERTEX
  8
0
 10
266.94067383
 20
83.93704987
 30
0.0
  0
VERTEX
  8
0
 10
267.9960022
 20
82.9997406
 30
0.0
  0
VERTEX
  8
0
 10
268.5949707
 20
82.44232178
 30
0.0
  0
VERTEX
  8
0
 10
269.91390991
 20
81.80743408
 30
0.0
  0
VERTEX
  8
0
 10
271.02661133
 20
81.63278198
 30
0.0
  0
VERTEX
  8
0
 10
272.07479858
 20
81.74671173
 30
0.0
  0
VERTEX
  8
0
 10
272.94955444
 20
82.06188202
 30
0.0
  0
VERTEX
  8
0
 10
274.05480957
 20
82.9240799
 30
0.0
  0
VERTEX
  8
0
 10
275.09399414
 20
83.88536835
 30
0.0
  0
VERTEX
  8
0
 10
276.11972046
 20
84.85637665
 30
0.0
  0
VERTEX
  8
0
 10
277.16485596
 20
85.77661133
 30
0.0
  0
VERTEX
  8
0
 10
278.28103638
 20
86.46305847
 30
0.0
  0
VERTEX
  8
0
 10
279.04251099
 20
86.85798645
 30
0.0
  0
VERTEX
  8
0
 10
279.97186279
 20
87.09233093
 30
0.0
  0
VERTEX
  8
0
 10
280.97631836
 20
87.2223587
 30
0.0
  0
VERTEX
  8
0
 10
282.01589966
 20
87.18631744
 30
0.0
  0
VERTEX
  8
0
 10
282.9989624
 20
87.0160675
 30
0.0
  0
VERTEX
  8
0
 10
283.91668701
 20
86.77051544
 30
0.0
  0
VERTEX
  8
0
 10
285.09585571
 20
86.25844574
 30
0.0
  0
VERTEX
  8
0
 10
285.96981812
 20
85.9378891
 30
0.0
  0
VERTEX
  8
0
 10
286.81115723
 20
85.58163452
 30
0.0
  0
VERTEX
  8
0
 10
287.96450806
 20
84.94748688
 30
0.0
  0
VERTEX
  8
0
 10
289.02877808
 20
84.02481079
 30
0.0
  0
VERTEX
  8
0
 10
289.6723938
 20
82.90130615
 30
0.0
  0
VERTEX
  8
0
 10
289.85552979
 20
81.98095703
 30
0.0
  0
VERTEX
  8
0
 10
289.93170166
 20
80.99349213
 30
0.0
  0
VERTEX
  8
0
 10
289.96762085
 20
79.99432373
 30
0.0
  0
VERTEX
  8
0
 10
289.99160767
 20
78.99478912
 30
0.0
  0
VERTEX
  8
0
 10
290.00430298
 20
77.99494934
 30
0.0
  0
VERTEX
  8
0
 10
290.01773071
 20
76.99488831
 30
0.0
  0
VERTEX
  8
0
 10
290.07662964
 20
76.00200653
 30
0.0
  0
VERTEX
  8
0
 10
290.24862671
 20
75.05683899
 30
0.0
  0
VERTEX
  8
0
 10
290.89923096
 20
73.90426636
 30
0.0
  0
VERTEX
  8
0
 10
292.05007935
 20
73.17272949
 30
0.0
  0
VERTEX
  8
0
 10
292.98880005
 20
72.9654007
 30
0.0
  0
VERTEX
  8
0
 10
293.97091675
 20
72.83794403
 30
0.0
  0
VERTEX
  8
0
 10
294.9670105
 20
72.73845673
 30
0.0
  0
VERTEX
  8
0
 10
295.97097778
 20
72.65270996
 30
0.0
  0
VERTEX
  8
0
 10
296.97463989
 20
72.56723022
 30
0.0
  0
VERTEX
  8
0
 10
298.01800537
 20
72.48938751
 30
0.0
  0
SEQEND
  0
POLYLINE
  8
0
 66
1
 10
0.0
 20
0.0
 30
0.0
 70
0
  0
VERTEX
  8
0
 10
295.04754639
 20
94.49009705
 30
0.0
  0
VERTEX
  8
0
 10
296.02758789
 20
94.36035156
 30
0.0
  0
VERTEX
  8
0
 10
297.00674438
 20
94.29190826
 30
0.0
  0
VERTEX
  8
0
 10
297.9944458
 20
94.26556396
 30
0.0
  0
VERTEX
  8
0
 10
298.98568726
 20
94.27635956
 30
0.0
  0
VERTEX
  8
0
 10
299.97528076
 20
94.32457733
 30
0.0
  0
VERTEX
  8
0
 10
300.95446777
 20
94.42663574
 30
0.0
  0
VERTEX
  8
0
 10
302.05810547
 20
94.62844849
 30
0.0
  0
VERTEX
  8
0
 10
303.03091431
 20
94.81389618
 30
0.0
  0
VERTEX
  8
0
 10
303.99746704
 20
94.98266602
 30
0.0
  0
VERTEX
  8
0
 10
304.95861816
 20
95.15987396
 30
0.0
  0
VERTEX
  8
0
 10
305.87884521
 20
95.41754913
 30
0.0
  0
VERTEX
  8
0
 10
307.04351807
 20
95.85430145
 30
0.0
  0
VERTEX
  8
0
 10
307.94070435
 20
96.13933563
 30
0.0
  0
VERTEX
  8
0
 10
309.13494873
 20
96.6743927
 30
0.0
  0
VERTEX
  8
0
 10
309.96868896
 20
97.05102539
 30
0.0
  0
VERTEX
  8
0
 10
311.15206909
 20
97.70666504
 30
0.0
  0
VERTEX
  8
0
 10
311.92929077
 20
98.11032104
 30
0.0
  0
VERTEX
  8
0
 10
313.06533813
 20
98.88961792
 30
0.0
  0
VERTEX
  8
0
 10
314.21374512
 20
99.71179962
 30
0.0
  0
VERTEX
  8
0
 10
315.35855103
 20
100.57889557
 30
0.0
  0
VERTEX
  8
0
 10
316.43615723
 20
101.5414505
 30
0.0
  0
VERTEX
  8
0
 10
317.42572021
 20
102.6233139
 30
0.0
  0
VERTEX
  8
0
 10
318.32440186
 20
103.72805786
 30
0.0
  0
VERTEX
  8
0
 10
319.2010498
 20
104.83392334
 30
0.0
  0
VERTEX
  8
0
 10
320.06674194
 20
105.94776917
 30
0.0
  0
VERTEX
  8
0
 10
320.83630371
 20
107.08306885
 30
0.0
  0
VERTEX
  8
0
 10
321.41918945
 20
108.29336548
 30
0.0
  0
VERTEX
  8
0
 10
321.88659668
 20
109.04776001
 30
0.0
  0
VERTEX
  8
0
 10
322.23306274
 20
109.89562988
 30
0.0
  0
VERTEX
  8
0
 10
322.7984314
 20
111.0719223
 30
0.0
  0
VERTEX
  8
0
 10
323.08978271
 20
111.96521759
 30
0.0
  0
VERTEX
  8
0
 10
323.5241394
 20
113.126297
 30
0.0
  0
VERTEX
  8
0
 10
323.81164551
 20
114.04080963
 30
0.0
  0
VERTEX
  8
0
 10
323.99630737
 20
114.9979248
 30
0.0
  0
VERTEX
  8
0
 10
324.15856934
 20
115.97027588
 30
0.0
  0
VERTEX
  8
0
 10
324.32492065
 20
116.95656586
 30
0.0
  0
VERTEX
  8
0
 10
324.50765991
 20
118.04042053
 30
0.0
  0
VERTEX
  8
0
 10
324.61605835
 20
119.0217514
 30
0.0
  0
VERTEX
  8
0
 10
324.66400146
 20
120.00495148
 30
0.0
  0
VERTEX
  8
0
 10
324.66619873
 20
120.99184418
 30
0.0
  0
VERTEX
  8
0
 10
324.62527466
 20
121.97981262
 30
0.0
  0
VERTEX
  8
0
 10
324.54086304
 20
122.96257782
 30
0.0
  0
VERTEX
  8
0
 10
324.3855896
 20
124.04369354
 30
0.0
  0
VERTEX
  8
0
 10
324.21685791
 20
125.03564453
 30
0.0
  0
VERTEX
  8
0
 10
324.04702759
 20
126.00941467
 30
0.0
  0
VERTEX
  8
0
 10
323.86602783
 20
126.96913147
 30
0.0
  0
VERTEX
  8
0
 10
323.61917114
 20
127.90021515
 30
0.0
  0
VERTEX
  8
0
 10
323.19070435
 20
129.06117249
 30
0.0
  0
VERTEX
  8
0
 10
322.91516113
 20
129.96946716
 30
0.0
  0
VERTEX
  8
0
 10
322.56472778
 20
130.82411194
 30
0.0
  0
VERTEX
  8
0
 10
322.00634766
 20
132.00375366
 30
0.0
  0
VERTEX
  8
0
 10
321.63150024
 20
132.82228088
 30
0.0
  0
VERTEX
  8
0
 10
320.97879028
 20
133.98960876
 30
0.0
  0
VERTEX
  8
0
 10
320.53503418
 20
134.73104858
 30
0.0
  0
VERTEX
  8
0
 10
319.83639526
 20
135.89569092
 30
0.0
  0
VERTEX
  8
0
 10
318.97930908
 20
136.98657227
 30
0.0
  0
VERTEX
  8
0
 10
318.39718628
 20
137.50314331
 30
0.0
  0
VERTEX
  8
0
 10
317.55828857
 20
138.58621216
 30
0.0
  0
VERTEX
  8
0
 10
316.5803833
 20
139.57116699
 30
0.0
  0
VERTEX
  8
0
 10
315.55160522
 20
140.48852539
 30
0.0
  0
VERTEX
  8
0
 10
315.00845337
 20
141.01626587
 30
0.0
  0
VERTEX
  8
0
 10
313.90966797
 20
141.88108826
 30
0.0
  0
VERTEX
  8
0
 10
312.78555298
 20
142.67730713
 30
0.0
  0
VERTEX
  8
0
 10
312.0479126
 20
143.09408569
 30
0.0
  0
VERTEX
  8
0
 10
310.89343262
 20
143.80007935
 30
0.0
  0
VERTEX
  8
0
 10
310.07110596
 20
144.16029358
 30
0.0
  0
VERTEX
  8
0
 10
308.9039917
 20
144.78746033
 30
0.0
  0
VERTEX
  8
0
 10
308.03665161
 20
145.10740662
 30
0.0
  0
VERTEX
  8
0
 10
306.8677063
 20
145.59617615
 30
0.0
  0
VERTEX
  8
0
 10
305.95864868
 20
145.8729248
 30
0.0
  0
VERTEX
  8
0
 10
305.01507568
 20
146.08229065
 30
0.0
  0
VERTEX
  8
0
 10
304.06448364
 20
146.32458496
 30
0.0
  0
VERTEX
  8
0
 10
302.93313599
 20
146.66456604
 30
0.0
  0
VERTEX
  8
0
 10
301.96829224
 20
146.83166504
 30
0.0
  0
VERTEX
  8
0
 10
300.98791504
 20
146.93159485
 30
0.0
  0
VERTEX
  8
0
 10
299.99414063
 20
146.99725342
 30
0.0
  0
VERTEX
  8
0
 10
298.99554443
 20
147.03829956
 30
0.0
  0
VERTEX
  8
0
 10
297.99411011
 20
147.04953003
 30
0.0
  0
VERTEX
  8
0
 10
296.9928894
 20
147.02255249
 30
0.0
  0
VERTEX
  8
0
 10
295.99691772
 20
146.96582031
 30
0.0
  0
VERTEX
  8
0
 10
295.00570679
 20
146.88381958
 30
0.0
  0
VERTEX
  8
0
 10
294.02767944
 20
146.76919556
 30
0.0
  0
VERTEX
  8
0
 10
293.07403564
 20
146.57984924
 30
0.0
  0
VERTEX
  8
0
 10
291.93988037
 20
146.25915527
 30
0.0
  0
VERTEX
  8
0
 10
290.98403931
 20
146.03831482
 30
0.0
  0
VERTEX
  8
0
 10
290.05145264
 20
145.8099823
 30
0.0
  0
VERTEX
  8
0
 10
288.87710571
 20
145.33737183
 30
0.0
  0
VERTEX
  8
0
 10
287.99172974
 20
145.00428772
 30
0.0
  0
VERTEX
  8
0
 10
287.13168335
 20
144.67391968
 30
0.0
  0
VERTEX
  8
0
 10
285.96209717
 20
144.0643158
 30
0.0
  0
VERTEX
  8
0
 10
285.15466309
 20
143.69522095
 30
0.0
  0
VERTEX
  8
0
 10
284.0138855
 20
142.96632385
 30
0.0
  0
VERTEX
  8
0
 10
282.88781738
 20
142.15274048
 30
0.0
  0
VERTEX
  8
0
 10
281.7442627
 20
141.31936646
 30
0.0
  0
VERTEX
  8
0
 10
280.62463379
 20
140.42222595
 30
0.0
  0
VERTEX
  8
0
 10
279.52471924
 20
139.45593262
 30
0.0
  0
VERTEX
  8
0
 10
278.58300781
 20
138.36499023
 30
0.0
  0
VERTEX
  8
0
 10
277.6946106
 20
137.24354553
 30
0.0
  0
VERTEX
  8
0
 10
276.84457397
 20
136.10339355
 30
0.0
  0
VERTEX
  8
0
 10
276.05081177
 20
134.96484375
 30
0.0
  0
VERTEX
  8
0
 10
275.61785889
 20
134.20619202
 30
0.0
  0
VERTEX
  8
0
 10
274.95471191
 20
133.01860046
 30
0.0
  0
VERTEX
  8
0
 10
274.48886108
 20
132.23962402
 30
0.0
  0
VERTEX
  8
0
 10
273.95840454
 20
131.01286316
 30
0.0
  0
VERTEX
  8
0
 10
273.59521484
 20
130.1497345
 30
0.0
  0
VERTEX
  8
0
 10
273.1295166
 20
128.95532227
 30
0.0
  0
VERTEX
  8
0
 10
272.88616943
 20
128.029953
 30
0.0
  0
VERTEX
  8
0
 10
272.6121521
 20
127.09410095
 30
0.0
  0
VERTEX
  8
0
 10
272.27407837
 20
125.9426651
 30
0.0
  0
VERTEX
  8
0
 10
272.10614014
 20
124.98041534
 30
0.0
  0
VERTEX
  8
0
 10
271.98751831
 20
123.99889374
 30
0.0
  0
VERTEX
  8
0
 10
271.9012146
 20
123.00587463
 30
0.0
  0
VERTEX
  8
0
 10
271.84994507
 20
122.00167847
 30
0.0
  0
VERTEX
  8
0
 10
271.83306885
 20
121.00045013
 30
0.0
  0
VERTEX
  8
0
 10
271.84896851
 20
119.99365997
 30
0.0
  0
VERTEX
  8
0
 10
271.89660645
 20
118.99079895
 30
0.0
  0
VERTEX
  8
0
 10
271.96807861
 20
117.99595642
 30
0.0
  0
VERTEX
  8
0
 10
272.06887817
 20
117.00848389
 30
0.0
  0
VERTEX
  8
0
 10
272.21212769
 20
116.03965759
 30
0.0
  0
VERTEX
  8
0
 10
272.44100952
 20
115.08734131
 30
0.0
  0
VERTEX
  8
0
 10
272.76745605
 20
113.94445801
 30
0.0
  0
VERTEX
  8
0
 10
272.99295044
 20
112.99760437
 30
0.0
  0
VERTEX
  8
0
 10
273.24734497
 20
112.07961273
 30
0.0
  0
VERTEX
  8
0
 10
273.74563599
 20
110.90679169
 30
0.0
  0
VERTEX
  8
0
 10
274.04885864
 20
110.0192337
 30
0.0
  0
VERTEX
  8
0
 10
274.59893799
 20
108.81472778
 30
0.0
  0
VERTEX
  8
0
 10
275.00317383
 20
108.00249481
 30
0.0
  0
VERTEX
  8
0
 10
275.70257568
 20
106.82331085
 30
0.0
  0
VERTEX
  8
0
 10
276.39001465
 20
105.58171082
 30
0.0
  0
VERTEX
  8
0
 10
276.98165894
 20
104.98860168
 30
0.0
  0
VERTEX
  8
0
 10
277.85739136
 20
103.89004517
 30
0.0
  0
VERTEX
  8
0
 10
278.77163696
 20
102.79496002
 30
0.0
  0
VERTEX
  8
0
 10
279.78118896
 20
101.77482605
 30
0.0
  0
VERTEX
  8
0
 10
280.85263062
 20
100.82541656
 30
0.0
  0
VERTEX
  8
0
 10
281.94528198
 20
99.93400574
 30
0.0
  0
VERTEX
  8
0
 10
282.46636963
 20
99.27697754
 30
0.0
  0
VERTEX
  8
0
 10
283.77072144
 20
98.63407135
 30
0.0
  0
VERTEX
  8
0
 10
284.95599365
 20
97.92977905
 30
0.0
  0
VERTEX
  8
0
 10
285.69195557
 20
97.42067719
 30
0.0
  0
VERTEX
  8
0
 10
286.94274902
 20
96.88145447
 30
0.0
  0
VERTEX
  8
0
 10
287.7527771
 20
96.41664886
 30
0.0
  0
VERTEX
  8
0
 10
288.99490356
 20
95.99949646
 30
0.0
  0
VERTEX
  8
0
 10
289.89852905
 20
95.70368958
 30
0.0
  0
VERTEX
  8
0
 10
291.06713867
 20
95.26967621
 30
0.0
  0
VERTEX
  8
0
 10
292.00622559
 20
95.05164337
 30
0.0
  0
VERTEX
  8
0
 10
292.97192383
 20
94.87257385
 30
0.0
  0
VERTEX
  8
0
 10
293.95541382
 20
94.69929504
 30
0.0
  0
VERTEX
  8
0
 10
295.04754639
 20
94.49009705
 30
0.0
  0
SEQEND
  0
ENDSEC
  0
SECTION
  2
OBJECTS
  0
ENDSEC
  0
EOF
