999
DXF file created by HALCON
  0
SECTION
  2
HEADER
  9
$ACADVER
  1
AC1009
  0
ENDSEC
  0
SECTION
  2
TABLES
  0
TABLE
  2
LTYPE
 70
1
  0
LTYPE
  2
CONTINUOUS
 70
0
  3
Solid line
 72
65
 73
0
 40
0
  0
ENDTAB
  0
TABLE
  2
LAYER
 70
1
  0
LAYER
  2
0
 70
0
 62
7
  6
CONTINUOUS
  0
ENDTAB
  0
TABLE
  2
APPID
 70
2
  0
APPID
  2
ACAD
 70
64
  0
APPID
  2
HALCON
 70
64
  0
ENDTAB
  0
ENDSEC
  0
SECTION
  2
BLOCKS
  0
ENDSEC
  0
SECTION
  2
ENTITIES
  0
POLYLINE
  8
0
 66
1
 10
0.0
 20
0.0
 30
0.0
 70
0
  0
VERTEX
  8
0
 10
257.07717896
 20
285.21237183
 30
0.0
  0
VERTEX
  8
0
 10
257.99377441
 20
284.9446106
 30
0.0
  0
VERTEX
  8
0
 10
258.97360229
 20
284.78079224
 30
0.0
  0
VERTEX
  8
0
 10
259.98577881
 20
284.69216919
 30
0.0
  0
VERTEX
  8
0
 10
261.0032959
 20
284.65975952
 30
0.0
  0
VERTEX
  8
0
 10
262.00680542
 20
284.66442871
 30
0.0
  0
VERTEX
  8
0
 10
263.00177002
 20
284.67724609
 30
0.0
  0
VERTEX
  8
0
 10
264.00344849
 20
284.68737793
 30
0.0
  0
VERTEX
  8
0
 10
265.0050354
 20
284.69390869
 30
0.0
  0
VERTEX
  8
0
 10
266.00357056
 20
284.69842529
 30
0.0
  0
VERTEX
  8
0
 10
266.99908447
 20
284.69564819
 30
0.0
  0
VERTEX
  8
0
 10
267.99893188
 20
284.68692017
 30
0.0
  0
VERTEX
  8
0
 10
269.00698853
 20
284.68029785
 30
0.0
  0
VERTEX
  8
0
 10
270.00543213
 20
284.68157959
 30
0.0
  0
VERTEX
  8
0
 10
270.99908447
 20
284.68310547
 30
0.0
  0
VERTEX
  8
0
 10
272.00076294
 20
284.68389893
 30
0.0
  0
VERTEX
  8
0
 10
273.0071106
 20
284.68554688
 30
0.0
  0
VERTEX
  8
0
 10
274.0071106
 20
284.69354248
 30
0.0
  0
VERTEX
  8
0
 10
275.00698853
 20
284.70678711
 30
0.0
  0
VERTEX
  8
0
 10
276.00552368
 20
284.71716309
 30
0.0
  0
VERTEX
  8
0
 10
277.00003052
 20
284.71578979
 30
0.0
  0
VERTEX
  8
0
 10
277.99841309
 20
284.7046814
 30
0.0
  0
VERTEX
  8
0
 10
279.00128174
 20
284.69384766
 30
0.0
  0
VERTEX
  8
0
 10
280.0088501
 20
284.69866943
 30
0.0
  0
VERTEX
  8
0
 10
281.00872803
 20
284.70681763
 30
0.0
  0
VERTEX
  8
0
 10
282.00161743
 20
284.70880127
 30
0.0
  0
VERTEX
  8
0
 10
283.00015259
 20
284.70297241
 30
0.0
  0
VERTEX
  8
0
 10
284.00753784
 20
284.70309448
 30
0.0
  0
VERTEX
  8
0
 10
285.00610352
 20
284.70761108
 30
0.0
  0
VERTEX
  8
0
 10
286.00326538
 20
284.70889282
 30
0.0
  0
VERTEX
  8
0
 10
287.00177002
 20
284.70251465
 30
0.0
  0
VERTEX
  8
0
 10
288.00015259
 20
284.69482422
 30
0.0
  0
VERTEX
  8
0
 10
289.00009155
 20
284.68560791
 30
0.0
  0
VERTEX
  8
0
 10
290.00332642
 20
284.67678833
 30
0.0
  0
VERTEX
  8
0
 10
291.00500488
 20
284.6673584
 30
0.0
  0
VERTEX
  8
0
 10
292.00332642
 20
284.6557312
 30
0.0
  0
VERTEX
  8
0
 10
293.00512695
 20
284.65185547
 30
0.0
  0
VERTEX
  8
0
 10
294.01223755
 20
284.6605835
 30
0.0
  0
VERTEX
  8
0
 10
295.01318359
 20
284.69207764
 30
0.0
  0
VERTEX
  8
0
 10
296.01599121
 20
284.73669434
 30
0.0
  0
VERTEX
  8
0
 10
297.02322388
 20
284.80453491
 30
0.0
  0
VERTEX
  8
0
 10
298.01922607
 20
284.90750122
 30
0.0
  0
VERTEX
  8
0
 10
298.98077393
 20
285.09286499
 30
0.0
  0
VERTEX
  8
0
 10
300.21630859
 20
285.65283203
 30
0.0
  0
VERTEX
  8
0
 10
301.39331055
 20
286.59222412
 30
0.0
  0
VERTEX
  8
0
 10
302.32571411
 20
287.74969482
 30
0.0
  0
VERTEX
  8
0
 10
303.11218262
 20
288.9324646
 30
0.0
  0
VERTEX
  8
0
 10
303.87341309
 20
290.07733154
 30
0.0
  0
VERTEX
  8
0
 10
304.5428772
 20
291.26852417
 30
0.0
  0
VERTEX
  8
0
 10
305.00567627
 20
291.99737549
 30
0.0
  0
VERTEX
  8
0
 10
305.73751831
 20
293.15164185
 30
0.0
  0
VERTEX
  8
0
 10
306.13821411
 20
293.9229126
 30
0.0
  0
VERTEX
  8
0
 10
306.85845947
 20
295.07974243
 30
0.0
  0
VERTEX
  8
0
 10
307.46557617
 20
296.29623413
 30
0.0
  0
VERTEX
  8
0
 10
307.94573975
 20
297.0291748
 30
0.0
  0
VERTEX
  8
0
 10
308.61392212
 20
298.2142334
 30
0.0
  0
VERTEX
  8
0
 10
309.0385437
 20
298.97940063
 30
0.0
  0
VERTEX
  8
0
 10
309.75283813
 20
300.13916016
 30
0.0
  0
VERTEX
  8
0
 10
310.14141846
 20
300.92373657
 30
0.0
  0
VERTEX
  8
0
 10
310.87106323
 20
302.07748413
 30
0.0
  0
VERTEX
  8
0
 10
311.4994812
 20
303.27090454
 30
0.0
  0
VERTEX
  8
0
 10
311.97418213
 20
304.01580811
 30
0.0
  0
VERTEX
  8
0
 10
312.66183472
 20
305.19430542
 30
0.0
  0
VERTEX
  8
0
 10
313.06573486
 20
305.96688843
 30
0.0
  0
VERTEX
  8
0
 10
313.77252197
 20
307.13082886
 30
0.0
  0
VERTEX
  8
0
 10
314.34643555
 20
308.37088013
 30
0.0
  0
VERTEX
  8
0
 10
314.88464355
 20
309.06143188
 30
0.0
  0
VERTEX
  8
0
 10
315.49700928
 20
310.27926636
 30
0.0
  0
VERTEX
  8
0
 10
315.9609375
 20
311.02249146
 30
0.0
  0
VERTEX
  8
0
 10
316.61050415
 20
312.21502686
 30
0.0
  0
VERTEX
  8
0
 10
317.04315186
 20
312.97753906
 30
0.0
  0
VERTEX
  8
0
 10
317.79019165
 20
314.1277771
 30
0.0
  0
VERTEX
  8
0
 10
318.40908813
 20
315.32434082
 30
0.0
  0
VERTEX
  8
0
 10
318.91519165
 20
316.04528809
 30
0.0
  0
VERTEX
  8
0
 10
319.52813721
 20
317.25378418
 30
0.0
  0
VERTEX
  8
0
 10
319.94750977
 20
318.02938843
 30
0.0
  0
VERTEX
  8
0
 10
320.54403687
 20
319.23062134
 30
0.0
  0
VERTEX
  8
0
 10
320.96792603
 20
320.01882935
 30
0.0
  0
VERTEX
  8
0
 10
321.35586548
 20
320.84310913
 30
0.0
  0
VERTEX
  8
0
 10
321.80993652
 20
322.05447388
 30
0.0
  0
VERTEX
  8
0
 10
321.91079712
 20
323.00531006
 30
0.0
  0
VERTEX
  8
0
 10
321.85687256
 20
323.97390747
 30
0.0
  0
VERTEX
  8
0
 10
321.644104
 20
324.88262939
 30
0.0
  0
VERTEX
  8
0
 10
321.1262207
 20
326.05599976
 30
0.0
  0
VERTEX
  8
0
 10
320.7951355
 20
326.90768433
 30
0.0
  0
VERTEX
  8
0
 10
320.13366699
 20
328.07266235
 30
0.0
  0
VERTEX
  8
0
 10
319.77511597
 20
328.88909912
 30
0.0
  0
VERTEX
  8
0
 10
319.09390259
 20
330.05487061
 30
0.0
  0
VERTEX
  8
0
 10
318.72122192
 20
330.84698486
 30
0.0
  0
VERTEX
  8
0
 10
317.99438477
 20
331.99987793
 30
0.0
  0
VERTEX
  8
0
 10
317.56661987
 20
332.75466919
 30
0.0
  0
VERTEX
  8
0
 10
316.84835815
 20
333.91970825
 30
0.0
  0
VERTEX
  8
0
 10
316.27990723
 20
334.58639526
 30
0.0
  0
VERTEX
  8
0
 10
315.68267822
 20
335.82550049
 30
0.0
  0
VERTEX
  8
0
 10
314.98727417
 20
336.99685669
 30
0.0
  0
VERTEX
  8
0
 10
314.58880615
 20
337.79776001
 30
0.0
  0
VERTEX
  8
0
 10
313.94317627
 20
338.9732666
 30
0.0
  0
VERTEX
  8
0
 10
313.49221802
 20
339.73950195
 30
0.0
  0
VERTEX
  8
0
 10
312.85037231
 20
340.92340088
 30
0.0
  0
VERTEX
  8
0
 10
312.27297974
 20
341.58151245
 30
0.0
  0
VERTEX
  8
0
 10
311.72875977
 20
342.84988403
 30
0.0
  0
VERTEX
  8
0
 10
311.0093689
 20
344.00942993
 30
0.0
  0
VERTEX
  8
0
 10
310.5607605
 20
344.74572754
 30
0.0
  0
VERTEX
  8
0
 10
309.8850708
 20
345.94125366
 30
0.0
  0
VERTEX
  8
0
 10
309.35235596
 20
346.64920044
 30
0.0
  0
VERTEX
  8
0
 10
308.79159546
 20
347.88830566
 30
0.0
  0
VERTEX
  8
0
 10
308.07247925
 20
349.04406738
 30
0.0
  0
VERTEX
  8
0
 10
307.67025757
 20
349.81829834
 30
0.0
  0
VERTEX
  8
0
 10
306.96282959
 20
350.98382568
 30
0.0
  0
VERTEX
  8
0
 10
306.49890137
 20
351.71963501
 30
0.0
  0
VERTEX
  8
0
 10
305.853302
 20
352.92120361
 30
0.0
  0
VERTEX
  8
0
 10
305.23931885
 20
353.60021973
 30
0.0
  0
VERTEX
  8
0
 10
304.7215271
 20
354.84051514
 30
0.0
  0
VERTEX
  8
0
 10
303.98620605
 20
355.99682617
 30
0.0
  0
VERTEX
  8
0
 10
303.51296997
 20
356.70977783
 30
0.0
  0
VERTEX
  8
0
 10
302.83462524
 20
357.90762329
 30
0.0
  0
VERTEX
  8
0
 10
302.04418945
 20
359.03713989
 30
0.0
  0
VERTEX
  8
0
 10
301.57284546
 20
359.64987183
 30
0.0
  0
VERTEX
  8
0
 10
300.57952881
 20
360.47293091
 30
0.0
  0
VERTEX
  8
0
 10
299.94616699
 20
360.89553833
 30
0.0
  0
VERTEX
  8
0
 10
299.03826904
 20
361.18438721
 30
0.0
  0
VERTEX
  8
0
 10
298.0519104
 20
361.40994263
 30
0.0
  0
VERTEX
  8
0
 10
296.95922852
 20
361.58728027
 30
0.0
  0
VERTEX
  8
0
 10
295.97903442
 20
361.67306519
 30
0.0
  0
VERTEX
  8
0
 10
294.98696899
 20
361.72259521
 30
0.0
  0
VERTEX
  8
0
 10
293.98745728
 20
361.74679565
 30
0.0
  0
VERTEX
  8
0
 10
292.98657227
 20
361.76638794
 30
0.0
  0
VERTEX
  8
0
 10
291.98623657
 20
361.79385376
 30
0.0
  0
VERTEX
  8
0
 10
290.98733521
 20
361.83032227
 30
0.0
  0
VERTEX
  8
0
 10
289.98834229
 20
361.86547852
 30
0.0
  0
VERTEX
  8
0
 10
288.98907471
 20
361.89337158
 30
0.0
  0
VERTEX
  8
0
 10
287.99081421
 20
361.90881348
 30
0.0
  0
VERTEX
  8
0
 10
286.99169922
 20
361.91516113
 30
0.0
  0
VERTEX
  8
0
 10
285.99163818
 20
361.91378784
 30
0.0
  0
VERTEX
  8
0
 10
284.99200439
 20
361.91442871
 30
0.0
  0
VERTEX
  8
0
 10
283.99234009
 20
361.91656494
 30
0.0
  0
VERTEX
  8
0
 10
282.99267578
 20
361.91766357
 30
0.0
  0
VERTEX
  8
0
 10
281.99267578
 20
361.91088867
 30
0.0
  0
VERTEX
  8
0
 10
280.99176025
 20
361.90249634
 30
0.0
  0
VERTEX
  8
0
 10
279.99121094
 20
361.89654541
 30
0.0
  0
VERTEX
  8
0
 10
278.99267578
 20
361.89645386
 30
0.0
  0
VERTEX
  8
0
 10
277.99209595
 20
361.89584351
 30
0.0
  0
VERTEX
  8
0
 10
276.99206543
 20
361.89395142
 30
0.0
  0
VERTEX
  8
0
 10
275.99307251
 20
361.88912964
 30
0.0
  0
VERTEX
  8
0
 10
274.9937439
 20
361.87911987
 30
0.0
  0
VERTEX
  8
0
 10
273.99334717
 20
361.86373901
 30
0.0
  0
VERTEX
  8
0
 10
272.99133301
 20
361.8508606
 30
0.0
  0
VERTEX
  8
0
 10
271.99053955
 20
361.84927368
 30
0.0
  0
VERTEX
  8
0
 10
270.99121094
 20
361.85482788
 30
0.0
  0
VERTEX
  8
0
 10
269.9911499
 20
361.85968018
 30
0.0
  0
VERTEX
  8
0
 10
268.98977661
 20
361.86303711
 30
0.0
  0
VERTEX
  8
0
 10
267.98974609
 20
361.86694336
 30
0.0
  0
VERTEX
  8
0
 10
266.9921875
 20
361.87420654
 30
0.0
  0
VERTEX
  8
0
 10
265.99090576
 20
361.87835693
 30
0.0
  0
VERTEX
  8
0
 10
264.99203491
 20
361.87536621
 30
0.0
  0
VERTEX
  8
0
 10
263.99343872
 20
361.86096191
 30
0.0
  0
VERTEX
  8
0
 10
262.99468994
 20
361.83673096
 30
0.0
  0
VERTEX
  8
0
 10
261.9984436
 20
361.8024292
 30
0.0
  0
VERTEX
  8
0
 10
261.00512695
 20
361.75582886
 30
0.0
  0
VERTEX
  8
0
 10
260.01980591
 20
361.68173218
 30
0.0
  0
VERTEX
  8
0
 10
259.04516602
 20
361.56243896
 30
0.0
  0
VERTEX
  8
0
 10
257.91943359
 20
361.3036499
 30
0.0
  0
VERTEX
  8
0
 10
256.9914856
 20
360.99191284
 30
0.0
  0
VERTEX
  8
0
 10
255.8155365
 20
360.17166138
 30
0.0
  0
VERTEX
  8
0
 10
254.89369202
 20
359.0617981
 30
0.0
  0
VERTEX
  8
0
 10
254.09315491
 20
357.93011475
 30
0.0
  0
VERTEX
  8
0
 10
253.66444397
 20
357.19458008
 30
0.0
  0
VERTEX
  8
0
 10
252.93093872
 20
356.02856445
 30
0.0
  0
VERTEX
  8
0
 10
252.41577148
 20
355.32675171
 30
0.0
  0
VERTEX
  8
0
 10
251.80178833
 20
354.10195923
 30
0.0
  0
VERTEX
  8
0
 10
251.08078003
 20
352.9460144
 30
0.0
  0
VERTEX
  8
0
 10
250.69215393
 20
352.14660645
 30
0.0
  0
VERTEX
  8
0
 10
250.01293945
 20
350.98101807
 30
0.0
  0
VERTEX
  8
0
 10
249.58917236
 20
350.21459961
 30
0.0
  0
VERTEX
  8
0
 10
248.90042114
 20
349.04257202
 30
0.0
  0
VERTEX
  8
0
 10
248.35702515
 20
348.34573364
 30
0.0
  0
VERTEX
  8
0
 10
247.79544067
 20
347.09988403
 30
0.0
  0
VERTEX
  8
0
 10
247.07080078
 20
345.94650269
 30
0.0
  0
VERTEX
  8
0
 10
246.65661621
 20
345.1739502
 30
0.0
  0
VERTEX
  8
0
 10
245.96350098
 20
344.00765991
 30
0.0
  0
VERTEX
  8
0
 10
245.50149536
 20
343.26553345
 30
0.0
  0
VERTEX
  8
0
 10
244.86335754
 20
342.06216431
 30
0.0
  0
VERTEX
  8
0
 10
244.26930237
 20
341.4147644
 30
0.0
  0
VERTEX
  8
0
 10
243.7335968
 20
340.13442993
 30
0.0
  0
VERTEX
  8
0
 10
243.0226593
 20
338.97402954
 30
0.0
  0
VERTEX
  8
0
 10
242.58494568
 20
338.22720337
 30
0.0
  0
VERTEX
  8
0
 10
241.88566589
 20
337.05200195
 30
0.0
  0
VERTEX
  8
0
 10
241.30674744
 20
336.40036011
 30
0.0
  0
VERTEX
  8
0
 10
240.73538208
 20
335.13674927
 30
0.0
  0
VERTEX
  8
0
 10
240.03019714
 20
333.97033691
 30
0.0
  0
VERTEX
  8
0
 10
239.61297607
 20
333.19647217
 30
0.0
  0
VERTEX
  8
0
 10
238.93360901
 20
332.02322388
 30
0.0
  0
VERTEX
  8
0
 10
238.43188477
 20
331.31774902
 30
0.0
  0
VERTEX
  8
0
 10
237.80729675
 20
330.08981323
 30
0.0
  0
VERTEX
  8
0
 10
237.11737061
 20
328.92694092
 30
0.0
  0
VERTEX
  8
0
 10
236.73951721
 20
328.11798096
 30
0.0
  0
VERTEX
  8
0
 10
236.06803894
 20
326.95214844
 30
0.0
  0
VERTEX
  8
0
 10
235.6913147
 20
326.12316895
 30
0.0
  0
VERTEX
  8
0
 10
235.1190033
 20
324.94226074
 30
0.0
  0
VERTEX
  8
0
 10
234.90473938
 20
324.00576782
 30
0.0
  0
VERTEX
  8
0
 10
234.86444092
 20
322.97668457
 30
0.0
  0
VERTEX
  8
0
 10
235.02320862
 20
321.99786377
 30
0.0
  0
VERTEX
  8
0
 10
235.55714417
 20
320.77026367
 30
0.0
  0
VERTEX
  8
0
 10
235.99615479
 20
319.98834229
 30
0.0
  0
VERTEX
  8
0
 10
236.67593384
 20
318.81860352
 30
0.0
  0
VERTEX
  8
0
 10
237.07313538
 20
318.02944946
 30
0.0
  0
VERTEX
  8
0
 10
237.75915527
 20
316.86764526
 30
0.0
  0
VERTEX
  8
0
 10
238.13070679
 20
316.05679321
 30
0.0
  0
VERTEX
  8
0
 10
238.82647705
 20
314.89749146
 30
0.0
  0
VERTEX
  8
0
 10
239.41584778
 20
313.6696167
 30
0.0
  0
VERTEX
  8
0
 10
239.91146851
 20
312.94506836
 30
0.0
  0
VERTEX
  8
0
 10
240.56085205
 20
311.7416687
 30
0.0
  0
VERTEX
  8
0
 10
241.00366211
 20
310.99188232
 30
0.0
  0
VERTEX
  8
0
 10
241.72570801
 20
309.8336792
 30
0.0
  0
VERTEX
  8
0
 10
242.11445618
 20
309.05245972
 30
0.0
  0
VERTEX
  8
0
 10
242.82417297
 20
307.89627075
 30
0.0
  0
VERTEX
  8
0
 10
243.39718628
 20
306.66278076
 30
0.0
  0
VERTEX
  8
0
 10
243.911026
 20
305.9414978
 30
0.0
  0
VERTEX
  8
0
 10
244.57357788
 20
304.75244141
 30
0.0
  0
VERTEX
  8
0
 10
245.01062012
 20
303.99523926
 30
0.0
  0
VERTEX
  8
0
 10
245.72068787
 20
302.83493042
 30
0.0
  0
VERTEX
  8
0
 10
246.11851501
 20
302.05374146
 30
0.0
  0
VERTEX
  8
0
 10
246.84509277
 20
300.90292358
 30
0.0
  0
VERTEX
  8
0
 10
247.44255066
 20
299.68908691
 30
0.0
  0
VERTEX
  8
0
 10
247.92546082
 20
298.95108032
 30
0.0
  0
VERTEX
  8
0
 10
248.56585693
 20
297.7572937
 30
0.0
  0
VERTEX
  8
0
 10
249.00296021
 20
296.990448
 30
0.0
  0
VERTEX
  8
0
 10
249.70417786
 20
295.828125
 30
0.0
  0
VERTEX
  8
0
 10
250.0892334
 20
295.03427124
 30
0.0
  0
VERTEX
  8
0
 10
250.80558777
 20
293.87680054
 30
0.0
  0
VERTEX
  8
0
 10
251.4185791
 20
292.65997314
 30
0.0
  0
VERTEX
  8
0
 10
251.92456055
 20
291.94726563
 30
0.0
  0
VERTEX
  8
0
 10
252.58203125
 20
290.75640869
 30
0.0
  0
VERTEX
  8
0
 10
253.01805115
 20
289.99838257
 30
0.0
  0
VERTEX
  8
0
 10
253.73918152
 20
288.83868408
 30
0.0
  0
VERTEX
  8
0
 10
254.35368347
 20
287.5267334
 30
0.0
  0
VERTEX
  8
0
 10
254.94831848
 20
286.94976807
 30
0.0
  0
VERTEX
  8
0
 10
255.91282654
 20
285.88516235
 30
0.0
  0
VERTEX
  8
0
 10
257.07717896
 20
285.21237183
 30
0.0
  0
SEQEND
  0
POLYLINE
  8
0
 66
1
 10
0.0
 20
0.0
 30
0.0
 70
0
  0
VERTEX
  8
0
 10
275.04022217
 20
302.28186035
 30
0.0
  0
VERTEX
  8
0
 10
276.01742554
 20
302.15673828
 30
0.0
  0
VERTEX
  8
0
 10
277.00622559
 20
302.08544922
 30
0.0
  0
VERTEX
  8
0
 10
278.00109863
 20
302.06039429
 30
0.0
  0
VERTEX
  8
0
 10
278.9972229
 20
302.08056641
 30
0.0
  0
VERTEX
  8
0
 10
279.98721313
 20
302.14575195
 30
0.0
  0
VERTEX
  8
0
 10
280.96548462
 20
302.26382446
 30
0.0
  0
VERTEX
  8
0
 10
281.92398071
 20
302.4654541
 30
0.0
  0
VERTEX
  8
0
 10
283.05670166
 20
302.73699951
 30
0.0
  0
VERTEX
  8
0
 10
284.01470947
 20
302.94430542
 30
0.0
  0
VERTEX
  8
0
 10
284.93908691
 20
303.18704224
 30
0.0
  0
VERTEX
  8
0
 10
286.11386108
 20
303.74041748
 30
0.0
  0
VERTEX
  8
0
 10
286.96185303
 20
304.0814209
 30
0.0
  0
VERTEX
  8
0
 10
288.14379883
 20
304.72454834
 30
0.0
  0
VERTEX
  8
0
 10
289.4420166
 20
305.27975464
 30
0.0
  0
VERTEX
  8
0
 10
290.06756592
 20
305.89248657
 30
0.0
  0
VERTEX
  8
0
 10
291.21102905
 20
306.71209717
 30
0.0
  0
VERTEX
  8
0
 10
292.34655762
 20
307.62609863
 30
0.0
  0
VERTEX
  8
0
 10
293.37805176
 20
308.63772583
 30
0.0
  0
VERTEX
  8
0
 10
294.35546875
 20
309.70239258
 30
0.0
  0
VERTEX
  8
0
 10
295.22952271
 20
310.83358765
 30
0.0
  0
VERTEX
  8
0
 10
296.0357666
 20
311.97674561
 30
0.0
  0
VERTEX
  8
0
 10
296.75222778
 20
313.13116455
 30
0.0
  0
VERTEX
  8
0
 10
297.13427734
 20
313.93225098
 30
0.0
  0
VERTEX
  8
0
 10
297.73339844
 20
315.10977173
 30
0.0
  0
VERTEX
  8
0
 10
298.03607178
 20
315.98529053
 30
0.0
  0
VERTEX
  8
0
 10
298.30731201
 20
316.91595459
 30
0.0
  0
VERTEX
  8
0
 10
298.68530273
 20
318.06451416
 30
0.0
  0
VERTEX
  8
0
 10
298.88146973
 20
319.01712036
 30
0.0
  0
VERTEX
  8
0
 10
299.00402832
 20
319.99810791
 30
0.0
  0
VERTEX
  8
0
 10
299.09213257
 20
320.9921875
 30
0.0
  0
VERTEX
  8
0
 10
299.15682983
 20
321.98669434
 30
0.0
  0
VERTEX
  8
0
 10
299.19186401
 20
322.99371338
 30
0.0
  0
VERTEX
  8
0
 10
299.1781311
 20
324.01049805
 30
0.0
  0
VERTEX
  8
0
 10
299.11154175
 20
325.00741577
 30
0.0
  0
VERTEX
  8
0
 10
299.00369263
 20
325.99966431
 30
0.0
  0
VERTEX
  8
0
 10
298.85073853
 20
326.97058105
 30
0.0
  0
VERTEX
  8
0
 10
298.59616089
 20
327.9045105
 30
0.0
  0
VERTEX
  8
0
 10
298.23001099
 20
329.06408691
 30
0.0
  0
VERTEX
  8
0
 10
297.98809814
 20
329.99588013
 30
0.0
  0
VERTEX
  8
0
 10
297.64807129
 20
330.86276245
 30
0.0
  0
VERTEX
  8
0
 10
297.11859131
 20
332.05392456
 30
0.0
  0
VERTEX
  8
0
 10
296.74102783
 20
332.8664856
 30
0.0
  0
VERTEX
  8
0
 10
296.04608154
 20
334.02813721
 30
0.0
  0
VERTEX
  8
0
 10
295.53704834
 20
334.69104004
 30
0.0
  0
VERTEX
  8
0
 10
294.82144165
 20
335.86138916
 30
0.0
  0
VERTEX
  8
0
 10
293.92266846
 20
336.93328857
 30
0.0
  0
VERTEX
  8
0
 10
292.97546387
 20
337.97790527
 30
0.0
  0
VERTEX
  8
0
 10
291.96582031
 20
338.96444702
 30
0.0
  0
VERTEX
  8
0
 10
290.90188599
 20
339.87750244
 30
0.0
  0
VERTEX
  8
0
 10
289.78326416
 20
340.66925049
 30
0.0
  0
VERTEX
  8
0
 10
289.07092285
 20
341.12234497
 30
0.0
  0
VERTEX
  8
0
 10
287.91104126
 20
341.83502197
 30
0.0
  0
VERTEX
  8
0
 10
287.0819397
 20
342.18392944
 30
0.0
  0
VERTEX
  8
0
 10
285.89978027
 20
342.76876831
 30
0.0
  0
VERTEX
  8
0
 10
285.01855469
 20
343.0696106
 30
0.0
  0
VERTEX
  8
0
 10
284.09378052
 20
343.33734131
 30
0.0
  0
VERTEX
  8
0
 10
282.93429565
 20
343.72927856
 30
0.0
  0
VERTEX
  8
0
 10
281.98547363
 20
343.93338013
 30
0.0
  0
VERTEX
  8
0
 10
281.00384521
 20
344.06408691
 30
0.0
  0
VERTEX
  8
0
 10
280.01141357
 20
344.16320801
 30
0.0
  0
VERTEX
  8
0
 10
279.00692749
 20
344.23797607
 30
0.0
  0
VERTEX
  8
0
 10
278.00497437
 20
344.28720093
 30
0.0
  0
VERTEX
  8
0
 10
276.9928894
 20
344.29638672
 30
0.0
  0
VERTEX
  8
0
 10
275.97851563
 20
344.25408936
 30
0.0
  0
VERTEX
  8
0
 10
274.97589111
 20
344.17080688
 30
0.0
  0
VERTEX
  8
0
 10
273.98440552
 20
344.0579834
 30
0.0
  0
VERTEX
  8
0
 10
273.01049805
 20
343.91323853
 30
0.0
  0
VERTEX
  8
0
 10
272.06149292
 20
343.70977783
 30
0.0
  0
VERTEX
  8
0
 10
270.89746094
 20
343.31381226
 30
0.0
  0
VERTEX
  8
0
 10
269.98583984
 20
343.01779175
 30
0.0
  0
VERTEX
  8
0
 10
269.1317749
 20
342.67721558
 30
0.0
  0
VERTEX
  8
0
 10
267.95303345
 20
342.08621216
 30
0.0
  0
VERTEX
  8
0
 10
267.11975098
 20
341.73483276
 30
0.0
  0
VERTEX
  8
0
 10
265.95718384
 20
341.05776978
 30
0.0
  0
VERTEX
  8
0
 10
264.81158447
 20
340.23684692
 30
0.0
  0
VERTEX
  8
0
 10
263.69195557
 20
339.34399414
 30
0.0
  0
VERTEX
  8
0
 10
262.60501099
 20
338.39584351
 30
0.0
  0
VERTEX
  8
0
 10
261.61288452
 20
337.33569336
 30
0.0
  0
VERTEX
  8
0
 10
260.73751831
 20
336.17242432
 30
0.0
  0
VERTEX
  8
0
 10
259.94857788
 20
335.02185059
 30
0.0
  0
VERTEX
  8
0
 10
259.45053101
 20
334.31030273
 30
0.0
  0
VERTEX
  8
0
 10
258.84259033
 20
333.06951904
 30
0.0
  0
VERTEX
  8
0
 10
258.32925415
 20
332.29107666
 30
0.0
  0
VERTEX
  8
0
 10
257.91351318
 20
331.02325439
 30
0.0
  0
VERTEX
  8
0
 10
257.60360718
 20
330.12753296
 30
0.0
  0
VERTEX
  8
0
 10
257.17294312
 20
328.94421387
 30
0.0
  0
VERTEX
  8
0
 10
256.97409058
 20
327.99676514
 30
0.0
  0
VERTEX
  8
0
 10
256.80502319
 20
327.03033447
 30
0.0
  0
VERTEX
  8
0
 10
256.63842773
 20
326.0489502
 30
0.0
  0
VERTEX
  8
0
 10
256.48916626
 20
324.95181274
 30
0.0
  0
VERTEX
  8
0
 10
256.42675781
 20
323.9894104
 30
0.0
  0
VERTEX
  8
0
 10
256.43591309
 20
323.00686646
 30
0.0
  0
VERTEX
  8
0
 10
256.50460815
 20
322.02719116
 30
0.0
  0
VERTEX
  8
0
 10
256.61834717
 20
320.95321655
 30
0.0
  0
VERTEX
  8
0
 10
256.75747681
 20
319.95800781
 30
0.0
  0
VERTEX
  8
0
 10
256.91229248
 20
318.97515869
 30
0.0
  0
VERTEX
  8
0
 10
257.08758545
 20
318.01104736
 30
0.0
  0
VERTEX
  8
0
 10
257.33956909
 20
317.09317017
 30
0.0
  0
VERTEX
  8
0
 10
257.8163147
 20
315.92565918
 30
0.0
  0
VERTEX
  8
0
 10
258.12689209
 20
315.04650879
 30
0.0
  0
VERTEX
  8
0
 10
258.75408936
 20
313.87796021
 30
0.0
  0
VERTEX
  8
0
 10
259.10400391
 20
313.04797363
 30
0.0
  0
VERTEX
  8
0
 10
259.85339355
 20
311.89511108
 30
0.0
  0
VERTEX
  8
0
 10
260.66732788
 20
310.74304199
 30
0.0
  0
VERTEX
  8
0
 10
261.52624512
 20
309.58544922
 30
0.0
  0
VERTEX
  8
0
 10
262.48156738
 20
308.46551514
 30
0.0
  0
VERTEX
  8
0
 10
263.59509277
 20
307.52005005
 30
0.0
  0
VERTEX
  8
0
 10
264.75570679
 20
306.65563965
 30
0.0
  0
VERTEX
  8
0
 10
265.91760254
 20
305.86178589
 30
0.0
  0
VERTEX
  8
0
 10
267.04867554
 20
305.07128906
 30
0.0
  0
VERTEX
  8
0
 10
267.81552124
 20
304.65539551
 30
0.0
  0
VERTEX
  8
0
 10
269.01028442
 20
304.01480103
 30
0.0
  0
VERTEX
  8
0
 10
269.87463379
 20
303.67416382
 30
0.0
  0
VERTEX
  8
0
 10
271.04968262
 20
303.13150024
 30
0.0
  0
VERTEX
  8
0
 10
271.97833252
 20
302.89901733
 30
0.0
  0
VERTEX
  8
0
 10
272.95794678
 20
302.70825195
 30
0.0
  0
VERTEX
  8
0
 10
273.93353271
 20
302.50430298
 30
0.0
  0
VERTEX
  8
0
 10
275.04022217
 20
302.28186035
 30
0.0
  0
SEQEND
  0
POLYLINE
  8
0
 66
1
 10
0.0
 20
0.0
 30
0.0
 70
0
  0
VERTEX
  8
0
 10
298.01800537
 20
72.48938751
 30
0.0
  0
VERTEX
  8
0
 10
299.00253296
 20
72.44400787
 30
0.0
  0
VERTEX
  8
0
 10
299.98696899
 20
72.4371109
 30
0.0
  0
VERTEX
  8
0
 10
300.98666382
 20
72.45626831
 30
0.0
  0
VERTEX
  8
0
 10
301.98010254
 20
72.49391937
 30
0.0
  0
VERTEX
  8
0
 10
303.02050781
 20
72.55767822
 30
0.0
  0
VERTEX
  8
0
 10
304.02807617
 20
72.65433502
 30
0.0
  0
VERTEX
  8
0
 10
305.03079224
 20
72.80323792
 30
0.0
  0
VERTEX
  8
0
 10
305.98141479
 20
73.03214264
 30
0.0
  0
VERTEX
  8
0
 10
307.18557739
 20
73.81498718
 30
0.0
  0
VERTEX
  8
0
 10
307.88439941
 20
75.02458191
 30
0.0
  0
VERTEX
  8
0
 10
308.04388428
 20
75.99001312
 30
0.0
  0
VERTEX
  8
0
 10
308.12387085
 20
76.98692322
 30
0.0
  0
VERTEX
  8
0
 10
308.17254639
 20
77.98767853
 30
0.0
  0
VERTEX
  8
0
 10
308.20944214
 20
78.98734283
 30
0.0
  0
VERTEX
  8
0
 10
308.25372314
 20
79.9818573
 30
0.0
  0
VERTEX
  8
0
 10
308.33511353
 20
80.96120453
 30
0.0
  0
VERTEX
  8
0
 10
308.51467896
 20
81.9131012
 30
0.0
  0
VERTEX
  8
0
 10
308.84280396
 20
83.04453278
 30
0.0
  0
VERTEX
  8
0
 10
309.39413452
 20
84.48429108
 30
0.0
  0
VERTEX
  8
0
 10
310.62088013
 20
85.56596375
 30
0.0
  0
VERTEX
  8
0
 10
311.91821289
 20
86.16123199
 30
0.0
  0
VERTEX
  8
0
 10
313.08953857
 20
86.76237488
 30
0.0
  0
VERTEX
  8
0
 10
313.96395874
 20
87.07844543
 30
0.0
  0
VERTEX
  8
0
 10
315.12872314
 20
87.59214783
 30
0.0
  0
VERTEX
  8
0
 10
316.03210449
 20
87.85540009
 30
0.0
  0
VERTEX
  8
0
 10
316.99725342
 20
87.98448181
 30
0.0
  0
VERTEX
  8
0
 10
317.99633789
 20
88.00034332
 30
0.0
  0
VERTEX
  8
0
 10
318.96432495
 20
87.87676239
 30
0.0
  0
VERTEX
  8
0
 10
319.79431152
 20
87.58933258
 30
0.0
  0
VERTEX
  8
0
 10
320.89004517
 20
86.86526489
 30
0.0
  0
VERTEX
  8
0
 10
321.92776489
 20
85.92273712
 30
0.0
  0
VERTEX
  8
0
 10
322.93826294
 20
84.93469238
 30
0.0
  0
VERTEX
  8
0
 10
323.97640991
 20
83.97297668
 30
0.0
  0
VERTEX
  8
0
 10
324.52453613
 20
83.36087036
 30
0.0
  0
VERTEX
  8
0
 10
325.94958496
 20
82.82097626
 30
0.0
  0
VERTEX
  8
0
 10
327.02749634
 20
82.76965332
 30
0.0
  0
VERTEX
  8
0
 10
327.99865723
 20
82.99154663
 30
0.0
  0
VERTEX
  8
0
 10
329.18640137
 20
83.70935822
 30
0.0
  0
VERTEX
  8
0
 10
330.38977051
 20
84.46782684
 30
0.0
  0
VERTEX
  8
0
 10
330.98446655
 20
85.0114212
 30
0.0
  0
VERTEX
  8
0
 10
332.04266357
 20
85.94461823
 30
0.0
  0
VERTEX
  8
0
 10
333.07211304
 20
86.91857147
 30
0.0
  0
VERTEX
  8
0
 10
334.0836792
 20
87.90815735
 30
0.0
  0
VERTEX
  8
0
 10
335.06567383
 20
88.93269348
 30
0.0
  0
VERTEX
  8
0
 10
336.02865601
 20
89.96940613
 30
0.0
  0
VERTEX
  8
0
 10
336.93115234
 20
91.04458618
 30
0.0
  0
VERTEX
  8
0
 10
337.59960938
 20
92.18392944
 30
0.0
  0
VERTEX
  8
0
 10
337.86941528
 20
93.02301788
 30
0.0
  0
VERTEX
  8
0
 10
337.92245483
 20
93.99123383
 30
0.0
  0
VERTEX
  8
0
 10
337.77203369
 20
94.91269684
 30
0.0
  0
VERTEX
  8
0
 10
337.29421997
 20
95.5608902
 30
0.0
  0
VERTEX
  8
0
 10
336.63873291
 20
96.67926788
 30
0.0
  0
VERTEX
  8
0
 10
335.71002197
 20
97.7183075
 30
0.0
  0
VERTEX
  8
0
 10
334.70419312
 20
98.71956635
 30
0.0
  0
VERTEX
  8
0
 10
333.74880981
 20
99.78774261
 30
0.0
  0
VERTEX
  8
0
 10
332.91827393
 20
100.95215607
 30
0.0
  0
VERTEX
  8
0
 10
332.41506958
 20
102.10432434
 30
0.0
  0
VERTEX
  8
0
 10
332.24984741
 20
103.01338959
 30
0.0
  0
VERTEX
  8
0
 10
332.25292969
 20
103.96881866
 30
0.0
  0
VERTEX
  8
0
 10
332.41357422
 20
104.90564728
 30
0.0
  0
VERTEX
  8
0
 10
332.80389404
 20
106.05990601
 30
0.0
  0
VERTEX
  8
0
 10
333.08346558
 20
106.96589661
 30
0.0
  0
VERTEX
  8
0
 10
333.59857178
 20
108.16754913
 30
0.0
  0
VERTEX
  8
0
 10
333.98110962
 20
109.00489807
 30
0.0
  0
VERTEX
  8
0
 10
334.64996338
 20
110.22673798
 30
0.0
  0
VERTEX
  8
0
 10
335.60812378
 20
111.44039917
 30
0.0
  0
VERTEX
  8
0
 10
336.91757202
 20
112.17327881
 30
0.0
  0
VERTEX
  8
0
 10
338.08514404
 20
112.6100769
 30
0.0
  0
VERTEX
  8
0
 10
339.01605225
 20
112.77892303
 30
0.0
  0
VERTEX
  8
0
 10
339.99841309
 20
112.84753418
 30
0.0
  0
VERTEX
  8
0
 10
340.99389648
 20
112.86236572
 30
0.0
  0
VERTEX
  8
0
 10
341.9977417
 20
112.86597443
 30
0.0
  0
VERTEX
  8
0
 10
343.00335693
 20
112.90595245
 30
0.0
  0
VERTEX
  8
0
 10
343.99279785
 20
113.02942657
 30
0.0
  0
VERTEX
  8
0
 10
345.3296814
 20
113.4704361
 30
0.0
  0
VERTEX
  8
0
 10
346.39282227
 20
114.82597351
 30
0.0
  0
VERTEX
  8
0
 10
346.79876709
 20
116.03083038
 30
0.0
  0
VERTEX
  8
0
 10
346.93170166
 20
117.00536346
 30
0.0
  0
VERTEX
  8
0
 10
347.01483154
 20
117.99691772
 30
0.0
  0
VERTEX
  8
0
 10
347.07962036
 20
118.99337769
 30
0.0
  0
VERTEX
  8
0
 10
347.13290405
 20
119.9908371
 30
0.0
  0
VERTEX
  8
0
 10
347.16781616
 20
120.99144745
 30
0.0
  0
VERTEX
  8
0
 10
347.17962646
 20
121.99954987
 30
0.0
  0
VERTEX
  8
0
 10
347.16870117
 20
123.00392914
 30
0.0
  0
VERTEX
  8
0
 10
347.13616943
 20
124.00506592
 30
0.0
  0
VERTEX
  8
0
 10
347.08206177
 20
125.00569153
 30
0.0
  0
VERTEX
  8
0
 10
347.00201416
 20
125.99931335
 30
0.0
  0
VERTEX
  8
0
 10
346.88342285
 20
126.98144531
 30
0.0
  0
VERTEX
  8
0
 10
346.68859863
 20
127.92212677
 30
0.0
  0
VERTEX
  8
0
 10
346.14083862
 20
129.09249878
 30
0.0
  0
VERTEX
  8
0
 10
345.03341675
 20
130.07122803
 30
0.0
  0
VERTEX
  8
0
 10
344.07998657
 20
130.36471558
 30
0.0
  0
VERTEX
  8
0
 10
342.95828247
 20
130.56797791
 30
0.0
  0
VERTEX
  8
0
 10
341.98324585
 20
130.67578125
 30
0.0
  0
VERTEX
  8
0
 10
340.99337769
 20
130.74351501
 30
0.0
  0
VERTEX
  8
0
 10
339.98864746
 20
130.79304504
 30
0.0
  0
VERTEX
  8
0
 10
338.98822021
 20
130.84083557
 30
0.0
  0
VERTEX
  8
0
 10
337.9911499
 20
130.91384888
 30
0.0
  0
VERTEX
  8
0
 10
337.00643921
 20
131.05055237
 30
0.0
  0
VERTEX
  8
0
 10
335.6895752
 20
131.47822571
 30
0.0
  0
VERTEX
  8
0
 10
334.44360352
 20
132.62110901
 30
0.0
  0
VERTEX
  8
0
 10
333.81298828
 20
133.90478516
 30
0.0
  0
VERTEX
  8
0
 10
333.16122437
 20
135.07395935
 30
0.0
  0
VERTEX
  8
0
 10
332.82650757
 20
135.92860413
 30
0.0
  0
VERTEX
  8
0
 10
332.27508545
 20
137.0965271
 30
0.0
  0
VERTEX
  8
0
 10
332.00842285
 20
138.00308228
 30
0.0
  0
VERTEX
  8
0
 10
331.80899048
 20
138.95840454
 30
0.0
  0
VERTEX
  8
0
 10
331.68399048
 20
139.97685242
 30
0.0
  0
VERTEX
  8
0
 10
331.74108887
 20
141.04573059
 30
0.0
  0
VERTEX
  8
0
 10
331.96591187
 20
142.01300049
 30
0.0
  0
VERTEX
  8
0
 10
332.62411499
 20
143.26184082
 30
0.0
  0
VERTEX
  8
0
 10
333.54000854
 20
144.43742371
 30
0.0
  0
VERTEX
  8
0
 10
334.58883667
 20
145.4299469
 30
0.0
  0
VERTEX
  8
0
 10
335.56048584
 20
146.41149902
 30
0.0
  0
VERTEX
  8
0
 10
336.05587769
 20
146.9549408
 30
0.0
  0
VERTEX
  8
0
 10
336.77822876
 20
148.09754944
 30
0.0
  0
VERTEX
  8
0
 10
336.99038696
 20
149.00167847
 30
0.0
  0
VERTEX
  8
0
 10
336.99551392
 20
150.00048828
 30
0.0
  0
VERTEX
  8
0
 10
336.79537964
 20
150.91313171
 30
0.0
  0
VERTEX
  8
0
 10
336.07092285
 20
152.05491638
 30
0.0
  0
VERTEX
  8
0
 10
335.57952881
 20
152.66949463
 30
0.0
  0
VERTEX
  8
0
 10
334.71807861
 20
153.75170898
 30
0.0
  0
VERTEX
  8
0
 10
333.79141235
 20
154.81388855
 30
0.0
  0
VERTEX
  8
0
 10
332.81958008
 20
155.80987549
 30
0.0
  0
VERTEX
  8
0
 10
331.78393555
 20
156.77825928
 30
0.0
  0
VERTEX
  8
0
 10
330.73019409
 20
157.67967224
 30
0.0
  0
VERTEX
  8
0
 10
329.60372925
 20
158.48432922
 30
0.0
  0
VERTEX
  8
0
 10
328.98440552
 20
158.9823761
 30
0.0
  0
VERTEX
  8
0
 10
327.84246826
 20
159.46450806
 30
0.0
  0
VERTEX
  8
0
 10
326.99209595
 20
159.64247131
 30
0.0
  0
VERTEX
  8
0
 10
326.04272461
 20
159.62937927
 30
0.0
  0
VERTEX
  8
0
 10
324.90591431
 20
159.39987183
 30
0.0
  0
VERTEX
  8
0
 10
323.96502686
 20
159.09329224
 30
0.0
  0
VERTEX
  8
0
 10
323.12606812
 20
158.76260376
 30
0.0
  0
VERTEX
  8
0
 10
321.99810791
 20
157.99847412
 30
0.0
  0
VERTEX
  8
0
 10
321.53921509
 20
157.40708923
 30
0.0
  0
VERTEX
  8
0
 10
320.50152588
 20
156.47302246
 30
0.0
  0
VERTEX
  8
0
 10
319.35235596
 20
155.57049561
 30
0.0
  0
VERTEX
  8
0
 10
318.07962036
 20
154.82054138
 30
0.0
  0
VERTEX
  8
0
 10
316.94436646
 20
154.45898438
 30
0.0
  0
VERTEX
  8
0
 10
316.04626465
 20
154.43727112
 30
0.0
  0
VERTEX
  8
0
 10
314.90713501
 20
154.71533203
 30
0.0
  0
VERTEX
  8
0
 10
313.99569702
 20
155.00201416
 30
0.0
  0
VERTEX
  8
0
 10
313.11181641
 20
155.3192749
 30
0.0
  0
VERTEX
  8
0
 10
311.94116211
 20
155.86607361
 30
0.0
  0
VERTEX
  8
0
 10
311.07821655
 20
156.19137573
 30
0.0
  0
VERTEX
  8
0
 10
309.91021729
 20
156.82852173
 30
0.0
  0
VERTEX
  8
0
 10
308.64846802
 20
157.57281494
 30
0.0
  0
VERTEX
  8
0
 10
307.7361145
 20
158.87774658
 30
0.0
  0
VERTEX
  8
0
 10
307.27697754
 20
160.05458069
 30
0.0
  0
VERTEX
  8
0
 10
307.12164307
 20
161.01394653
 30
0.0
  0
VERTEX
  8
0
 10
307.04238892
 20
162.00457764
 30
0.0
  0
VERTEX
  8
0
 10
307.00311279
 20
163.00169373
 30
0.0
  0
VERTEX
  8
0
 10
306.98486328
 20
164.00166321
 30
0.0
  0
VERTEX
  8
0
 10
306.97161865
 20
165.00144958
 30
0.0
  0
VERTEX
  8
0
 10
306.94174194
 20
165.99960327
 30
0.0
  0
VERTEX
  8
0
 10
306.83718872
 20
166.97741699
 30
0.0
  0
VERTEX
  8
0
 10
306.5932312
 20
167.81524658
 30
0.0
  0
VERTEX
  8
0
 10
305.83258057
 20
168.80131531
 30
0.0
  0
VERTEX
  8
0
 10
305.06756592
 20
169.17601013
 30
0.0
  0
VERTEX
  8
0
 10
303.92211914
 20
169.56039429
 30
0.0
  0
VERTEX
  8
0
 10
302.97177124
 20
169.71316528
 30
0.0
  0
VERTEX
  8
0
 10
301.98022461
 20
169.80387878
 30
0.0
  0
VERTEX
  8
0
 10
300.98355103
 20
169.87115479
 30
0.0
  0
VERTEX
  8
0
 10
299.99127197
 20
169.91409302
 30
0.0
  0
VERTEX
  8
0
 10
298.9956665
 20
169.9276886
 30
0.0
  0
VERTEX
  8
0
 10
297.99752808
 20
169.90945435
 30
0.0
  0
VERTEX
  8
0
 10
296.99966431
 20
169.87168884
 30
0.0
  0
VERTEX
  8
0
 10
296.00280762
 20
169.82209778
 30
0.0
  0
VERTEX
  8
0
 10
295.00994873
 20
169.76036072
 30
0.0
  0
VERTEX
  8
0
 10
294.02935791
 20
169.67332458
 30
0.0
  0
VERTEX
  8
0
 10
293.06674194
 20
169.53775024
 30
0.0
  0
VERTEX
  8
0
 10
291.92672729
 20
169.26412964
 30
0.0
  0
VERTEX
  8
0
 10
291.01705933
 20
168.95272827
 30
0.0
  0
VERTEX
  8
0
 10
289.88952637
 20
168.08912659
 30
0.0
  0
VERTEX
  8
0
 10
289.24313354
 20
166.92663574
 30
0.0
  0
VERTEX
  8
0
 10
289.06430054
 20
165.99380493
 30
0.0
  0
VERTEX
  8
0
 10
288.98388672
 20
165.00177002
 30
0.0
  0
VERTEX
  8
0
 10
288.94213867
 20
164.00382996
 30
0.0
  0
VERTEX
  8
0
 10
288.90625
 20
163.00630188
 30
0.0
  0
VERTEX
  8
0
 10
288.87051392
 20
162.00447083
 30
0.0
  0
VERTEX
  8
0
 10
288.8241272
 20
161.0090332
 30
0.0
  0
VERTEX
  8
0
 10
288.73727417
 20
160.03453064
 30
0.0
  0
VERTEX
  8
0
 10
288.54336548
 20
159.09806824
 30
0.0
  0
VERTEX
  8
0
 10
288.08029175
 20
157.95262146
 30
0.0
  0
VERTEX
  8
0
 10
287.08297729
 20
156.86875916
 30
0.0
  0
VERTEX
  8
0
 10
285.91467285
 20
156.17837524
 30
0.0
  0
VERTEX
  8
0
 10
285.05032349
 20
155.85688782
 30
0.0
  0
VERTEX
  8
0
 10
283.87863159
 20
155.29943848
 30
0.0
  0
VERTEX
  8
0
 10
282.99911499
 20
154.98396301
 30
0.0
  0
VERTEX
  8
0
 10
282.09326172
 20
154.68891907
 30
0.0
  0
VERTEX
  8
0
 10
280.93331909
 20
154.37316895
 30
0.0
  0
VERTEX
  8
0
 10
279.99740601
 20
154.30714417
 30
0.0
  0
VERTEX
  8
0
 10
279.0456543
 20
154.38624573
 30
0.0
  0
VERTEX
  8
0
 10
277.89862061
 20
154.73266602
 30
0.0
  0
VERTEX
  8
0
 10
277.04562378
 20
155.08695984
 30
0.0
  0
VERTEX
  8
0
 10
275.9548645
 20
155.95948792
 30
0.0
  0
VERTEX
  8
0
 10
274.93917847
 20
156.95011902
 30
0.0
  0
VERTEX
  8
0
 10
273.96228027
 20
157.97145081
 30
0.0
  0
VERTEX
  8
0
 10
272.95755005
 20
158.96380615
 30
0.0
  0
VERTEX
  8
0
 10
271.87173462
 20
159.8120575
 30
0.0
  0
VERTEX
  8
0
 10
271.00967407
 20
160.06719971
 30
0.0
  0
VERTEX
  8
0
 10
269.97210693
 20
160.10224915
 30
0.0
  0
VERTEX
  8
0
 10
269.04885864
 20
159.89631653
 30
0.0
  0
VERTEX
  8
0
 10
267.89373779
 20
159.12695313
 30
0.0
  0
VERTEX
  8
0
 10
266.7963562
 20
158.23738098
 30
0.0
  0
VERTEX
  8
0
 10
265.7114563
 20
157.31066895
 30
0.0
  0
VERTEX
  8
0
 10
264.6791687
 20
156.31570435
 30
0.0
  0
VERTEX
  8
0
 10
263.69119263
 20
155.28105164
 30
0.0
  0
VERTEX
  8
0
 10
262.69903564
 20
154.25724792
 30
0.0
  0
VERTEX
  8
0
 10
261.77050781
 20
153.18188477
 30
0.0
  0
VERTEX
  8
0
 10
260.87844849
 20
152.08738708
 30
0.0
  0
VERTEX
  8
0
 10
260.03869629
 20
150.9692688
 30
0.0
  0
VERTEX
  8
0
 10
259.58126831
 20
150.22859192
 30
0.0
  0
VERTEX
  8
0
 10
259.10778809
 20
148.97547913
 30
0.0
  0
VERTEX
  8
0
 10
259.0921936
 20
148.0136261
 30
0.0
  0
VERTEX
  8
0
 10
259.4225769
 20
146.70547485
 30
0.0
  0
VERTEX
  8
0
 10
259.95748901
 20
145.97543335
 30
0.0
  0
VERTEX
  8
0
 10
260.87139893
 20
144.890625
 30
0.0
  0
VERTEX
  8
0
 10
261.83242798
 20
143.85063171
 30
0.0
  0
VERTEX
  8
0
 10
262.77740479
 20
142.81945801
 30
0.0
  0
VERTEX
  8
0
 10
263.60580444
 20
141.75053406
 30
0.0
  0
VERTEX
  8
0
 10
264.05661011
 20
141.03581238
 30
0.0
  0
VERTEX
  8
0
 10
264.66751099
 20
139.87210083
 30
0.0
  0
VERTEX
  8
0
 10
264.85656738
 20
138.98271179
 30
0.0
  0
VERTEX
  8
0
 10
264.87155151
 20
138.01434326
 30
0.0
  0
VERTEX
  8
0
 10
264.72396851
 20
137.06791687
 30
0.0
  0
VERTEX
  8
0
 10
264.27539063
 20
135.88975525
 30
0.0
  0
VERTEX
  8
0
 10
263.97000122
 20
135.00700378
 30
0.0
  0
VERTEX
  8
0
 10
263.6428833
 20
134.13450623
 30
0.0
  0
VERTEX
  8
0
 10
263.06054688
 20
132.96650696
 30
0.0
  0
VERTEX
  8
0
 10
262.41146851
 20
131.73181152
 30
0.0
  0
VERTEX
  8
0
 10
261.3399353
 20
130.49607849
 30
0.0
  0
VERTEX
  8
0
 10
259.99203491
 20
129.99565125
 30
0.0
  0
VERTEX
  8
0
 10
259.01016235
 20
129.8223877
 30
0.0
  0
VERTEX
  8
0
 10
258.00619507
 20
129.72451782
 30
0.0
  0
VERTEX
  8
0
 10
256.99273682
 20
129.69165039
 30
0.0
  0
VERTEX
  8
0
 10
255.98442078
 20
129.69915771
 30
0.0
  0
VERTEX
  8
0
 10
254.9908905
 20
129.70707703
 30
0.0
  0
VERTEX
  8
0
 10
254.0012207
 20
129.67788696
 30
0.0
  0
VERTEX
  8
0
 10
253.04118347
 20
129.55728149
 30
0.0
  0
VERTEX
  8
0
 10
251.9032135
 20
129.19317627
 30
0.0
  0
VERTEX
  8
0
 10
250.73858643
 20
128.13774109
 30
0.0
  0
VERTEX
  8
0
 10
250.23371887
 20
126.94580841
 30
0.0
  0
VERTEX
  8
0
 10
250.06190491
 20
125.98770142
 30
0.0
  0
VERTEX
  8
0
 10
249.95185852
 20
125.00198364
 30
0.0
  0
VERTEX
  8
0
 10
249.88391113
 20
124.00522614
 30
0.0
  0
VERTEX
  8
0
 10
249.84336853
 20
123.00034332
 30
0.0
  0
VERTEX
  8
0
 10
249.82302856
 20
122.00147247
 30
0.0
  0
VERTEX
  8
0
 10
249.81822205
 20
120.9979248
 30
0.0
  0
VERTEX
  8
0
 10
249.83166504
 20
119.99111938
 30
0.0
  0
VERTEX
  8
0
 10
249.85720825
 20
118.99145508
 30
0.0
  0
VERTEX
  8
0
 10
249.89642334
 20
117.99320984
 30
0.0
  0
VERTEX
  8
0
 10
249.94749451
 20
116.99465179
 30
0.0
  0
VERTEX
  8
0
 10
250.0322876
 20
116.00283051
 30
0.0
  0
VERTEX
  8
0
 10
250.17935181
 20
115.03479767
 30
0.0
  0
VERTEX
  8
0
 10
250.46243286
 20
114.13718414
 30
0.0
  0
VERTEX
  8
0
 10
250.9775238
 20
112.98862457
 30
0.0
  0
VERTEX
  8
0
 10
251.98117065
 20
111.98274994
 30
0.0
  0
VERTEX
  8
0
 10
252.87149048
 20
111.62998962
 30
0.0
  0
VERTEX
  8
0
 10
254.01899719
 20
111.35001373
 30
0.0
  0
VERTEX
  8
0
 10
254.99682617
 20
111.26051331
 30
0.0
  0
VERTEX
  8
0
 10
255.99714661
 20
111.22138977
 30
0.0
  0
VERTEX
  8
0
 10
256.9942627
 20
111.19045258
 30
0.0
  0
VERTEX
  8
0
 10
258.00030518
 20
111.13907623
 30
0.0
  0
VERTEX
  8
0
 10
258.99807739
 20
111.04288483
 30
0.0
  0
VERTEX
  8
0
 10
259.96774292
 20
110.89080048
 30
0.0
  0
VERTEX
  8
0
 10
260.87365723
 20
110.63962555
 30
0.0
  0
VERTEX
  8
0
 10
261.99176025
 20
109.99742126
 30
0.0
  0
VERTEX
  8
0
 10
262.9475708
 20
108.96871185
 30
0.0
  0
VERTEX
  8
0
 10
263.63894653
 20
107.83335876
 30
0.0
  0
VERTEX
  8
0
 10
263.99197388
 20
106.99703217
 30
0.0
  0
VERTEX
  8
0
 10
264.53414917
 20
105.7999115
 30
0.0
  0
VERTEX
  8
0
 10
264.90737915
 20
104.96346283
 30
0.0
  0
VERTEX
  8
0
 10
265.19882202
 20
104.06646729
 30
0.0
  0
VERTEX
  8
0
 10
265.56506348
 20
102.91498566
 30
0.0
  0
VERTEX
  8
0
 10
265.63943481
 20
102.00208282
 30
0.0
  0
VERTEX
  8
0
 10
265.48834229
 20
101.13114929
 30
0.0
  0
VERTEX
  8
0
 10
264.97116089
 20
100.01000214
 30
0.0
  0
VERTEX
  8
0
 10
264.44918823
 20
99.45892334
 30
0.0
  0
VERTEX
  8
0
 10
263.55233765
 20
98.41751099
 30
0.0
  0
VERTEX
  8
0
 10
262.56707764
 20
97.41721344
 30
0.0
  0
VERTEX
  8
0
 10
261.55871582
 20
96.42533112
 30
0.0
  0
VERTEX
  8
0
 10
260.55407715
 20
95.36168671
 30
0.0
  0
VERTEX
  8
0
 10
259.86572266
 20
94.04238892
 30
0.0
  0
VERTEX
  8
0
 10
259.76159668
 20
92.98229218
 30
0.0
  0
VERTEX
  8
0
 10
259.94293213
 20
91.97515869
 30
0.0
  0
VERTEX
  8
0
 10
260.59552002
 20
90.73531342
 30
0.0
  0
VERTEX
  8
0
 10
261.34124756
 20
89.48911285
 30
0.0
  0
VERTEX
  8
0
 10
261.95697021
 20
88.96768951
 30
0.0
  0
VERTEX
  8
0
 10
262.89624023
 20
87.91099548
 30
0.0
  0
VERTEX
  8
0
 10
263.84606934
 20
86.86156464
 30
0.0
  0
VERTEX
  8
0
 10
264.84738159
 20
85.84015656
 30
0.0
  0
VERTEX
  8
0
 10
265.902771
 20
84.89490509
 30
0.0
  0
VERTEX
  8
0
 10
266.94067383
 20
83.93704987
 30
0.0
  0
VERTEX
  8
0
 10
267.9960022
 20
82.9997406
 30
0.0
  0
VERTEX
  8
0
 10
268.5949707
 20
82.44232178
 30
0.0
  0
VERTEX
  8
0
 10
269.91390991
 20
81.80743408
 30
0.0
  0
VERTEX
  8
0
 10
271.02661133
 20
81.63278198
 30
0.0
  0
VERTEX
  8
0
 10
272.07479858
 20
81.74671173
 30
0.0
  0
VERTEX
  8
0
 10
272.94955444
 20
82.06188202
 30
0.0
  0
VERTEX
  8
0
 10
274.05480957
 20
82.9240799
 30
0.0
  0
VERTEX
  8
0
 10
275.09399414
 20
83.88536835
 30
0.0
  0
VERTEX
  8
0
 10
276.11972046
 20
84.85637665
 30
0.0
  0
VERTEX
  8
0
 10
277.16485596
 20
85.77661133
 30
0.0
  0
VERTEX
  8
0
 10
278.28103638
 20
86.46305847
 30
0.0
  0
VERTEX
  8
0
 10
279.04251099
 20
86.85798645
 30
0.0
  0
VERTEX
  8
0
 10
279.97186279
 20
87.09233093
 30
0.0
  0
VERTEX
  8
0
 10
280.97631836
 20
87.2223587
 30
0.0
  0
VERTEX
  8
0
 10
282.01589966
 20
87.18631744
 30
0.0
  0
VERTEX
  8
0
 10
282.9989624
 20
87.0160675
 30
0.0
  0
VERTEX
  8
0
 10
283.91668701
 20
86.77051544
 30
0.0
  0
VERTEX
  8
0
 10
285.09585571
 20
86.25844574
 30
0.0
  0
VERTEX
  8
0
 10
285.96981812
 20
85.9378891
 30
0.0
  0
VERTEX
  8
0
 10
286.81115723
 20
85.58163452
 30
0.0
  0
VERTEX
  8
0
 10
287.96450806
 20
84.94748688
 30
0.0
  0
VERTEX
  8
0
 10
289.02877808
 20
84.02481079
 30
0.0
  0
VERTEX
  8
0
 10
289.6723938
 20
82.90130615
 30
0.0
  0
VERTEX
  8
0
 10
289.85552979
 20
81.98095703
 30
0.0
  0
VERTEX
  8
0
 10
289.93170166
 20
80.99349213
 30
0.0
  0
VERTEX
  8
0
 10
289.96762085
 20
79.99432373
 30
0.0
  0
VERTEX
  8
0
 10
289.99160767
 20
78.99478912
 30
0.0
  0
VERTEX
  8
0
 10
290.00430298
 20
77.99494934
 30
0.0
  0
VERTEX
  8
0
 10
290.01773071
 20
76.99488831
 30
0.0
  0
VERTEX
  8
0
 10
290.07662964
 20
76.00200653
 30
0.0
  0
VERTEX
  8
0
 10
290.24862671
 20
75.05683899
 30
0.0
  0
VERTEX
  8
0
 10
290.89923096
 20
73.90426636
 30
0.0
  0
VERTEX
  8
0
 10
292.05007935
 20
73.17272949
 30
0.0
  0
VERTEX
  8
0
 10
292.98880005
 20
72.9654007
 30
0.0
  0
VERTEX
  8
0
 10
293.97091675
 20
72.83794403
 30
0.0
  0
VERTEX
  8
0
 10
294.9670105
 20
72.73845673
 30
0.0
  0
VERTEX
  8
0
 10
295.97097778
 20
72.65270996
 30
0.0
  0
VERTEX
  8
0
 10
296.97463989
 20
72.56723022
 30
0.0
  0
VERTEX
  8
0
 10
298.01800537
 20
72.48938751
 30
0.0
  0
SEQEND
  0
POLYLINE
  8
0
 66
1
 10
0.0
 20
0.0
 30
0.0
 70
0
  0
VERTEX
  8
0
 10
295.04754639
 20
94.49009705
 30
0.0
  0
VERTEX
  8
0
 10
296.02758789
 20
94.36035156
 30
0.0
  0
VERTEX
  8
0
 10
297.00674438
 20
94.29190826
 30
0.0
  0
VERTEX
  8
0
 10
297.9944458
 20
94.26556396
 30
0.0
  0
VERTEX
  8
0
 10
298.98568726
 20
94.27635956
 30
0.0
  0
VERTEX
  8
0
 10
299.97528076
 20
94.32457733
 30
0.0
  0
VERTEX
  8
0
 10
300.95446777
 20
94.42663574
 30
0.0
  0
VERTEX
  8
0
 10
302.05810547
 20
94.62844849
 30
0.0
  0
VERTEX
  8
0
 10
303.03091431
 20
94.81389618
 30
0.0
  0
VERTEX
  8
0
 10
303.99746704
 20
94.98266602
 30
0.0
  0
VERTEX
  8
0
 10
304.95861816
 20
95.15987396
 30
0.0
  0
VERTEX
  8
0
 10
305.87884521
 20
95.41754913
 30
0.0
  0
VERTEX
  8
0
 10
307.04351807
 20
95.85430145
 30
0.0
  0
VERTEX
  8
0
 10
307.94070435
 20
96.13933563
 30
0.0
  0
VERTEX
  8
0
 10
309.13494873
 20
96.6743927
 30
0.0
  0
VERTEX
  8
0
 10
309.96868896
 20
97.05102539
 30
0.0
  0
VERTEX
  8
0
 10
311.15206909
 20
97.70666504
 30
0.0
  0
VERTEX
  8
0
 10
311.92929077
 20
98.11032104
 30
0.0
  0
VERTEX
  8
0
 10
313.06533813
 20
98.88961792
 30
0.0
  0
VERTEX
  8
0
 10
314.21374512
 20
99.71179962
 30
0.0
  0
VERTEX
  8
0
 10
315.35855103
 20
100.57889557
 30
0.0
  0
VERTEX
  8
0
 10
316.43615723
 20
101.5414505
 30
0.0
  0
VERTEX
  8
0
 10
317.42572021
 20
102.6233139
 30
0.0
  0
VERTEX
  8
0
 10
318.32440186
 20
103.72805786
 30
0.0
  0
VERTEX
  8
0
 10
319.2010498
 20
104.83392334
 30
0.0
  0
VERTEX
  8
0
 10
320.06674194
 20
105.94776917
 30
0.0
  0
VERTEX
  8
0
 10
320.83630371
 20
107.08306885
 30
0.0
  0
VERTEX
  8
0
 10
321.41918945
 20
108.29336548
 30
0.0
  0
VERTEX
  8
0
 10
321.88659668
 20
109.04776001
 30
0.0
  0
VERTEX
  8
0
 10
322.23306274
 20
109.89562988
 30
0.0
  0
VERTEX
  8
0
 10
322.7984314
 20
111.0719223
 30
0.0
  0
VERTEX
  8
0
 10
323.08978271
 20
111.96521759
 30
0.0
  0
VERTEX
  8
0
 10
323.5241394
 20
113.126297
 30
0.0
  0
VERTEX
  8
0
 10
323.81164551
 20
114.04080963
 30
0.0
  0
VERTEX
  8
0
 10
323.99630737
 20
114.9979248
 30
0.0
  0
VERTEX
  8
0
 10
324.15856934
 20
115.97027588
 30
0.0
  0
VERTEX
  8
0
 10
324.32492065
 20
116.95656586
 30
0.0
  0
VERTEX
  8
0
 10
324.50765991
 20
118.04042053
 30
0.0
  0
VERTEX
  8
0
 10
324.61605835
 20
119.0217514
 30
0.0
  0
VERTEX
  8
0
 10
324.66400146
 20
120.00495148
 30
0.0
  0
VERTEX
  8
0
 10
324.66619873
 20
120.99184418
 30
0.0
  0
VERTEX
  8
0
 10
324.62527466
 20
121.97981262
 30
0.0
  0
VERTEX
  8
0
 10
324.54086304
 20
122.96257782
 30
0.0
  0
VERTEX
  8
0
 10
324.3855896
 20
124.04369354
 30
0.0
  0
VERTEX
  8
0
 10
324.21685791
 20
125.03564453
 30
0.0
  0
VERTEX
  8
0
 10
324.04702759
 20
126.00941467
 30
0.0
  0
VERTEX
  8
0
 10
323.86602783
 20
126.96913147
 30
0.0
  0
VERTEX
  8
0
 10
323.61917114
 20
127.90021515
 30
0.0
  0
VERTEX
  8
0
 10
323.19070435
 20
129.06117249
 30
0.0
  0
VERTEX
  8
0
 10
322.91516113
 20
129.96946716
 30
0.0
  0
VERTEX
  8
0
 10
322.56472778
 20
130.82411194
 30
0.0
  0
VERTEX
  8
0
 10
322.00634766
 20
132.00375366
 30
0.0
  0
VERTEX
  8
0
 10
321.63150024
 20
132.82228088
 30
0.0
  0
VERTEX
  8
0
 10
320.97879028
 20
133.98960876
 30
0.0
  0
VERTEX
  8
0
 10
320.53503418
 20
134.73104858
 30
0.0
  0
VERTEX
  8
0
 10
319.83639526
 20
135.89569092
 30
0.0
  0
VERTEX
  8
0
 10
318.97930908
 20
136.98657227
 30
0.0
  0
VERTEX
  8
0
 10
318.39718628
 20
137.50314331
 30
0.0
  0
VERTEX
  8
0
 10
317.55828857
 20
138.58621216
 30
0.0
  0
VERTEX
  8
0
 10
316.5803833
 20
139.57116699
 30
0.0
  0
VERTEX
  8
0
 10
315.55160522
 20
140.48852539
 30
0.0
  0
VERTEX
  8
0
 10
315.00845337
 20
141.01626587
 30
0.0
  0
VERTEX
  8
0
 10
313.90966797
 20
141.88108826
 30
0.0
  0
VERTEX
  8
0
 10
312.78555298
 20
142.67730713
 30
0.0
  0
VERTEX
  8
0
 10
312.0479126
 20
143.09408569
 30
0.0
  0
VERTEX
  8
0
 10
310.89343262
 20
143.80007935
 30
0.0
  0
VERTEX
  8
0
 10
310.07110596
 20
144.16029358
 30
0.0
  0
VERTEX
  8
0
 10
308.9039917
 20
144.78746033
 30
0.0
  0
VERTEX
  8
0
 10
308.03665161
 20
145.10740662
 30
0.0
  0
VERTEX
  8
0
 10
306.8677063
 20
145.59617615
 30
0.0
  0
VERTEX
  8
0
 10
305.95864868
 20
145.8729248
 30
0.0
  0
VERTEX
  8
0
 10
305.01507568
 20
146.08229065
 30
0.0
  0
VERTEX
  8
0
 10
304.06448364
 20
146.32458496
 30
0.0
  0
VERTEX
  8
0
 10
302.93313599
 20
146.66456604
 30
0.0
  0
VERTEX
  8
0
 10
301.96829224
 20
146.83166504
 30
0.0
  0
VERTEX
  8
0
 10
300.98791504
 20
146.93159485
 30
0.0
  0
VERTEX
  8
0
 10
299.99414063
 20
146.99725342
 30
0.0
  0
VERTEX
  8
0
 10
298.99554443
 20
147.03829956
 30
0.0
  0
VERTEX
  8
0
 10
297.99411011
 20
147.04953003
 30
0.0
  0
VERTEX
  8
0
 10
296.9928894
 20
147.02255249
 30
0.0
  0
VERTEX
  8
0
 10
295.99691772
 20
146.96582031
 30
0.0
  0
VERTEX
  8
0
 10
295.00570679
 20
146.88381958
 30
0.0
  0
VERTEX
  8
0
 10
294.02767944
 20
146.76919556
 30
0.0
  0
VERTEX
  8
0
 10
293.07403564
 20
146.57984924
 30
0.0
  0
VERTEX
  8
0
 10
291.93988037
 20
146.25915527
 30
0.0
  0
VERTEX
  8
0
 10
290.98403931
 20
146.03831482
 30
0.0
  0
VERTEX
  8
0
 10
290.05145264
 20
145.8099823
 30
0.0
  0
VERTEX
  8
0
 10
288.87710571
 20
145.33737183
 30
0.0
  0
VERTEX
  8
0
 10
287.99172974
 20
145.00428772
 30
0.0
  0
VERTEX
  8
0
 10
287.13168335
 20
144.67391968
 30
0.0
  0
VERTEX
  8
0
 10
285.96209717
 20
144.0643158
 30
0.0
  0
VERTEX
  8
0
 10
285.15466309
 20
143.69522095
 30
0.0
  0
VERTEX
  8
0
 10
284.0138855
 20
142.96632385
 30
0.0
  0
VERTEX
  8
0
 10
282.88781738
 20
142.15274048
 30
0.0
  0
VERTEX
  8
0
 10
281.7442627
 20
141.31936646
 30
0.0
  0
VERTEX
  8
0
 10
280.62463379
 20
140.42222595
 30
0.0
  0
VERTEX
  8
0
 10
279.52471924
 20
139.45593262
 30
0.0
  0
VERTEX
  8
0
 10
278.58300781
 20
138.36499023
 30
0.0
  0
VERTEX
  8
0
 10
277.6946106
 20
137.24354553
 30
0.0
  0
VERTEX
  8
0
 10
276.84457397
 20
136.10339355
 30
0.0
  0
VERTEX
  8
0
 10
276.05081177
 20
134.96484375
 30
0.0
  0
VERTEX
  8
0
 10
275.61785889
 20
134.20619202
 30
0.0
  0
VERTEX
  8
0
 10
274.95471191
 20
133.01860046
 30
0.0
  0
VERTEX
  8
0
 10
274.48886108
 20
132.23962402
 30
0.0
  0
VERTEX
  8
0
 10
273.95840454
 20
131.01286316
 30
0.0
  0
VERTEX
  8
0
 10
273.59521484
 20
130.1497345
 30
0.0
  0
VERTEX
  8
0
 10
273.1295166
 20
128.95532227
 30
0.0
  0
VERTEX
  8
0
 10
272.88616943
 20
128.029953
 30
0.0
  0
VERTEX
  8
0
 10
272.6121521
 20
127.09410095
 30
0.0
  0
VERTEX
  8
0
 10
272.27407837
 20
125.9426651
 30
0.0
  0
VERTEX
  8
0
 10
272.10614014
 20
124.98041534
 30
0.0
  0
VERTEX
  8
0
 10
271.98751831
 20
123.99889374
 30
0.0
  0
VERTEX
  8
0
 10
271.9012146
 20
123.00587463
 30
0.0
  0
VERTEX
  8
0
 10
271.84994507
 20
122.00167847
 30
0.0
  0
VERTEX
  8
0
 10
271.83306885
 20
121.00045013
 30
0.0
  0
VERTEX
  8
0
 10
271.84896851
 20
119.99365997
 30
0.0
  0
VERTEX
  8
0
 10
271.89660645
 20
118.99079895
 30
0.0
  0
VERTEX
  8
0
 10
271.96807861
 20
117.99595642
 30
0.0
  0
VERTEX
  8
0
 10
272.06887817
 20
117.00848389
 30
0.0
  0
VERTEX
  8
0
 10
272.21212769
 20
116.03965759
 30
0.0
  0
VERTEX
  8
0
 10
272.44100952
 20
115.08734131
 30
0.0
  0
VERTEX
  8
0
 10
272.76745605
 20
113.94445801
 30
0.0
  0
VERTEX
  8
0
 10
272.99295044
 20
112.99760437
 30
0.0
  0
VERTEX
  8
0
 10
273.24734497
 20
112.07961273
 30
0.0
  0
VERTEX
  8
0
 10
273.74563599
 20
110.90679169
 30
0.0
  0
VERTEX
  8
0
 10
274.04885864
 20
110.0192337
 30
0.0
  0
VERTEX
  8
0
 10
274.59893799
 20
108.81472778
 30
0.0
  0
VERTEX
  8
0
 10
275.00317383
 20
108.00249481
 30
0.0
  0
VERTEX
  8
0
 10
275.70257568
 20
106.82331085
 30
0.0
  0
VERTEX
  8
0
 10
276.39001465
 20
105.58171082
 30
0.0
  0
VERTEX
  8
0
 10
276.98165894
 20
104.98860168
 30
0.0
  0
VERTEX
  8
0
 10
277.85739136
 20
103.89004517
 30
0.0
  0
VERTEX
  8
0
 10
278.77163696
 20
102.79496002
 30
0.0
  0
VERTEX
  8
0
 10
279.78118896
 20
101.77482605
 30
0.0
  0
VERTEX
  8
0
 10
280.85263062
 20
100.82541656
 30
0.0
  0
VERTEX
  8
0
 10
281.94528198
 20
99.93400574
 30
0.0
  0
VERTEX
  8
0
 10
282.46636963
 20
99.27697754
 30
0.0
  0
VERTEX
  8
0
 10
283.77072144
 20
98.63407135
 30
0.0
  0
VERTEX
  8
0
 10
284.95599365
 20
97.92977905
 30
0.0
  0
VERTEX
  8
0
 10
285.69195557
 20
97.42067719
 30
0.0
  0
VERTEX
  8
0
 10
286.94274902
 20
96.88145447
 30
0.0
  0
VERTEX
  8
0
 10
287.7527771
 20
96.41664886
 30
0.0
  0
VERTEX
  8
0
 10
288.99490356
 20
95.99949646
 30
0.0
  0
VERTEX
  8
0
 10
289.89852905
 20
95.70368958
 30
0.0
  0
VERTEX
  8
0
 10
291.06713867
 20
95.26967621
 30
0.0
  0
VERTEX
  8
0
 10
292.00622559
 20
95.05164337
 30
0.0
  0
VERTEX
  8
0
 10
292.97192383
 20
94.87257385
 30
0.0
  0
VERTEX
  8
0
 10
293.95541382
 20
94.69929504
 30
0.0
  0
VERTEX
  8
0
 10
295.04754639
 20
94.49009705
 30
0.0
  0
SEQEND
  0
POLYLINE
  8
0
 66
1
 10
0.0
 20
0.0
 30
0.0
 70
0
  0
VERTEX
  8
0
 10
445.78179932
 20
84.03869629
 30
0.0
  0
VERTEX
  8
0
 10
446.52670288
 20
83.78048706
 30
0.0
  0
VERTEX
  8
0
 10
447.28027344
 20
83.55183411
 30
0.0
  0
VERTEX
  8
0
 10
448.05148315
 20
83.33969879
 30
0.0
  0
VERTEX
  8
0
 10
448.82208252
 20
83.14315796
 30
0.0
  0
VERTEX
  8
0
 10
449.63461304
 20
82.95600128
 30
0.0
  0
VERTEX
  8
0
 10
450.42944336
 20
82.8015213
 30
0.0
  0
VERTEX
  8
0
 10
451.23239136
 20
82.68823242
 30
0.0
  0
VERTEX
  8
0
 10
452.01351929
 20
82.64812469
 30
0.0
  0
VERTEX
  8
0
 10
453.11486816
 20
82.97540283
 30
0.0
  0
VERTEX
  8
0
 10
453.92538452
 20
83.74469757
 30
0.0
  0
VERTEX
  8
0
 10
454.26675415
 20
84.44908142
 30
0.0
  0
VERTEX
  8
0
 10
454.55432129
 20
85.19564056
 30
0.0
  0
VERTEX
  8
0
 10
454.8187561
 20
85.95225525
 30
0.0
  0
VERTEX
  8
0
 10
455.07388306
 20
86.71070862
 30
0.0
  0
VERTEX
  8
0
 10
455.33349609
 20
87.46353912
 30
0.0
  0
VERTEX
  8
0
 10
455.61813354
 20
88.19631195
 30
0.0
  0
VERTEX
  8
0
 10
455.97186279
 20
88.88574982
 30
0.0
  0
VERTEX
  8
0
 10
456.48028564
 20
89.67920685
 30
0.0
  0
VERTEX
  8
0
 10
457.22988892
 20
90.65852356
 30
0.0
  0
VERTEX
  8
0
 10
458.41635132
 20
91.20990753
 30
0.0
  0
VERTEX
  8
0
 10
459.54656982
 20
91.37215424
 30
0.0
  0
VERTEX
  8
0
 10
460.58145142
 20
91.56750488
 30
0.0
  0
VERTEX
  8
0
 10
461.32394409
 20
91.61154938
 30
0.0
  0
VERTEX
  8
0
 10
462.33398438
 20
91.74131775
 30
0.0
  0
VERTEX
  8
0
 10
463.08666992
 20
91.73827362
 30
0.0
  0
VERTEX
  8
0
 10
463.85632324
 20
91.61829376
 30
0.0
  0
VERTEX
  8
0
 10
464.62631226
 20
91.40377045
 30
0.0
  0
VERTEX
  8
0
 10
465.34078979
 20
91.08934021
 30
0.0
  0
VERTEX
  8
0
 10
465.91223145
 20
90.68052673
 30
0.0
  0
VERTEX
  8
0
 10
466.58843994
 20
89.87648773
 30
0.0
  0
VERTEX
  8
0
 10
467.17059326
 20
88.91802979
 30
0.0
  0
VERTEX
  8
0
 10
467.72155762
 20
87.93083191
 30
0.0
  0
VERTEX
  8
0
 10
468.29968262
 20
86.95755768
 30
0.0
  0
VERTEX
  8
0
 10
468.58126831
 20
86.36364746
 30
0.0
  0
VERTEX
  8
0
 10
469.55187988
 20
85.62615967
 30
0.0
  0
VERTEX
  8
0
 10
470.36709595
 20
85.34221649
 30
0.0
  0
VERTEX
  8
0
 10
471.16238403
 20
85.29206848
 30
0.0
  0
VERTEX
  8
0
 10
472.23638916
 20
85.57318878
 30
0.0
  0
VERTEX
  8
0
 10
473.33154297
 20
85.88194275
 30
0.0
  0
VERTEX
  8
0
 10
473.91107178
 20
86.16399384
 30
0.0
  0
VERTEX
  8
0
 10
474.93453979
 20
86.63972473
 30
0.0
  0
VERTEX
  8
0
 10
475.94522095
 20
87.15324402
 30
0.0
  0
VERTEX
  8
0
 10
476.94570923
 20
87.68281555
 30
0.0
  0
VERTEX
  8
0
 10
477.93145752
 20
88.24589539
 30
0.0
  0
VERTEX
  8
0
 10
478.90536499
 20
88.82264709
 30
0.0
  0
VERTEX
  8
0
 10
479.84161377
 20
89.44261932
 30
0.0
  0
VERTEX
  8
0
 10
480.61288452
 20
90.16491699
 30
0.0
  0
VERTEX
  8
0
 10
481.01025391
 20
90.74734497
 30
0.0
  0
VERTEX
  8
0
 10
481.27062988
 20
91.47801971
 30
0.0
  0
VERTEX
  8
0
 10
481.36431885
 20
92.21897888
 30
0.0
  0
VERTEX
  8
0
 10
481.14486694
 20
92.82462311
 30
0.0
  0
VERTEX
  8
0
 10
480.89581299
 20
93.83123779
 30
0.0
  0
VERTEX
  8
0
 10
480.41918945
 20
94.83899689
 30
0.0
  0
VERTEX
  8
0
 10
479.87481689
 20
95.83526611
 30
0.0
  0
VERTEX
  8
0
 10
479.38433838
 20
96.87142944
 30
0.0
  0
VERTEX
  8
0
 10
479.01144409
 20
97.95307922
 30
0.0
  0
VERTEX
  8
0
 10
478.88687134
 20
98.95106506
 30
0.0
  0
VERTEX
  8
0
 10
478.96640015
 20
99.68588257
 30
0.0
  0
VERTEX
  8
0
 10
479.18557739
 20
100.41807556
 30
0.0
  0
VERTEX
  8
0
 10
479.52133179
 20
101.10025024
 30
0.0
  0
VERTEX
  8
0
 10
480.0826416
 20
101.89710236
 30
0.0
  0
VERTEX
  8
0
 10
480.50268555
 20
102.52863312
 30
0.0
  0
VERTEX
  8
0
 10
481.17047119
 20
103.33351898
 30
0.0
  0
VERTEX
  8
0
 10
481.65390015
 20
103.88903809
 30
0.0
  0
VERTEX
  8
0
 10
482.44421387
 20
104.67453003
 30
0.0
  0
VERTEX
  8
0
 10
483.45458984
 20
105.3881073
 30
0.0
  0
VERTEX
  8
0
 10
484.62533569
 20
105.6531601
 30
0.0
  0
VERTEX
  8
0
 10
485.62005615
 20
105.72330475
 30
0.0
  0
VERTEX
  8
0
 10
486.37246704
 20
105.64159393
 30
0.0
  0
VERTEX
  8
0
 10
487.14157104
 20
105.47132874
 30
0.0
  0
VERTEX
  8
0
 10
487.90856934
 20
105.25682831
 30
0.0
  0
VERTEX
  8
0
 10
488.67941284
 20
105.0318222
 30
0.0
  0
VERTEX
  8
0
 10
489.4598999
 20
104.83431244
 30
0.0
  0
VERTEX
  8
0
 10
490.24688721
 20
104.70451355
 30
0.0
  0
VERTEX
  8
0
 10
491.37243652
 20
104.73947144
 30
0.0
  0
VERTEX
  8
0
 10
492.49551392
 20
105.53805542
 30
0.0
  0
VERTEX
  8
0
 10
493.08032227
 20
106.37016296
 30
0.0
  0
VERTEX
  8
0
 10
493.40341187
 20
107.08755493
 30
0.0
  0
VERTEX
  8
0
 10
493.69213867
 20
107.82929993
 30
0.0
  0
VERTEX
  8
0
 10
493.96795654
 20
108.57896423
 30
0.0
  0
VERTEX
  8
0
 10
494.23513794
 20
109.33200836
 30
0.0
  0
VERTEX
  8
0
 10
494.48898315
 20
110.09163666
 30
0.0
  0
VERTEX
  8
0
 10
494.72677612
 20
110.86225891
 30
0.0
  0
VERTEX
  8
0
 10
494.94628906
 20
111.63517761
 30
0.0
  0
VERTEX
  8
0
 10
495.14849854
 20
112.4105072
 30
0.0
  0
VERTEX
  8
0
 10
495.33404541
 20
113.19035339
 30
0.0
  0
VERTEX
  8
0
 10
495.49807739
 20
113.97071075
 30
0.0
  0
VERTEX
  8
0
 10
495.62997437
 20
114.75099182
 30
0.0
  0
VERTEX
  8
0
 10
495.69396973
 20
115.51678467
 30
0.0
  0
VERTEX
  8
0
 10
495.53933716
 20
116.53883362
 30
0.0
  0
VERTEX
  8
0
 10
494.91192627
 20
117.5408783
 30
0.0
  0
VERTEX
  8
0
 10
494.24716187
 20
117.98234558
 30
0.0
  0
VERTEX
  8
0
 10
493.43283081
 20
118.39278412
 30
0.0
  0
VERTEX
  8
0
 10
492.7093811
 20
118.69671631
 30
0.0
  0
VERTEX
  8
0
 10
491.96542358
 20
118.97327423
 30
0.0
  0
VERTEX
  8
0
 10
491.20596313
 20
119.23924255
 30
0.0
  0
VERTEX
  8
0
 10
490.44940186
 20
119.50289917
 30
0.0
  0
VERTEX
  8
0
 10
489.70111084
 20
119.78514099
 30
0.0
  0
VERTEX
  8
0
 10
488.97677612
 20
120.11343384
 30
0.0
  0
VERTEX
  8
0
 10
488.06365967
 20
120.74029541
 30
0.0
  0
VERTEX
  8
0
 10
487.36724854
 20
121.89969635
 30
0.0
  0
VERTEX
  8
0
 10
487.17477417
 20
123.02747345
 30
0.0
  0
VERTEX
  8
0
 10
486.94009399
 20
124.07221222
 30
0.0
  0
VERTEX
  8
0
 10
486.8772583
 20
124.80374146
 30
0.0
  0
VERTEX
  8
0
 10
486.7192688
 20
125.82475281
 30
0.0
  0
VERTEX
  8
0
 10
486.72042847
 20
126.58066559
 30
0.0
  0
VERTEX
  8
0
 10
486.78421021
 20
127.35873413
 30
0.0
  0
VERTEX
  8
0
 10
486.91940308
 20
128.1683197
 30
0.0
  0
VERTEX
  8
0
 10
487.20571899
 20
128.97529602
 30
0.0
  0
VERTEX
  8
0
 10
487.59768677
 20
129.66624451
 30
0.0
  0
VERTEX
  8
0
 10
488.38592529
 20
130.47486877
 30
0.0
  0
VERTEX
  8
0
 10
489.35525513
 20
131.16882324
 30
0.0
  0
VERTEX
  8
0
 10
490.38497925
 20
131.69218445
 30
0.0
  0
VERTEX
  8
0
 10
491.35302734
 20
132.22465515
 30
0.0
  0
VERTEX
  8
0
 10
491.85635376
 20
132.52911377
 30
0.0
  0
VERTEX
  8
0
 10
492.66970825
 20
133.24169922
 30
0.0
  0
VERTEX
  8
0
 10
493.03759766
 20
133.88708496
 30
0.0
  0
VERTEX
  8
0
 10
493.26815796
 20
134.65208435
 30
0.0
  0
VERTEX
  8
0
 10
493.32174683
 20
135.39756775
 30
0.0
  0
VERTEX
  8
0
 10
493.02508545
 20
136.43780518
 30
0.0
  0
VERTEX
  8
0
 10
492.78759766
 20
137.02072144
 30
0.0
  0
VERTEX
  8
0
 10
492.37234497
 20
138.0463562
 30
0.0
  0
VERTEX
  8
0
 10
491.90252686
 20
139.07138062
 30
0.0
  0
VERTEX
  8
0
 10
491.38302612
 20
140.0559082
 30
0.0
  0
VERTEX
  8
0
 10
490.80834961
 20
141.03372192
 30
0.0
  0
VERTEX
  8
0
 10
490.20455933
 20
141.96427917
 30
0.0
  0
VERTEX
  8
0
 10
489.52307129
 20
142.83711243
 30
0.0
  0
VERTEX
  8
0
 10
489.16101074
 20
143.35968018
 30
0.0
  0
VERTEX
  8
0
 10
488.3944397
 20
143.9886322
 30
0.0
  0
VERTEX
  8
0
 10
487.78250122
 20
144.31808472
 30
0.0
  0
VERTEX
  8
0
 10
487.05126953
 20
144.52345276
 30
0.0
  0
VERTEX
  8
0
 10
486.12716675
 20
144.60534668
 30
0.0
  0
VERTEX
  8
0
 10
485.33587646
 20
144.5836792
 30
0.0
  0
VERTEX
  8
0
 10
484.61727905
 20
144.52037048
 30
0.0
  0
VERTEX
  8
0
 10
483.5786438
 20
144.19015503
 30
0.0
  0
VERTEX
  8
0
 10
483.09246826
 20
143.84063721
 30
0.0
  0
VERTEX
  8
0
 10
482.08453369
 20
143.35957336
 30
0.0
  0
VERTEX
  8
0
 10
480.99822998
 20
142.92802429
 30
0.0
  0
VERTEX
  8
0
 10
479.85177612
 20
142.64152527
 30
0.0
  0
VERTEX
  8
0
 10
478.89892578
 20
142.62176514
 30
0.0
  0
VERTEX
  8
0
 10
478.20507813
 20
142.80888367
 30
0.0
  0
VERTEX
  8
0
 10
477.39434814
 20
143.28067017
 30
0.0
  0
VERTEX
  8
0
 10
476.76025391
 20
143.7073822
 30
0.0
  0
VERTEX
  8
0
 10
476.15423584
 20
144.15129089
 30
0.0
  0
VERTEX
  8
0
 10
475.38031006
 20
144.83636475
 30
0.0
  0
VERTEX
  8
0
 10
474.79217529
 20
145.2816925
 30
0.0
  0
VERTEX
  8
0
 10
474.040802
 20
146.03546143
 30
0.0
  0
VERTEX
  8
0
 10
473.24179077
 20
146.89268494
 30
0.0
  0
VERTEX
  8
0
 10
472.83804321
 20
148.10069275
 30
0.0
  0
VERTEX
  8
0
 10
472.75286865
 20
149.10760498
 30
0.0
  0
VERTEX
  8
0
 10
472.85137939
 20
149.87875366
 30
0.0
  0
VERTEX
  8
0
 10
473.01538086
 20
150.65664673
 30
0.0
  0
VERTEX
  8
0
 10
473.21148682
 20
151.43043518
 30
0.0
  0
VERTEX
  8
0
 10
473.42437744
 20
152.20161438
 30
0.0
  0
VERTEX
  8
0
 10
473.64108276
 20
152.97154236
 30
0.0
  0
VERTEX
  8
0
 10
473.84466553
 20
153.74398804
 30
0.0
  0
VERTEX
  8
0
 10
473.98632813
 20
154.51777649
 30
0.0
  0
VERTEX
  8
0
 10
473.98928833
 20
155.21582031
 30
0.0
  0
VERTEX
  8
0
 10
473.62954712
 20
156.14480591
 30
0.0
  0
VERTEX
  8
0
 10
473.12774658
 20
156.60580444
 30
0.0
  0
VERTEX
  8
0
 10
472.33630371
 20
157.16056824
 30
0.0
  0
VERTEX
  8
0
 10
471.64196777
 20
157.49339294
 30
0.0
  0
VERTEX
  8
0
 10
470.90194702
 20
157.78796387
 30
0.0
  0
VERTEX
  8
0
 10
470.15267944
 20
158.0657196
 30
0.0
  0
VERTEX
  8
0
 10
469.40127563
 20
158.32380676
 30
0.0
  0
VERTEX
  8
0
 10
468.64065552
 20
158.56013489
 30
0.0
  0
VERTEX
  8
0
 10
467.87084961
 20
158.77264404
 30
0.0
  0
VERTEX
  8
0
 10
467.09683228
 20
158.97007751
 30
0.0
  0
VERTEX
  8
0
 10
466.32092285
 20
159.15821838
 30
0.0
  0
VERTEX
  8
0
 10
465.54528809
 20
159.33615112
 30
0.0
  0
VERTEX
  8
0
 10
464.77334595
 20
159.49188232
 30
0.0
  0
VERTEX
  8
0
 10
464.00418091
 20
159.60630798
 30
0.0
  0
VERTEX
  8
0
 10
463.06762695
 20
159.65507507
 30
0.0
  0
VERTEX
  8
0
 10
462.29916382
 20
159.62261963
 30
0.0
  0
VERTEX
  8
0
 10
461.23831177
 20
159.21600342
 30
0.0
  0
VERTEX
  8
0
 10
460.47869873
 20
158.47094727
 30
0.0
  0
VERTEX
  8
0
 10
460.12985229
 20
157.79595947
 30
0.0
  0
VERTEX
  8
0
 10
459.84307861
 20
157.05323792
 30
0.0
  0
VERTEX
  8
0
 10
459.58459473
 20
156.29721069
 30
0.0
  0
VERTEX
  8
0
 10
459.33074951
 20
155.54016113
 30
0.0
  0
VERTEX
  8
0
 10
459.07601929
 20
154.77978516
 30
0.0
  0
VERTEX
  8
0
 10
458.8145752
 20
154.0267334
 30
0.0
  0
VERTEX
  8
0
 10
458.52682495
 20
153.29890442
 30
0.0
  0
VERTEX
  8
0
 10
458.16558838
 20
152.6245575
 30
0.0
  0
VERTEX
  8
0
 10
457.55047607
 20
151.85098267
 30
0.0
  0
VERTEX
  8
0
 10
456.53955078
 20
151.24586487
 30
0.0
  0
VERTEX
  8
0
 10
455.48669434
 20
150.98136902
 30
0.0
  0
VERTEX
  8
0
 10
454.75073242
 20
150.93087769
 30
0.0
  0
VERTEX
  8
0
 10
453.72546387
 20
150.76913452
 30
0.0
  0
VERTEX
  8
0
 10
452.97918701
 20
150.72669983
 30
0.0
  0
VERTEX
  8
0
 10
452.21737671
 20
150.70591736
 30
0.0
  0
VERTEX
  8
0
 10
451.25598145
 20
150.72689819
 30
0.0
  0
VERTEX
  8
0
 10
450.52307129
 20
150.88861084
 30
0.0
  0
VERTEX
  8
0
 10
449.8109436
 20
151.16525269
 30
0.0
  0
VERTEX
  8
0
 10
449.00967407
 20
151.69125366
 30
0.0
  0
VERTEX
  8
0
 10
448.4357605
 20
152.15655518
 30
0.0
  0
VERTEX
  8
0
 10
447.79702759
 20
153.07336426
 30
0.0
  0
VERTEX
  8
0
 10
447.24267578
 20
154.0637207
 30
0.0
  0
VERTEX
  8
0
 10
446.72506714
 20
155.0688324
 30
0.0
  0
VERTEX
  8
0
 10
446.17953491
 20
156.05801392
 30
0.0
  0
VERTEX
  8
0
 10
445.53909302
 20
156.95506287
 30
0.0
  0
VERTEX
  8
0
 10
444.93569946
 20
157.34638977
 30
0.0
  0
VERTEX
  8
0
 10
444.14776611
 20
157.60868835
 30
0.0
  0
VERTEX
  8
0
 10
443.39282227
 20
157.66021729
 30
0.0
  0
VERTEX
  8
0
 10
442.33218384
 20
157.33215332
 30
0.0
  0
VERTEX
  8
0
 10
441.2885437
 20
156.89877319
 30
0.0
  0
VERTEX
  8
0
 10
440.24606323
 20
156.43408203
 30
0.0
  0
VERTEX
  8
0
 10
439.22845459
 20
155.90507507
 30
0.0
  0
VERTEX
  8
0
 10
438.23580933
 20
155.33558655
 30
0.0
  0
VERTEX
  8
0
 10
437.24246216
 20
154.77536011
 30
0.0
  0
VERTEX
  8
0
 10
436.28619385
 20
154.16116333
 30
0.0
  0
VERTEX
  8
0
 10
435.35357666
 20
153.52400208
 30
0.0
  0
VERTEX
  8
0
 10
434.45568848
 20
152.8568573
 30
0.0
  0
VERTEX
  8
0
 10
433.93676758
 20
152.39247131
 30
0.0
  0
VERTEX
  8
0
 10
433.28921509
 20
151.53868103
 30
0.0
  0
VERTEX
  8
0
 10
433.059021
 20
150.80439758
 30
0.0
  0
VERTEX
  8
0
 10
433.01565552
 20
149.72596741
 30
0.0
  0
VERTEX
  8
0
 10
433.26028442
 20
149.04458618
 30
0.0
  0
VERTEX
  8
0
 10
433.71520996
 20
148.00509644
 30
0.0
  0
VERTEX
  8
0
 10
434.21643066
 20
146.98925781
 30
0.0
  0
VERTEX
  8
0
 10
434.70730591
 20
145.9838562
 30
0.0
  0
VERTEX
  8
0
 10
435.10021973
 20
144.97592163
 30
0.0
  0
VERTEX
  8
0
 10
435.28387451
 20
144.32539368
 30
0.0
  0
VERTEX
  8
0
 10
435.48843384
 20
143.29411316
 30
0.0
  0
VERTEX
  8
0
 10
435.43167114
 20
142.56896973
 30
0.0
  0
VERTEX
  8
0
 10
435.22341919
 20
141.82276917
 30
0.0
  0
VERTEX
  8
0
 10
434.89547729
 20
141.13026428
 30
0.0
  0
VERTEX
  8
0
 10
434.28405762
 20
140.32830811
 30
0.0
  0
VERTEX
  8
0
 10
433.8494873
 20
139.72044373
 30
0.0
  0
VERTEX
  8
0
 10
433.40057373
 20
139.12539673
 30
0.0
  0
VERTEX
  8
0
 10
432.68887329
 20
138.36157227
 30
0.0
  0
VERTEX
  8
0
 10
431.91079712
 20
137.56173706
 30
0.0
  0
VERTEX
  8
0
 10
430.80847168
 20
136.85694885
 30
0.0
  0
VERTEX
  8
0
 10
429.66098022
 20
136.77893066
 30
0.0
  0
VERTEX
  8
0
 10
428.86846924
 20
136.86880493
 30
0.0
  0
VERTEX
  8
0
 10
428.07614136
 20
137.02154541
 30
0.0
  0
VERTEX
  8
0
 10
427.29129028
 20
137.22627258
 30
0.0
  0
VERTEX
  8
0
 10
426.51953125
 20
137.46083069
 30
0.0
  0
VERTEX
  8
0
 10
425.75921631
 20
137.69233704
 30
0.0
  0
VERTEX
  8
0
 10
424.9934082
 20
137.89450073
 30
0.0
  0
VERTEX
  8
0
 10
424.22961426
 20
138.01982117
 30
0.0
  0
VERTEX
  8
0
 10
423.27407837
 20
137.99873352
 30
0.0
  0
VERTEX
  8
0
 10
422.14123535
 20
137.4533844
 30
0.0
  0
VERTEX
  8
0
 10
421.48352051
 20
136.65362549
 30
0.0
  0
VERTEX
  8
0
 10
421.13430786
 20
135.95765686
 30
0.0
  0
VERTEX
  8
0
 10
420.82626343
 20
135.22650146
 30
0.0
  0
VERTEX
  8
0
 10
420.54797363
 20
134.47732544
 30
0.0
  0
VERTEX
  8
0
 10
420.28884888
 20
133.71569824
 30
0.0
  0
VERTEX
  8
0
 10
420.04660034
 20
132.95410156
 30
0.0
  0
VERTEX
  8
0
 10
419.81521606
 20
132.18537903
 30
0.0
  0
VERTEX
  8
0
 10
419.59707642
 20
131.41003418
 30
0.0
  0
VERTEX
  8
0
 10
419.38983154
 20
130.6374054
 30
0.0
  0
VERTEX
  8
0
 10
419.19342041
 20
129.86276245
 30
0.0
  0
VERTEX
  8
0
 10
419.00604248
 20
129.08520508
 30
0.0
  0
VERTEX
  8
0
 10
418.8460083
 20
128.30516052
 30
0.0
  0
VERTEX
  8
0
 10
418.73916626
 20
127.52922821
 30
0.0
  0
VERTEX
  8
0
 10
418.75265503
 20
126.77645111
 30
0.0
  0
VERTEX
  8
0
 10
418.88717651
 20
125.77853394
 30
0.0
  0
VERTEX
  8
0
 10
419.42883301
 20
124.77921295
 30
0.0
  0
VERTEX
  8
0
 10
420.03173828
 20
124.30660248
 30
0.0
  0
VERTEX
  8
0
 10
420.84841919
 20
123.83146667
 30
0.0
  0
VERTEX
  8
0
 10
421.57818604
 20
123.54093933
 30
0.0
  0
VERTEX
  8
0
 10
422.3366394
 20
123.28395081
 30
0.0
  0
VERTEX
  8
0
 10
423.09451294
 20
123.03397369
 30
0.0
  0
VERTEX
  8
0
 10
423.85455322
 20
122.76629639
 30
0.0
  0
VERTEX
  8
0
 10
424.59811401
 20
122.46611023
 30
0.0
  0
VERTEX
  8
0
 10
425.30743408
 20
122.12943268
 30
0.0
  0
VERTEX
  8
0
 10
425.94534302
 20
121.7312088
 30
0.0
  0
VERTEX
  8
0
 10
426.6572876
 20
120.98487854
 30
0.0
  0
VERTEX
  8
0
 10
427.15704346
 20
119.97891235
 30
0.0
  0
VERTEX
  8
0
 10
427.42980957
 20
118.95111847
 30
0.0
  0
VERTEX
  8
0
 10
427.51083374
 20
118.22948456
 30
0.0
  0
VERTEX
  8
0
 10
427.65509033
 20
117.18817902
 30
0.0
  0
VERTEX
  8
0
 10
427.75161743
 20
116.46186066
 30
0.0
  0
VERTEX
  8
0
 10
427.77163696
 20
115.70765686
 30
0.0
  0
VERTEX
  8
0
 10
427.79129028
 20
114.7412796
 30
0.0
  0
VERTEX
  8
0
 10
427.64120483
 20
114.02413177
 30
0.0
  0
VERTEX
  8
0
 10
427.32769775
 20
113.39034271
 30
0.0
  0
VERTEX
  8
0
 10
426.67657471
 20
112.64767456
 30
0.0
  0
VERTEX
  8
0
 10
426.15115356
 20
112.34338379
 30
0.0
  0
VERTEX
  8
0
 10
425.22689819
 20
111.74803162
 30
0.0
  0
VERTEX
  8
0
 10
424.24414063
 20
111.20427704
 30
0.0
  0
VERTEX
  8
0
 10
423.24557495
 20
110.67221832
 30
0.0
  0
VERTEX
  8
0
 10
422.23361206
 20
110.08427429
 30
0.0
  0
VERTEX
  8
0
 10
421.40625
 20
109.22844696
 30
0.0
  0
VERTEX
  8
0
 10
421.08581543
 20
108.43889618
 30
0.0
  0
VERTEX
  8
0
 10
420.99639893
 20
107.62519836
 30
0.0
  0
VERTEX
  8
0
 10
421.21566772
 20
106.52605438
 30
0.0
  0
VERTEX
  8
0
 10
421.50494385
 20
105.40090942
 30
0.0
  0
VERTEX
  8
0
 10
421.85891724
 20
104.86122894
 30
0.0
  0
VERTEX
  8
0
 10
422.33966064
 20
103.83753204
 30
0.0
  0
VERTEX
  8
0
 10
422.83013916
 20
102.81700897
 30
0.0
  0
VERTEX
  8
0
 10
423.36645508
 20
101.80631256
 30
0.0
  0
VERTEX
  8
0
 10
423.96154785
 20
100.8417511
 30
0.0
  0
VERTEX
  8
0
 10
424.54040527
 20
99.87149811
 30
0.0
  0
VERTEX
  8
0
 10
425.13723755
 20
98.91304779
 30
0.0
  0
VERTEX
  8
0
 10
425.47021484
 20
98.34955597
 30
0.0
  0
VERTEX
  8
0
 10
426.33789063
 20
97.56327057
 30
0.0
  0
VERTEX
  8
0
 10
427.15179443
 20
97.17683411
 30
0.0
  0
VERTEX
  8
0
 10
427.98168945
 20
97.02639008
 30
0.0
  0
VERTEX
  8
0
 10
428.72421265
 20
97.06965637
 30
0.0
  0
VERTEX
  8
0
 10
429.7677002
 20
97.48025513
 30
0.0
  0
VERTEX
  8
0
 10
430.78292847
 20
97.98184204
 30
0.0
  0
VERTEX
  8
0
 10
431.79006958
 20
98.49395752
 30
0.0
  0
VERTEX
  8
0
 10
432.80059814
 20
98.96270752
 30
0.0
  0
VERTEX
  8
0
 10
433.81253052
 20
99.23600769
 30
0.0
  0
VERTEX
  8
0
 10
434.48626709
 20
99.36617279
 30
0.0
  0
VERTEX
  8
0
 10
435.25234985
 20
99.33506012
 30
0.0
  0
VERTEX
  8
0
 10
436.05233765
 20
99.20688629
 30
0.0
  0
VERTEX
  8
0
 10
436.84158325
 20
98.943367
 30
0.0
  0
VERTEX
  8
0
 10
437.55706787
 20
98.58970642
 30
0.0
  0
VERTEX
  8
0
 10
438.20532227
 20
98.19312286
 30
0.0
  0
VERTEX
  8
0
 10
438.99365234
 20
97.53276062
 30
0.0
  0
VERTEX
  8
0
 10
439.59133911
 20
97.08856201
 30
0.0
  0
VERTEX
  8
0
 10
440.15585327
 20
96.62438202
 30
0.0
  0
VERTEX
  8
0
 10
440.896698
 20
95.87624359
 30
0.0
  0
VERTEX
  8
0
 10
441.50372314
 20
94.92698669
 30
0.0
  0
VERTEX
  8
0
 10
441.74249268
 20
93.91912842
 30
0.0
  0
VERTEX
  8
0
 10
441.6741333
 20
93.17159271
 30
0.0
  0
VERTEX
  8
0
 10
441.5085144
 20
92.39684296
 30
0.0
  0
VERTEX
  8
0
 10
441.30935669
 20
91.62224579
 30
0.0
  0
VERTEX
  8
0
 10
441.10095215
 20
90.85007477
 30
0.0
  0
VERTEX
  8
0
 10
440.8838501
 20
90.08023834
 30
0.0
  0
VERTEX
  8
0
 10
440.66720581
 20
89.31005859
 30
0.0
  0
VERTEX
  8
0
 10
440.48712158
 20
88.53507233
 30
0.0
  0
VERTEX
  8
0
 10
440.40460205
 20
87.77101898
 30
0.0
  0
VERTEX
  8
0
 10
440.64215088
 20
86.7392807
 30
0.0
  0
VERTEX
  8
0
 10
441.35894775
 20
85.91700745
 30
0.0
  0
VERTEX
  8
0
 10
442.03198242
 20
85.54496765
 30
0.0
  0
VERTEX
  8
0
 10
442.75640869
 20
85.22434998
 30
0.0
  0
VERTEX
  8
0
 10
443.49795532
 20
84.92201996
 30
0.0
  0
VERTEX
  8
0
 10
444.24862671
 20
84.62844849
 30
0.0
  0
VERTEX
  8
0
 10
444.99908447
 20
84.33515167
 30
0.0
  0
VERTEX
  8
0
 10
445.78179932
 20
84.03869629
 30
0.0
  0
SEQEND
  0
POLYLINE
  8
0
 66
1
 10
0.0
 20
0.0
 30
0.0
 70
0
  0
VERTEX
  8
0
 10
448.49517822
 20
101.58906555
 30
0.0
  0
VERTEX
  8
0
 10
449.2175293
 20
101.26716614
 30
0.0
  0
VERTEX
  8
0
 10
449.95309448
 20
100.99249268
 30
0.0
  0
VERTEX
  8
0
 10
450.70477295
 20
100.74817657
 30
0.0
  0
VERTEX
  8
0
 10
451.46755981
 20
100.53153992
 30
0.0
  0
VERTEX
  8
0
 10
452.23760986
 20
100.34399414
 30
0.0
  0
VERTEX
  8
0
 10
453.01190186
 20
100.20009613
 30
0.0
  0
VERTEX
  8
0
 10
453.90426636
 20
100.10449219
 30
0.0
  0
VERTEX
  8
0
 10
454.69256592
 20
100.02601624
 30
0.0
  0
VERTEX
  8
0
 10
455.47229004
 20
99.93615723
 30
0.0
  0
VERTEX
  8
0
 10
456.24978638
 20
99.85400391
 30
0.0
  0
VERTEX
  8
0
 10
457.01412964
 20
99.84286499
 30
0.0
  0
VERTEX
  8
0
 10
458.00665283
 20
99.91362
 30
0.0
  0
VERTEX
  8
0
 10
458.75952148
 20
99.92869568
 30
0.0
  0
VERTEX
  8
0
 10
459.79702759
 20
100.06814575
 30
0.0
  0
VERTEX
  8
0
 10
460.52203369
 20
100.1678772
 30
0.0
  0
VERTEX
  8
0
 10
461.57855225
 20
100.40229797
 30
0.0
  0
VERTEX
  8
0
 10
462.2663269
 20
100.5355835
 30
0.0
  0
VERTEX
  8
0
 10
463.3145752
 20
100.87560272
 30
0.0
  0
VERTEX
  8
0
 10
464.38208008
 20
101.24571228
 30
0.0
  0
VERTEX
  8
0
 10
465.45697021
 20
101.6510849
 30
0.0
  0
VERTEX
  8
0
 10
466.50198364
 20
102.14493561
 30
0.0
  0
VERTEX
  8
0
 10
467.50656128
 20
102.75028229
 30
0.0
  0
VERTEX
  8
0
 10
468.44659424
 20
103.39379883
 30
0.0
  0
VERTEX
  8
0
 10
469.3699646
 20
104.04317474
 30
0.0
  0
VERTEX
  8
0
 10
470.28677368
 20
104.70116425
 30
0.0
  0
VERTEX
  8
0
 10
471.13467407
 20
105.39741516
 30
0.0
  0
VERTEX
  8
0
 10
471.85641479
 20
106.19355774
 30
0.0
  0
VERTEX
  8
0
 10
472.38613892
 20
106.66618347
 30
0.0
  0
VERTEX
  8
0
 10
472.84429932
 20
107.23796082
 30
0.0
  0
VERTEX
  8
0
 10
473.54489136
 20
108.01198578
 30
0.0
  0
VERTEX
  8
0
 10
473.97106934
 20
108.63111115
 30
0.0
  0
VERTEX
  8
0
 10
474.56771851
 20
109.42319489
 30
0.0
  0
VERTEX
  8
0
 10
474.99575806
 20
110.05947113
 30
0.0
  0
VERTEX
  8
0
 10
475.35455322
 20
110.75175476
 30
0.0
  0
VERTEX
  8
0
 10
475.69967651
 20
111.4608078
 30
0.0
  0
VERTEX
  8
0
 10
476.05105591
 20
112.17963409
 30
0.0
  0
VERTEX
  8
0
 10
476.43713379
 20
112.9695816
 30
0.0
  0
VERTEX
  8
0
 10
476.74298096
 20
113.69774628
 30
0.0
  0
VERTEX
  8
0
 10
477.00283813
 20
114.44106293
 30
0.0
  0
VERTEX
  8
0
 10
477.22845459
 20
115.19759369
 30
0.0
  0
VERTEX
  8
0
 10
477.42123413
 20
115.96473694
 30
0.0
  0
VERTEX
  8
0
 10
477.57946777
 20
116.73774719
 30
0.0
  0
VERTEX
  8
0
 10
477.70568848
 20
117.60228729
 30
0.0
  0
VERTEX
  8
0
 10
477.80130005
 20
118.40148163
 30
0.0
  0
VERTEX
  8
0
 10
477.89199829
 20
119.1869812
 30
0.0
  0
VERTEX
  8
0
 10
477.97091675
 20
119.96422577
 30
0.0
  0
VERTEX
  8
0
 10
477.99282837
 20
120.73445129
 30
0.0
  0
VERTEX
  8
0
 10
477.92758179
 20
121.722229
 30
0.0
  0
VERTEX
  8
0
 10
477.92230225
 20
122.48149109
 30
0.0
  0
VERTEX
  8
0
 10
477.84741211
 20
123.21658325
 30
0.0
  0
VERTEX
  8
0
 10
477.68673706
 20
124.24817657
 30
0.0
  0
VERTEX
  8
0
 10
477.58493042
 20
124.96109772
 30
0.0
  0
VERTEX
  8
0
 10
477.34912109
 20
126.00463104
 30
0.0
  0
VERTEX
  8
0
 10
477.17694092
 20
126.67407227
 30
0.0
  0
VERTEX
  8
0
 10
476.90530396
 20
127.72597504
 30
0.0
  0
VERTEX
  8
0
 10
476.49536133
 20
128.75723267
 30
0.0
  0
VERTEX
  8
0
 10
476.16604614
 20
129.2855835
 30
0.0
  0
VERTEX
  8
0
 10
475.76828003
 20
130.30673218
 30
0.0
  0
VERTEX
  8
0
 10
475.24163818
 20
131.28416443
 30
0.0
  0
VERTEX
  8
0
 10
474.66061401
 20
132.22128296
 30
0.0
  0
VERTEX
  8
0
 10
474.36373901
 20
132.74935913
 30
0.0
  0
VERTEX
  8
0
 10
473.71710205
 20
133.66204834
 30
0.0
  0
VERTEX
  8
0
 10
473.03546143
 20
134.52787781
 30
0.0
  0
VERTEX
  8
0
 10
472.56420898
 20
135.01495361
 30
0.0
  0
VERTEX
  8
0
 10
471.83883667
 20
135.81846619
 30
0.0
  0
VERTEX
  8
0
 10
471.2897644
 20
136.28137207
 30
0.0
  0
VERTEX
  8
0
 10
470.5368042
 20
137.02728271
 30
0.0
  0
VERTEX
  8
0
 10
469.94406128
 20
137.46951294
 30
0.0
  0
VERTEX
  8
0
 10
469.15829468
 20
138.10966492
 30
0.0
  0
VERTEX
  8
0
 10
468.52377319
 20
138.5282135
 30
0.0
  0
VERTEX
  8
0
 10
467.84747314
 20
138.90292358
 30
0.0
  0
VERTEX
  8
0
 10
467.17327881
 20
139.30447388
 30
0.0
  0
VERTEX
  8
0
 10
466.38256836
 20
139.82197571
 30
0.0
  0
VERTEX
  8
0
 10
465.68035889
 20
140.16906738
 30
0.0
  0
VERTEX
  8
0
 10
464.95101929
 20
140.46817017
 30
0.0
  0
VERTEX
  8
0
 10
464.20358276
 20
140.74403381
 30
0.0
  0
VERTEX
  8
0
 10
463.44689941
 20
141.00210571
 30
0.0
  0
VERTEX
  8
0
 10
462.68127441
 20
141.23794556
 30
0.0
  0
VERTEX
  8
0
 10
461.90713501
 20
141.44442749
 30
0.0
  0
VERTEX
  8
0
 10
461.13027954
 20
141.62689209
 30
0.0
  0
VERTEX
  8
0
 10
460.35131836
 20
141.78890991
 30
0.0
  0
VERTEX
  8
0
 10
459.57507324
 20
141.92288208
 30
0.0
  0
VERTEX
  8
0
 10
458.80059814
 20
141.99403381
 30
0.0
  0
VERTEX
  8
0
 10
457.8578186
 20
142.00537109
 30
0.0
  0
VERTEX
  8
0
 10
457.07452393
 20
142.05284119
 30
0.0
  0
VERTEX
  8
0
 10
456.30734253
 20
142.08930969
 30
0.0
  0
VERTEX
  8
0
 10
455.29928589
 20
141.99324036
 30
0.0
  0
VERTEX
  8
0
 10
454.54455566
 20
141.93861389
 30
0.0
  0
VERTEX
  8
0
 10
453.80984497
 20
141.88035583
 30
0.0
  0
VERTEX
  8
0
 10
452.77438354
 20
141.67811584
 30
0.0
  0
VERTEX
  8
0
 10
452.07125854
 20
141.57818604
 30
0.0
  0
VERTEX
  8
0
 10
451.03079224
 20
141.27792358
 30
0.0
  0
VERTEX
  8
0
 10
449.98239136
 20
140.90933228
 30
0.0
  0
VERTEX
  8
0
 10
448.91610718
 20
140.52954102
 30
0.0
  0
VERTEX
  8
0
 10
447.85369873
 20
140.09541321
 30
0.0
  0
VERTEX
  8
0
 10
446.79074097
 20
139.60375977
 30
0.0
  0
VERTEX
  8
0
 10
445.82080078
 20
138.98057556
 30
0.0
  0
VERTEX
  8
0
 10
444.88485718
 20
138.32192993
 30
0.0
  0
VERTEX
  8
0
 10
443.97412109
 20
137.64021301
 30
0.0
  0
VERTEX
  8
0
 10
443.10690308
 20
136.94694519
 30
0.0
  0
VERTEX
  8
0
 10
442.60266113
 20
136.46324158
 30
0.0
  0
VERTEX
  8
0
 10
441.82449341
 20
135.70272827
 30
0.0
  0
VERTEX
  8
0
 10
441.29040527
 20
135.21089172
 30
0.0
  0
VERTEX
  8
0
 10
440.60513306
 20
134.39022827
 30
0.0
  0
VERTEX
  8
0
 10
440.13070679
 20
133.81053162
 30
0.0
  0
VERTEX
  8
0
 10
439.50247192
 20
132.99998474
 30
0.0
  0
VERTEX
  8
0
 10
439.10580444
 20
132.34538269
 30
0.0
  0
VERTEX
  8
0
 10
438.68328857
 20
131.68966675
 30
0.0
  0
VERTEX
  8
0
 10
438.16268921
 20
130.88313293
 30
0.0
  0
VERTEX
  8
0
 10
437.81555176
 20
130.18312073
 30
0.0
  0
VERTEX
  8
0
 10
437.50183105
 20
129.4571228
 30
0.0
  0
VERTEX
  8
0
 10
437.21032715
 20
128.71498108
 30
0.0
  0
VERTEX
  8
0
 10
436.94311523
 20
127.95631409
 30
0.0
  0
VERTEX
  8
0
 10
436.70300293
 20
127.19210815
 30
0.0
  0
VERTEX
  8
0
 10
436.48675537
 20
126.41621399
 30
0.0
  0
VERTEX
  8
0
 10
436.29574585
 20
125.63612366
 30
0.0
  0
VERTEX
  8
0
 10
436.12484741
 20
124.85678864
 30
0.0
  0
VERTEX
  8
0
 10
435.97808838
 20
124.0764389
 30
0.0
  0
VERTEX
  8
0
 10
435.86816406
 20
123.30075836
 30
0.0
  0
VERTEX
  8
0
 10
435.82763672
 20
122.51832581
 30
0.0
  0
VERTEX
  8
0
 10
435.81872559
 20
121.56757355
 30
0.0
  0
VERTEX
  8
0
 10
435.77688599
 20
120.79008484
 30
0.0
  0
VERTEX
  8
0
 10
435.76373291
 20
120.02819061
 30
0.0
  0
VERTEX
  8
0
 10
435.87985229
 20
119.01547241
 30
0.0
  0
VERTEX
  8
0
 10
435.91104126
 20
118.26583862
 30
0.0
  0
VERTEX
  8
0
 10
436.05969238
 20
117.21707153
 30
0.0
  0
VERTEX
  8
0
 10
436.18548584
 20
116.50229645
 30
0.0
  0
VERTEX
  8
0
 10
436.45440674
 20
115.43907166
 30
0.0
  0
VERTEX
  8
0
 10
436.70001221
 20
114.33068085
 30
0.0
  0
VERTEX
  8
0
 10
437.01928711
 20
113.74147034
 30
0.0
  0
VERTEX
  8
0
 10
437.44177246
 20
112.70008087
 30
0.0
  0
VERTEX
  8
0
 10
437.8946228
 20
111.65261841
 30
0.0
  0
VERTEX
  8
0
 10
438.43756104
 20
110.64102173
 30
0.0
  0
VERTEX
  8
0
 10
439.04400635
 20
109.66963196
 30
0.0
  0
VERTEX
  8
0
 10
439.67990112
 20
108.73792267
 30
0.0
  0
VERTEX
  8
0
 10
439.93054199
 20
108.11569214
 30
0.0
  0
VERTEX
  8
0
 10
440.78518677
 20
107.3265686
 30
0.0
  0
VERTEX
  8
0
 10
441.53460693
 20
106.51737976
 30
0.0
  0
VERTEX
  8
0
 10
441.98361206
 20
105.95986176
 30
0.0
  0
VERTEX
  8
0
 10
442.82073975
 20
105.26242828
 30
0.0
  0
VERTEX
  8
0
 10
443.3366394
 20
104.72209167
 30
0.0
  0
VERTEX
  8
0
 10
444.1947937
 20
104.12025452
 30
0.0
  0
VERTEX
  8
0
 10
444.8208313
 20
103.68830872
 30
0.0
  0
VERTEX
  8
0
 10
445.61877441
 20
103.09023285
 30
0.0
  0
VERTEX
  8
0
 10
446.28967285
 20
102.7098999
 30
0.0
  0
VERTEX
  8
0
 10
446.98980713
 20
102.35342407
 30
0.0
  0
VERTEX
  8
0
 10
447.70489502
 20
101.99734497
 30
0.0
  0
VERTEX
  8
0
 10
448.49517822
 20
101.58906555
 30
0.0
  0
SEQEND
  0
POLYLINE
  8
0
 66
1
 10
0.0
 20
0.0
 30
0.0
 70
0
  0
VERTEX
  8
0
 10
496.89120483
 20
315.37884521
 30
0.0
  0
VERTEX
  8
0
 10
497.19796753
 20
314.80166626
 30
0.0
  0
VERTEX
  8
0
 10
497.58584595
 20
314.24313354
 30
0.0
  0
VERTEX
  8
0
 10
498.02609253
 20
313.7046814
 30
0.0
  0
VERTEX
  8
0
 10
498.49639893
 20
313.19049072
 30
0.0
  0
VERTEX
  8
0
 10
498.97821045
 20
312.7008667
 30
0.0
  0
VERTEX
  8
0
 10
499.45993042
 20
312.21936035
 30
0.0
  0
VERTEX
  8
0
 10
499.94354248
 20
311.73324585
 30
0.0
  0
VERTEX
  8
0
 10
500.42532349
 20
311.24545288
 30
0.0
  0
VERTEX
  8
0
 10
500.9046936
 20
310.75820923
 30
0.0
  0
VERTEX
  8
0
 10
501.3789978
 20
310.26895142
 30
0.0
  0
VERTEX
  8
0
 10
501.85250854
 20
309.77474976
 30
0.0
  0
VERTEX
  8
0
 10
502.33093262
 20
309.27749634
 30
0.0
  0
VERTEX
  8
0
 10
502.80865479
 20
308.78875732
 30
0.0
  0
VERTEX
  8
0
 10
503.28424072
 20
308.30245972
 30
0.0
  0
VERTEX
  8
0
 10
503.76324463
 20
307.81188965
 30
0.0
  0
VERTEX
  8
0
 10
504.24493408
 20
307.31945801
 30
0.0
  0
VERTEX
  8
0
 10
504.72668457
 20
306.8331604
 30
0.0
  0
VERTEX
  8
0
 10
505.21096802
 20
306.34939575
 30
0.0
  0
VERTEX
  8
0
 10
505.69320679
 20
305.86495972
 30
0.0
  0
VERTEX
  8
0
 10
506.16772461
 20
305.37686157
 30
0.0
  0
VERTEX
  8
0
 10
506.63934326
 20
304.88223267
 30
0.0
  0
VERTEX
  8
0
 10
507.11325073
 20
304.38552856
 30
0.0
  0
VERTEX
  8
0
 10
507.59707642
 20
303.89398193
 30
0.0
  0
VERTEX
  8
0
 10
508.0788269
 20
303.4078064
 30
0.0
  0
VERTEX
  8
0
 10
508.55426025
 20
302.92211914
 30
0.0
  0
VERTEX
  8
0
 10
509.02853394
 20
302.42993164
 30
0.0
  0
VERTEX
  8
0
 10
509.50994873
 20
301.93624878
 30
0.0
  0
VERTEX
  8
0
 10
509.98931885
 20
301.44897461
 30
0.0
  0
VERTEX
  8
0
 10
510.46643066
 20
300.96084595
 30
0.0
  0
VERTEX
  8
0
 10
510.94042969
 20
300.46841431
 30
0.0
  0
VERTEX
  8
0
 10
511.41372681
 20
299.97540283
 30
0.0
  0
VERTEX
  8
0
 10
511.88705444
 20
299.480896
 30
0.0
  0
VERTEX
  8
0
 10
512.36206055
 20
298.98498535
 30
0.0
  0
VERTEX
  8
0
 10
512.83612061
 20
298.48953247
 30
0.0
  0
VERTEX
  8
0
 10
513.30743408
 20
297.99468994
 30
0.0
  0
VERTEX
  8
0
 10
513.78424072
 20
297.50180054
 30
0.0
  0
VERTEX
  8
0
 10
514.26977539
 20
297.01235962
 30
0.0
  0
VERTEX
  8
0
 10
514.76348877
 20
296.53683472
 30
0.0
  0
VERTEX
  8
0
 10
515.26452637
 20
296.06665039
 30
0.0
  0
VERTEX
  8
0
 10
515.77905273
 20
295.60540771
 30
0.0
  0
VERTEX
  8
0
 10
516.30548096
 20
295.16644287
 30
0.0
  0
VERTEX
  8
0
 10
516.85577393
 20
294.78372192
 30
0.0
  0
VERTEX
  8
0
 10
517.72064209
 20
294.44573975
 30
0.0
  0
VERTEX
  8
0
 10
518.74346924
 20
294.31771851
 30
0.0
  0
VERTEX
  8
0
 10
519.75634766
 20
294.41381836
 30
0.0
  0
VERTEX
  8
0
 10
520.71185303
 20
294.59350586
 30
0.0
  0
VERTEX
  8
0
 10
521.63671875
 20
294.76745605
 30
0.0
  0
VERTEX
  8
0
 10
522.54040527
 20
295.00857544
 30
0.0
  0
VERTEX
  8
0
 10
523.11877441
 20
295.13000488
 30
0.0
  0
VERTEX
  8
0
 10
524.03424072
 20
295.32287598
 30
0.0
  0
VERTEX
  8
0
 10
524.60369873
 20
295.49499512
 30
0.0
  0
VERTEX
  8
0
 10
525.51489258
 20
295.6947937
 30
0.0
  0
VERTEX
  8
0
 10
526.40118408
 20
295.97848511
 30
0.0
  0
VERTEX
  8
0
 10
526.98986816
 20
296.09341431
 30
0.0
  0
VERTEX
  8
0
 10
527.89001465
 20
296.33215332
 30
0.0
  0
VERTEX
  8
0
 10
528.46795654
 20
296.48965454
 30
0.0
  0
VERTEX
  8
0
 10
529.37768555
 20
296.6937561
 30
0.0
  0
VERTEX
  8
0
 10
529.94787598
 20
296.87820435
 30
0.0
  0
VERTEX
  8
0
 10
530.86206055
 20
297.07189941
 30
0.0
  0
VERTEX
  8
0
 10
531.74725342
 20
297.33413696
 30
0.0
  0
VERTEX
  8
0
 10
532.33917236
 20
297.45742798
 30
0.0
  0
VERTEX
  8
0
 10
533.24536133
 20
297.68353271
 30
0.0
  0
VERTEX
  8
0
 10
533.8170166
 20
297.85473633
 30
0.0
  0
VERTEX
  8
0
 10
534.72521973
 20
298.06451416
 30
0.0
  0
VERTEX
  8
0
 10
535.60723877
 20
298.37576294
 30
0.0
  0
VERTEX
  8
0
 10
536.20288086
 20
298.44195557
 30
0.0
  0
VERTEX
  8
0
 10
537.09240723
 20
298.72372437
 30
0.0
  0
VERTEX
  8
0
 10
537.67834473
 20
298.85150146
 30
0.0
  0
VERTEX
  8
0
 10
538.57324219
 20
299.10296631
 30
0.0
  0
VERTEX
  8
0
 10
539.15368652
 20
299.25527954
 30
0.0
  0
VERTEX
  8
0
 10
540.07440186
 20
299.43875122
 30
0.0
  0
VERTEX
  8
0
 10
540.956604
 20
299.70718384
 30
0.0
  0
VERTEX
  8
0
 10
541.55181885
 20
299.80361938
 30
0.0
  0
VERTEX
  8
0
 10
542.43701172
 20
300.08065796
 30
0.0
  0
VERTEX
  8
0
 10
543.01751709
 20
300.24572754
 30
0.0
  0
VERTEX
  8
0
 10
543.89129639
 20
300.52734375
 30
0.0
  0
VERTEX
  8
0
 10
544.48022461
 20
300.69622803
 30
0.0
  0
VERTEX
  8
0
 10
545.06958008
 20
300.89996338
 30
0.0
  0
VERTEX
  8
0
 10
545.88024902
 20
301.2562561
 30
0.0
  0
VERTEX
  8
0
 10
546.39447021
 20
301.66116333
 30
0.0
  0
VERTEX
  8
0
 10
546.84344482
 20
302.15042114
 30
0.0
  0
VERTEX
  8
0
 10
547.18719482
 20
302.68893433
 30
0.0
  0
VERTEX
  8
0
 10
547.51483154
 20
303.50344849
 30
0.0
  0
VERTEX
  8
0
 10
547.77404785
 20
304.07269287
 30
0.0
  0
VERTEX
  8
0
 10
548.02893066
 20
304.95355225
 30
0.0
  0
VERTEX
  8
0
 10
548.2578125
 20
305.51940918
 30
0.0
  0
VERTEX
  8
0
 10
548.50366211
 20
306.41033936
 30
0.0
  0
VERTEX
  8
0
 10
548.71380615
 20
306.97149658
 30
0.0
  0
VERTEX
  8
0
 10
548.93151855
 20
307.87866211
 30
0.0
  0
VERTEX
  8
0
 10
549.09710693
 20
308.44897461
 30
0.0
  0
VERTEX
  8
0
 10
549.32489014
 20
309.35772705
 30
0.0
  0
VERTEX
  8
0
 10
549.38000488
 20
309.95489502
 30
0.0
  0
VERTEX
  8
0
 10
549.70196533
 20
310.83972168
 30
0.0
  0
VERTEX
  8
0
 10
549.94378662
 20
311.74026489
 30
0.0
  0
VERTEX
  8
0
 10
550.14593506
 20
312.31826782
 30
0.0
  0
VERTEX
  8
0
 10
550.41357422
 20
313.19641113
 30
0.0
  0
VERTEX
  8
0
 10
550.5736084
 20
313.78356934
 30
0.0
  0
VERTEX
  8
0
 10
550.84716797
 20
314.66384888
 30
0.0
  0
VERTEX
  8
0
 10
550.89385986
 20
315.26135254
 30
0.0
  0
VERTEX
  8
0
 10
551.25543213
 20
316.13412476
 30
0.0
  0
VERTEX
  8
0
 10
551.4800415
 20
317.040802
 30
0.0
  0
VERTEX
  8
0
 10
551.62652588
 20
317.61251831
 30
0.0
  0
VERTEX
  8
0
 10
551.88964844
 20
318.51495361
 30
0.0
  0
VERTEX
  8
0
 10
551.98205566
 20
319.11434937
 30
0.0
  0
VERTEX
  8
0
 10
552.32141113
 20
319.98129272
 30
0.0
  0
VERTEX
  8
0
 10
552.54431152
 20
320.88601685
 30
0.0
  0
VERTEX
  8
0
 10
552.73156738
 20
321.45309448
 30
0.0
  0
VERTEX
  8
0
 10
552.96472168
 20
322.35675049
 30
0.0
  0
VERTEX
  8
0
 10
553.10369873
 20
322.93572998
 30
0.0
  0
VERTEX
  8
0
 10
553.38415527
 20
323.82632446
 30
0.0
  0
VERTEX
  8
0
 10
553.42358398
 20
324.45169067
 30
0.0
  0
VERTEX
  8
0
 10
553.78405762
 20
325.29815674
 30
0.0
  0
VERTEX
  8
0
 10
553.99938965
 20
326.21109009
 30
0.0
  0
VERTEX
  8
0
 10
554.1227417
 20
326.78372192
 30
0.0
  0
VERTEX
  8
0
 10
554.38568115
 20
327.68856812
 30
0.0
  0
VERTEX
  8
0
 10
554.56158447
 20
328.61569214
 30
0.0
  0
VERTEX
  8
0
 10
554.63665771
 20
329.13949585
 30
0.0
  0
VERTEX
  8
0
 10
554.56542969
 20
330.01965332
 30
0.0
  0
VERTEX
  8
0
 10
554.46990967
 20
330.53201294
 30
0.0
  0
VERTEX
  8
0
 10
554.17767334
 20
331.11502075
 30
0.0
  0
VERTEX
  8
0
 10
553.81689453
 20
331.70620728
 30
0.0
  0
VERTEX
  8
0
 10
553.38165283
 20
332.32650757
 30
0.0
  0
VERTEX
  8
0
 10
552.95532227
 20
332.84793091
 30
0.0
  0
VERTEX
  8
0
 10
552.5055542
 20
333.35784912
 30
0.0
  0
VERTEX
  8
0
 10
552.03985596
 20
333.85928345
 30
0.0
  0
VERTEX
  8
0
 10
551.57116699
 20
334.35919189
 30
0.0
  0
VERTEX
  8
0
 10
551.10662842
 20
334.86260986
 30
0.0
  0
VERTEX
  8
0
 10
550.6472168
 20
335.36962891
 30
0.0
  0
VERTEX
  8
0
 10
550.18707275
 20
335.8760376
 30
0.0
  0
VERTEX
  8
0
 10
549.7232666
 20
336.37915039
 30
0.0
  0
VERTEX
  8
0
 10
549.25384521
 20
336.87579346
 30
0.0
  0
VERTEX
  8
0
 10
548.77954102
 20
337.36853027
 30
0.0
  0
VERTEX
  8
0
 10
548.30096436
 20
337.85803223
 30
0.0
  0
VERTEX
  8
0
 10
547.8236084
 20
338.34829712
 30
0.0
  0
VERTEX
  8
0
 10
547.34698486
 20
338.83926392
 30
0.0
  0
VERTEX
  8
0
 10
546.86987305
 20
339.32974243
 30
0.0
  0
VERTEX
  8
0
 10
546.38867188
 20
339.81661987
 30
0.0
  0
VERTEX
  8
0
 10
545.90631104
 20
340.30319214
 30
0.0
  0
VERTEX
  8
0
 10
545.42529297
 20
340.79074097
 30
0.0
  0
VERTEX
  8
0
 10
544.94812012
 20
341.28012085
 30
0.0
  0
VERTEX
  8
0
 10
544.46966553
 20
341.77023315
 30
0.0
  0
VERTEX
  8
0
 10
543.99090576
 20
342.25949097
 30
0.0
  0
VERTEX
  8
0
 10
543.51116943
 20
342.74679565
 30
0.0
  0
VERTEX
  8
0
 10
543.02874756
 20
343.23181152
 30
0.0
  0
VERTEX
  8
0
 10
542.54321289
 20
343.71478271
 30
0.0
  0
VERTEX
  8
0
 10
542.05810547
 20
344.19976807
 30
0.0
  0
VERTEX
  8
0
 10
541.57910156
 20
344.68951416
 30
0.0
  0
VERTEX
  8
0
 10
541.10430908
 20
345.1819458
 30
0.0
  0
VERTEX
  8
0
 10
540.62878418
 20
345.67443848
 30
0.0
  0
VERTEX
  8
0
 10
540.15197754
 20
346.1668396
 30
0.0
  0
VERTEX
  8
0
 10
539.67602539
 20
346.65884399
 30
0.0
  0
VERTEX
  8
0
 10
539.20288086
 20
347.15124512
 30
0.0
  0
VERTEX
  8
0
 10
538.72650146
 20
347.64395142
 30
0.0
  0
VERTEX
  8
0
 10
538.2477417
 20
348.1321106
 30
0.0
  0
VERTEX
  8
0
 10
537.76348877
 20
348.61465454
 30
0.0
  0
VERTEX
  8
0
 10
537.27435303
 20
349.09259033
 30
0.0
  0
VERTEX
  8
0
 10
536.78149414
 20
349.56448364
 30
0.0
  0
VERTEX
  8
0
 10
536.28405762
 20
350.02908325
 30
0.0
  0
VERTEX
  8
0
 10
535.77685547
 20
350.47659302
 30
0.0
  0
VERTEX
  8
0
 10
535.25268555
 20
350.89730835
 30
0.0
  0
VERTEX
  8
0
 10
534.58795166
 20
351.32540894
 30
0.0
  0
VERTEX
  8
0
 10
533.99176025
 20
351.63122559
 30
0.0
  0
VERTEX
  8
0
 10
533.02783203
 20
351.81564331
 30
0.0
  0
VERTEX
  8
0
 10
532.04333496
 20
351.7371521
 30
0.0
  0
VERTEX
  8
0
 10
531.10614014
 20
351.58874512
 30
0.0
  0
VERTEX
  8
0
 10
530.54077148
 20
351.4473877
 30
0.0
  0
VERTEX
  8
0
 10
529.61877441
 20
351.24972534
 30
0.0
  0
VERTEX
  8
0
 10
529.02862549
 20
351.16690063
 30
0.0
  0
VERTEX
  8
0
 10
528.13494873
 20
350.88253784
 30
0.0
  0
VERTEX
  8
0
 10
527.22387695
 20
350.68359375
 30
0.0
  0
VERTEX
  8
0
 10
526.6463623
 20
350.49206543
 30
0.0
  0
VERTEX
  8
0
 10
525.75054932
 20
350.26800537
 30
0.0
  0
VERTEX
  8
0
 10
525.17242432
 20
350.10949707
 30
0.0
  0
VERTEX
  8
0
 10
524.26885986
 20
349.88702393
 30
0.0
  0
VERTEX
  8
0
 10
523.66766357
 20
349.82037354
 30
0.0
  0
VERTEX
  8
0
 10
522.78869629
 20
349.50030518
 30
0.0
  0
VERTEX
  8
0
 10
521.87713623
 20
349.30432129
 30
0.0
  0
VERTEX
  8
0
 10
521.30053711
 20
349.13818359
 30
0.0
  0
VERTEX
  8
0
 10
520.39776611
 20
348.92062378
 30
0.0
  0
VERTEX
  8
0
 10
519.81323242
 20
348.79241943
 30
0.0
  0
VERTEX
  8
0
 10
518.91851807
 20
348.53018188
 30
0.0
  0
VERTEX
  8
0
 10
518.31732178
 20
348.51199341
 30
0.0
  0
VERTEX
  8
0
 10
517.43383789
 20
348.16275024
 30
0.0
  0
VERTEX
  8
0
 10
516.52539063
 20
347.95672607
 30
0.0
  0
VERTEX
  8
0
 10
515.95019531
 20
347.81439209
 30
0.0
  0
VERTEX
  8
0
 10
515.04003906
 20
347.59558105
 30
0.0
  0
VERTEX
  8
0
 10
514.44403076
 20
347.56793213
 30
0.0
  0
VERTEX
  8
0
 10
513.55169678
 20
347.24417114
 30
0.0
  0
VERTEX
  8
0
 10
512.64300537
 20
347.03244019
 30
0.0
  0
VERTEX
  8
0
 10
512.06439209
 20
346.86715698
 30
0.0
  0
VERTEX
  8
0
 10
511.16470337
 20
346.63949585
 30
0.0
  0
VERTEX
  8
0
 10
510.57919312
 20
346.54830933
 30
0.0
  0
VERTEX
  8
0
 10
509.67889404
 20
346.2677002
 30
0.0
  0
VERTEX
  8
0
 10
508.77926636
 20
346.0501709
 30
0.0
  0
VERTEX
  8
0
 10
508.20223999
 20
345.84881592
 30
0.0
  0
VERTEX
  8
0
 10
507.30996704
 20
345.62084961
 30
0.0
  0
VERTEX
  8
0
 10
506.72363281
 20
345.40936279
 30
0.0
  0
VERTEX
  8
0
 10
505.87136841
 20
345.12557983
 30
0.0
  0
VERTEX
  8
0
 10
505.30999756
 20
344.78311157
 30
0.0
  0
VERTEX
  8
0
 10
504.78637695
 20
344.31112671
 30
0.0
  0
VERTEX
  8
0
 10
504.38247681
 20
343.76559448
 30
0.0
  0
VERTEX
  8
0
 10
504.03594971
 20
342.91729736
 30
0.0
  0
VERTEX
  8
0
 10
503.86245728
 20
342.32849121
 30
0.0
  0
VERTEX
  8
0
 10
503.61398315
 20
341.43637085
 30
0.0
  0
VERTEX
  8
0
 10
503.41699219
 20
340.86459351
 30
0.0
  0
VERTEX
  8
0
 10
503.175354
 20
339.97320557
 30
0.0
  0
VERTEX
  8
0
 10
502.95550537
 20
339.40365601
 30
0.0
  0
VERTEX
  8
0
 10
502.71975708
 20
338.50866699
 30
0.0
  0
VERTEX
  8
0
 10
502.39956665
 20
337.63308716
 30
0.0
  0
VERTEX
  8
0
 10
502.28128052
 20
337.04394531
 30
0.0
  0
VERTEX
  8
0
 10
502.0017395
 20
336.15063477
 30
0.0
  0
VERTEX
  8
0
 10
501.84585571
 20
335.5753479
 30
0.0
  0
VERTEX
  8
0
 10
501.62322998
 20
334.66799927
 30
0.0
  0
VERTEX
  8
0
 10
501.42608643
 20
334.10418701
 30
0.0
  0
VERTEX
  8
0
 10
501.19854736
 20
333.20385742
 30
0.0
  0
VERTEX
  8
0
 10
500.86776733
 20
332.33358765
 30
0.0
  0
VERTEX
  8
0
 10
500.75979614
 20
331.73709106
 30
0.0
  0
VERTEX
  8
0
 10
500.49359131
 20
330.84417725
 30
0.0
  0
VERTEX
  8
0
 10
500.33129883
 20
330.26815796
 30
0.0
  0
VERTEX
  8
0
 10
500.10189819
 20
329.36569214
 30
0.0
  0
VERTEX
  8
0
 10
499.90911865
 20
328.79742432
 30
0.0
  0
VERTEX
  8
0
 10
499.69226074
 20
327.89141846
 30
0.0
  0
VERTEX
  8
0
 10
499.3828125
 20
327.01855469
 30
0.0
  0
VERTEX
  8
0
 10
499.25186157
 20
326.42922974
 30
0.0
  0
VERTEX
  8
0
 10
498.9727478
 20
325.54492188
 30
0.0
  0
VERTEX
  8
0
 10
498.80578613
 20
324.96426392
 30
0.0
  0
VERTEX
  8
0
 10
498.57113647
 20
324.06515503
 30
0.0
  0
VERTEX
  8
0
 10
498.36605835
 20
323.49710083
 30
0.0
  0
VERTEX
  8
0
 10
498.14105225
 20
322.59292603
 30
0.0
  0
VERTEX
  8
0
 10
497.83758545
 20
321.71102905
 30
0.0
  0
VERTEX
  8
0
 10
497.73001099
 20
321.12246704
 30
0.0
  0
VERTEX
  8
0
 10
497.46054077
 20
320.23120117
 30
0.0
  0
VERTEX
  8
0
 10
497.29733276
 20
319.65527344
 30
0.0
  0
VERTEX
  8
0
 10
497.07351685
 20
318.74768066
 30
0.0
  0
VERTEX
  8
0
 10
496.72415161
 20
317.81958008
 30
0.0
  0
VERTEX
  8
0
 10
496.72549438
 20
317.25244141
 30
0.0
  0
VERTEX
  8
0
 10
496.6645813
 20
316.27102661
 30
0.0
  0
VERTEX
  8
0
 10
496.89120483
 20
315.37884521
 30
0.0
  0
SEQEND
  0
POLYLINE
  8
0
 66
1
 10
0.0
 20
0.0
 30
0.0
 70
0
  0
VERTEX
  8
0
 10
513.84082031
 20
314.73114014
 30
0.0
  0
VERTEX
  8
0
 10
514.24645996
 20
314.19241333
 30
0.0
  0
VERTEX
  8
0
 10
514.684021
 20
313.67370605
 30
0.0
  0
VERTEX
  8
0
 10
515.14709473
 20
313.1741333
 30
0.0
  0
VERTEX
  8
0
 10
515.63299561
 20
312.69552612
 30
0.0
  0
VERTEX
  8
0
 10
516.13800049
 20
312.2414856
 30
0.0
  0
VERTEX
  8
0
 10
516.66333008
 20
311.81842041
 30
0.0
  0
VERTEX
  8
0
 10
517.22015381
 20
311.44497681
 30
0.0
  0
VERTEX
  8
0
 10
517.89447021
 20
311.01956177
 30
0.0
  0
VERTEX
  8
0
 10
518.45385742
 20
310.64907837
 30
0.0
  0
VERTEX
  8
0
 10
519.01452637
 20
310.31201172
 30
0.0
  0
VERTEX
  8
0
 10
519.84710693
 20
310.00064087
 30
0.0
  0
VERTEX
  8
0
 10
520.41943359
 20
309.74795532
 30
0.0
  0
VERTEX
  8
0
 10
521.29943848
 20
309.47598267
 30
0.0
  0
VERTEX
  8
0
 10
522.19189453
 20
309.10498047
 30
0.0
  0
VERTEX
  8
0
 10
522.7911377
 20
309.09118652
 30
0.0
  0
VERTEX
  8
0
 10
523.73925781
 20
308.92236328
 30
0.0
  0
VERTEX
  8
0
 10
524.72979736
 20
308.80258179
 30
0.0
  0
VERTEX
  8
0
 10
525.71850586
 20
308.78039551
 30
0.0
  0
VERTEX
  8
0
 10
526.70739746
 20
308.81008911
 30
0.0
  0
VERTEX
  8
0
 10
527.67944336
 20
308.92221069
 30
0.0
  0
VERTEX
  8
0
 10
528.625
 20
309.07330322
 30
0.0
  0
VERTEX
  8
0
 10
529.53320313
 20
309.27377319
 30
0.0
  0
VERTEX
  8
0
 10
530.10839844
 20
309.46932983
 30
0.0
  0
VERTEX
  8
0
 10
530.97180176
 20
309.73831177
 30
0.0
  0
VERTEX
  8
0
 10
531.54553223
 20
310.0083313
 30
0.0
  0
VERTEX
  8
0
 10
532.13128662
 20
310.32009888
 30
0.0
  0
VERTEX
  8
0
 10
532.87487793
 20
310.68365479
 30
0.0
  0
VERTEX
  8
0
 10
533.43548584
 20
311.04272461
 30
0.0
  0
VERTEX
  8
0
 10
533.97485352
 20
311.4513855
 30
0.0
  0
VERTEX
  8
0
 10
534.50415039
 20
311.88320923
 30
0.0
  0
VERTEX
  8
0
 10
535.02252197
 20
312.32672119
 30
0.0
  0
VERTEX
  8
0
 10
535.53283691
 20
312.79077148
 30
0.0
  0
VERTEX
  8
0
 10
536.02459717
 20
313.28335571
 30
0.0
  0
VERTEX
  8
0
 10
536.48138428
 20
313.79232788
 30
0.0
  0
VERTEX
  8
0
 10
536.91619873
 20
314.31933594
 30
0.0
  0
VERTEX
  8
0
 10
537.31896973
 20
314.85824585
 30
0.0
  0
VERTEX
  8
0
 10
537.65509033
 20
315.42929077
 30
0.0
  0
VERTEX
  8
0
 10
538.04846191
 20
316.1628418
 30
0.0
  0
VERTEX
  8
0
 10
538.3895874
 20
316.72665405
 30
0.0
  0
VERTEX
  8
0
 10
538.65197754
 20
317.30752563
 30
0.0
  0
VERTEX
  8
0
 10
538.98278809
 20
318.13623047
 30
0.0
  0
VERTEX
  8
0
 10
539.20062256
 20
318.70956421
 30
0.0
  0
VERTEX
  8
0
 10
539.43792725
 20
319.60525513
 30
0.0
  0
VERTEX
  8
0
 10
539.51959229
 20
320.17150879
 30
0.0
  0
VERTEX
  8
0
 10
539.75128174
 20
321.08148193
 30
0.0
  0
VERTEX
  8
0
 10
539.84716797
 20
322.03417969
 30
0.0
  0
VERTEX
  8
0
 10
539.90655518
 20
322.99758911
 30
0.0
  0
VERTEX
  8
0
 10
539.90759277
 20
323.96386719
 30
0.0
  0
VERTEX
  8
0
 10
539.84674072
 20
324.92160034
 30
0.0
  0
VERTEX
  8
0
 10
539.70025635
 20
325.84820557
 30
0.0
  0
VERTEX
  8
0
 10
539.58197021
 20
326.41384888
 30
0.0
  0
VERTEX
  8
0
 10
539.37701416
 20
327.32287598
 30
0.0
  0
VERTEX
  8
0
 10
539.15185547
 20
327.89596558
 30
0.0
  0
VERTEX
  8
0
 10
538.87359619
 20
328.75482178
 30
0.0
  0
VERTEX
  8
0
 10
538.59997559
 20
329.33050537
 30
0.0
  0
VERTEX
  8
0
 10
538.28930664
 20
329.91168213
 30
0.0
  0
VERTEX
  8
0
 10
537.92736816
 20
330.66726685
 30
0.0
  0
VERTEX
  8
0
 10
537.57403564
 20
331.22982788
 30
0.0
  0
VERTEX
  8
0
 10
537.16900635
 20
331.77340698
 30
0.0
  0
VERTEX
  8
0
 10
536.7434082
 20
332.30718994
 30
0.0
  0
VERTEX
  8
0
 10
536.30004883
 20
332.8352356
 30
0.0
  0
VERTEX
  8
0
 10
535.84539795
 20
333.349823
 30
0.0
  0
VERTEX
  8
0
 10
535.36627197
 20
333.85028076
 30
0.0
  0
VERTEX
  8
0
 10
534.86083984
 20
334.32723999
 30
0.0
  0
VERTEX
  8
0
 10
534.34094238
 20
334.77883911
 30
0.0
  0
VERTEX
  8
0
 10
533.81188965
 20
335.21090698
 30
0.0
  0
VERTEX
  8
0
 10
533.27557373
 20
335.61904907
 30
0.0
  0
VERTEX
  8
0
 10
532.72235107
 20
335.98696899
 30
0.0
  0
VERTEX
  8
0
 10
531.9720459
 20
336.36828613
 30
0.0
  0
VERTEX
  8
0
 10
531.39135742
 20
336.67364502
 30
0.0
  0
VERTEX
  8
0
 10
530.81634521
 20
336.92950439
 30
0.0
  0
VERTEX
  8
0
 10
529.96343994
 20
337.224823
 30
0.0
  0
VERTEX
  8
0
 10
529.39306641
 20
337.46533203
 30
0.0
  0
VERTEX
  8
0
 10
528.50567627
 20
337.71160889
 30
0.0
  0
VERTEX
  8
0
 10
527.5559082
 20
337.88082886
 30
0.0
  0
VERTEX
  8
0
 10
526.58325195
 20
338.00296021
 30
0.0
  0
VERTEX
  8
0
 10
525.59918213
 20
338.0826416
 30
0.0
  0
VERTEX
  8
0
 10
524.60552979
 20
338.06231689
 30
0.0
  0
VERTEX
  8
0
 10
523.61706543
 20
337.93548584
 30
0.0
  0
VERTEX
  8
0
 10
522.67614746
 20
337.7723999
 30
0.0
  0
VERTEX
  8
0
 10
522.0894165
 20
337.67651367
 30
0.0
  0
VERTEX
  8
0
 10
521.1907959
 20
337.38156128
 30
0.0
  0
VERTEX
  8
0
 10
520.56396484
 20
337.26119995
 30
0.0
  0
VERTEX
  8
0
 10
519.74389648
 20
336.85916138
 30
0.0
  0
VERTEX
  8
0
 10
519.15679932
 20
336.58303833
 30
0.0
  0
VERTEX
  8
0
 10
518.37103271
 20
336.22866821
 30
0.0
  0
VERTEX
  8
0
 10
517.81164551
 20
335.87341309
 30
0.0
  0
VERTEX
  8
0
 10
517.25720215
 20
335.49447632
 30
0.0
  0
VERTEX
  8
0
 10
516.69659424
 20
335.10717773
 30
0.0
  0
VERTEX
  8
0
 10
516.08758545
 20
334.65609741
 30
0.0
  0
VERTEX
  8
0
 10
515.58599854
 20
334.22680664
 30
0.0
  0
VERTEX
  8
0
 10
515.10882568
 20
333.75283813
 30
0.0
  0
VERTEX
  8
0
 10
514.66149902
 20
333.25100708
 30
0.0
  0
VERTEX
  8
0
 10
514.18945313
 20
332.68209839
 30
0.0
  0
VERTEX
  8
0
 10
513.76818848
 20
332.13833618
 30
0.0
  0
VERTEX
  8
0
 10
513.3604126
 20
331.59283447
 30
0.0
  0
VERTEX
  8
0
 10
512.97161865
 20
331.04623413
 30
0.0
  0
VERTEX
  8
0
 10
512.64215088
 20
330.48413086
 30
0.0
  0
VERTEX
  8
0
 10
512.29779053
 20
329.69256592
 30
0.0
  0
VERTEX
  8
0
 10
512.01525879
 20
329.12023926
 30
0.0
  0
VERTEX
  8
0
 10
511.74224854
 20
328.25445557
 30
0.0
  0
VERTEX
  8
0
 10
511.50265503
 20
327.68637085
 30
0.0
  0
VERTEX
  8
0
 10
511.29568481
 20
326.76818848
 30
0.0
  0
VERTEX
  8
0
 10
511.1199646
 20
325.8187561
 30
0.0
  0
VERTEX
  8
0
 10
510.9630127
 20
324.84463501
 30
0.0
  0
VERTEX
  8
0
 10
510.87057495
 20
323.84127808
 30
0.0
  0
VERTEX
  8
0
 10
510.93927002
 20
322.84371948
 30
0.0
  0
VERTEX
  8
0
 10
511.07019043
 20
321.86181641
 30
0.0
  0
VERTEX
  8
0
 10
511.23629761
 20
320.9130249
 30
0.0
  0
VERTEX
  8
0
 10
511.38934326
 20
319.98092651
 30
0.0
  0
VERTEX
  8
0
 10
511.5519104
 20
319.40634155
 30
0.0
  0
VERTEX
  8
0
 10
511.80886841
 20
318.51464844
 30
0.0
  0
VERTEX
  8
0
 10
512.05493164
 20
317.92825317
 30
0.0
  0
VERTEX
  8
0
 10
512.35046387
 20
317.09301758
 30
0.0
  0
VERTEX
  8
0
 10
512.68023682
 20
316.52676392
 30
0.0
  0
VERTEX
  8
0
 10
513.05480957
 20
315.95547485
 30
0.0
  0
VERTEX
  8
0
 10
513.42102051
 20
315.37985229
 30
0.0
  0
VERTEX
  8
0
 10
513.84082031
 20
314.73114014
 30
0.0
  0
SEQEND
  0
POLYLINE
  8
0
 66
1
 10
0.0
 20
0.0
 30
0.0
 70
0
  0
VERTEX
  8
0
 10
57.13171768
 20
307.57666016
 30
0.0
  0
VERTEX
  8
0
 10
57.73530197
 20
306.52520752
 30
0.0
  0
VERTEX
  8
0
 10
58.48820496
 20
305.51324463
 30
0.0
  0
VERTEX
  8
0
 10
59.33689499
 20
304.54165649
 30
0.0
  0
VERTEX
  8
0
 10
60.23990631
 20
303.61688232
 30
0.0
  0
VERTEX
  8
0
 10
61.16269302
 20
302.73834229
 30
0.0
  0
VERTEX
  8
0
 10
62.08486938
 20
301.87481689
 30
0.0
  0
VERTEX
  8
0
 10
63.01081467
 20
301.00286865
 30
0.0
  0
VERTEX
  8
0
 10
63.93346786
 20
300.12774658
 30
0.0
  0
VERTEX
  8
0
 10
64.85160065
 20
299.25341797
 30
0.0
  0
VERTEX
  8
0
 10
65.76053619
 20
298.37512207
 30
0.0
  0
VERTEX
  8
0
 10
66.66821289
 20
297.48754883
 30
0.0
  0
VERTEX
  8
0
 10
67.58524323
 20
296.59466553
 30
0.0
  0
VERTEX
  8
0
 10
68.50042725
 20
295.71749878
 30
0.0
  0
VERTEX
  8
0
 10
69.41146088
 20
294.84475708
 30
0.0
  0
VERTEX
  8
0
 10
70.32918549
 20
293.96429443
 30
0.0
  0
VERTEX
  8
0
 10
71.25193024
 20
293.08050537
 30
0.0
  0
VERTEX
  8
0
 10
72.17444611
 20
292.20812988
 30
0.0
  0
VERTEX
  8
0
 10
73.10149384
 20
291.34060669
 30
0.0
  0
VERTEX
  8
0
 10
74.02477264
 20
290.47167969
 30
0.0
  0
VERTEX
  8
0
 10
74.93399048
 20
289.59555054
 30
0.0
  0
VERTEX
  8
0
 10
75.83822632
 20
288.70709229
 30
0.0
  0
VERTEX
  8
0
 10
76.74682617
 20
287.81491089
 30
0.0
  0
VERTEX
  8
0
 10
77.6734848
 20
286.9329834
 30
0.0
  0
VERTEX
  8
0
 10
78.59602356
 20
286.06079102
 30
0.0
  0
VERTEX
  8
0
 10
79.50675201
 20
285.18914795
 30
0.0
  0
VERTEX
  8
0
 10
80.41576385
 20
284.30535889
 30
0.0
  0
VERTEX
  8
0
 10
81.33812714
 20
283.41931152
 30
0.0
  0
VERTEX
  8
0
 10
82.25627899
 20
282.54498291
 30
0.0
  0
VERTEX
  8
0
 10
83.17028809
 20
281.66891479
 30
0.0
  0
VERTEX
  8
0
 10
84.07878876
 20
280.78463745
 30
0.0
  0
VERTEX
  8
0
 10
84.98603821
 20
279.89929199
 30
0.0
  0
VERTEX
  8
0
 10
85.89338684
 20
279.01123047
 30
0.0
  0
VERTEX
  8
0
 10
86.80403137
 20
278.12057495
 30
0.0
  0
VERTEX
  8
0
 10
87.71278381
 20
277.23074341
 30
0.0
  0
VERTEX
  8
0
 10
88.61650848
 20
276.34188843
 30
0.0
  0
VERTEX
  8
0
 10
89.53024292
 20
275.45703125
 30
0.0
  0
VERTEX
  8
0
 10
90.4598999
 20
274.57901001
 30
0.0
  0
VERTEX
  8
0
 10
91.40396118
 20
273.72729492
 30
0.0
  0
VERTEX
  8
0
 10
92.36126709
 20
272.88598633
 30
0.0
  0
VERTEX
  8
0
 10
93.34305573
 20
272.06201172
 30
0.0
  0
VERTEX
  8
0
 10
94.34549713
 20
271.28005981
 30
0.0
  0
VERTEX
  8
0
 10
95.38882446
 20
270.60385132
 30
0.0
  0
VERTEX
  8
0
 10
97.01255798
 20
270.02960205
 30
0.0
  0
VERTEX
  8
0
 10
98.91647339
 20
269.85415649
 30
0.0
  0
VERTEX
  8
0
 10
100.7883606
 20
270.09356689
 30
0.0
  0
VERTEX
  8
0
 10
102.54885101
 20
270.48449707
 30
0.0
  0
VERTEX
  8
0
 10
104.25291443
 20
270.86291504
 30
0.0
  0
VERTEX
  8
0
 10
105.91368866
 20
271.36450195
 30
0.0
  0
VERTEX
  8
0
 10
106.97859192
 20
271.62463379
 30
0.0
  0
VERTEX
  8
0
 10
108.66400146
 20
272.03753662
 30
0.0
  0
VERTEX
  8
0
 10
109.70934296
 20
272.39111328
 30
0.0
  0
VERTEX
  8
0
 10
111.38639069
 20
272.81658936
 30
0.0
  0
VERTEX
  8
0
 10
113.01237488
 20
273.39614868
 30
0.0
  0
VERTEX
  8
0
 10
114.09675598
 20
273.64477539
 30
0.0
  0
VERTEX
  8
0
 10
115.7509613
 20
274.1418457
 30
0.0
  0
VERTEX
  8
0
 10
116.81285095
 20
274.46878052
 30
0.0
  0
VERTEX
  8
0
 10
118.48706055
 20
274.90216064
 30
0.0
  0
VERTEX
  8
0
 10
119.53298187
 20
275.27862549
 30
0.0
  0
VERTEX
  8
0
 10
121.21595764
 20
275.69296265
 30
0.0
  0
VERTEX
  8
0
 10
122.84113312
 20
276.23266602
 30
0.0
  0
VERTEX
  8
0
 10
123.93099213
 20
276.49703979
 30
0.0
  0
VERTEX
  8
0
 10
125.59729004
 20
276.9710083
 30
0.0
  0
VERTEX
  8
0
 10
126.64672089
 20
277.32299805
 30
0.0
  0
VERTEX
  8
0
 10
128.31771851
 20
277.76678467
 30
0.0
  0
VERTEX
  8
0
 10
129.934021
 20
278.39715576
 30
0.0
  0
VERTEX
  8
0
 10
131.03425598
 20
278.55587769
 30
0.0
  0
VERTEX
  8
0
 10
132.66621399
 20
279.13208008
 30
0.0
  0
VERTEX
  8
0
 10
133.74475098
 20
279.40435791
 30
0.0
  0
VERTEX
  8
0
 10
135.38851929
 20
279.9246521
 30
0.0
  0
VERTEX
  8
0
 10
136.45539856
 20
280.24215698
 30
0.0
  0
VERTEX
  8
0
 10
138.15116882
 20
280.63796997
 30
0.0
  0
VERTEX
  8
0
 10
139.770401
 20
281.18896484
 30
0.0
  0
VERTEX
  8
0
 10
140.86799622
 20
281.40371704
 30
0.0
  0
VERTEX
  8
0
 10
142.49224854
 20
281.97088623
 30
0.0
  0
VERTEX
  8
0
 10
143.55851746
 20
282.31201172
 30
0.0
  0
VERTEX
  8
0
 10
145.16134644
 20
282.88696289
 30
0.0
  0
VERTEX
  8
0
 10
146.24282837
 20
283.23562622
 30
0.0
  0
VERTEX
  8
0
 10
147.32312012
 20
283.64898682
 30
0.0
  0
VERTEX
  8
0
 10
148.80450439
 20
284.35852051
 30
0.0
  0
VERTEX
  8
0
 10
149.73329163
 20
285.14028931
 30
0.0
  0
VERTEX
  8
0
 10
150.536026
 20
286.07443237
 30
0.0
  0
VERTEX
  8
0
 10
151.14065552
 20
287.09350586
 30
0.0
  0
VERTEX
  8
0
 10
151.69876099
 20
288.62335205
 30
0.0
  0
VERTEX
  8
0
 10
152.14492798
 20
289.69430542
 30
0.0
  0
VERTEX
  8
0
 10
152.56419373
 20
291.3427124
 30
0.0
  0
VERTEX
  8
0
 10
152.95419312
 20
292.40560913
 30
0.0
  0
VERTEX
  8
0
 10
153.3560791
 20
294.07211304
 30
0.0
  0
VERTEX
  8
0
 10
153.71174622
 20
295.12515259
 30
0.0
  0
VERTEX
  8
0
 10
154.06053162
 20
296.82000732
 30
0.0
  0
VERTEX
  8
0
 10
154.33293152
 20
297.8873291
 30
0.0
  0
VERTEX
  8
0
 10
154.70030212
 20
299.58578491
 30
0.0
  0
VERTEX
  8
0
 10
154.76637268
 20
300.69619751
 30
0.0
  0
VERTEX
  8
0
 10
155.30967712
 20
302.35598755
 30
0.0
  0
VERTEX
  8
0
 10
155.70352173
 20
304.0401001
 30
0.0
  0
VERTEX
  8
0
 10
156.0433197
 20
305.12387085
 30
0.0
  0
VERTEX
  8
0
 10
156.48635864
 20
306.76800537
 30
0.0
  0
VERTEX
  8
0
 10
156.74755859
 20
307.86621094
 30
0.0
  0
VERTEX
  8
0
 10
157.20147705
 20
309.51467896
 30
0.0
  0
VERTEX
  8
0
 10
157.2518158
 20
310.62515259
 30
0.0
  0
VERTEX
  8
0
 10
157.86941528
 20
312.26504517
 30
0.0
  0
VERTEX
  8
0
 10
158.23088074
 20
313.95947266
 30
0.0
  0
VERTEX
  8
0
 10
158.46794128
 20
315.02822876
 30
0.0
  0
VERTEX
  8
0
 10
158.90107727
 20
316.71710205
 30
0.0
  0
VERTEX
  8
0
 10
159.03617859
 20
317.8338623
 30
0.0
  0
VERTEX
  8
0
 10
159.61286926
 20
319.46157837
 30
0.0
  0
VERTEX
  8
0
 10
159.97129822
 20
321.15228271
 30
0.0
  0
VERTEX
  8
0
 10
160.28413391
 20
322.21490479
 30
0.0
  0
VERTEX
  8
0
 10
160.66181946
 20
323.90426636
 30
0.0
  0
VERTEX
  8
0
 10
160.88444519
 20
324.98599243
 30
0.0
  0
VERTEX
  8
0
 10
161.35043335
 20
326.65396118
 30
0.0
  0
VERTEX
  8
0
 10
161.38568115
 20
327.81573486
 30
0.0
  0
VERTEX
  8
0
 10
162.0027771
 20
329.40673828
 30
0.0
  0
VERTEX
  8
0
 10
162.34680176
 20
331.11218262
 30
0.0
  0
VERTEX
  8
0
 10
162.54077148
 20
332.1812439
 30
0.0
  0
VERTEX
  8
0
 10
162.97351074
 20
333.87460327
 30
0.0
  0
VERTEX
  8
0
 10
163.24356079
 20
335.60400391
 30
0.0
  0
VERTEX
  8
0
 10
163.3510437
 20
336.57958984
 30
0.0
  0
VERTEX
  8
0
 10
163.16574097
 20
338.2069397
 30
0.0
  0
VERTEX
  8
0
 10
162.95768738
 20
339.15100098
 30
0.0
  0
VERTEX
  8
0
 10
162.38064575
 20
340.21414185
 30
0.0
  0
VERTEX
  8
0
 10
161.67607117
 20
341.28833008
 30
0.0
  0
VERTEX
  8
0
 10
160.83172607
 20
342.41195679
 30
0.0
  0
VERTEX
  8
0
 10
160.00982666
 20
343.3527832
 30
0.0
  0
VERTEX
  8
0
 10
159.14518738
 20
344.27087402
 30
0.0
  0
VERTEX
  8
0
 10
158.25141907
 20
345.17233276
 30
0.0
  0
VERTEX
  8
0
 10
157.35240173
 20
346.07077026
 30
0.0
  0
VERTEX
  8
0
 10
156.46075439
 20
346.97592163
 30
0.0
  0
VERTEX
  8
0
 10
155.57835388
 20
347.88803101
 30
0.0
  0
VERTEX
  8
0
 10
154.69470215
 20
348.79904175
 30
0.0
  0
VERTEX
  8
0
 10
153.8044281
 20
349.70367432
 30
0.0
  0
VERTEX
  8
0
 10
152.90412903
 20
350.5960083
 30
0.0
  0
VERTEX
  8
0
 10
151.99502563
 20
351.48077393
 30
0.0
  0
VERTEX
  8
0
 10
151.07826233
 20
352.35928345
 30
0.0
  0
VERTEX
  8
0
 10
150.16368103
 20
353.23925781
 30
0.0
  0
VERTEX
  8
0
 10
149.25038147
 20
354.12060547
 30
0.0
  0
VERTEX
  8
0
 10
148.33616638
 20
355.00106812
 30
0.0
  0
VERTEX
  8
0
 10
147.41471863
 20
355.87457275
 30
0.0
  0
VERTEX
  8
0
 10
146.49102783
 20
356.74743652
 30
0.0
  0
VERTEX
  8
0
 10
145.56977844
 20
357.62219238
 30
0.0
  0
VERTEX
  8
0
 10
144.6555481
 20
358.50054932
 30
0.0
  0
VERTEX
  8
0
 10
143.73899841
 20
359.38018799
 30
0.0
  0
VERTEX
  8
0
 10
142.82180786
 20
360.25823975
 30
0.0
  0
VERTEX
  8
0
 10
141.9030304
 20
361.13262939
 30
0.0
  0
VERTEX
  8
0
 10
140.9793396
 20
362.00262451
 30
0.0
  0
VERTEX
  8
0
 10
140.04995728
 20
362.86859131
 30
0.0
  0
VERTEX
  8
0
 10
139.12129211
 20
363.73831177
 30
0.0
  0
VERTEX
  8
0
 10
138.20367432
 20
364.61724854
 30
0.0
  0
VERTEX
  8
0
 10
137.29368591
 20
365.50146484
 30
0.0
  0
VERTEX
  8
0
 10
136.38243103
 20
366.38568115
 30
0.0
  0
VERTEX
  8
0
 10
135.46862793
 20
367.26968384
 30
0.0
  0
VERTEX
  8
0
 10
134.55654907
 20
368.15301514
 30
0.0
  0
VERTEX
  8
0
 10
133.64968872
 20
369.03723145
 30
0.0
  0
VERTEX
  8
0
 10
132.73667908
 20
369.92184448
 30
0.0
  0
VERTEX
  8
0
 10
131.81959534
 20
370.79785156
 30
0.0
  0
VERTEX
  8
0
 10
130.89271545
 20
371.66314697
 30
0.0
  0
VERTEX
  8
0
 10
129.95706177
 20
372.51959229
 30
0.0
  0
VERTEX
  8
0
 10
129.01483154
 20
373.36459351
 30
0.0
  0
VERTEX
  8
0
 10
128.06446838
 20
374.19577026
 30
0.0
  0
VERTEX
  8
0
 10
127.09720612
 20
374.99475098
 30
0.0
  0
VERTEX
  8
0
 10
126.10002136
 20
375.74295044
 30
0.0
  0
VERTEX
  8
0
 10
124.84175873
 20
376.49636841
 30
0.0
  0
VERTEX
  8
0
 10
123.71798706
 20
377.02728271
 30
0.0
  0
VERTEX
  8
0
 10
121.91985321
 20
377.31088257
 30
0.0
  0
VERTEX
  8
0
 10
120.09954071
 20
377.10577393
 30
0.0
  0
VERTEX
  8
0
 10
118.37108612
 20
376.77398682
 30
0.0
  0
VERTEX
  8
0
 10
117.33154297
 20
376.47772217
 30
0.0
  0
VERTEX
  8
0
 10
115.63424683
 20
376.05554199
 30
0.0
  0
VERTEX
  8
0
 10
114.54524231
 20
375.86627197
 30
0.0
  0
VERTEX
  8
0
 10
112.90567017
 20
375.28509521
 30
0.0
  0
VERTEX
  8
0
 10
111.2286911
 20
374.86114502
 30
0.0
  0
VERTEX
  8
0
 10
110.16964722
 20
374.47119141
 30
0.0
  0
VERTEX
  8
0
 10
108.52246094
 20
374.00161743
 30
0.0
  0
VERTEX
  8
0
 10
107.46026611
 20
373.67276001
 30
0.0
  0
VERTEX
  8
0
 10
105.79865265
 20
373.20568848
 30
0.0
  0
VERTEX
  8
0
 10
104.68815613
 20
373.04577637
 30
0.0
  0
VERTEX
  8
0
 10
103.07803345
 20
372.39926147
 30
0.0
  0
VERTEX
  8
0
 10
101.39998627
 20
371.98080444
 30
0.0
  0
VERTEX
  8
0
 10
100.34119415
 20
371.63793945
 30
0.0
  0
VERTEX
  8
0
 10
98.6806488
 20
371.17996216
 30
0.0
  0
VERTEX
  8
0
 10
97.60482025
 20
370.90698242
 30
0.0
  0
VERTEX
  8
0
 10
95.96199036
 20
370.36669922
 30
0.0
  0
VERTEX
  8
0
 10
94.84860229
 20
370.29663086
 30
0.0
  0
VERTEX
  8
0
 10
93.23182678
 20
369.59576416
 30
0.0
  0
VERTEX
  8
0
 10
91.56015015
 20
369.15884399
 30
0.0
  0
VERTEX
  8
0
 10
90.50242615
 20
368.86016846
 30
0.0
  0
VERTEX
  8
0
 10
88.82839966
 20
368.3994751
 30
0.0
  0
VERTEX
  8
0
 10
87.72514343
 20
368.31219482
 30
0.0
  0
VERTEX
  8
0
 10
86.09046173
 20
367.65802002
 30
0.0
  0
VERTEX
  8
0
 10
84.41875458
 20
367.21054077
 30
0.0
  0
VERTEX
  8
0
 10
83.35600281
 20
366.86911011
 30
0.0
  0
VERTEX
  8
0
 10
81.70192719
 20
366.3927002
 30
0.0
  0
VERTEX
  8
0
 10
80.62198639
 20
366.1882019
 30
0.0
  0
VERTEX
  8
0
 10
78.96992493
 20
365.61349487
 30
0.0
  0
VERTEX
  8
0
 10
77.31531525
 20
365.15585327
 30
0.0
  0
VERTEX
  8
0
 10
76.25774384
 20
364.74768066
 30
0.0
  0
VERTEX
  8
0
 10
74.61740112
 20
364.27105713
 30
0.0
  0
VERTEX
  8
0
 10
73.54325867
 20
363.84356689
 30
0.0
  0
VERTEX
  8
0
 10
71.98044586
 20
363.26593018
 30
0.0
  0
VERTEX
  8
0
 10
70.96042633
 20
362.59707642
 30
0.0
  0
VERTEX
  8
0
 10
70.01824188
 20
361.69039917
 30
0.0
  0
VERTEX
  8
0
 10
69.30249786
 20
360.65466309
 30
0.0
  0
VERTEX
  8
0
 10
68.71136475
 20
359.06109619
 30
0.0
  0
VERTEX
  8
0
 10
68.42538452
 20
357.95901489
 30
0.0
  0
VERTEX
  8
0
 10
68.01869202
 20
356.29013062
 30
0.0
  0
VERTEX
  8
0
 10
67.68808746
 20
355.2182312
 30
0.0
  0
VERTEX
  8
0
 10
67.29406738
 20
353.55111694
 30
0.0
  0
VERTEX
  8
0
 10
66.9209137
 20
352.48193359
 30
0.0
  0
VERTEX
  8
0
 10
66.53800201
 20
350.8085022
 30
0.0
  0
VERTEX
  8
0
 10
65.99739075
 20
349.16595459
 30
0.0
  0
VERTEX
  8
0
 10
65.8137207
 20
348.06661987
 30
0.0
  0
VERTEX
  8
0
 10
65.3495636
 20
346.39364624
 30
0.0
  0
VERTEX
  8
0
 10
65.09536743
 20
345.31768799
 30
0.0
  0
VERTEX
  8
0
 10
64.73749542
 20
343.62216187
 30
0.0
  0
VERTEX
  8
0
 10
64.40612793
 20
342.56500244
 30
0.0
  0
VERTEX
  8
0
 10
64.03874969
 20
340.88217163
 30
0.0
  0
VERTEX
  8
0
 10
63.47820282
 20
339.24880981
 30
0.0
  0
VERTEX
  8
0
 10
63.31409836
 20
338.13644409
 30
0.0
  0
VERTEX
  8
0
 10
62.87461853
 20
336.46502686
 30
0.0
  0
VERTEX
  8
0
 10
62.60860443
 20
335.38735962
 30
0.0
  0
VERTEX
  8
0
 10
62.23791504
 20
333.70043945
 30
0.0
  0
VERTEX
  8
0
 10
61.9148674
 20
332.63528442
 30
0.0
  0
VERTEX
  8
0
 10
61.56764984
 20
330.9425354
 30
0.0
  0
VERTEX
  8
0
 10
61.04678345
 20
329.30569458
 30
0.0
  0
VERTEX
  8
0
 10
60.83963776
 20
328.20523071
 30
0.0
  0
VERTEX
  8
0
 10
60.37573242
 20
326.54898071
 30
0.0
  0
VERTEX
  8
0
 10
60.10129166
 20
325.46240234
 30
0.0
  0
VERTEX
  8
0
 10
59.72071075
 20
323.78143311
 30
0.0
  0
VERTEX
  8
0
 10
59.37485886
 20
322.71591187
 30
0.0
  0
VERTEX
  8
0
 10
59.01243973
 20
321.02609253
 30
0.0
  0
VERTEX
  8
0
 10
58.50315094
 20
319.37283325
 30
0.0
  0
VERTEX
  8
0
 10
58.33937454
 20
318.27523804
 30
0.0
  0
VERTEX
  8
0
 10
57.89368057
 20
316.60662842
 30
0.0
  0
VERTEX
  8
0
 10
57.62599945
 20
315.52908325
 30
0.0
  0
VERTEX
  8
0
 10
57.26596832
 20
313.83300781
 30
0.0
  0
VERTEX
  8
0
 10
56.67439651
 20
312.09133911
 30
0.0
  0
VERTEX
  8
0
 10
56.71121216
 20
311.04003906
 30
0.0
  0
VERTEX
  8
0
 10
56.65764236
 20
309.21691895
 30
0.0
  0
VERTEX
  8
0
 10
57.13171768
 20
307.57666016
 30
0.0
  0
SEQEND
  0
POLYLINE
  8
0
 66
1
 10
0.0
 20
0.0
 30
0.0
 70
0
  0
VERTEX
  8
0
 10
88.59303284
 20
307.40112305
 30
0.0
  0
VERTEX
  8
0
 10
89.37756348
 20
306.42694092
 30
0.0
  0
VERTEX
  8
0
 10
90.2201004
 20
305.49179077
 30
0.0
  0
VERTEX
  8
0
 10
91.10884857
 20
304.59365845
 30
0.0
  0
VERTEX
  8
0
 10
92.03855133
 20
303.73577881
 30
0.0
  0
VERTEX
  8
0
 10
93.00219727
 20
302.92456055
 30
0.0
  0
VERTEX
  8
0
 10
94.00166321
 20
302.17208862
 30
0.0
  0
VERTEX
  8
0
 10
95.05654907
 20
301.51342773
 30
0.0
  0
VERTEX
  8
0
 10
96.33241272
 20
300.76559448
 30
0.0
  0
VERTEX
  8
0
 10
97.39185333
 20
300.11257935
 30
0.0
  0
VERTEX
  8
0
 10
98.4516449
 20
299.52160645
 30
0.0
  0
VERTEX
  8
0
 10
100.01394653
 20
298.99475098
 30
0.0
  0
VERTEX
  8
0
 10
101.09025574
 20
298.56091309
 30
0.0
  0
VERTEX
  8
0
 10
102.73809052
 20
298.10995483
 30
0.0
  0
VERTEX
  8
0
 10
104.4150238
 20
297.47616577
 30
0.0
  0
VERTEX
  8
0
 10
105.52672577
 20
297.48681641
 30
0.0
  0
VERTEX
  8
0
 10
107.29457092
 20
297.23120117
 30
0.0
  0
VERTEX
  8
0
 10
109.13821411
 20
297.06900024
 30
0.0
  0
VERTEX
  8
0
 10
110.97248077
 20
297.08770752
 30
0.0
  0
VERTEX
  8
0
 10
112.80388641
 20
297.20254517
 30
0.0
  0
VERTEX
  8
0
 10
114.59919739
 20
297.46923828
 30
0.0
  0
VERTEX
  8
0
 10
116.34297943
 20
297.80648804
 30
0.0
  0
VERTEX
  8
0
 10
118.0144577
 20
298.23309326
 30
0.0
  0
VERTEX
  8
0
 10
119.06893158
 20
298.63037109
 30
0.0
  0
VERTEX
  8
0
 10
120.65331268
 20
299.18130493
 30
0.0
  0
VERTEX
  8
0
 10
121.70061493
 20
299.71658325
 30
0.0
  0
VERTEX
  8
0
 10
122.76766968
 20
300.32998657
 30
0.0
  0
VERTEX
  8
0
 10
124.12413025
 20
301.04891968
 30
0.0
  0
VERTEX
  8
0
 10
125.14174652
 20
301.74847412
 30
0.0
  0
VERTEX
  8
0
 10
126.1169281
 20
302.53872681
 30
0.0
  0
VERTEX
  8
0
 10
127.07209015
 20
303.37127686
 30
0.0
  0
VERTEX
  8
0
 10
128.00622559
 20
304.22485352
 30
0.0
  0
VERTEX
  8
0
 10
128.92417908
 20
305.11593628
 30
0.0
  0
VERTEX
  8
0
 10
129.80609131
 20
306.05886841
 30
0.0
  0
VERTEX
  8
0
 10
130.62213135
 20
307.03012085
 30
0.0
  0
VERTEX
  8
0
 10
131.39630127
 20
308.03338623
 30
0.0
  0
VERTEX
  8
0
 10
132.1104126
 20
309.05679321
 30
0.0
  0
VERTEX
  8
0
 10
132.69894409
 20
310.13577271
 30
0.0
  0
VERTEX
  8
0
 10
133.38386536
 20
311.5194397
 30
0.0
  0
VERTEX
  8
0
 10
133.98208618
 20
312.58529663
 30
0.0
  0
VERTEX
  8
0
 10
134.43341064
 20
313.67803955
 30
0.0
  0
VERTEX
  8
0
 10
134.99656677
 20
315.23434448
 30
0.0
  0
VERTEX
  8
0
 10
135.36573792
 20
316.31036377
 30
0.0
  0
VERTEX
  8
0
 10
135.75146484
 20
317.98519897
 30
0.0
  0
VERTEX
  8
0
 10
135.86859131
 20
319.03988647
 30
0.0
  0
VERTEX
  8
0
 10
136.24305725
 20
320.74090576
 30
0.0
  0
VERTEX
  8
0
 10
136.36322021
 20
322.5128479
 30
0.0
  0
VERTEX
  8
0
 10
136.41503906
 20
324.30245972
 30
0.0
  0
VERTEX
  8
0
 10
136.35856628
 20
326.09384155
 30
0.0
  0
VERTEX
  8
0
 10
136.18782043
 20
327.86566162
 30
0.0
  0
VERTEX
  8
0
 10
135.86022949
 20
329.57461548
 30
0.0
  0
VERTEX
  8
0
 10
135.60668945
 20
330.61608887
 30
0.0
  0
VERTEX
  8
0
 10
135.17178345
 20
332.28887939
 30
0.0
  0
VERTEX
  8
0
 10
134.71969604
 20
333.337677
 30
0.0
  0
VERTEX
  8
0
 10
134.15194702
 20
334.91305542
 30
0.0
  0
VERTEX
  8
0
 10
133.60983276
 20
335.9637146
 30
0.0
  0
VERTEX
  8
0
 10
132.99874878
 20
337.02233887
 30
0.0
  0
VERTEX
  8
0
 10
132.28204346
 20
338.40118408
 30
0.0
  0
VERTEX
  8
0
 10
131.5929718
 20
339.42272949
 30
0.0
  0
VERTEX
  8
0
 10
130.80926514
 20
340.40594482
 30
0.0
  0
VERTEX
  8
0
 10
129.98794556
 20
341.36975098
 30
0.0
  0
VERTEX
  8
0
 10
129.13409424
 20
342.3218689
 30
0.0
  0
VERTEX
  8
0
 10
128.26011658
 20
343.24835205
 30
0.0
  0
VERTEX
  8
0
 10
127.34165192
 20
344.14712524
 30
0.0
  0
VERTEX
  8
0
 10
126.37580109
 20
345.00076294
 30
0.0
  0
VERTEX
  8
0
 10
125.38465881
 20
345.80654907
 30
0.0
  0
VERTEX
  8
0
 10
124.37772369
 20
346.57550049
 30
0.0
  0
VERTEX
  8
0
 10
123.35879517
 20
347.29974365
 30
0.0
  0
VERTEX
  8
0
 10
122.31098175
 20
347.94836426
 30
0.0
  0
VERTEX
  8
0
 10
120.89699554
 20
348.60986328
 30
0.0
  0
VERTEX
  8
0
 10
119.80200195
 20
349.14083862
 30
0.0
  0
VERTEX
  8
0
 10
118.7204895
 20
349.5803833
 30
0.0
  0
VERTEX
  8
0
 10
117.12145996
 20
350.07629395
 30
0.0
  0
VERTEX
  8
0
 10
116.04948425
 20
350.48764038
 30
0.0
  0
VERTEX
  8
0
 10
114.38954163
 20
350.89053345
 30
0.0
  0
VERTEX
  8
0
 10
112.61859131
 20
351.14678955
 30
0.0
  0
VERTEX
  8
0
 10
110.80808258
 20
351.31436157
 30
0.0
  0
VERTEX
  8
0
 10
108.97890472
 20
351.40255737
 30
0.0
  0
VERTEX
  8
0
 10
107.13800049
 20
351.30480957
 30
0.0
  0
VERTEX
  8
0
 10
105.31325531
 20
351.0098877
 30
0.0
  0
VERTEX
  8
0
 10
103.57880402
 20
350.65060425
 30
0.0
  0
VERTEX
  8
0
 10
102.49688721
 20
350.43734741
 30
0.0
  0
VERTEX
  8
0
 10
100.84880066
 20
349.83624268
 30
0.0
  0
VERTEX
  8
0
 10
99.69404602
 20
349.57519531
 30
0.0
  0
VERTEX
  8
0
 10
98.19809723
 20
348.78027344
 30
0.0
  0
VERTEX
  8
0
 10
97.12638092
 20
348.23284912
 30
0.0
  0
VERTEX
  8
0
 10
95.69114685
 20
347.52841187
 30
0.0
  0
VERTEX
  8
0
 10
94.67560577
 20
346.8359375
 30
0.0
  0
VERTEX
  8
0
 10
93.67061615
 20
346.09991455
 30
0.0
  0
VERTEX
  8
0
 10
92.65478516
 20
345.34802246
 30
0.0
  0
VERTEX
  8
0
 10
91.55298615
 20
344.47491455
 30
0.0
  0
VERTEX
  8
0
 10
90.64916992
 20
343.64877319
 30
0.0
  0
VERTEX
  8
0
 10
89.79319763
 20
342.74121094
 30
0.0
  0
VERTEX
  8
0
 10
88.9942627
 20
341.78387451
 30
0.0
  0
VERTEX
  8
0
 10
88.15356445
 20
340.70062256
 30
0.0
  0
VERTEX
  8
0
 10
87.40544891
 20
339.66711426
 30
0.0
  0
VERTEX
  8
0
 10
86.68257141
 20
338.63113403
 30
0.0
  0
VERTEX
  8
0
 10
85.99488068
 20
337.59429932
 30
0.0
  0
VERTEX
  8
0
 10
85.41809845
 20
336.53234863
 30
0.0
  0
VERTEX
  8
0
 10
84.82748413
 20
335.04406738
 30
0.0
  0
VERTEX
  8
0
 10
84.33837891
 20
333.96600342
 30
0.0
  0
VERTEX
  8
0
 10
83.88459778
 20
332.3444519
 30
0.0
  0
VERTEX
  8
0
 10
83.47478485
 20
331.27679443
 30
0.0
  0
VERTEX
  8
0
 10
83.14664459
 20
329.56210327
 30
0.0
  0
VERTEX
  8
0
 10
82.8782959
 20
327.79138184
 30
0.0
  0
VERTEX
  8
0
 10
82.64624786
 20
325.97601318
 30
0.0
  0
VERTEX
  8
0
 10
82.53561401
 20
324.11029053
 30
0.0
  0
VERTEX
  8
0
 10
82.72328949
 20
322.26516724
 30
0.0
  0
VERTEX
  8
0
 10
83.025383
 20
320.45278931
 30
0.0
  0
VERTEX
  8
0
 10
83.39070892
 20
318.70385742
 30
0.0
  0
VERTEX
  8
0
 10
83.73078156
 20
316.98516846
 30
0.0
  0
VERTEX
  8
0
 10
84.06695557
 20
315.92977905
 30
0.0
  0
VERTEX
  8
0
 10
84.59722137
 20
314.29226685
 30
0.0
  0
VERTEX
  8
0
 10
85.08883667
 20
313.22006226
 30
0.0
  0
VERTEX
  8
0
 10
85.68720245
 20
311.68951416
 30
0.0
  0
VERTEX
  8
0
 10
86.33283234
 20
310.659729
 30
0.0
  0
VERTEX
  8
0
 10
87.06184387
 20
309.62329102
 30
0.0
  0
VERTEX
  8
0
 10
87.77555847
 20
308.57833862
 30
0.0
  0
VERTEX
  8
0
 10
88.59303284
 20
307.40112305
 30
0.0
  0
SEQEND
  0
POLYLINE
  8
0
 66
1
 10
0.0
 20
0.0
 30
0.0
 70
0
  0
VERTEX
  8
0
 10
112.35910034
 20
68.44132233
 30
0.0
  0
VERTEX
  8
0
 10
113.39182281
 20
68.04489136
 30
0.0
  0
VERTEX
  8
0
 10
114.43802643
 20
67.68949127
 30
0.0
  0
VERTEX
  8
0
 10
115.50971222
 20
67.35644531
 30
0.0
  0
VERTEX
  8
0
 10
116.58127594
 20
67.04530334
 30
0.0
  0
VERTEX
  8
0
 10
117.71209717
 20
66.74537659
 30
0.0
  0
VERTEX
  8
0
 10
118.81958008
 20
66.49209595
 30
0.0
  0
VERTEX
  8
0
 10
119.94033051
 20
66.29620361
 30
0.0
  0
VERTEX
  8
0
 10
121.0338974
 20
66.20394135
 30
0.0
  0
VERTEX
  8
0
 10
122.59339905
 20
66.61211395
 30
0.0
  0
VERTEX
  8
0
 10
123.7654953
 20
67.65353394
 30
0.0
  0
VERTEX
  8
0
 10
124.27670288
 20
68.62556458
 30
0.0
  0
VERTEX
  8
0
 10
124.71437073
 20
69.65922546
 30
0.0
  0
VERTEX
  8
0
 10
125.12007141
 20
70.70805359
 30
0.0
  0
VERTEX
  8
0
 10
125.51281738
 20
71.7598877
 30
0.0
  0
VERTEX
  8
0
 10
125.91159058
 20
72.80362701
 30
0.0
  0
VERTEX
  8
0
 10
126.34455872
 20
73.81808472
 30
0.0
  0
VERTEX
  8
0
 10
126.87239075
 20
74.76859283
 30
0.0
  0
VERTEX
  8
0
 10
127.62194061
 20
75.85782623
 30
0.0
  0
VERTEX
  8
0
 10
128.71827698
 20
77.19657898
 30
0.0
  0
VERTEX
  8
0
 10
130.40750122
 20
77.91508484
 30
0.0
  0
VERTEX
  8
0
 10
131.99992371
 20
78.09049988
 30
0.0
  0
VERTEX
  8
0
 10
133.46018982
 20
78.31672668
 30
0.0
  0
VERTEX
  8
0
 10
134.50343323
 20
78.34425354
 30
0.0
  0
VERTEX
  8
0
 10
135.92579651
 20
78.4796524
 30
0.0
  0
VERTEX
  8
0
 10
136.98118591
 20
78.44068146
 30
0.0
  0
VERTEX
  8
0
 10
138.0549469
 20
78.23693848
 30
0.0
  0
VERTEX
  8
0
 10
139.12481689
 20
77.90059662
 30
0.0
  0
VERTEX
  8
0
 10
140.11224365
 20
77.42671967
 30
0.0
  0
VERTEX
  8
0
 10
140.89474487
 20
76.8270874
 30
0.0
  0
VERTEX
  8
0
 10
141.80595398
 20
75.66838074
 30
0.0
  0
VERTEX
  8
0
 10
142.57814026
 20
74.29747009
 30
0.0
  0
VERTEX
  8
0
 10
143.30523682
 20
72.88768768
 30
0.0
  0
VERTEX
  8
0
 10
144.07107544
 20
71.49619293
 30
0.0
  0
VERTEX
  8
0
 10
144.43855286
 20
70.65035248
 30
0.0
  0
VERTEX
  8
0
 10
145.76567078
 20
69.5714035
 30
0.0
  0
VERTEX
  8
0
 10
146.89575195
 20
69.13562775
 30
0.0
  0
VERTEX
  8
0
 10
148.00869751
 20
69.02863312
 30
0.0
  0
VERTEX
  8
0
 10
149.52775574
 20
69.37332916
 30
0.0
  0
VERTEX
  8
0
 10
151.07777405
 20
69.75580597
 30
0.0
  0
VERTEX
  8
0
 10
151.90344238
 20
70.1246109
 30
0.0
  0
VERTEX
  8
0
 10
153.36064148
 20
70.74454498
 30
0.0
  0
VERTEX
  8
0
 10
154.80158997
 20
71.4180603
 30
0.0
  0
VERTEX
  8
0
 10
156.22901917
 20
72.11456299
 30
0.0
  0
VERTEX
  8
0
 10
157.6373291
 20
72.8587265
 30
0.0
  0
VERTEX
  8
0
 10
159.02964783
 20
73.622612
 30
0.0
  0
VERTEX
  8
0
 10
160.37115479
 20
74.44884491
 30
0.0
  0
VERTEX
  8
0
 10
161.48606873
 20
75.42617035
 30
0.0
  0
VERTEX
  8
0
 10
162.07014465
 20
76.22460175
 30
0.0
  0
VERTEX
  8
0
 10
162.46894836
 20
77.23723602
 30
0.0
  0
VERTEX
  8
0
 10
162.63453674
 20
78.27198792
 30
0.0
  0
VERTEX
  8
0
 10
162.35472107
 20
79.13140869
 30
0.0
  0
VERTEX
  8
0
 10
162.05187988
 20
80.55449677
 30
0.0
  0
VERTEX
  8
0
 10
161.4299469
 20
81.98967743
 30
0.0
  0
VERTEX
  8
0
 10
160.71250916
 20
83.41186523
 30
0.0
  0
VERTEX
  8
0
 10
160.07247925
 20
84.88751984
 30
0.0
  0
VERTEX
  8
0
 10
159.59942627
 20
86.42154694
 30
0.0
  0
VERTEX
  8
0
 10
159.47076416
 20
87.82678223
 30
0.0
  0
VERTEX
  8
0
 10
159.61616516
 20
88.85356903
 30
0.0
  0
VERTEX
  8
0
 10
159.95727539
 20
89.87023163
 30
0.0
  0
VERTEX
  8
0
 10
160.45959473
 20
90.81137848
 30
0.0
  0
VERTEX
  8
0
 10
161.28347778
 20
91.90293884
 30
0.0
  0
VERTEX
  8
0
 10
161.90162659
 20
92.7691803
 30
0.0
  0
VERTEX
  8
0
 10
162.87519836
 20
93.86710358
 30
0.0
  0
VERTEX
  8
0
 10
163.57873535
 20
94.6238327
 30
0.0
  0
VERTEX
  8
0
 10
164.72320557
 20
95.68890381
 30
0.0
  0
VERTEX
  8
0
 10
166.17297363
 20
96.64297485
 30
0.0
  0
VERTEX
  8
0
 10
167.82698059
 20
96.96068573
 30
0.0
  0
VERTEX
  8
0
 10
169.22514343
 20
97.01318359
 30
0.0
  0
VERTEX
  8
0
 10
170.27648926
 20
96.86389923
 30
0.0
  0
VERTEX
  8
0
 10
171.34719849
 20
96.58966827
 30
0.0
  0
VERTEX
  8
0
 10
172.41285706
 20
96.25350189
 30
0.0
  0
VERTEX
  8
0
 10
173.48345947
 20
95.90242767
 30
0.0
  0
VERTEX
  8
0
 10
174.5688324
 20
95.58946228
 30
0.0
  0
VERTEX
  8
0
 10
175.66647339
 20
95.37116241
 30
0.0
  0
VERTEX
  8
0
 10
177.24647522
 20
95.36828613
 30
0.0
  0
VERTEX
  8
0
 10
178.85823059
 20
96.43636322
 30
0.0
  0
VERTEX
  8
0
 10
179.7166748
 20
97.57628632
 30
0.0
  0
VERTEX
  8
0
 10
180.20281982
 20
98.5674057
 30
0.0
  0
VERTEX
  8
0
 10
180.64193726
 20
99.59425354
 30
0.0
  0
VERTEX
  8
0
 10
181.06326294
 20
100.63280487
 30
0.0
  0
VERTEX
  8
0
 10
181.47270203
 20
101.67650604
 30
0.0
  0
VERTEX
  8
0
 10
181.86367798
 20
102.7300415
 30
0.0
  0
VERTEX
  8
0
 10
182.23265076
 20
103.79973602
 30
0.0
  0
VERTEX
  8
0
 10
182.57614136
 20
104.87349701
 30
0.0
  0
VERTEX
  8
0
 10
182.89546204
 20
105.9514389
 30
0.0
  0
VERTEX
  8
0
 10
183.19158936
 20
107.03647614
 30
0.0
  0
VERTEX
  8
0
 10
183.45762634
 20
108.12322235
 30
0.0
  0
VERTEX
  8
0
 10
183.67855835
 20
109.21134949
 30
0.0
  0
VERTEX
  8
0
 10
183.80360413
 20
110.2822876
 30
0.0
  0
VERTEX
  8
0
 10
183.63391113
 20
111.72266388
 30
0.0
  0
VERTEX
  8
0
 10
182.80027771
 20
113.15678406
 30
0.0
  0
VERTEX
  8
0
 10
181.88839722
 20
113.80651855
 30
0.0
  0
VERTEX
  8
0
 10
180.76539612
 20
114.41963959
 30
0.0
  0
VERTEX
  8
0
 10
179.76487732
 20
114.8792038
 30
0.0
  0
VERTEX
  8
0
 10
178.734375
 20
115.3013382
 30
0.0
  0
VERTEX
  8
0
 10
177.68162537
 20
115.7093277
 30
0.0
  0
VERTEX
  8
0
 10
176.63282776
 20
116.11394501
 30
0.0
  0
VERTEX
  8
0
 10
175.5965271
 20
116.54424286
 30
0.0
  0
VERTEX
  8
0
 10
174.59590149
 20
117.03801727
 30
0.0
  0
VERTEX
  8
0
 10
173.34432983
 20
117.95918274
 30
0.0
  0
VERTEX
  8
0
 10
172.42115784
 20
119.61714935
 30
0.0
  0
VERTEX
  8
0
 10
172.20326233
 20
121.20753479
 30
0.0
  0
VERTEX
  8
0
 10
171.92234802
 20
122.6834259
 30
0.0
  0
VERTEX
  8
0
 10
171.86798096
 20
123.7121582
 30
0.0
  0
VERTEX
  8
0
 10
171.69351196
 20
125.15123749
 30
0.0
  0
VERTEX
  8
0
 10
171.72998047
 20
126.21121216
 30
0.0
  0
VERTEX
  8
0
 10
171.85528564
 20
127.29936981
 30
0.0
  0
VERTEX
  8
0
 10
172.08222961
 20
128.42845154
 30
0.0
  0
VERTEX
  8
0
 10
172.52095032
 20
129.546875
 30
0.0
  0
VERTEX
  8
0
 10
173.10244751
 20
130.49775696
 30
0.0
  0
VERTEX
  8
0
 10
174.24513245
 20
131.59535217
 30
0.0
  0
VERTEX
  8
0
 10
175.63641357
 20
132.52380371
 30
0.0
  0
VERTEX
  8
0
 10
177.10456848
 20
133.2102356
 30
0.0
  0
VERTEX
  8
0
 10
178.48664856
 20
133.91229248
 30
0.0
  0
VERTEX
  8
0
 10
179.20649719
 20
134.31604004
 30
0.0
  0
VERTEX
  8
0
 10
180.37992859
 20
135.27780151
 30
0.0
  0
VERTEX
  8
0
 10
180.92559814
 20
136.16589355
 30
0.0
  0
VERTEX
  8
0
 10
181.28421021
 20
137.2280426
 30
0.0
  0
VERTEX
  8
0
 10
181.39370728
 20
138.27098083
 30
0.0
  0
VERTEX
  8
0
 10
181.02568054
 20
139.74339294
 30
0.0
  0
VERTEX
  8
0
 10
180.71951294
 20
140.5717926
 30
0.0
  0
VERTEX
  8
0
 10
180.18447876
 20
142.02919006
 30
0.0
  0
VERTEX
  8
0
 10
179.57290649
 20
143.48829651
 30
0.0
  0
VERTEX
  8
0
 10
178.88981628
 20
144.89286804
 30
0.0
  0
VERTEX
  8
0
 10
178.12901306
 20
146.29057312
 30
0.0
  0
VERTEX
  8
0
 10
177.32522583
 20
147.62336731
 30
0.0
  0
VERTEX
  8
0
 10
176.40977478
 20
148.87876892
 30
0.0
  0
VERTEX
  8
0
 10
175.92614746
 20
149.62828064
 30
0.0
  0
VERTEX
  8
0
 10
174.88017273
 20
150.54562378
 30
0.0
  0
VERTEX
  8
0
 10
174.03723145
 20
151.0358429
 30
0.0
  0
VERTEX
  8
0
 10
173.02128601
 20
151.3575592
 30
0.0
  0
VERTEX
  8
0
 10
171.72917175
 20
151.51501465
 30
0.0
  0
VERTEX
  8
0
 10
170.61853027
 20
151.52110291
 30
0.0
  0
VERTEX
  8
0
 10
169.6078949
 20
151.4654541
 30
0.0
  0
VERTEX
  8
0
 10
168.13618469
 20
151.05027771
 30
0.0
  0
VERTEX
  8
0
 10
167.43826294
 20
150.58256531
 30
0.0
  0
VERTEX
  8
0
 10
166.00263977
 20
149.95445251
 30
0.0
  0
VERTEX
  8
0
 10
164.45941162
 20
149.39935303
 30
0.0
  0
VERTEX
  8
0
 10
162.83850098
 20
149.05044556
 30
0.0
  0
VERTEX
  8
0
 10
161.50135803
 20
149.06668091
 30
0.0
  0
VERTEX
  8
0
 10
160.5369873
 20
149.36108398
 30
0.0
  0
VERTEX
  8
0
 10
159.42185974
 20
150.06004333
 30
0.0
  0
VERTEX
  8
0
 10
158.55232239
 20
150.68768311
 30
0.0
  0
VERTEX
  8
0
 10
157.72296143
 20
151.33813477
 30
0.0
  0
VERTEX
  8
0
 10
156.66926575
 20
152.33450317
 30
0.0
  0
VERTEX
  8
0
 10
155.86502075
 20
152.98612976
 30
0.0
  0
VERTEX
  8
0
 10
154.84609985
 20
154.07780457
 30
0.0
  0
VERTEX
  8
0
 10
153.7651825
 20
155.3167572
 30
0.0
  0
VERTEX
  8
0
 10
153.25468445
 20
157.02938843
 30
0.0
  0
VERTEX
  8
0
 10
153.18170166
 20
158.44532776
 30
0.0
  0
VERTEX
  8
0
 10
153.35539246
 20
159.52220154
 30
0.0
  0
VERTEX
  8
0
 10
153.62123108
 20
160.60548401
 30
0.0
  0
VERTEX
  8
0
 10
153.93191528
 20
161.68153381
 30
0.0
  0
VERTEX
  8
0
 10
154.26603699
 20
162.75317383
 30
0.0
  0
VERTEX
  8
0
 10
154.60542297
 20
163.82287598
 30
0.0
  0
VERTEX
  8
0
 10
154.92649841
 20
164.896698
 30
0.0
  0
VERTEX
  8
0
 10
155.16085815
 20
165.9752655
 30
0.0
  0
VERTEX
  8
0
 10
155.19718933
 20
166.95401001
 30
0.0
  0
VERTEX
  8
0
 10
154.73556519
 20
168.27334595
 30
0.0
  0
VERTEX
  8
0
 10
154.05311584
 20
168.94296265
 30
0.0
  0
VERTEX
  8
0
 10
152.96885681
 20
169.75740051
 30
0.0
  0
VERTEX
  8
0
 10
152.01051331
 20
170.25614929
 30
0.0
  0
VERTEX
  8
0
 10
150.98634338
 20
170.70335388
 30
0.0
  0
VERTEX
  8
0
 10
149.94844055
 20
171.12741089
 30
0.0
  0
VERTEX
  8
0
 10
148.90661621
 20
171.52397156
 30
0.0
  0
VERTEX
  8
0
 10
147.85087585
 20
171.89045715
 30
0.0
  0
VERTEX
  8
0
 10
146.78115845
 20
172.22395325
 30
0.0
  0
VERTEX
  8
0
 10
145.70484924
 20
172.53651428
 30
0.0
  0
VERTEX
  8
0
 10
144.6254425
 20
172.83613586
 30
0.0
  0
VERTEX
  8
0
 10
143.54597473
 20
173.12141418
 30
0.0
  0
VERTEX
  8
0
 10
142.47064209
 20
173.37539673
 30
0.0
  0
VERTEX
  8
0
 10
141.39730835
 20
173.57131958
 30
0.0
  0
VERTEX
  8
0
 10
140.08618164
 20
173.6829071
 30
0.0
  0
VERTEX
  8
0
 10
139.00706482
 20
173.67282104
 30
0.0
  0
VERTEX
  8
0
 10
137.50064087
 20
173.15151978
 30
0.0
  0
VERTEX
  8
0
 10
136.40107727
 20
172.14173889
 30
0.0
  0
VERTEX
  8
0
 10
135.88075256
 20
171.21128845
 30
0.0
  0
VERTEX
  8
0
 10
135.4443512
 20
170.18295288
 30
0.0
  0
VERTEX
  8
0
 10
135.04702759
 20
169.13467407
 30
0.0
  0
VERTEX
  8
0
 10
134.65611267
 20
168.08477783
 30
0.0
  0
VERTEX
  8
0
 10
134.26385498
 20
167.03022766
 30
0.0
  0
VERTEX
  8
0
 10
133.86248779
 20
165.98625183
 30
0.0
  0
VERTEX
  8
0
 10
133.42541504
 20
164.97886658
 30
0.0
  0
VERTEX
  8
0
 10
132.88775635
 20
164.04988098
 30
0.0
  0
VERTEX
  8
0
 10
131.98950195
 20
162.99343872
 30
0.0
  0
VERTEX
  8
0
 10
130.54393005
 20
162.19146729
 30
0.0
  0
VERTEX
  8
0
 10
129.05531311
 20
161.86911011
 30
0.0
  0
VERTEX
  8
0
 10
128.02090454
 20
161.83226013
 30
0.0
  0
VERTEX
  8
0
 10
126.57569122
 20
161.65270996
 30
0.0
  0
VERTEX
  8
0
 10
125.5272522
 20
161.62762451
 30
0.0
  0
VERTEX
  8
0
 10
124.45798492
 20
161.6335907
 30
0.0
  0
VERTEX
  8
0
 10
123.11074066
 20
161.70736694
 30
0.0
  0
VERTEX
  8
0
 10
122.09044647
 20
161.96792603
 30
0.0
  0
VERTEX
  8
0
 10
121.10455322
 20
162.38870239
 30
0.0
  0
VERTEX
  8
0
 10
120.00518036
 20
163.16325378
 30
0.0
  0
VERTEX
  8
0
 10
119.22180176
 20
163.84223938
 30
0.0
  0
VERTEX
  8
0
 10
118.36836243
 20
165.15734863
 30
0.0
  0
VERTEX
  8
0
 10
117.63666534
 20
166.57171631
 30
0.0
  0
VERTEX
  8
0
 10
116.95713806
 20
168.00506592
 30
0.0
  0
VERTEX
  8
0
 10
116.23773956
 20
169.41737366
 30
0.0
  0
VERTEX
  8
0
 10
115.38098907
 20
170.70487976
 30
0.0
  0
VERTEX
  8
0
 10
114.55287933
 20
171.28144836
 30
0.0
  0
VERTEX
  8
0
 10
113.46004486
 20
171.68562317
 30
0.0
  0
VERTEX
  8
0
 10
112.40376282
 20
171.79267883
 30
0.0
  0
VERTEX
  8
0
 10
110.90126038
 20
171.38154602
 30
0.0
  0
VERTEX
  8
0
 10
109.41777802
 20
170.82192993
 30
0.0
  0
VERTEX
  8
0
 10
107.93444824
 20
170.21833801
 30
0.0
  0
VERTEX
  8
0
 10
106.48303986
 20
169.5234375
 30
0.0
  0
VERTEX
  8
0
 10
105.06478119
 20
168.77059937
 30
0.0
  0
VERTEX
  8
0
 10
103.64592743
 20
168.03079224
 30
0.0
  0
VERTEX
  8
0
 10
102.27664185
 20
167.21357727
 30
0.0
  0
VERTEX
  8
0
 10
100.93940735
 20
166.36306763
 30
0.0
  0
VERTEX
  8
0
 10
99.64953613
 20
165.46891785
 30
0.0
  0
VERTEX
  8
0
 10
98.90042114
 20
164.84164429
 30
0.0
  0
VERTEX
  8
0
 10
97.95297241
 20
163.67419434
 30
0.0
  0
VERTEX
  8
0
 10
97.59629059
 20
162.65510559
 30
0.0
  0
VERTEX
  8
0
 10
97.48574066
 20
161.14479065
 30
0.0
  0
VERTEX
  8
0
 10
97.79740906
 20
160.17800903
 30
0.0
  0
VERTEX
  8
0
 10
98.38739777
 20
158.6993103
 30
0.0
  0
VERTEX
  8
0
 10
99.04341888
 20
157.25169373
 30
0.0
  0
VERTEX
  8
0
 10
99.68545532
 20
155.81915283
 30
0.0
  0
VERTEX
  8
0
 10
100.18997955
 20
154.3875885
 30
0.0
  0
VERTEX
  8
0
 10
100.41751099
 20
153.46685791
 30
0.0
  0
VERTEX
  8
0
 10
100.65679169
 20
152.01123047
 30
0.0
  0
VERTEX
  8
0
 10
100.54375458
 20
150.99697876
 30
0.0
  0
VERTEX
  8
0
 10
100.2173233
 20
149.9601593
 30
0.0
  0
VERTEX
  8
0
 10
99.72550964
 20
149.00416565
 30
0.0
  0
VERTEX
  8
0
 10
98.83111572
 20
147.90774536
 30
0.0
  0
VERTEX
  8
0
 10
98.19369507
 20
147.07537842
 30
0.0
  0
VERTEX
  8
0
 10
97.53675079
 20
146.26161194
 30
0.0
  0
VERTEX
  8
0
 10
96.50346375
 20
145.22331238
 30
0.0
  0
VERTEX
  8
0
 10
95.37549591
 20
144.13755798
 30
0.0
  0
VERTEX
  8
0
 10
93.79716492
 20
143.20005798
 30
0.0
  0
VERTEX
  8
0
 10
92.18440247
 20
143.14355469
 30
0.0
  0
VERTEX
  8
0
 10
91.07720947
 20
143.30613708
 30
0.0
  0
VERTEX
  8
0
 10
89.97314453
 20
143.55685425
 30
0.0
  0
VERTEX
  8
0
 10
88.88196564
 20
143.88014221
 30
0.0
  0
VERTEX
  8
0
 10
87.81052399
 20
144.24464417
 30
0.0
  0
VERTEX
  8
0
 10
86.75497437
 20
144.60437012
 30
0.0
  0
VERTEX
  8
0
 10
85.69042206
 20
144.923172
 30
0.0
  0
VERTEX
  8
0
 10
84.62511444
 20
145.13414001
 30
0.0
  0
VERTEX
  8
0
 10
83.28416443
 20
145.14862061
 30
0.0
  0
VERTEX
  8
0
 10
81.67040253
 20
144.43609619
 30
0.0
  0
VERTEX
  8
0
 10
80.71118164
 20
143.34490967
 30
0.0
  0
VERTEX
  8
0
 10
80.18940735
 20
142.38504028
 30
0.0
  0
VERTEX
  8
0
 10
79.72367859
 20
141.37393188
 30
0.0
  0
VERTEX
  8
0
 10
79.29888916
 20
140.33616638
 30
0.0
  0
VERTEX
  8
0
 10
78.90040588
 20
139.28007507
 30
0.0
  0
VERTEX
  8
0
 10
78.52557373
 20
138.22322083
 30
0.0
  0
VERTEX
  8
0
 10
78.16564178
 20
137.15591431
 30
0.0
  0
VERTEX
  8
0
 10
77.8239975
 20
136.07867432
 30
0.0
  0
VERTEX
  8
0
 10
77.49776459
 20
135.00476074
 30
0.0
  0
VERTEX
  8
0
 10
77.18660736
 20
133.92752075
 30
0.0
  0
VERTEX
  8
0
 10
76.88795471
 20
132.84576416
 30
0.0
  0
VERTEX
  8
0
 10
76.62760162
 20
131.75927734
 30
0.0
  0
VERTEX
  8
0
 10
76.44200134
 20
130.67608643
 30
0.0
  0
VERTEX
  8
0
 10
76.42619324
 20
129.61982727
 30
0.0
  0
VERTEX
  8
0
 10
76.56880951
 20
128.2142334
 30
0.0
  0
VERTEX
  8
0
 10
77.28229523
 20
126.78787994
 30
0.0
  0
VERTEX
  8
0
 10
78.10596466
 20
126.09732819
 30
0.0
  0
VERTEX
  8
0
 10
79.22934723
 20
125.39337921
 30
0.0
  0
VERTEX
  8
0
 10
80.23931885
 20
124.95231628
 30
0.0
  0
VERTEX
  8
0
 10
81.2910614
 20
124.55696106
 30
0.0
  0
VERTEX
  8
0
 10
82.34229279
 20
124.17146301
 30
0.0
  0
VERTEX
  8
0
 10
83.3957901
 20
123.76104736
 30
0.0
  0
VERTEX
  8
0
 10
84.42465973
 20
123.30580139
 30
0.0
  0
VERTEX
  8
0
 10
85.40380859
 20
122.80096436
 30
0.0
  0
VERTEX
  8
0
 10
86.28001404
 20
122.21310425
 30
0.0
  0
VERTEX
  8
0
 10
87.24399567
 20
121.13368988
 30
0.0
  0
VERTEX
  8
0
 10
87.8984375
 20
119.69994354
 30
0.0
  0
VERTEX
  8
0
 10
88.23351288
 20
118.24607849
 30
0.0
  0
VERTEX
  8
0
 10
88.31389618
 20
117.23036957
 30
0.0
  0
VERTEX
  8
0
 10
88.46815491
 20
115.76346588
 30
0.0
  0
VERTEX
  8
0
 10
88.57002258
 20
114.74048615
 30
0.0
  0
VERTEX
  8
0
 10
88.5633316
 20
113.68193054
 30
0.0
  0
VERTEX
  8
0
 10
88.54633331
 20
112.32585144
 30
0.0
  0
VERTEX
  8
0
 10
88.30280304
 20
111.32709503
 30
0.0
  0
VERTEX
  8
0
 10
87.83391571
 20
110.45276642
 30
0.0
  0
VERTEX
  8
0
 10
86.88661194
 20
109.44132996
 30
0.0
  0
VERTEX
  8
0
 10
86.13573456
 20
109.03884888
 30
0.0
  0
VERTEX
  8
0
 10
84.81218719
 20
108.24658966
 30
0.0
  0
VERTEX
  8
0
 10
83.40898132
 20
107.52938843
 30
0.0
  0
VERTEX
  8
0
 10
81.98413849
 20
106.82931519
 30
0.0
  0
VERTEX
  8
0
 10
80.53791809
 20
106.05148315
 30
0.0
  0
VERTEX
  8
0
 10
79.33820343
 20
104.88949585
 30
0.0
  0
VERTEX
  8
0
 10
78.85246277
 20
103.79705811
 30
0.0
  0
VERTEX
  8
0
 10
78.68954468
 20
102.6601181
 30
0.0
  0
VERTEX
  8
0
 10
78.94635773
 20
101.10865021
 30
0.0
  0
VERTEX
  8
0
 10
79.30012512
 20
99.5174942
 30
0.0
  0
VERTEX
  8
0
 10
79.77165222
 20
98.74436188
 30
0.0
  0
VERTEX
  8
0
 10
80.39859009
 20
97.28663635
 30
0.0
  0
VERTEX
  8
0
 10
81.03936005
 20
95.83293152
 30
0.0
  0
VERTEX
  8
0
 10
81.7448349
 20
94.39086914
 30
0.0
  0
VERTEX
  8
0
 10
82.53487396
 20
93.01081085
 30
0.0
  0
VERTEX
  8
0
 10
83.30185699
 20
91.62350464
 30
0.0
  0
VERTEX
  8
0
 10
84.09461212
 20
90.25193024
 30
0.0
  0
VERTEX
  8
0
 10
84.53556824
 20
89.44636536
 30
0.0
  0
VERTEX
  8
0
 10
85.71607971
 20
88.30374146
 30
0.0
  0
VERTEX
  8
0
 10
86.8396225
 20
87.72429657
 30
0.0
  0
VERTEX
  8
0
 10
87.99646759
 20
87.47505188
 30
0.0
  0
VERTEX
  8
0
 10
89.03973389
 20
87.50149536
 30
0.0
  0
VERTEX
  8
0
 10
90.52194214
 20
88.02916718
 30
0.0
  0
VERTEX
  8
0
 10
91.96879578
 20
88.68574524
 30
0.0
  0
VERTEX
  8
0
 10
93.40473938
 20
89.35745239
 30
0.0
  0
VERTEX
  8
0
 10
94.84341431
 20
89.96820068
 30
0.0
  0
VERTEX
  8
0
 10
96.27509308
 20
90.30479431
 30
0.0
  0
VERTEX
  8
0
 10
97.22588348
 20
90.45625305
 30
0.0
  0
VERTEX
  8
0
 10
98.29872894
 20
90.37729645
 30
0.0
  0
VERTEX
  8
0
 10
99.41467285
 20
90.16068268
 30
0.0
  0
VERTEX
  8
0
 10
100.50931549
 20
89.75473785
 30
0.0
  0
VERTEX
  8
0
 10
101.49632263
 20
89.22580719
 30
0.0
  0
VERTEX
  8
0
 10
102.38710022
 20
88.63977051
 30
0.0
  0
VERTEX
  8
0
 10
103.4621582
 20
87.67738342
 30
0.0
  0
VERTEX
  8
0
 10
104.27980042
 20
87.02690887
 30
0.0
  0
VERTEX
  8
0
 10
105.05006409
 20
86.3499527
 30
0.0
  0
VERTEX
  8
0
 10
106.05445099
 20
85.26665497
 30
0.0
  0
VERTEX
  8
0
 10
106.86191559
 20
83.90750885
 30
0.0
  0
VERTEX
  8
0
 10
107.1503067
 20
82.48314667
 30
0.0
  0
VERTEX
  8
0
 10
107.01998138
 20
81.43801117
 30
0.0
  0
VERTEX
  8
0
 10
106.7519989
 20
80.35919952
 30
0.0
  0
VERTEX
  8
0
 10
106.43699646
 20
79.28214264
 30
0.0
  0
VERTEX
  8
0
 10
106.10914612
 20
78.20892334
 30
0.0
  0
VERTEX
  8
0
 10
105.76916504
 20
77.13937378
 30
0.0
  0
VERTEX
  8
0
 10
105.42987061
 20
76.06932831
 30
0.0
  0
VERTEX
  8
0
 10
105.1415863
 20
74.99084473
 30
0.0
  0
VERTEX
  8
0
 10
104.9906311
 20
73.92320251
 30
0.0
  0
VERTEX
  8
0
 10
105.27617645
 20
72.46541595
 30
0.0
  0
VERTEX
  8
0
 10
106.24344635
 20
71.27926636
 30
0.0
  0
VERTEX
  8
0
 10
107.17008972
 20
70.72651672
 30
0.0
  0
VERTEX
  8
0
 10
108.1712265
 20
70.24350739
 30
0.0
  0
VERTEX
  8
0
 10
109.19713593
 20
69.78534698
 30
0.0
  0
VERTEX
  8
0
 10
110.23628235
 20
69.33904266
 30
0.0
  0
VERTEX
  8
0
 10
111.275177
 20
68.8931427
 30
0.0
  0
VERTEX
  8
0
 10
112.35910034
 20
68.44132233
 30
0.0
  0
SEQEND
  0
POLYLINE
  8
0
 66
1
 10
0.0
 20
0.0
 30
0.0
 70
0
  0
VERTEX
  8
0
 10
116.97342682
 20
92.92751312
 30
0.0
  0
VERTEX
  8
0
 10
117.97153473
 20
92.4427948
 30
0.0
  0
VERTEX
  8
0
 10
118.99038696
 20
92.02368927
 30
0.0
  0
VERTEX
  8
0
 10
120.0331955
 20
91.64642334
 30
0.0
  0
VERTEX
  8
0
 10
121.09290314
 20
91.30745697
 30
0.0
  0
VERTEX
  8
0
 10
122.16411591
 20
91.00894165
 30
0.0
  0
VERTEX
  8
0
 10
123.24326324
 20
90.77145386
 30
0.0
  0
VERTEX
  8
0
 10
124.490242
 20
90.59623718
 30
0.0
  0
VERTEX
  8
0
 10
125.59208679
 20
90.44983673
 30
0.0
  0
VERTEX
  8
0
 10
126.68136597
 20
90.28787231
 30
0.0
  0
VERTEX
  8
0
 10
127.76787567
 20
90.1368103
 30
0.0
  0
VERTEX
  8
0
 10
128.8392334
 20
90.08595276
 30
0.0
  0
VERTEX
  8
0
 10
130.23431396
 20
90.1394043
 30
0.0
  0
VERTEX
  8
0
 10
131.290802
 20
90.1258316
 30
0.0
  0
VERTEX
  8
0
 10
132.75213623
 20
90.27354431
 30
0.0
  0
VERTEX
  8
0
 10
133.77342224
 20
90.37997437
 30
0.0
  0
VERTEX
  8
0
 10
135.26580811
 20
90.6599884
 30
0.0
  0
VERTEX
  8
0
 10
136.23646545
 20
90.81518555
 30
0.0
  0
VERTEX
  8
0
 10
137.72212219
 20
91.2436676
 30
0.0
  0
VERTEX
  8
0
 10
139.23614502
 20
91.7134552
 30
0.0
  0
VERTEX
  8
0
 10
140.76219177
 20
92.23235321
 30
0.0
  0
VERTEX
  8
0
 10
142.25042725
 20
92.87670135
 30
0.0
  0
VERTEX
  8
0
 10
143.68704224
 20
93.67927551
 30
0.0
  0
VERTEX
  8
0
 10
145.03497314
 20
94.53834534
 30
0.0
  0
VERTEX
  8
0
 10
146.35978699
 20
95.40640259
 30
0.0
  0
VERTEX
  8
0
 10
147.67576599
 20
96.28684235
 30
0.0
  0
VERTEX
  8
0
 10
148.89694214
 20
97.22411346
 30
0.0
  0
VERTEX
  8
0
 10
149.945755
 20
98.30728149
 30
0.0
  0
VERTEX
  8
0
 10
150.71037292
 20
98.94563293
 30
0.0
  0
VERTEX
  8
0
 10
151.37921143
 20
99.72631836
 30
0.0
  0
VERTEX
  8
0
 10
152.39736938
 20
100.77944946
 30
0.0
  0
VERTEX
  8
0
 10
153.02355957
 20
101.62801361
 30
0.0
  0
VERTEX
  8
0
 10
153.89677429
 20
102.71126556
 30
0.0
  0
VERTEX
  8
0
 10
154.52636719
 20
103.58378601
 30
0.0
  0
VERTEX
  8
0
 10
155.0614624
 20
104.53804779
 30
0.0
  0
VERTEX
  8
0
 10
155.57810974
 20
105.5164566
 30
0.0
  0
VERTEX
  8
0
 10
156.10401917
 20
106.50827789
 30
0.0
  0
VERTEX
  8
0
 10
156.68186951
 20
107.59824371
 30
0.0
  0
VERTEX
  8
0
 10
157.14430237
 20
108.60526276
 30
0.0
  0
VERTEX
  8
0
 10
157.54299927
 20
109.63565063
 30
0.0
  0
VERTEX
  8
0
 10
157.89425659
 20
110.6861496
 30
0.0
  0
VERTEX
  8
0
 10
158.19998169
 20
111.7530365
 30
0.0
  0
VERTEX
  8
0
 10
158.45753479
 20
112.82975769
 30
0.0
  0
VERTEX
  8
0
 10
158.67437744
 20
114.03629303
 30
0.0
  0
VERTEX
  8
0
 10
158.84533691
 20
115.15261841
 30
0.0
  0
VERTEX
  8
0
 10
159.00871277
 20
116.24996185
 30
0.0
  0
VERTEX
  8
0
 10
159.15524292
 20
117.33627319
 30
0.0
  0
VERTEX
  8
0
 10
159.22148132
 20
118.41537476
 30
0.0
  0
VERTEX
  8
0
 10
159.17552185
 20
119.80355835
 30
0.0
  0
VERTEX
  8
0
 10
159.203125
 20
120.86853027
 30
0.0
  0
VERTEX
  8
0
 10
159.13201904
 20
121.9028244
 30
0.0
  0
VERTEX
  8
0
 10
158.95426941
 20
123.3568573
 30
0.0
  0
VERTEX
  8
0
 10
158.84436035
 20
124.36130524
 30
0.0
  0
VERTEX
  8
0
 10
158.56181335
 20
125.8355484
 30
0.0
  0
VERTEX
  8
0
 10
158.35124207
 20
126.78225708
 30
0.0
  0
VERTEX
  8
0
 10
158.01879883
 20
128.26989746
 30
0.0
  0
VERTEX
  8
0
 10
157.49147034
 20
129.73497009
 30
0.0
  0
VERTEX
  8
0
 10
157.05404663
 20
130.49104309
 30
0.0
  0
VERTEX
  8
0
 10
156.54333496
 20
131.94139099
 30
0.0
  0
VERTEX
  8
0
 10
155.84989929
 20
133.33633423
 30
0.0
  0
VERTEX
  8
0
 10
155.07832336
 20
134.67729187
 30
0.0
  0
VERTEX
  8
0
 10
154.68632507
 20
135.43148804
 30
0.0
  0
VERTEX
  8
0
 10
153.82162476
 20
136.74121094
 30
0.0
  0
VERTEX
  8
0
 10
152.90570068
 20
137.98681641
 30
0.0
  0
VERTEX
  8
0
 10
152.26728821
 20
138.6915741
 30
0.0
  0
VERTEX
  8
0
 10
151.28710938
 20
139.85180664
 30
0.0
  0
VERTEX
  8
0
 10
150.53848267
 20
140.52626038
 30
0.0
  0
VERTEX
  8
0
 10
149.51699829
 20
141.60699463
 30
0.0
  0
VERTEX
  8
0
 10
148.70619202
 20
142.25447083
 30
0.0
  0
VERTEX
  8
0
 10
147.63378906
 20
143.18840027
 30
0.0
  0
VERTEX
  8
0
 10
146.76329041
 20
143.80461121
 30
0.0
  0
VERTEX
  8
0
 10
145.83218384
 20
144.36125183
 30
0.0
  0
VERTEX
  8
0
 10
144.90522766
 20
144.95544434
 30
0.0
  0
VERTEX
  8
0
 10
143.82029724
 20
145.71760559
 30
0.0
  0
VERTEX
  8
0
 10
142.85157776
 20
146.23672485
 30
0.0
  0
VERTEX
  8
0
 10
141.84259033
 20
146.68980408
 30
0.0
  0
VERTEX
  8
0
 10
140.80717468
 20
147.1111145
 30
0.0
  0
VERTEX
  8
0
 10
139.75796509
 20
147.50790405
 30
0.0
  0
VERTEX
  8
0
 10
138.69517517
 20
147.87393188
 30
0.0
  0
VERTEX
  8
0
 10
137.61909485
 20
148.19917297
 30
0.0
  0
VERTEX
  8
0
 10
136.53808594
 20
148.4908905
 30
0.0
  0
VERTEX
  8
0
 10
135.45321655
 20
148.7539978
 30
0.0
  0
VERTEX
  8
0
 10
134.37086487
 20
148.97767639
 30
0.0
  0
VERTEX
  8
0
 10
133.28805542
 20
149.11315918
 30
0.0
  0
VERTEX
  8
0
 10
131.96652222
 20
149.17253113
 30
0.0
  0
VERTEX
  8
0
 10
130.87025452
 20
149.27522278
 30
0.0
  0
VERTEX
  8
0
 10
129.79611206
 20
149.36172485
 30
0.0
  0
VERTEX
  8
0
 10
128.37805176
 20
149.27348328
 30
0.0
  0
VERTEX
  8
0
 10
127.31715393
 20
149.23170471
 30
0.0
  0
VERTEX
  8
0
 10
126.28418732
 20
149.18386841
 30
0.0
  0
VERTEX
  8
0
 10
124.82279205
 20
148.94801331
 30
0.0
  0
VERTEX
  8
0
 10
123.83216858
 20
148.84031677
 30
0.0
  0
VERTEX
  8
0
 10
122.35926056
 20
148.46720886
 30
0.0
  0
VERTEX
  8
0
 10
120.87207794
 20
147.99867249
 30
0.0
  0
VERTEX
  8
0
 10
119.35927582
 20
147.51525879
 30
0.0
  0
VERTEX
  8
0
 10
117.84941864
 20
146.95544434
 30
0.0
  0
VERTEX
  8
0
 10
116.33612061
 20
146.31500244
 30
0.0
  0
VERTEX
  8
0
 10
114.94725037
 20
145.48583984
 30
0.0
  0
VERTEX
  8
0
 10
113.60438538
 20
144.60534668
 30
0.0
  0
VERTEX
  8
0
 10
112.295784
 20
143.69136047
 30
0.0
  0
VERTEX
  8
0
 10
111.0477066
 20
142.75915527
 30
0.0
  0
VERTEX
  8
0
 10
110.31826782
 20
142.10409546
 30
0.0
  0
VERTEX
  8
0
 10
109.19198608
 20
141.07350159
 30
0.0
  0
VERTEX
  8
0
 10
108.42033386
 20
140.40840149
 30
0.0
  0
VERTEX
  8
0
 10
107.42153168
 20
139.28916931
 30
0.0
  0
VERTEX
  8
0
 10
106.72948456
 20
138.49813843
 30
0.0
  0
VERTEX
  8
0
 10
105.81109619
 20
137.39045715
 30
0.0
  0
VERTEX
  8
0
 10
105.2246933
 20
136.49076843
 30
0.0
  0
VERTEX
  8
0
 10
104.60193634
 20
135.59074402
 30
0.0
  0
VERTEX
  8
0
 10
103.83470154
 20
134.48371887
 30
0.0
  0
VERTEX
  8
0
 10
103.31560516
 20
133.51806641
 30
0.0
  0
VERTEX
  8
0
 10
102.8421936
 20
132.51446533
 30
0.0
  0
VERTEX
  8
0
 10
102.39918518
 20
131.48718262
 30
0.0
  0
VERTEX
  8
0
 10
101.98950195
 20
130.43560791
 30
0.0
  0
VERTEX
  8
0
 10
101.61756134
 20
129.37501526
 30
0.0
  0
VERTEX
  8
0
 10
101.27853394
 20
128.29692078
 30
0.0
  0
VERTEX
  8
0
 10
100.97470856
 20
127.21179962
 30
0.0
  0
VERTEX
  8
0
 10
100.69908142
 20
126.12679291
 30
0.0
  0
VERTEX
  8
0
 10
100.45733643
 20
125.03925323
 30
0.0
  0
VERTEX
  8
0
 10
100.26740265
 20
123.95657349
 30
0.0
  0
VERTEX
  8
0
 10
100.17449951
 20
122.86121368
 30
0.0
  0
VERTEX
  8
0
 10
100.11816406
 20
121.52836609
 30
0.0
  0
VERTEX
  8
0
 10
100.02361298
 20
120.44000244
 30
0.0
  0
VERTEX
  8
0
 10
99.97003174
 20
119.37218475
 30
0.0
  0
VERTEX
  8
0
 10
100.08618164
 20
117.94667816
 30
0.0
  0
VERTEX
  8
0
 10
100.09537506
 20
116.89400482
 30
0.0
  0
VERTEX
  8
0
 10
100.25546265
 20
115.4164505
 30
0.0
  0
VERTEX
  8
0
 10
100.39890289
 20
114.40830231
 30
0.0
  0
VERTEX
  8
0
 10
100.72699738
 20
112.90491486
 30
0.0
  0
VERTEX
  8
0
 10
101.02032471
 20
111.33926392
 30
0.0
  0
VERTEX
  8
0
 10
101.44086456
 20
110.49828339
 30
0.0
  0
VERTEX
  8
0
 10
101.98532104
 20
109.01843262
 30
0.0
  0
VERTEX
  8
0
 10
102.57203674
 20
107.52866364
 30
0.0
  0
VERTEX
  8
0
 10
103.28677368
 20
106.08504486
 30
0.0
  0
VERTEX
  8
0
 10
104.09241486
 20
104.69488525
 30
0.0
  0
VERTEX
  8
0
 10
104.94119263
 20
103.35900116
 30
0.0
  0
VERTEX
  8
0
 10
105.26395416
 20
102.4748764
 30
0.0
  0
VERTEX
  8
0
 10
106.42608643
 20
101.32886505
 30
0.0
  0
VERTEX
  8
0
 10
107.43968201
 20
100.15956116
 30
0.0
  0
VERTEX
  8
0
 10
108.04364777
 20
99.35704041
 30
0.0
  0
VERTEX
  8
0
 10
109.18540955
 20
98.3404007
 30
0.0
  0
VERTEX
  8
0
 10
109.88392639
 20
97.5588913
 30
0.0
  0
VERTEX
  8
0
 10
111.05961609
 20
96.675354
 30
0.0
  0
VERTEX
  8
0
 10
111.91759491
 20
96.04075623
 30
0.0
  0
VERTEX
  8
0
 10
113.00898743
 20
95.16526031
 30
0.0
  0
VERTEX
  8
0
 10
113.93226624
 20
94.60097504
 30
0.0
  0
VERTEX
  8
0
 10
114.89765167
 20
94.06879425
 30
0.0
  0
VERTEX
  8
0
 10
115.88401794
 20
93.53649139
 30
0.0
  0
VERTEX
  8
0
 10
116.97342682
 20
92.92751312
 30
0.0
  0
SEQEND
  0
POLYLINE
  8
0
 66
1
 10
0.0
 20
0.0
 30
0.0
 70
0
  0
VERTEX
  8
0
 10
386.01327515
 20
292.66769409
 30
0.0
  0
VERTEX
  8
0
 10
386.77325439
 20
292.29989624
 30
0.0
  0
VERTEX
  8
0
 10
387.6036377
 20
292.01342773
 30
0.0
  0
VERTEX
  8
0
 10
388.4732666
 20
291.78778076
 30
0.0
  0
VERTEX
  8
0
 10
389.35574341
 20
291.6104126
 30
0.0
  0
VERTEX
  8
0
 10
390.23144531
 20
291.46737671
 30
0.0
  0
VERTEX
  8
0
 10
391.10092163
 20
291.33273315
 30
0.0
  0
VERTEX
  8
0
 10
391.9758606
 20
291.19473267
 30
0.0
  0
VERTEX
  8
0
 10
392.85015869
 20
291.05361938
 30
0.0
  0
VERTEX
  8
0
 10
393.7215271
 20
290.91122437
 30
0.0
  0
VERTEX
  8
0
 10
394.58917236
 20
290.76287842
 30
0.0
  0
VERTEX
  8
0
 10
395.45974731
 20
290.60873413
 30
0.0
  0
VERTEX
  8
0
 10
396.33776855
 20
290.4552002
 30
0.0
  0
VERTEX
  8
0
 10
397.20855713
 20
290.30996704
 30
0.0
  0
VERTEX
  8
0
 10
398.07522583
 20
290.16567993
 30
0.0
  0
VERTEX
  8
0
 10
398.9487915
 20
290.01953125
 30
0.0
  0
VERTEX
  8
0
 10
399.82653809
 20
289.87347412
 30
0.0
  0
VERTEX
  8
0
 10
400.69967651
 20
289.73388672
 30
0.0
  0
VERTEX
  8
0
 10
401.57348633
 20
289.59887695
 30
0.0
  0
VERTEX
  8
0
 10
402.44570923
 20
289.46157837
 30
0.0
  0
VERTEX
  8
0
 10
403.31268311
 20
289.31460571
 30
0.0
  0
VERTEX
  8
0
 10
404.18161011
 20
289.15859985
 30
0.0
  0
VERTEX
  8
0
 10
405.05450439
 20
289.00216675
 30
0.0
  0
VERTEX
  8
0
 10
405.93377686
 20
288.85870361
 30
0.0
  0
VERTEX
  8
0
 10
406.80685425
 20
288.71920776
 30
0.0
  0
VERTEX
  8
0
 10
407.6729126
 20
288.57540894
 30
0.0
  0
VERTEX
  8
0
 10
408.54275513
 20
288.42398071
 30
0.0
  0
VERTEX
  8
0
 10
409.4211731
 20
288.27645874
 30
0.0
  0
VERTEX
  8
0
 10
410.29257202
 20
288.1340332
 30
0.0
  0
VERTEX
  8
0
 10
411.16226196
 20
287.98898315
 30
0.0
  0
VERTEX
  8
0
 10
412.03198242
 20
287.83706665
 30
0.0
  0
VERTEX
  8
0
 10
412.90142822
 20
287.684021
 30
0.0
  0
VERTEX
  8
0
 10
413.77200317
 20
287.52944946
 30
0.0
  0
VERTEX
  8
0
 10
414.64547729
 20
287.37469482
 30
0.0
  0
VERTEX
  8
0
 10
415.51754761
 20
287.21966553
 30
0.0
  0
VERTEX
  8
0
 10
416.38635254
 20
287.0632019
 30
0.0
  0
VERTEX
  8
0
 10
417.25933838
 20
286.91299438
 30
0.0
  0
VERTEX
  8
0
 10
418.13879395
 20
286.77297974
 30
0.0
  0
VERTEX
  8
0
 10
419.01620483
 20
286.65371704
 30
0.0
  0
VERTEX
  8
0
 10
419.89715576
 20
286.5456543
 30
0.0
  0
VERTEX
  8
0
 10
420.78536987
 20
286.45718384
 30
0.0
  0
VERTEX
  8
0
 10
421.66897583
 20
286.40100098
 30
0.0
  0
VERTEX
  8
0
 10
422.53457642
 20
286.42169189
 30
0.0
  0
VERTEX
  8
0
 10
423.69400024
 20
286.72888184
 30
0.0
  0
VERTEX
  8
0
 10
424.85800171
 20
287.37548828
 30
0.0
  0
VERTEX
  8
0
 10
425.84069824
 20
288.24810791
 30
0.0
  0
VERTEX
  8
0
 10
426.6998291
 20
289.16418457
 30
0.0
  0
VERTEX
  8
0
 10
427.53143311
 20
290.0508728
 30
0.0
  0
VERTEX
  8
0
 10
428.28973389
 20
290.99145508
 30
0.0
  0
VERTEX
  8
0
 10
428.80014038
 20
291.55917358
 30
0.0
  0
VERTEX
  8
0
 10
429.60745239
 20
292.45840454
 30
0.0
  0
VERTEX
  8
0
 10
430.06991577
 20
293.07217407
 30
0.0
  0
VERTEX
  8
0
 10
430.86749268
 20
293.9753418
 30
0.0
  0
VERTEX
  8
0
 10
431.57519531
 20
294.94711304
 30
0.0
  0
VERTEX
  8
0
 10
432.10128784
 20
295.51583862
 30
0.0
  0
VERTEX
  8
0
 10
432.8576355
 20
296.45123291
 30
0.0
  0
VERTEX
  8
0
 10
433.34005737
 20
297.05621338
 30
0.0
  0
VERTEX
  8
0
 10
434.13290405
 20
297.96279907
 30
0.0
  0
VERTEX
  8
0
 10
434.58670044
 20
298.58999634
 30
0.0
  0
VERTEX
  8
0
 10
435.39205933
 20
299.48907471
 30
0.0
  0
VERTEX
  8
0
 10
436.1149292
 20
300.43759155
 30
0.0
  0
VERTEX
  8
0
 10
436.63803101
 20
301.01754761
 30
0.0
  0
VERTEX
  8
0
 10
437.41036987
 20
301.94439697
 30
0.0
  0
VERTEX
  8
0
 10
437.87579346
 20
302.55886841
 30
0.0
  0
VERTEX
  8
0
 10
438.66268921
 20
303.47018433
 30
0.0
  0
VERTEX
  8
0
 10
439.34487915
 20
304.46734619
 30
0.0
  0
VERTEX
  8
0
 10
439.91540527
 20
304.9906311
 30
0.0
  0
VERTEX
  8
0
 10
440.62786865
 20
305.96279907
 30
0.0
  0
VERTEX
  8
0
 10
441.14135742
 20
306.54284668
 30
0.0
  0
VERTEX
  8
0
 10
441.88253784
 20
307.48751831
 30
0.0
  0
VERTEX
  8
0
 10
442.37155151
 20
308.08898926
 30
0.0
  0
VERTEX
  8
0
 10
443.19152832
 20
308.98245239
 30
0.0
  0
VERTEX
  8
0
 10
443.90658569
 20
309.93511963
 30
0.0
  0
VERTEX
  8
0
 10
444.45358276
 20
310.48959351
 30
0.0
  0
VERTEX
  8
0
 10
445.16516113
 20
311.45352173
 30
0.0
  0
VERTEX
  8
0
 10
445.64453125
 20
312.06835938
 30
0.0
  0
VERTEX
  8
0
 10
446.34072876
 20
313.02838135
 30
0.0
  0
VERTEX
  8
0
 10
446.82589722
 20
313.65353394
 30
0.0
  0
VERTEX
  8
0
 10
447.28497314
 20
314.31542969
 30
0.0
  0
VERTEX
  8
0
 10
447.85848999
 20
315.30517578
 30
0.0
  0
VERTEX
  8
0
 10
448.08578491
 20
316.11950684
 30
0.0
  0
VERTEX
  8
0
 10
448.1807251
 20
316.97198486
 30
0.0
  0
VERTEX
  8
0
 10
448.12841797
 20
317.79553223
 30
0.0
  0
VERTEX
  8
0
 10
447.8487854
 20
318.8946228
 30
0.0
  0
VERTEX
  8
0
 10
447.68493652
 20
319.68579102
 30
0.0
  0
VERTEX
  8
0
 10
447.27890015
 20
320.79855347
 30
0.0
  0
VERTEX
  8
0
 10
447.08590698
 20
321.5630188
 30
0.0
  0
VERTEX
  8
0
 10
446.66278076
 20
322.67938232
 30
0.0
  0
VERTEX
  8
0
 10
446.45391846
 20
323.42471313
 30
0.0
  0
VERTEX
  8
0
 10
445.98910522
 20
324.53652954
 30
0.0
  0
VERTEX
  8
0
 10
445.72674561
 20
325.25738525
 30
0.0
  0
VERTEX
  8
0
 10
445.27120972
 20
326.37857056
 30
0.0
  0
VERTEX
  8
0
 10
444.87322998
 20
327.04321289
 30
0.0
  0
VERTEX
  8
0
 10
444.53408813
 20
328.21121216
 30
0.0
  0
VERTEX
  8
0
 10
444.09939575
 20
329.33453369
 30
0.0
  0
VERTEX
  8
0
 10
443.86932373
 20
330.09130859
 30
0.0
  0
VERTEX
  8
0
 10
443.47866821
 20
331.2109375
 30
0.0
  0
VERTEX
  8
0
 10
443.19772339
 20
331.94515991
 30
0.0
  0
VERTEX
  8
0
 10
442.81161499
 20
333.07156372
 30
0.0
  0
VERTEX
  8
0
 10
442.40457153
 20
333.73007202
 30
0.0
  0
VERTEX
  8
0
 10
442.11593628
 20
334.915802
 30
0.0
  0
VERTEX
  8
0
 10
441.65859985
 20
336.03234863
 30
0.0
  0
VERTEX
  8
0
 10
441.37533569
 20
336.74014282
 30
0.0
  0
VERTEX
  8
0
 10
440.96139526
 20
337.88162231
 30
0.0
  0
VERTEX
  8
0
 10
440.60064697
 20
338.57702637
 30
0.0
  0
VERTEX
  8
0
 10
440.29327393
 20
339.73968506
 30
0.0
  0
VERTEX
  8
0
 10
439.83566284
 20
340.85290527
 30
0.0
  0
VERTEX
  8
0
 10
439.59838867
 20
341.58694458
 30
0.0
  0
VERTEX
  8
0
 10
439.15234375
 20
342.7069397
 30
0.0
  0
VERTEX
  8
0
 10
438.85568237
 20
343.41653442
 30
0.0
  0
VERTEX
  8
0
 10
438.46884155
 20
344.55889893
 30
0.0
  0
VERTEX
  8
0
 10
438.0329895
 20
345.2409668
 30
0.0
  0
VERTEX
  8
0
 10
437.76327515
 20
346.39837646
 30
0.0
  0
VERTEX
  8
0
 10
437.29156494
 20
347.51443481
 30
0.0
  0
VERTEX
  8
0
 10
436.98342896
 20
348.20547485
 30
0.0
  0
VERTEX
  8
0
 10
436.56750488
 20
349.34939575
 30
0.0
  0
VERTEX
  8
0
 10
436.04382324
 20
350.45016479
 30
0.0
  0
VERTEX
  8
0
 10
435.72262573
 20
351.05349731
 30
0.0
  0
VERTEX
  8
0
 10
434.97711182
 20
351.91677856
 30
0.0
  0
VERTEX
  8
0
 10
434.48678589
 20
352.37811279
 30
0.0
  0
VERTEX
  8
0
 10
433.73745728
 20
352.76306152
 30
0.0
  0
VERTEX
  8
0
 10
432.91043091
 20
353.10430908
 30
0.0
  0
VERTEX
  8
0
 10
431.98361206
 20
353.4190979
 30
0.0
  0
VERTEX
  8
0
 10
431.14151001
 20
353.63757324
 30
0.0
  0
VERTEX
  8
0
 10
430.28369141
 20
353.82617188
 30
0.0
  0
VERTEX
  8
0
 10
429.41571045
 20
353.9937439
 30
0.0
  0
VERTEX
  8
0
 10
428.5458374
 20
354.15756226
 30
0.0
  0
VERTEX
  8
0
 10
427.6776123
 20
354.328125
 30
0.0
  0
VERTEX
  8
0
 10
426.81192017
 20
354.50631714
 30
0.0
  0
VERTEX
  8
0
 10
425.94598389
 20
354.68338013
 30
0.0
  0
VERTEX
  8
0
 10
425.07873535
 20
354.85418701
 30
0.0
  0
VERTEX
  8
0
 10
424.21054077
 20
355.01397705
 30
0.0
  0
VERTEX
  8
0
 10
423.340271
 20
355.16595459
 30
0.0
  0
VERTEX
  8
0
 10
422.4680481
 20
355.31134033
 30
0.0
  0
VERTEX
  8
0
 10
421.59646606
 20
355.45840454
 30
0.0
  0
VERTEX
  8
0
 10
420.72512817
 20
355.60678101
 30
0.0
  0
VERTEX
  8
0
 10
419.85360718
 20
355.75424194
 30
0.0
  0
VERTEX
  8
0
 10
418.98062134
 20
355.89489746
 30
0.0
  0
VERTEX
  8
0
 10
418.10662842
 20
356.03433228
 30
0.0
  0
VERTEX
  8
0
 10
417.23330688
 20
356.17578125
 30
0.0
  0
VERTEX
  8
0
 10
416.36257935
 20
356.322052
 30
0.0
  0
VERTEX
  8
0
 10
415.49002075
 20
356.46817017
 30
0.0
  0
VERTEX
  8
0
 10
414.61773682
 20
356.61309814
 30
0.0
  0
VERTEX
  8
0
 10
413.74594116
 20
356.75531006
 30
0.0
  0
VERTEX
  8
0
 10
412.87307739
 20
356.89306641
 30
0.0
  0
VERTEX
  8
0
 10
411.99850464
 20
357.02627563
 30
0.0
  0
VERTEX
  8
0
 10
411.12289429
 20
357.16192627
 30
0.0
  0
VERTEX
  8
0
 10
410.25
 20
357.30722046
 30
0.0
  0
VERTEX
  8
0
 10
409.37942505
 20
357.45852661
 30
0.0
  0
VERTEX
  8
0
 10
408.50811768
 20
357.60934448
 30
0.0
  0
VERTEX
  8
0
 10
407.63540649
 20
357.7590332
 30
0.0
  0
VERTEX
  8
0
 10
406.76400757
 20
357.9090271
 30
0.0
  0
VERTEX
  8
0
 10
405.89523315
 20
358.06155396
 30
0.0
  0
VERTEX
  8
0
 10
405.0227356
 20
358.21191406
 30
0.0
  0
VERTEX
  8
0
 10
404.15130615
 20
358.35574341
 30
0.0
  0
VERTEX
  8
0
 10
403.27844238
 20
358.48953247
 30
0.0
  0
VERTEX
  8
0
 10
402.40402222
 20
358.61477661
 30
0.0
  0
VERTEX
  8
0
 10
401.53027344
 20
358.730896
 30
0.0
  0
VERTEX
  8
0
 10
400.65731812
 20
358.83584595
 30
0.0
  0
VERTEX
  8
0
 10
399.78726196
 20
358.91564941
 30
0.0
  0
VERTEX
  8
0
 10
398.91992188
 20
358.95449829
 30
0.0
  0
VERTEX
  8
0
 10
397.90039063
 20
358.89385986
 30
0.0
  0
VERTEX
  8
0
 10
397.04556274
 20
358.75802612
 30
0.0
  0
VERTEX
  8
0
 10
395.89993286
 20
358.21514893
 30
0.0
  0
VERTEX
  8
0
 10
394.93344116
 20
357.38250732
 30
0.0
  0
VERTEX
  8
0
 10
394.06951904
 20
356.51303101
 30
0.0
  0
VERTEX
  8
0
 10
393.58789063
 20
355.93447876
 30
0.0
  0
VERTEX
  8
0
 10
392.77737427
 20
355.02526855
 30
0.0
  0
VERTEX
  8
0
 10
392.22531128
 20
354.48883057
 30
0.0
  0
VERTEX
  8
0
 10
391.51040649
 20
353.51083374
 30
0.0
  0
VERTEX
  8
0
 10
390.71228027
 20
352.60855103
 30
0.0
  0
VERTEX
  8
0
 10
390.2562561
 20
351.96844482
 30
0.0
  0
VERTEX
  8
0
 10
389.49316406
 20
351.05163574
 30
0.0
  0
VERTEX
  8
0
 10
389.0112915
 20
350.44546509
 30
0.0
  0
VERTEX
  8
0
 10
388.23895264
 20
349.52441406
 30
0.0
  0
VERTEX
  8
0
 10
387.66296387
 20
348.99642944
 30
0.0
  0
VERTEX
  8
0
 10
386.99069214
 20
347.99240112
 30
0.0
  0
VERTEX
  8
0
 10
386.1897583
 20
347.09289551
 30
0.0
  0
VERTEX
  8
0
 10
385.71539307
 20
346.47998047
 30
0.0
  0
VERTEX
  8
0
 10
384.94006348
 20
345.5645752
 30
0.0
  0
VERTEX
  8
0
 10
384.42843628
 20
344.98519897
 30
0.0
  0
VERTEX
  8
0
 10
383.69561768
 20
344.02941895
 30
0.0
  0
VERTEX
  8
0
 10
383.08273315
 20
343.55197144
 30
0.0
  0
VERTEX
  8
0
 10
382.427948
 20
342.5140686
 30
0.0
  0
VERTEX
  8
0
 10
381.63793945
 20
341.60641479
 30
0.0
  0
VERTEX
  8
0
 10
381.14682007
 20
341.01934814
 30
0.0
  0
VERTEX
  8
0
 10
380.36480713
 20
340.09710693
 30
0.0
  0
VERTEX
  8
0
 10
379.76449585
 20
339.61373901
 30
0.0
  0
VERTEX
  8
0
 10
379.08108521
 20
338.59567261
 30
0.0
  0
VERTEX
  8
0
 10
378.29519653
 20
337.6819458
 30
0.0
  0
VERTEX
  8
0
 10
377.81796265
 20
337.06829834
 30
0.0
  0
VERTEX
  8
0
 10
377.05361938
 20
336.14483643
 30
0.0
  0
VERTEX
  8
0
 10
376.51272583
 20
335.60324097
 30
0.0
  0
VERTEX
  8
0
 10
375.78811646
 20
334.62402344
 30
0.0
  0
VERTEX
  8
0
 10
375.01608276
 20
333.71118164
 30
0.0
  0
VERTEX
  8
0
 10
374.5680542
 20
333.06115723
 30
0.0
  0
VERTEX
  8
0
 10
373.81164551
 20
332.14300537
 30
0.0
  0
VERTEX
  8
0
 10
373.36166382
 20
331.47537231
 30
0.0
  0
VERTEX
  8
0
 10
372.68954468
 20
330.52954102
 30
0.0
  0
VERTEX
  8
0
 10
372.36541748
 20
329.74432373
 30
0.0
  0
VERTEX
  8
0
 10
372.17947388
 20
328.85290527
 30
0.0
  0
VERTEX
  8
0
 10
372.17443848
 20
327.97613525
 30
0.0
  0
VERTEX
  8
0
 10
372.46008301
 20
326.82745361
 30
0.0
  0
VERTEX
  8
0
 10
372.72827148
 20
326.08126831
 30
0.0
  0
VERTEX
  8
0
 10
373.14959717
 20
324.96166992
 30
0.0
  0
VERTEX
  8
0
 10
373.38027954
 20
324.21533203
 30
0.0
  0
VERTEX
  8
0
 10
373.8081665
 20
323.10171509
 30
0.0
  0
VERTEX
  8
0
 10
374.01330566
 20
322.34020996
 30
0.0
  0
VERTEX
  8
0
 10
374.45010376
 20
321.22735596
 30
0.0
  0
VERTEX
  8
0
 10
374.7840271
 20
320.0703125
 30
0.0
  0
VERTEX
  8
0
 10
375.11001587
 20
319.36587524
 30
0.0
  0
VERTEX
  8
0
 10
375.49987793
 20
318.22134399
 30
0.0
  0
VERTEX
  8
0
 10
375.77609253
 20
317.50265503
 30
0.0
  0
VERTEX
  8
0
 10
376.2359314
 20
316.38690186
 30
0.0
  0
VERTEX
  8
0
 10
376.4604187
 20
315.64874268
 30
0.0
  0
VERTEX
  8
0
 10
376.90979004
 20
314.53652954
 30
0.0
  0
VERTEX
  8
0
 10
377.22866821
 20
313.37695313
 30
0.0
  0
VERTEX
  8
0
 10
377.5710144
 20
312.67272949
 30
0.0
  0
VERTEX
  8
0
 10
377.97445679
 20
311.53878784
 30
0.0
  0
VERTEX
  8
0
 10
378.24456787
 20
310.81448364
 30
0.0
  0
VERTEX
  8
0
 10
378.69363403
 20
309.69863892
 30
0.0
  0
VERTEX
  8
0
 10
378.92602539
 20
308.95913696
 30
0.0
  0
VERTEX
  8
0
 10
379.39093018
 20
307.84915161
 30
0.0
  0
VERTEX
  8
0
 10
379.73397827
 20
306.70315552
 30
0.0
  0
VERTEX
  8
0
 10
380.04690552
 20
305.98886108
 30
0.0
  0
VERTEX
  8
0
 10
380.43032837
 20
304.85406494
 30
0.0
  0
VERTEX
  8
0
 10
380.69906616
 20
304.12133789
 30
0.0
  0
VERTEX
  8
0
 10
381.14016724
 20
303.00500488
 30
0.0
  0
VERTEX
  8
0
 10
381.35955811
 20
302.25634766
 30
0.0
  0
VERTEX
  8
0
 10
381.81454468
 20
301.14208984
 30
0.0
  0
VERTEX
  8
0
 10
382.17071533
 20
299.99121094
 30
0.0
  0
VERTEX
  8
0
 10
382.50744629
 20
299.29556274
 30
0.0
  0
VERTEX
  8
0
 10
382.90621948
 20
298.16082764
 30
0.0
  0
VERTEX
  8
0
 10
383.17529297
 20
297.43591309
 30
0.0
  0
VERTEX
  8
0
 10
383.63412476
 20
296.31900024
 30
0.0
  0
VERTEX
  8
0
 10
383.97766113
 20
295.08496094
 30
0.0
  0
VERTEX
  8
0
 10
384.41162109
 20
294.49468994
 30
0.0
  0
VERTEX
  8
0
 10
385.09658813
 20
293.42501831
 30
0.0
  0
VERTEX
  8
0
 10
386.01327515
 20
292.66769409
 30
0.0
  0
SEQEND
  0
POLYLINE
  8
0
 66
1
 10
0.0
 20
0.0
 30
0.0
 70
0
  0
VERTEX
  8
0
 10
404.17843628
 20
304.91900635
 30
0.0
  0
VERTEX
  8
0
 10
405.01217651
 20
304.66665649
 30
0.0
  0
VERTEX
  8
0
 10
405.86395264
 20
304.45956421
 30
0.0
  0
VERTEX
  8
0
 10
406.7277832
 20
304.29193115
 30
0.0
  0
VERTEX
  8
0
 10
407.59936523
 20
304.16351318
 30
0.0
  0
VERTEX
  8
0
 10
408.47213745
 20
304.07522583
 30
0.0
  0
VERTEX
  8
0
 10
409.34246826
 20
304.03482056
 30
0.0
  0
VERTEX
  8
0
 10
410.20782471
 20
304.07012939
 30
0.0
  0
VERTEX
  8
0
 10
411.23529053
 20
304.14089966
 30
0.0
  0
VERTEX
  8
0
 10
412.10107422
 20
304.18127441
 30
0.0
  0
VERTEX
  8
0
 10
412.94265747
 20
304.25741577
 30
0.0
  0
VERTEX
  8
0
 10
414.04815674
 20
304.56777954
 30
0.0
  0
VERTEX
  8
0
 10
414.83755493
 20
304.74081421
 30
0.0
  0
VERTEX
  8
0
 10
415.96243286
 20
305.12838745
 30
0.0
  0
VERTEX
  8
0
 10
417.17584229
 20
305.42224121
 30
0.0
  0
VERTEX
  8
0
 10
417.81109619
 20
305.86483765
 30
0.0
  0
VERTEX
  8
0
 10
418.92831421
 20
306.41189575
 30
0.0
  0
VERTEX
  8
0
 10
420.0524292
 20
307.04244995
 30
0.0
  0
VERTEX
  8
0
 10
421.10012817
 20
307.77337646
 30
0.0
  0
VERTEX
  8
0
 10
422.10845947
 20
308.55847168
 30
0.0
  0
VERTEX
  8
0
 10
423.03640747
 20
309.41674805
 30
0.0
  0
VERTEX
  8
0
 10
423.90698242
 20
310.29537964
 30
0.0
  0
VERTEX
  8
0
 10
424.70092773
 20
311.19699097
 30
0.0
  0
VERTEX
  8
0
 10
425.15145874
 20
311.83950806
 30
0.0
  0
VERTEX
  8
0
 10
425.84649658
 20
312.77844238
 30
0.0
  0
VERTEX
  8
0
 10
426.2387085
 20
313.49752808
 30
0.0
  0
VERTEX
  8
0
 10
426.61166382
 20
314.26928711
 30
0.0
  0
VERTEX
  8
0
 10
427.10958862
 20
315.21539307
 30
0.0
  0
VERTEX
  8
0
 10
427.42028809
 20
316.01730347
 30
0.0
  0
VERTEX
  8
0
 10
427.67092896
 20
316.85473633
 30
0.0
  0
VERTEX
  8
0
 10
427.89343262
 20
317.70861816
 30
0.0
  0
VERTEX
  8
0
 10
428.09564209
 20
318.56634521
 30
0.0
  0
VERTEX
  8
0
 10
428.27377319
 20
319.43930054
 30
0.0
  0
VERTEX
  8
0
 10
428.41082764
 20
320.32791138
 30
0.0
  0
VERTEX
  8
0
 10
428.49887085
 20
321.2069397
 30
0.0
  0
VERTEX
  8
0
 10
428.55026245
 20
322.08798218
 30
0.0
  0
VERTEX
  8
0
 10
428.55923462
 20
322.95700073
 30
0.0
  0
VERTEX
  8
0
 10
428.47412109
 20
323.8086853
 30
0.0
  0
VERTEX
  8
0
 10
428.3248291
 20
324.87347412
 30
0.0
  0
VERTEX
  8
0
 10
428.25042725
 20
325.72143555
 30
0.0
  0
VERTEX
  8
0
 10
428.08099365
 20
326.52716064
 30
0.0
  0
VERTEX
  8
0
 10
427.79388428
 20
327.64343262
 30
0.0
  0
VERTEX
  8
0
 10
427.58377075
 20
328.4072876
 30
0.0
  0
VERTEX
  8
0
 10
427.14807129
 20
329.52209473
 30
0.0
  0
VERTEX
  8
0
 10
426.80133057
 20
330.17471313
 30
0.0
  0
VERTEX
  8
0
 10
426.34890747
 20
331.30014038
 30
0.0
  0
VERTEX
  8
0
 10
425.72229004
 20
332.36654663
 30
0.0
  0
VERTEX
  8
0
 10
425.04946899
 20
333.41625977
 30
0.0
  0
VERTEX
  8
0
 10
424.31365967
 20
334.42446899
 30
0.0
  0
VERTEX
  8
0
 10
423.51980591
 20
335.37658691
 30
0.0
  0
VERTEX
  8
0
 10
422.66043091
 20
336.23092651
 30
0.0
  0
VERTEX
  8
0
 10
422.10568237
 20
336.73040771
 30
0.0
  0
VERTEX
  8
0
 10
421.19876099
 20
337.52185059
 30
0.0
  0
VERTEX
  8
0
 10
420.52694702
 20
337.94760132
 30
0.0
  0
VERTEX
  8
0
 10
419.58184814
 20
338.63085938
 30
0.0
  0
VERTEX
  8
0
 10
418.85754395
 20
339.02233887
 30
0.0
  0
VERTEX
  8
0
 10
418.09042358
 20
339.3913269
 30
0.0
  0
VERTEX
  8
0
 10
417.1368103
 20
339.90304565
 30
0.0
  0
VERTEX
  8
0
 10
416.33938599
 20
340.22006226
 30
0.0
  0
VERTEX
  8
0
 10
415.50259399
 20
340.47790527
 30
0.0
  0
VERTEX
  8
0
 10
414.65176392
 20
340.70980835
 30
0.0
  0
VERTEX
  8
0
 10
413.7868042
 20
340.92224121
 30
0.0
  0
VERTEX
  8
0
 10
412.92034912
 20
341.11199951
 30
0.0
  0
VERTEX
  8
0
 10
412.03918457
 20
341.26837158
 30
0.0
  0
VERTEX
  8
0
 10
411.14846802
 20
341.38015747
 30
0.0
  0
VERTEX
  8
0
 10
410.26202393
 20
341.45449829
 30
0.0
  0
VERTEX
  8
0
 10
409.38092041
 20
341.50143433
 30
0.0
  0
VERTEX
  8
0
 10
408.51049805
 20
341.51797485
 30
0.0
  0
VERTEX
  8
0
 10
407.65316772
 20
341.47967529
 30
0.0
  0
VERTEX
  8
0
 10
406.58013916
 20
341.30499268
 30
0.0
  0
VERTEX
  8
0
 10
405.74182129
 20
341.18048096
 30
0.0
  0
VERTEX
  8
0
 10
404.94717407
 20
341.00869751
 30
0.0
  0
VERTEX
  8
0
 10
403.83273315
 20
340.6661377
 30
0.0
  0
VERTEX
  8
0
 10
403.05462646
 20
340.48187256
 30
0.0
  0
VERTEX
  8
0
 10
401.94165039
 20
340.06188965
 30
0.0
  0
VERTEX
  8
0
 10
400.82241821
 20
339.51397705
 30
0.0
  0
VERTEX
  8
0
 10
399.71524048
 20
338.89950562
 30
0.0
  0
VERTEX
  8
0
 10
398.628479
 20
338.23208618
 30
0.0
  0
VERTEX
  8
0
 10
397.60800171
 20
337.45306396
 30
0.0
  0
VERTEX
  8
0
 10
396.67419434
 20
336.5670166
 30
0.0
  0
VERTEX
  8
0
 10
395.81762695
 20
335.67938232
 30
0.0
  0
VERTEX
  8
0
 10
395.27905273
 20
335.13195801
 30
0.0
  0
VERTEX
  8
0
 10
394.56707764
 20
334.13912964
 30
0.0
  0
VERTEX
  8
0
 10
394.00537109
 20
333.5355835
 30
0.0
  0
VERTEX
  8
0
 10
393.45703125
 20
332.49102783
 30
0.0
  0
VERTEX
  8
0
 10
393.05551147
 20
331.75537109
 30
0.0
  0
VERTEX
  8
0
 10
392.50656128
 20
330.78668213
 30
0.0
  0
VERTEX
  8
0
 10
392.1942749
 20
329.98968506
 30
0.0
  0
VERTEX
  8
0
 10
391.9052124
 20
329.17175293
 30
0.0
  0
VERTEX
  8
0
 10
391.61611938
 20
328.34042358
 30
0.0
  0
VERTEX
  8
0
 10
391.32516479
 20
327.40563965
 30
0.0
  0
VERTEX
  8
0
 10
391.12966919
 20
326.57559204
 30
0.0
  0
VERTEX
  8
0
 10
390.99362183
 20
325.71749878
 30
0.0
  0
VERTEX
  8
0
 10
390.90997314
 20
324.85317993
 30
0.0
  0
VERTEX
  8
0
 10
390.85171509
 20
323.90002441
 30
0.0
  0
VERTEX
  8
0
 10
390.82717896
 20
323.01184082
 30
0.0
  0
VERTEX
  8
0
 10
390.81811523
 20
322.13214111
 30
0.0
  0
VERTEX
  8
0
 10
390.82965088
 20
321.26577759
 30
0.0
  0
VERTEX
  8
0
 10
390.91482544
 20
320.4284668
 30
0.0
  0
VERTEX
  8
0
 10
391.15942383
 20
319.34054565
 30
0.0
  0
VERTEX
  8
0
 10
391.3013916
 20
318.52841187
 30
0.0
  0
VERTEX
  8
0
 10
391.67703247
 20
317.4175415
 30
0.0
  0
VERTEX
  8
0
 10
391.86047363
 20
316.64254761
 30
0.0
  0
VERTEX
  8
0
 10
392.34494019
 20
315.5274353
 30
0.0
  0
VERTEX
  8
0
 10
392.88580322
 20
314.40356445
 30
0.0
  0
VERTEX
  8
0
 10
393.46508789
 20
313.26828003
 30
0.0
  0
VERTEX
  8
0
 10
394.13397217
 20
312.15170288
 30
0.0
  0
VERTEX
  8
0
 10
394.96633911
 20
311.16409302
 30
0.0
  0
VERTEX
  8
0
 10
395.85168457
 20
310.24023438
 30
0.0
  0
VERTEX
  8
0
 10
396.74847412
 20
309.37768555
 30
0.0
  0
VERTEX
  8
0
 10
397.61886597
 20
308.52264404
 30
0.0
  0
VERTEX
  8
0
 10
398.22659302
 20
308.0475769
 30
0.0
  0
VERTEX
  8
0
 10
399.17449951
 20
307.31390381
 30
0.0
  0
VERTEX
  8
0
 10
399.87826538
 20
306.89016724
 30
0.0
  0
VERTEX
  8
0
 10
400.82333374
 20
306.24475098
 30
0.0
  0
VERTEX
  8
0
 10
401.59902954
 20
305.90591431
 30
0.0
  0
VERTEX
  8
0
 10
402.42526245
 20
305.5960083
 30
0.0
  0
VERTEX
  8
0
 10
403.24603271
 20
305.275177
 30
0.0
  0
VERTEX
  8
0
 10
404.17843628
 20
304.91900635
 30
0.0
  0
SEQEND
  0
ENDSEC
  0
SECTION
  2
OBJECTS
  0
ENDSEC
  0
EOF
