999
DXF file created by HALCON
  0
SECTION
  2
HEADER
  9
$ACADVER
  1
AC1009
  0
ENDSEC
  0
SECTION
  2
TABLES
  0
TABLE
  2
LTYPE
 70
1
  0
LTYPE
  2
CONTINUOUS
 70
0
  3
Solid line
 72
65
 73
0
 40
0
  0
ENDTAB
  0
TABLE
  2
LAYER
 70
1
  0
LAYER
  2
0
 70
0
 62
7
  6
CONTINUOUS
  0
ENDTAB
  0
TABLE
  2
APPID
 70
2
  0
APPID
  2
ACAD
 70
64
  0
APPID
  2
HALCON
 70
64
  0
ENDTAB
  0
ENDSEC
  0
SECTION
  2
BLOCKS
  0
ENDSEC
  0
SECTION
  2
ENTITIES
  0
POLYLINE
  8
0
 66
1
 10
0.0
 20
0.0
 30
0.0
 70
0
  0
VERTEX
  8
0
 10
112.35910034
 20
68.44132233
 30
0.0
  0
VERTEX
  8
0
 10
113.39182281
 20
68.04489136
 30
0.0
  0
VERTEX
  8
0
 10
114.43802643
 20
67.68949127
 30
0.0
  0
VERTEX
  8
0
 10
115.50971222
 20
67.35644531
 30
0.0
  0
VERTEX
  8
0
 10
116.58127594
 20
67.04530334
 30
0.0
  0
VERTEX
  8
0
 10
117.71209717
 20
66.74537659
 30
0.0
  0
VERTEX
  8
0
 10
118.81958008
 20
66.49209595
 30
0.0
  0
VERTEX
  8
0
 10
119.94033051
 20
66.29620361
 30
0.0
  0
VERTEX
  8
0
 10
121.0338974
 20
66.20394135
 30
0.0
  0
VERTEX
  8
0
 10
122.59339905
 20
66.61211395
 30
0.0
  0
VERTEX
  8
0
 10
123.7654953
 20
67.65353394
 30
0.0
  0
VERTEX
  8
0
 10
124.27670288
 20
68.62556458
 30
0.0
  0
VERTEX
  8
0
 10
124.71437073
 20
69.65922546
 30
0.0
  0
VERTEX
  8
0
 10
125.12007141
 20
70.70805359
 30
0.0
  0
VERTEX
  8
0
 10
125.51281738
 20
71.7598877
 30
0.0
  0
VERTEX
  8
0
 10
125.91159058
 20
72.80362701
 30
0.0
  0
VERTEX
  8
0
 10
126.34455872
 20
73.81808472
 30
0.0
  0
VERTEX
  8
0
 10
126.87239075
 20
74.76859283
 30
0.0
  0
VERTEX
  8
0
 10
127.62194061
 20
75.85782623
 30
0.0
  0
VERTEX
  8
0
 10
128.71827698
 20
77.19657898
 30
0.0
  0
VERTEX
  8
0
 10
130.40750122
 20
77.91508484
 30
0.0
  0
VERTEX
  8
0
 10
131.99992371
 20
78.09049988
 30
0.0
  0
VERTEX
  8
0
 10
133.46018982
 20
78.31672668
 30
0.0
  0
VERTEX
  8
0
 10
134.50343323
 20
78.34425354
 30
0.0
  0
VERTEX
  8
0
 10
135.92579651
 20
78.4796524
 30
0.0
  0
VERTEX
  8
0
 10
136.98118591
 20
78.44068146
 30
0.0
  0
VERTEX
  8
0
 10
138.0549469
 20
78.23693848
 30
0.0
  0
VERTEX
  8
0
 10
139.12481689
 20
77.90059662
 30
0.0
  0
VERTEX
  8
0
 10
140.11224365
 20
77.42671967
 30
0.0
  0
VERTEX
  8
0
 10
140.89474487
 20
76.8270874
 30
0.0
  0
VERTEX
  8
0
 10
141.80595398
 20
75.66838074
 30
0.0
  0
VERTEX
  8
0
 10
142.57814026
 20
74.29747009
 30
0.0
  0
VERTEX
  8
0
 10
143.30523682
 20
72.88768768
 30
0.0
  0
VERTEX
  8
0
 10
144.07107544
 20
71.49619293
 30
0.0
  0
VERTEX
  8
0
 10
144.43855286
 20
70.65035248
 30
0.0
  0
VERTEX
  8
0
 10
145.76567078
 20
69.5714035
 30
0.0
  0
VERTEX
  8
0
 10
146.89575195
 20
69.13562775
 30
0.0
  0
VERTEX
  8
0
 10
148.00869751
 20
69.02863312
 30
0.0
  0
VERTEX
  8
0
 10
149.52775574
 20
69.37332916
 30
0.0
  0
VERTEX
  8
0
 10
151.07777405
 20
69.75580597
 30
0.0
  0
VERTEX
  8
0
 10
151.90344238
 20
70.1246109
 30
0.0
  0
VERTEX
  8
0
 10
153.36064148
 20
70.74454498
 30
0.0
  0
VERTEX
  8
0
 10
154.80158997
 20
71.4180603
 30
0.0
  0
VERTEX
  8
0
 10
156.22901917
 20
72.11456299
 30
0.0
  0
VERTEX
  8
0
 10
157.6373291
 20
72.8587265
 30
0.0
  0
VERTEX
  8
0
 10
159.02964783
 20
73.622612
 30
0.0
  0
VERTEX
  8
0
 10
160.37115479
 20
74.44884491
 30
0.0
  0
VERTEX
  8
0
 10
161.48606873
 20
75.42617035
 30
0.0
  0
VERTEX
  8
0
 10
162.07014465
 20
76.22460175
 30
0.0
  0
VERTEX
  8
0
 10
162.46894836
 20
77.23723602
 30
0.0
  0
VERTEX
  8
0
 10
162.63453674
 20
78.27198792
 30
0.0
  0
VERTEX
  8
0
 10
162.35472107
 20
79.13140869
 30
0.0
  0
VERTEX
  8
0
 10
162.05187988
 20
80.55449677
 30
0.0
  0
VERTEX
  8
0
 10
161.4299469
 20
81.98967743
 30
0.0
  0
VERTEX
  8
0
 10
160.71250916
 20
83.41186523
 30
0.0
  0
VERTEX
  8
0
 10
160.07247925
 20
84.88751984
 30
0.0
  0
VERTEX
  8
0
 10
159.59942627
 20
86.42154694
 30
0.0
  0
VERTEX
  8
0
 10
159.47076416
 20
87.82678223
 30
0.0
  0
VERTEX
  8
0
 10
159.61616516
 20
88.85356903
 30
0.0
  0
VERTEX
  8
0
 10
159.95727539
 20
89.87023163
 30
0.0
  0
VERTEX
  8
0
 10
160.45959473
 20
90.81137848
 30
0.0
  0
VERTEX
  8
0
 10
161.28347778
 20
91.90293884
 30
0.0
  0
VERTEX
  8
0
 10
161.90162659
 20
92.7691803
 30
0.0
  0
VERTEX
  8
0
 10
162.87519836
 20
93.86710358
 30
0.0
  0
VERTEX
  8
0
 10
163.57873535
 20
94.6238327
 30
0.0
  0
VERTEX
  8
0
 10
164.72320557
 20
95.68890381
 30
0.0
  0
VERTEX
  8
0
 10
166.17297363
 20
96.64297485
 30
0.0
  0
VERTEX
  8
0
 10
167.82698059
 20
96.96068573
 30
0.0
  0
VERTEX
  8
0
 10
169.22514343
 20
97.01318359
 30
0.0
  0
VERTEX
  8
0
 10
170.27648926
 20
96.86389923
 30
0.0
  0
VERTEX
  8
0
 10
171.34719849
 20
96.58966827
 30
0.0
  0
VERTEX
  8
0
 10
172.41285706
 20
96.25350189
 30
0.0
  0
VERTEX
  8
0
 10
173.48345947
 20
95.90242767
 30
0.0
  0
VERTEX
  8
0
 10
174.5688324
 20
95.58946228
 30
0.0
  0
VERTEX
  8
0
 10
175.66647339
 20
95.37116241
 30
0.0
  0
VERTEX
  8
0
 10
177.24647522
 20
95.36828613
 30
0.0
  0
VERTEX
  8
0
 10
178.85823059
 20
96.43636322
 30
0.0
  0
VERTEX
  8
0
 10
179.7166748
 20
97.57628632
 30
0.0
  0
VERTEX
  8
0
 10
180.20281982
 20
98.5674057
 30
0.0
  0
VERTEX
  8
0
 10
180.64193726
 20
99.59425354
 30
0.0
  0
VERTEX
  8
0
 10
181.06326294
 20
100.63280487
 30
0.0
  0
VERTEX
  8
0
 10
181.47270203
 20
101.67650604
 30
0.0
  0
VERTEX
  8
0
 10
181.86367798
 20
102.7300415
 30
0.0
  0
VERTEX
  8
0
 10
182.23265076
 20
103.79973602
 30
0.0
  0
VERTEX
  8
0
 10
182.57614136
 20
104.87349701
 30
0.0
  0
VERTEX
  8
0
 10
182.89546204
 20
105.9514389
 30
0.0
  0
VERTEX
  8
0
 10
183.19158936
 20
107.03647614
 30
0.0
  0
VERTEX
  8
0
 10
183.45762634
 20
108.12322235
 30
0.0
  0
VERTEX
  8
0
 10
183.67855835
 20
109.21134949
 30
0.0
  0
VERTEX
  8
0
 10
183.80360413
 20
110.2822876
 30
0.0
  0
VERTEX
  8
0
 10
183.63391113
 20
111.72266388
 30
0.0
  0
VERTEX
  8
0
 10
182.80027771
 20
113.15678406
 30
0.0
  0
VERTEX
  8
0
 10
181.88839722
 20
113.80651855
 30
0.0
  0
VERTEX
  8
0
 10
180.76539612
 20
114.41963959
 30
0.0
  0
VERTEX
  8
0
 10
179.76487732
 20
114.8792038
 30
0.0
  0
VERTEX
  8
0
 10
178.734375
 20
115.3013382
 30
0.0
  0
VERTEX
  8
0
 10
177.68162537
 20
115.7093277
 30
0.0
  0
VERTEX
  8
0
 10
176.63282776
 20
116.11394501
 30
0.0
  0
VERTEX
  8
0
 10
175.5965271
 20
116.54424286
 30
0.0
  0
VERTEX
  8
0
 10
174.59590149
 20
117.03801727
 30
0.0
  0
VERTEX
  8
0
 10
173.34432983
 20
117.95918274
 30
0.0
  0
VERTEX
  8
0
 10
172.42115784
 20
119.61714935
 30
0.0
  0
VERTEX
  8
0
 10
172.20326233
 20
121.20753479
 30
0.0
  0
VERTEX
  8
0
 10
171.92234802
 20
122.6834259
 30
0.0
  0
VERTEX
  8
0
 10
171.86798096
 20
123.7121582
 30
0.0
  0
VERTEX
  8
0
 10
171.69351196
 20
125.15123749
 30
0.0
  0
VERTEX
  8
0
 10
171.72998047
 20
126.21121216
 30
0.0
  0
VERTEX
  8
0
 10
171.85528564
 20
127.29936981
 30
0.0
  0
VERTEX
  8
0
 10
172.08222961
 20
128.42845154
 30
0.0
  0
VERTEX
  8
0
 10
172.52095032
 20
129.546875
 30
0.0
  0
VERTEX
  8
0
 10
173.10244751
 20
130.49775696
 30
0.0
  0
VERTEX
  8
0
 10
174.24513245
 20
131.59535217
 30
0.0
  0
VERTEX
  8
0
 10
175.63641357
 20
132.52380371
 30
0.0
  0
VERTEX
  8
0
 10
177.10456848
 20
133.2102356
 30
0.0
  0
VERTEX
  8
0
 10
178.48664856
 20
133.91229248
 30
0.0
  0
VERTEX
  8
0
 10
179.20649719
 20
134.31604004
 30
0.0
  0
VERTEX
  8
0
 10
180.37992859
 20
135.27780151
 30
0.0
  0
VERTEX
  8
0
 10
180.92559814
 20
136.16589355
 30
0.0
  0
VERTEX
  8
0
 10
181.28421021
 20
137.2280426
 30
0.0
  0
VERTEX
  8
0
 10
181.39370728
 20
138.27098083
 30
0.0
  0
VERTEX
  8
0
 10
181.02568054
 20
139.74339294
 30
0.0
  0
VERTEX
  8
0
 10
180.71951294
 20
140.5717926
 30
0.0
  0
VERTEX
  8
0
 10
180.18447876
 20
142.02919006
 30
0.0
  0
VERTEX
  8
0
 10
179.57290649
 20
143.48829651
 30
0.0
  0
VERTEX
  8
0
 10
178.88981628
 20
144.89286804
 30
0.0
  0
VERTEX
  8
0
 10
178.12901306
 20
146.29057312
 30
0.0
  0
VERTEX
  8
0
 10
177.32522583
 20
147.62336731
 30
0.0
  0
VERTEX
  8
0
 10
176.40977478
 20
148.87876892
 30
0.0
  0
VERTEX
  8
0
 10
175.92614746
 20
149.62828064
 30
0.0
  0
VERTEX
  8
0
 10
174.88017273
 20
150.54562378
 30
0.0
  0
VERTEX
  8
0
 10
174.03723145
 20
151.0358429
 30
0.0
  0
VERTEX
  8
0
 10
173.02128601
 20
151.3575592
 30
0.0
  0
VERTEX
  8
0
 10
171.72917175
 20
151.51501465
 30
0.0
  0
VERTEX
  8
0
 10
170.61853027
 20
151.52110291
 30
0.0
  0
VERTEX
  8
0
 10
169.6078949
 20
151.4654541
 30
0.0
  0
VERTEX
  8
0
 10
168.13618469
 20
151.05027771
 30
0.0
  0
VERTEX
  8
0
 10
167.43826294
 20
150.58256531
 30
0.0
  0
VERTEX
  8
0
 10
166.00263977
 20
149.95445251
 30
0.0
  0
VERTEX
  8
0
 10
164.45941162
 20
149.39935303
 30
0.0
  0
VERTEX
  8
0
 10
162.83850098
 20
149.05044556
 30
0.0
  0
VERTEX
  8
0
 10
161.50135803
 20
149.06668091
 30
0.0
  0
VERTEX
  8
0
 10
160.5369873
 20
149.36108398
 30
0.0
  0
VERTEX
  8
0
 10
159.42185974
 20
150.06004333
 30
0.0
  0
VERTEX
  8
0
 10
158.55232239
 20
150.68768311
 30
0.0
  0
VERTEX
  8
0
 10
157.72296143
 20
151.33813477
 30
0.0
  0
VERTEX
  8
0
 10
156.66926575
 20
152.33450317
 30
0.0
  0
VERTEX
  8
0
 10
155.86502075
 20
152.98612976
 30
0.0
  0
VERTEX
  8
0
 10
154.84609985
 20
154.07780457
 30
0.0
  0
VERTEX
  8
0
 10
153.7651825
 20
155.3167572
 30
0.0
  0
VERTEX
  8
0
 10
153.25468445
 20
157.02938843
 30
0.0
  0
VERTEX
  8
0
 10
153.18170166
 20
158.44532776
 30
0.0
  0
VERTEX
  8
0
 10
153.35539246
 20
159.52220154
 30
0.0
  0
VERTEX
  8
0
 10
153.62123108
 20
160.60548401
 30
0.0
  0
VERTEX
  8
0
 10
153.93191528
 20
161.68153381
 30
0.0
  0
VERTEX
  8
0
 10
154.26603699
 20
162.75317383
 30
0.0
  0
VERTEX
  8
0
 10
154.60542297
 20
163.82287598
 30
0.0
  0
VERTEX
  8
0
 10
154.92649841
 20
164.896698
 30
0.0
  0
VERTEX
  8
0
 10
155.16085815
 20
165.9752655
 30
0.0
  0
VERTEX
  8
0
 10
155.19718933
 20
166.95401001
 30
0.0
  0
VERTEX
  8
0
 10
154.73556519
 20
168.27334595
 30
0.0
  0
VERTEX
  8
0
 10
154.05311584
 20
168.94296265
 30
0.0
  0
VERTEX
  8
0
 10
152.96885681
 20
169.75740051
 30
0.0
  0
VERTEX
  8
0
 10
152.01051331
 20
170.25614929
 30
0.0
  0
VERTEX
  8
0
 10
150.98634338
 20
170.70335388
 30
0.0
  0
VERTEX
  8
0
 10
149.94844055
 20
171.12741089
 30
0.0
  0
VERTEX
  8
0
 10
148.90661621
 20
171.52397156
 30
0.0
  0
VERTEX
  8
0
 10
147.85087585
 20
171.89045715
 30
0.0
  0
VERTEX
  8
0
 10
146.78115845
 20
172.22395325
 30
0.0
  0
VERTEX
  8
0
 10
145.70484924
 20
172.53651428
 30
0.0
  0
VERTEX
  8
0
 10
144.6254425
 20
172.83613586
 30
0.0
  0
VERTEX
  8
0
 10
143.54597473
 20
173.12141418
 30
0.0
  0
VERTEX
  8
0
 10
142.47064209
 20
173.37539673
 30
0.0
  0
VERTEX
  8
0
 10
141.39730835
 20
173.57131958
 30
0.0
  0
VERTEX
  8
0
 10
140.08618164
 20
173.6829071
 30
0.0
  0
VERTEX
  8
0
 10
139.00706482
 20
173.67282104
 30
0.0
  0
VERTEX
  8
0
 10
137.50064087
 20
173.15151978
 30
0.0
  0
VERTEX
  8
0
 10
136.40107727
 20
172.14173889
 30
0.0
  0
VERTEX
  8
0
 10
135.88075256
 20
171.21128845
 30
0.0
  0
VERTEX
  8
0
 10
135.4443512
 20
170.18295288
 30
0.0
  0
VERTEX
  8
0
 10
135.04702759
 20
169.13467407
 30
0.0
  0
VERTEX
  8
0
 10
134.65611267
 20
168.08477783
 30
0.0
  0
VERTEX
  8
0
 10
134.26385498
 20
167.03022766
 30
0.0
  0
VERTEX
  8
0
 10
133.86248779
 20
165.98625183
 30
0.0
  0
VERTEX
  8
0
 10
133.42541504
 20
164.97886658
 30
0.0
  0
VERTEX
  8
0
 10
132.88775635
 20
164.04988098
 30
0.0
  0
VERTEX
  8
0
 10
131.98950195
 20
162.99343872
 30
0.0
  0
VERTEX
  8
0
 10
130.54393005
 20
162.19146729
 30
0.0
  0
VERTEX
  8
0
 10
129.05531311
 20
161.86911011
 30
0.0
  0
VERTEX
  8
0
 10
128.02090454
 20
161.83226013
 30
0.0
  0
VERTEX
  8
0
 10
126.57569122
 20
161.65270996
 30
0.0
  0
VERTEX
  8
0
 10
125.5272522
 20
161.62762451
 30
0.0
  0
VERTEX
  8
0
 10
124.45798492
 20
161.6335907
 30
0.0
  0
VERTEX
  8
0
 10
123.11074066
 20
161.70736694
 30
0.0
  0
VERTEX
  8
0
 10
122.09044647
 20
161.96792603
 30
0.0
  0
VERTEX
  8
0
 10
121.10455322
 20
162.38870239
 30
0.0
  0
VERTEX
  8
0
 10
120.00518036
 20
163.16325378
 30
0.0
  0
VERTEX
  8
0
 10
119.22180176
 20
163.84223938
 30
0.0
  0
VERTEX
  8
0
 10
118.36836243
 20
165.15734863
 30
0.0
  0
VERTEX
  8
0
 10
117.63666534
 20
166.57171631
 30
0.0
  0
VERTEX
  8
0
 10
116.95713806
 20
168.00506592
 30
0.0
  0
VERTEX
  8
0
 10
116.23773956
 20
169.41737366
 30
0.0
  0
VERTEX
  8
0
 10
115.38098907
 20
170.70487976
 30
0.0
  0
VERTEX
  8
0
 10
114.55287933
 20
171.28144836
 30
0.0
  0
VERTEX
  8
0
 10
113.46004486
 20
171.68562317
 30
0.0
  0
VERTEX
  8
0
 10
112.40376282
 20
171.79267883
 30
0.0
  0
VERTEX
  8
0
 10
110.90126038
 20
171.38154602
 30
0.0
  0
VERTEX
  8
0
 10
109.41777802
 20
170.82192993
 30
0.0
  0
VERTEX
  8
0
 10
107.93444824
 20
170.21833801
 30
0.0
  0
VERTEX
  8
0
 10
106.48303986
 20
169.5234375
 30
0.0
  0
VERTEX
  8
0
 10
105.06478119
 20
168.77059937
 30
0.0
  0
VERTEX
  8
0
 10
103.64592743
 20
168.03079224
 30
0.0
  0
VERTEX
  8
0
 10
102.27664185
 20
167.21357727
 30
0.0
  0
VERTEX
  8
0
 10
100.93940735
 20
166.36306763
 30
0.0
  0
VERTEX
  8
0
 10
99.64953613
 20
165.46891785
 30
0.0
  0
VERTEX
  8
0
 10
98.90042114
 20
164.84164429
 30
0.0
  0
VERTEX
  8
0
 10
97.95297241
 20
163.67419434
 30
0.0
  0
VERTEX
  8
0
 10
97.59629059
 20
162.65510559
 30
0.0
  0
VERTEX
  8
0
 10
97.48574066
 20
161.14479065
 30
0.0
  0
VERTEX
  8
0
 10
97.79740906
 20
160.17800903
 30
0.0
  0
VERTEX
  8
0
 10
98.38739777
 20
158.6993103
 30
0.0
  0
VERTEX
  8
0
 10
99.04341888
 20
157.25169373
 30
0.0
  0
VERTEX
  8
0
 10
99.68545532
 20
155.81915283
 30
0.0
  0
VERTEX
  8
0
 10
100.18997955
 20
154.3875885
 30
0.0
  0
VERTEX
  8
0
 10
100.41751099
 20
153.46685791
 30
0.0
  0
VERTEX
  8
0
 10
100.65679169
 20
152.01123047
 30
0.0
  0
VERTEX
  8
0
 10
100.54375458
 20
150.99697876
 30
0.0
  0
VERTEX
  8
0
 10
100.2173233
 20
149.9601593
 30
0.0
  0
VERTEX
  8
0
 10
99.72550964
 20
149.00416565
 30
0.0
  0
VERTEX
  8
0
 10
98.83111572
 20
147.90774536
 30
0.0
  0
VERTEX
  8
0
 10
98.19369507
 20
147.07537842
 30
0.0
  0
VERTEX
  8
0
 10
97.53675079
 20
146.26161194
 30
0.0
  0
VERTEX
  8
0
 10
96.50346375
 20
145.22331238
 30
0.0
  0
VERTEX
  8
0
 10
95.37549591
 20
144.13755798
 30
0.0
  0
VERTEX
  8
0
 10
93.79716492
 20
143.20005798
 30
0.0
  0
VERTEX
  8
0
 10
92.18440247
 20
143.14355469
 30
0.0
  0
VERTEX
  8
0
 10
91.07720947
 20
143.30613708
 30
0.0
  0
VERTEX
  8
0
 10
89.97314453
 20
143.55685425
 30
0.0
  0
VERTEX
  8
0
 10
88.88196564
 20
143.88014221
 30
0.0
  0
VERTEX
  8
0
 10
87.81052399
 20
144.24464417
 30
0.0
  0
VERTEX
  8
0
 10
86.75497437
 20
144.60437012
 30
0.0
  0
VERTEX
  8
0
 10
85.69042206
 20
144.923172
 30
0.0
  0
VERTEX
  8
0
 10
84.62511444
 20
145.13414001
 30
0.0
  0
VERTEX
  8
0
 10
83.28416443
 20
145.14862061
 30
0.0
  0
VERTEX
  8
0
 10
81.67040253
 20
144.43609619
 30
0.0
  0
VERTEX
  8
0
 10
80.71118164
 20
143.34490967
 30
0.0
  0
VERTEX
  8
0
 10
80.18940735
 20
142.38504028
 30
0.0
  0
VERTEX
  8
0
 10
79.72367859
 20
141.37393188
 30
0.0
  0
VERTEX
  8
0
 10
79.29888916
 20
140.33616638
 30
0.0
  0
VERTEX
  8
0
 10
78.90040588
 20
139.28007507
 30
0.0
  0
VERTEX
  8
0
 10
78.52557373
 20
138.22322083
 30
0.0
  0
VERTEX
  8
0
 10
78.16564178
 20
137.15591431
 30
0.0
  0
VERTEX
  8
0
 10
77.8239975
 20
136.07867432
 30
0.0
  0
VERTEX
  8
0
 10
77.49776459
 20
135.00476074
 30
0.0
  0
VERTEX
  8
0
 10
77.18660736
 20
133.92752075
 30
0.0
  0
VERTEX
  8
0
 10
76.88795471
 20
132.84576416
 30
0.0
  0
VERTEX
  8
0
 10
76.62760162
 20
131.75927734
 30
0.0
  0
VERTEX
  8
0
 10
76.44200134
 20
130.67608643
 30
0.0
  0
VERTEX
  8
0
 10
76.42619324
 20
129.61982727
 30
0.0
  0
VERTEX
  8
0
 10
76.56880951
 20
128.2142334
 30
0.0
  0
VERTEX
  8
0
 10
77.28229523
 20
126.78787994
 30
0.0
  0
VERTEX
  8
0
 10
78.10596466
 20
126.09732819
 30
0.0
  0
VERTEX
  8
0
 10
79.22934723
 20
125.39337921
 30
0.0
  0
VERTEX
  8
0
 10
80.23931885
 20
124.95231628
 30
0.0
  0
VERTEX
  8
0
 10
81.2910614
 20
124.55696106
 30
0.0
  0
VERTEX
  8
0
 10
82.34229279
 20
124.17146301
 30
0.0
  0
VERTEX
  8
0
 10
83.3957901
 20
123.76104736
 30
0.0
  0
VERTEX
  8
0
 10
84.42465973
 20
123.30580139
 30
0.0
  0
VERTEX
  8
0
 10
85.40380859
 20
122.80096436
 30
0.0
  0
VERTEX
  8
0
 10
86.28001404
 20
122.21310425
 30
0.0
  0
VERTEX
  8
0
 10
87.24399567
 20
121.13368988
 30
0.0
  0
VERTEX
  8
0
 10
87.8984375
 20
119.69994354
 30
0.0
  0
VERTEX
  8
0
 10
88.23351288
 20
118.24607849
 30
0.0
  0
VERTEX
  8
0
 10
88.31389618
 20
117.23036957
 30
0.0
  0
VERTEX
  8
0
 10
88.46815491
 20
115.76346588
 30
0.0
  0
VERTEX
  8
0
 10
88.57002258
 20
114.74048615
 30
0.0
  0
VERTEX
  8
0
 10
88.5633316
 20
113.68193054
 30
0.0
  0
VERTEX
  8
0
 10
88.54633331
 20
112.32585144
 30
0.0
  0
VERTEX
  8
0
 10
88.30280304
 20
111.32709503
 30
0.0
  0
VERTEX
  8
0
 10
87.83391571
 20
110.45276642
 30
0.0
  0
VERTEX
  8
0
 10
86.88661194
 20
109.44132996
 30
0.0
  0
VERTEX
  8
0
 10
86.13573456
 20
109.03884888
 30
0.0
  0
VERTEX
  8
0
 10
84.81218719
 20
108.24658966
 30
0.0
  0
VERTEX
  8
0
 10
83.40898132
 20
107.52938843
 30
0.0
  0
VERTEX
  8
0
 10
81.98413849
 20
106.82931519
 30
0.0
  0
VERTEX
  8
0
 10
80.53791809
 20
106.05148315
 30
0.0
  0
VERTEX
  8
0
 10
79.33820343
 20
104.88949585
 30
0.0
  0
VERTEX
  8
0
 10
78.85246277
 20
103.79705811
 30
0.0
  0
VERTEX
  8
0
 10
78.68954468
 20
102.6601181
 30
0.0
  0
VERTEX
  8
0
 10
78.94635773
 20
101.10865021
 30
0.0
  0
VERTEX
  8
0
 10
79.30012512
 20
99.5174942
 30
0.0
  0
VERTEX
  8
0
 10
79.77165222
 20
98.74436188
 30
0.0
  0
VERTEX
  8
0
 10
80.39859009
 20
97.28663635
 30
0.0
  0
VERTEX
  8
0
 10
81.03936005
 20
95.83293152
 30
0.0
  0
VERTEX
  8
0
 10
81.7448349
 20
94.39086914
 30
0.0
  0
VERTEX
  8
0
 10
82.53487396
 20
93.01081085
 30
0.0
  0
VERTEX
  8
0
 10
83.30185699
 20
91.62350464
 30
0.0
  0
VERTEX
  8
0
 10
84.09461212
 20
90.25193024
 30
0.0
  0
VERTEX
  8
0
 10
84.53556824
 20
89.44636536
 30
0.0
  0
VERTEX
  8
0
 10
85.71607971
 20
88.30374146
 30
0.0
  0
VERTEX
  8
0
 10
86.8396225
 20
87.72429657
 30
0.0
  0
VERTEX
  8
0
 10
87.99646759
 20
87.47505188
 30
0.0
  0
VERTEX
  8
0
 10
89.03973389
 20
87.50149536
 30
0.0
  0
VERTEX
  8
0
 10
90.52194214
 20
88.02916718
 30
0.0
  0
VERTEX
  8
0
 10
91.96879578
 20
88.68574524
 30
0.0
  0
VERTEX
  8
0
 10
93.40473938
 20
89.35745239
 30
0.0
  0
VERTEX
  8
0
 10
94.84341431
 20
89.96820068
 30
0.0
  0
VERTEX
  8
0
 10
96.27509308
 20
90.30479431
 30
0.0
  0
VERTEX
  8
0
 10
97.22588348
 20
90.45625305
 30
0.0
  0
VERTEX
  8
0
 10
98.29872894
 20
90.37729645
 30
0.0
  0
VERTEX
  8
0
 10
99.41467285
 20
90.16068268
 30
0.0
  0
VERTEX
  8
0
 10
100.50931549
 20
89.75473785
 30
0.0
  0
VERTEX
  8
0
 10
101.49632263
 20
89.22580719
 30
0.0
  0
VERTEX
  8
0
 10
102.38710022
 20
88.63977051
 30
0.0
  0
VERTEX
  8
0
 10
103.4621582
 20
87.67738342
 30
0.0
  0
VERTEX
  8
0
 10
104.27980042
 20
87.02690887
 30
0.0
  0
VERTEX
  8
0
 10
105.05006409
 20
86.3499527
 30
0.0
  0
VERTEX
  8
0
 10
106.05445099
 20
85.26665497
 30
0.0
  0
VERTEX
  8
0
 10
106.86191559
 20
83.90750885
 30
0.0
  0
VERTEX
  8
0
 10
107.1503067
 20
82.48314667
 30
0.0
  0
VERTEX
  8
0
 10
107.01998138
 20
81.43801117
 30
0.0
  0
VERTEX
  8
0
 10
106.7519989
 20
80.35919952
 30
0.0
  0
VERTEX
  8
0
 10
106.43699646
 20
79.28214264
 30
0.0
  0
VERTEX
  8
0
 10
106.10914612
 20
78.20892334
 30
0.0
  0
VERTEX
  8
0
 10
105.76916504
 20
77.13937378
 30
0.0
  0
VERTEX
  8
0
 10
105.42987061
 20
76.06932831
 30
0.0
  0
VERTEX
  8
0
 10
105.1415863
 20
74.99084473
 30
0.0
  0
VERTEX
  8
0
 10
104.9906311
 20
73.92320251
 30
0.0
  0
VERTEX
  8
0
 10
105.27617645
 20
72.46541595
 30
0.0
  0
VERTEX
  8
0
 10
106.24344635
 20
71.27926636
 30
0.0
  0
VERTEX
  8
0
 10
107.17008972
 20
70.72651672
 30
0.0
  0
VERTEX
  8
0
 10
108.1712265
 20
70.24350739
 30
0.0
  0
VERTEX
  8
0
 10
109.19713593
 20
69.78534698
 30
0.0
  0
VERTEX
  8
0
 10
110.23628235
 20
69.33904266
 30
0.0
  0
VERTEX
  8
0
 10
111.275177
 20
68.8931427
 30
0.0
  0
VERTEX
  8
0
 10
112.35910034
 20
68.44132233
 30
0.0
  0
SEQEND
  0
POLYLINE
  8
0
 66
1
 10
0.0
 20
0.0
 30
0.0
 70
0
  0
VERTEX
  8
0
 10
116.97342682
 20
92.92751312
 30
0.0
  0
VERTEX
  8
0
 10
117.97153473
 20
92.4427948
 30
0.0
  0
VERTEX
  8
0
 10
118.99038696
 20
92.02368927
 30
0.0
  0
VERTEX
  8
0
 10
120.0331955
 20
91.64642334
 30
0.0
  0
VERTEX
  8
0
 10
121.09290314
 20
91.30745697
 30
0.0
  0
VERTEX
  8
0
 10
122.16411591
 20
91.00894165
 30
0.0
  0
VERTEX
  8
0
 10
123.24326324
 20
90.77145386
 30
0.0
  0
VERTEX
  8
0
 10
124.490242
 20
90.59623718
 30
0.0
  0
VERTEX
  8
0
 10
125.59208679
 20
90.44983673
 30
0.0
  0
VERTEX
  8
0
 10
126.68136597
 20
90.28787231
 30
0.0
  0
VERTEX
  8
0
 10
127.76787567
 20
90.1368103
 30
0.0
  0
VERTEX
  8
0
 10
128.8392334
 20
90.08595276
 30
0.0
  0
VERTEX
  8
0
 10
130.23431396
 20
90.1394043
 30
0.0
  0
VERTEX
  8
0
 10
131.290802
 20
90.1258316
 30
0.0
  0
VERTEX
  8
0
 10
132.75213623
 20
90.27354431
 30
0.0
  0
VERTEX
  8
0
 10
133.77342224
 20
90.37997437
 30
0.0
  0
VERTEX
  8
0
 10
135.26580811
 20
90.6599884
 30
0.0
  0
VERTEX
  8
0
 10
136.23646545
 20
90.81518555
 30
0.0
  0
VERTEX
  8
0
 10
137.72212219
 20
91.2436676
 30
0.0
  0
VERTEX
  8
0
 10
139.23614502
 20
91.7134552
 30
0.0
  0
VERTEX
  8
0
 10
140.76219177
 20
92.23235321
 30
0.0
  0
VERTEX
  8
0
 10
142.25042725
 20
92.87670135
 30
0.0
  0
VERTEX
  8
0
 10
143.68704224
 20
93.67927551
 30
0.0
  0
VERTEX
  8
0
 10
145.03497314
 20
94.53834534
 30
0.0
  0
VERTEX
  8
0
 10
146.35978699
 20
95.40640259
 30
0.0
  0
VERTEX
  8
0
 10
147.67576599
 20
96.28684235
 30
0.0
  0
VERTEX
  8
0
 10
148.89694214
 20
97.22411346
 30
0.0
  0
VERTEX
  8
0
 10
149.945755
 20
98.30728149
 30
0.0
  0
VERTEX
  8
0
 10
150.71037292
 20
98.94563293
 30
0.0
  0
VERTEX
  8
0
 10
151.37921143
 20
99.72631836
 30
0.0
  0
VERTEX
  8
0
 10
152.39736938
 20
100.77944946
 30
0.0
  0
VERTEX
  8
0
 10
153.02355957
 20
101.62801361
 30
0.0
  0
VERTEX
  8
0
 10
153.89677429
 20
102.71126556
 30
0.0
  0
VERTEX
  8
0
 10
154.52636719
 20
103.58378601
 30
0.0
  0
VERTEX
  8
0
 10
155.0614624
 20
104.53804779
 30
0.0
  0
VERTEX
  8
0
 10
155.57810974
 20
105.5164566
 30
0.0
  0
VERTEX
  8
0
 10
156.10401917
 20
106.50827789
 30
0.0
  0
VERTEX
  8
0
 10
156.68186951
 20
107.59824371
 30
0.0
  0
VERTEX
  8
0
 10
157.14430237
 20
108.60526276
 30
0.0
  0
VERTEX
  8
0
 10
157.54299927
 20
109.63565063
 30
0.0
  0
VERTEX
  8
0
 10
157.89425659
 20
110.6861496
 30
0.0
  0
VERTEX
  8
0
 10
158.19998169
 20
111.7530365
 30
0.0
  0
VERTEX
  8
0
 10
158.45753479
 20
112.82975769
 30
0.0
  0
VERTEX
  8
0
 10
158.67437744
 20
114.03629303
 30
0.0
  0
VERTEX
  8
0
 10
158.84533691
 20
115.15261841
 30
0.0
  0
VERTEX
  8
0
 10
159.00871277
 20
116.24996185
 30
0.0
  0
VERTEX
  8
0
 10
159.15524292
 20
117.33627319
 30
0.0
  0
VERTEX
  8
0
 10
159.22148132
 20
118.41537476
 30
0.0
  0
VERTEX
  8
0
 10
159.17552185
 20
119.80355835
 30
0.0
  0
VERTEX
  8
0
 10
159.203125
 20
120.86853027
 30
0.0
  0
VERTEX
  8
0
 10
159.13201904
 20
121.9028244
 30
0.0
  0
VERTEX
  8
0
 10
158.95426941
 20
123.3568573
 30
0.0
  0
VERTEX
  8
0
 10
158.84436035
 20
124.36130524
 30
0.0
  0
VERTEX
  8
0
 10
158.56181335
 20
125.8355484
 30
0.0
  0
VERTEX
  8
0
 10
158.35124207
 20
126.78225708
 30
0.0
  0
VERTEX
  8
0
 10
158.01879883
 20
128.26989746
 30
0.0
  0
VERTEX
  8
0
 10
157.49147034
 20
129.73497009
 30
0.0
  0
VERTEX
  8
0
 10
157.05404663
 20
130.49104309
 30
0.0
  0
VERTEX
  8
0
 10
156.54333496
 20
131.94139099
 30
0.0
  0
VERTEX
  8
0
 10
155.84989929
 20
133.33633423
 30
0.0
  0
VERTEX
  8
0
 10
155.07832336
 20
134.67729187
 30
0.0
  0
VERTEX
  8
0
 10
154.68632507
 20
135.43148804
 30
0.0
  0
VERTEX
  8
0
 10
153.82162476
 20
136.74121094
 30
0.0
  0
VERTEX
  8
0
 10
152.90570068
 20
137.98681641
 30
0.0
  0
VERTEX
  8
0
 10
152.26728821
 20
138.6915741
 30
0.0
  0
VERTEX
  8
0
 10
151.28710938
 20
139.85180664
 30
0.0
  0
VERTEX
  8
0
 10
150.53848267
 20
140.52626038
 30
0.0
  0
VERTEX
  8
0
 10
149.51699829
 20
141.60699463
 30
0.0
  0
VERTEX
  8
0
 10
148.70619202
 20
142.25447083
 30
0.0
  0
VERTEX
  8
0
 10
147.63378906
 20
143.18840027
 30
0.0
  0
VERTEX
  8
0
 10
146.76329041
 20
143.80461121
 30
0.0
  0
VERTEX
  8
0
 10
145.83218384
 20
144.36125183
 30
0.0
  0
VERTEX
  8
0
 10
144.90522766
 20
144.95544434
 30
0.0
  0
VERTEX
  8
0
 10
143.82029724
 20
145.71760559
 30
0.0
  0
VERTEX
  8
0
 10
142.85157776
 20
146.23672485
 30
0.0
  0
VERTEX
  8
0
 10
141.84259033
 20
146.68980408
 30
0.0
  0
VERTEX
  8
0
 10
140.80717468
 20
147.1111145
 30
0.0
  0
VERTEX
  8
0
 10
139.75796509
 20
147.50790405
 30
0.0
  0
VERTEX
  8
0
 10
138.69517517
 20
147.87393188
 30
0.0
  0
VERTEX
  8
0
 10
137.61909485
 20
148.19917297
 30
0.0
  0
VERTEX
  8
0
 10
136.53808594
 20
148.4908905
 30
0.0
  0
VERTEX
  8
0
 10
135.45321655
 20
148.7539978
 30
0.0
  0
VERTEX
  8
0
 10
134.37086487
 20
148.97767639
 30
0.0
  0
VERTEX
  8
0
 10
133.28805542
 20
149.11315918
 30
0.0
  0
VERTEX
  8
0
 10
131.96652222
 20
149.17253113
 30
0.0
  0
VERTEX
  8
0
 10
130.87025452
 20
149.27522278
 30
0.0
  0
VERTEX
  8
0
 10
129.79611206
 20
149.36172485
 30
0.0
  0
VERTEX
  8
0
 10
128.37805176
 20
149.27348328
 30
0.0
  0
VERTEX
  8
0
 10
127.31715393
 20
149.23170471
 30
0.0
  0
VERTEX
  8
0
 10
126.28418732
 20
149.18386841
 30
0.0
  0
VERTEX
  8
0
 10
124.82279205
 20
148.94801331
 30
0.0
  0
VERTEX
  8
0
 10
123.83216858
 20
148.84031677
 30
0.0
  0
VERTEX
  8
0
 10
122.35926056
 20
148.46720886
 30
0.0
  0
VERTEX
  8
0
 10
120.87207794
 20
147.99867249
 30
0.0
  0
VERTEX
  8
0
 10
119.35927582
 20
147.51525879
 30
0.0
  0
VERTEX
  8
0
 10
117.84941864
 20
146.95544434
 30
0.0
  0
VERTEX
  8
0
 10
116.33612061
 20
146.31500244
 30
0.0
  0
VERTEX
  8
0
 10
114.94725037
 20
145.48583984
 30
0.0
  0
VERTEX
  8
0
 10
113.60438538
 20
144.60534668
 30
0.0
  0
VERTEX
  8
0
 10
112.295784
 20
143.69136047
 30
0.0
  0
VERTEX
  8
0
 10
111.0477066
 20
142.75915527
 30
0.0
  0
VERTEX
  8
0
 10
110.31826782
 20
142.10409546
 30
0.0
  0
VERTEX
  8
0
 10
109.19198608
 20
141.07350159
 30
0.0
  0
VERTEX
  8
0
 10
108.42033386
 20
140.40840149
 30
0.0
  0
VERTEX
  8
0
 10
107.42153168
 20
139.28916931
 30
0.0
  0
VERTEX
  8
0
 10
106.72948456
 20
138.49813843
 30
0.0
  0
VERTEX
  8
0
 10
105.81109619
 20
137.39045715
 30
0.0
  0
VERTEX
  8
0
 10
105.2246933
 20
136.49076843
 30
0.0
  0
VERTEX
  8
0
 10
104.60193634
 20
135.59074402
 30
0.0
  0
VERTEX
  8
0
 10
103.83470154
 20
134.48371887
 30
0.0
  0
VERTEX
  8
0
 10
103.31560516
 20
133.51806641
 30
0.0
  0
VERTEX
  8
0
 10
102.8421936
 20
132.51446533
 30
0.0
  0
VERTEX
  8
0
 10
102.39918518
 20
131.48718262
 30
0.0
  0
VERTEX
  8
0
 10
101.98950195
 20
130.43560791
 30
0.0
  0
VERTEX
  8
0
 10
101.61756134
 20
129.37501526
 30
0.0
  0
VERTEX
  8
0
 10
101.27853394
 20
128.29692078
 30
0.0
  0
VERTEX
  8
0
 10
100.97470856
 20
127.21179962
 30
0.0
  0
VERTEX
  8
0
 10
100.69908142
 20
126.12679291
 30
0.0
  0
VERTEX
  8
0
 10
100.45733643
 20
125.03925323
 30
0.0
  0
VERTEX
  8
0
 10
100.26740265
 20
123.95657349
 30
0.0
  0
VERTEX
  8
0
 10
100.17449951
 20
122.86121368
 30
0.0
  0
VERTEX
  8
0
 10
100.11816406
 20
121.52836609
 30
0.0
  0
VERTEX
  8
0
 10
100.02361298
 20
120.44000244
 30
0.0
  0
VERTEX
  8
0
 10
99.97003174
 20
119.37218475
 30
0.0
  0
VERTEX
  8
0
 10
100.08618164
 20
117.94667816
 30
0.0
  0
VERTEX
  8
0
 10
100.09537506
 20
116.89400482
 30
0.0
  0
VERTEX
  8
0
 10
100.25546265
 20
115.4164505
 30
0.0
  0
VERTEX
  8
0
 10
100.39890289
 20
114.40830231
 30
0.0
  0
VERTEX
  8
0
 10
100.72699738
 20
112.90491486
 30
0.0
  0
VERTEX
  8
0
 10
101.02032471
 20
111.33926392
 30
0.0
  0
VERTEX
  8
0
 10
101.44086456
 20
110.49828339
 30
0.0
  0
VERTEX
  8
0
 10
101.98532104
 20
109.01843262
 30
0.0
  0
VERTEX
  8
0
 10
102.57203674
 20
107.52866364
 30
0.0
  0
VERTEX
  8
0
 10
103.28677368
 20
106.08504486
 30
0.0
  0
VERTEX
  8
0
 10
104.09241486
 20
104.69488525
 30
0.0
  0
VERTEX
  8
0
 10
104.94119263
 20
103.35900116
 30
0.0
  0
VERTEX
  8
0
 10
105.26395416
 20
102.4748764
 30
0.0
  0
VERTEX
  8
0
 10
106.42608643
 20
101.32886505
 30
0.0
  0
VERTEX
  8
0
 10
107.43968201
 20
100.15956116
 30
0.0
  0
VERTEX
  8
0
 10
108.04364777
 20
99.35704041
 30
0.0
  0
VERTEX
  8
0
 10
109.18540955
 20
98.3404007
 30
0.0
  0
VERTEX
  8
0
 10
109.88392639
 20
97.5588913
 30
0.0
  0
VERTEX
  8
0
 10
111.05961609
 20
96.675354
 30
0.0
  0
VERTEX
  8
0
 10
111.91759491
 20
96.04075623
 30
0.0
  0
VERTEX
  8
0
 10
113.00898743
 20
95.16526031
 30
0.0
  0
VERTEX
  8
0
 10
113.93226624
 20
94.60097504
 30
0.0
  0
VERTEX
  8
0
 10
114.89765167
 20
94.06879425
 30
0.0
  0
VERTEX
  8
0
 10
115.88401794
 20
93.53649139
 30
0.0
  0
VERTEX
  8
0
 10
116.97342682
 20
92.92751312
 30
0.0
  0
SEQEND
  0
ENDSEC
  0
SECTION
  2
OBJECTS
  0
ENDSEC
  0
EOF
