999
DXF file created by HALCON
  0
SECTION
  2
HEADER
  9
$ACADVER
  1
AC1009
  0
ENDSEC
  0
SECTION
  2
TABLES
  0
TABLE
  2
LTYPE
 70
1
  0
LTYPE
  2
CONTINUOUS
 70
0
  3
Solid line
 72
65
 73
0
 40
0
  0
ENDTAB
  0
TABLE
  2
LAYER
 70
1
  0
LAYER
  2
0
 70
0
 62
7
  6
CONTINUOUS
  0
ENDTAB
  0
TABLE
  2
APPID
 70
2
  0
APPID
  2
ACAD
 70
64
  0
APPID
  2
HALCON
 70
64
  0
ENDTAB
  0
ENDSEC
  0
SECTION
  2
BLOCKS
  0
ENDSEC
  0
SECTION
  2
ENTITIES
  0
POLYLINE
  8
0
 66
1
 10
0.0
 20
0.0
 30
0.0
 70
0
  0
VERTEX
  8
0
 10
445.78179932
 20
84.03869629
 30
0.0
  0
VERTEX
  8
0
 10
446.52670288
 20
83.78048706
 30
0.0
  0
VERTEX
  8
0
 10
447.28027344
 20
83.55183411
 30
0.0
  0
VERTEX
  8
0
 10
448.05148315
 20
83.33969879
 30
0.0
  0
VERTEX
  8
0
 10
448.82208252
 20
83.14315796
 30
0.0
  0
VERTEX
  8
0
 10
449.63461304
 20
82.95600128
 30
0.0
  0
VERTEX
  8
0
 10
450.42944336
 20
82.8015213
 30
0.0
  0
VERTEX
  8
0
 10
451.23239136
 20
82.68823242
 30
0.0
  0
VERTEX
  8
0
 10
452.01351929
 20
82.64812469
 30
0.0
  0
VERTEX
  8
0
 10
453.11486816
 20
82.97540283
 30
0.0
  0
VERTEX
  8
0
 10
453.92538452
 20
83.74469757
 30
0.0
  0
VERTEX
  8
0
 10
454.26675415
 20
84.44908142
 30
0.0
  0
VERTEX
  8
0
 10
454.55432129
 20
85.19564056
 30
0.0
  0
VERTEX
  8
0
 10
454.8187561
 20
85.95225525
 30
0.0
  0
VERTEX
  8
0
 10
455.07388306
 20
86.71070862
 30
0.0
  0
VERTEX
  8
0
 10
455.33349609
 20
87.46353912
 30
0.0
  0
VERTEX
  8
0
 10
455.61813354
 20
88.19631195
 30
0.0
  0
VERTEX
  8
0
 10
455.97186279
 20
88.88574982
 30
0.0
  0
VERTEX
  8
0
 10
456.48028564
 20
89.67920685
 30
0.0
  0
VERTEX
  8
0
 10
457.22988892
 20
90.65852356
 30
0.0
  0
VERTEX
  8
0
 10
458.41635132
 20
91.20990753
 30
0.0
  0
VERTEX
  8
0
 10
459.54656982
 20
91.37215424
 30
0.0
  0
VERTEX
  8
0
 10
460.58145142
 20
91.56750488
 30
0.0
  0
VERTEX
  8
0
 10
461.32394409
 20
91.61154938
 30
0.0
  0
VERTEX
  8
0
 10
462.33398438
 20
91.74131775
 30
0.0
  0
VERTEX
  8
0
 10
463.08666992
 20
91.73827362
 30
0.0
  0
VERTEX
  8
0
 10
463.85632324
 20
91.61829376
 30
0.0
  0
VERTEX
  8
0
 10
464.62631226
 20
91.40377045
 30
0.0
  0
VERTEX
  8
0
 10
465.34078979
 20
91.08934021
 30
0.0
  0
VERTEX
  8
0
 10
465.91223145
 20
90.68052673
 30
0.0
  0
VERTEX
  8
0
 10
466.58843994
 20
89.87648773
 30
0.0
  0
VERTEX
  8
0
 10
467.17059326
 20
88.91802979
 30
0.0
  0
VERTEX
  8
0
 10
467.72155762
 20
87.93083191
 30
0.0
  0
VERTEX
  8
0
 10
468.29968262
 20
86.95755768
 30
0.0
  0
VERTEX
  8
0
 10
468.58126831
 20
86.36364746
 30
0.0
  0
VERTEX
  8
0
 10
469.55187988
 20
85.62615967
 30
0.0
  0
VERTEX
  8
0
 10
470.36709595
 20
85.34221649
 30
0.0
  0
VERTEX
  8
0
 10
471.16238403
 20
85.29206848
 30
0.0
  0
VERTEX
  8
0
 10
472.23638916
 20
85.57318878
 30
0.0
  0
VERTEX
  8
0
 10
473.33154297
 20
85.88194275
 30
0.0
  0
VERTEX
  8
0
 10
473.91107178
 20
86.16399384
 30
0.0
  0
VERTEX
  8
0
 10
474.93453979
 20
86.63972473
 30
0.0
  0
VERTEX
  8
0
 10
475.94522095
 20
87.15324402
 30
0.0
  0
VERTEX
  8
0
 10
476.94570923
 20
87.68281555
 30
0.0
  0
VERTEX
  8
0
 10
477.93145752
 20
88.24589539
 30
0.0
  0
VERTEX
  8
0
 10
478.90536499
 20
88.82264709
 30
0.0
  0
VERTEX
  8
0
 10
479.84161377
 20
89.44261932
 30
0.0
  0
VERTEX
  8
0
 10
480.61288452
 20
90.16491699
 30
0.0
  0
VERTEX
  8
0
 10
481.01025391
 20
90.74734497
 30
0.0
  0
VERTEX
  8
0
 10
481.27062988
 20
91.47801971
 30
0.0
  0
VERTEX
  8
0
 10
481.36431885
 20
92.21897888
 30
0.0
  0
VERTEX
  8
0
 10
481.14486694
 20
92.82462311
 30
0.0
  0
VERTEX
  8
0
 10
480.89581299
 20
93.83123779
 30
0.0
  0
VERTEX
  8
0
 10
480.41918945
 20
94.83899689
 30
0.0
  0
VERTEX
  8
0
 10
479.87481689
 20
95.83526611
 30
0.0
  0
VERTEX
  8
0
 10
479.38433838
 20
96.87142944
 30
0.0
  0
VERTEX
  8
0
 10
479.01144409
 20
97.95307922
 30
0.0
  0
VERTEX
  8
0
 10
478.88687134
 20
98.95106506
 30
0.0
  0
VERTEX
  8
0
 10
478.96640015
 20
99.68588257
 30
0.0
  0
VERTEX
  8
0
 10
479.18557739
 20
100.41807556
 30
0.0
  0
VERTEX
  8
0
 10
479.52133179
 20
101.10025024
 30
0.0
  0
VERTEX
  8
0
 10
480.0826416
 20
101.89710236
 30
0.0
  0
VERTEX
  8
0
 10
480.50268555
 20
102.52863312
 30
0.0
  0
VERTEX
  8
0
 10
481.17047119
 20
103.33351898
 30
0.0
  0
VERTEX
  8
0
 10
481.65390015
 20
103.88903809
 30
0.0
  0
VERTEX
  8
0
 10
482.44421387
 20
104.67453003
 30
0.0
  0
VERTEX
  8
0
 10
483.45458984
 20
105.3881073
 30
0.0
  0
VERTEX
  8
0
 10
484.62533569
 20
105.6531601
 30
0.0
  0
VERTEX
  8
0
 10
485.62005615
 20
105.72330475
 30
0.0
  0
VERTEX
  8
0
 10
486.37246704
 20
105.64159393
 30
0.0
  0
VERTEX
  8
0
 10
487.14157104
 20
105.47132874
 30
0.0
  0
VERTEX
  8
0
 10
487.90856934
 20
105.25682831
 30
0.0
  0
VERTEX
  8
0
 10
488.67941284
 20
105.0318222
 30
0.0
  0
VERTEX
  8
0
 10
489.4598999
 20
104.83431244
 30
0.0
  0
VERTEX
  8
0
 10
490.24688721
 20
104.70451355
 30
0.0
  0
VERTEX
  8
0
 10
491.37243652
 20
104.73947144
 30
0.0
  0
VERTEX
  8
0
 10
492.49551392
 20
105.53805542
 30
0.0
  0
VERTEX
  8
0
 10
493.08032227
 20
106.37016296
 30
0.0
  0
VERTEX
  8
0
 10
493.40341187
 20
107.08755493
 30
0.0
  0
VERTEX
  8
0
 10
493.69213867
 20
107.82929993
 30
0.0
  0
VERTEX
  8
0
 10
493.96795654
 20
108.57896423
 30
0.0
  0
VERTEX
  8
0
 10
494.23513794
 20
109.33200836
 30
0.0
  0
VERTEX
  8
0
 10
494.48898315
 20
110.09163666
 30
0.0
  0
VERTEX
  8
0
 10
494.72677612
 20
110.86225891
 30
0.0
  0
VERTEX
  8
0
 10
494.94628906
 20
111.63517761
 30
0.0
  0
VERTEX
  8
0
 10
495.14849854
 20
112.4105072
 30
0.0
  0
VERTEX
  8
0
 10
495.33404541
 20
113.19035339
 30
0.0
  0
VERTEX
  8
0
 10
495.49807739
 20
113.97071075
 30
0.0
  0
VERTEX
  8
0
 10
495.62997437
 20
114.75099182
 30
0.0
  0
VERTEX
  8
0
 10
495.69396973
 20
115.51678467
 30
0.0
  0
VERTEX
  8
0
 10
495.53933716
 20
116.53883362
 30
0.0
  0
VERTEX
  8
0
 10
494.91192627
 20
117.5408783
 30
0.0
  0
VERTEX
  8
0
 10
494.24716187
 20
117.98234558
 30
0.0
  0
VERTEX
  8
0
 10
493.43283081
 20
118.39278412
 30
0.0
  0
VERTEX
  8
0
 10
492.7093811
 20
118.69671631
 30
0.0
  0
VERTEX
  8
0
 10
491.96542358
 20
118.97327423
 30
0.0
  0
VERTEX
  8
0
 10
491.20596313
 20
119.23924255
 30
0.0
  0
VERTEX
  8
0
 10
490.44940186
 20
119.50289917
 30
0.0
  0
VERTEX
  8
0
 10
489.70111084
 20
119.78514099
 30
0.0
  0
VERTEX
  8
0
 10
488.97677612
 20
120.11343384
 30
0.0
  0
VERTEX
  8
0
 10
488.06365967
 20
120.74029541
 30
0.0
  0
VERTEX
  8
0
 10
487.36724854
 20
121.89969635
 30
0.0
  0
VERTEX
  8
0
 10
487.17477417
 20
123.02747345
 30
0.0
  0
VERTEX
  8
0
 10
486.94009399
 20
124.07221222
 30
0.0
  0
VERTEX
  8
0
 10
486.8772583
 20
124.80374146
 30
0.0
  0
VERTEX
  8
0
 10
486.7192688
 20
125.82475281
 30
0.0
  0
VERTEX
  8
0
 10
486.72042847
 20
126.58066559
 30
0.0
  0
VERTEX
  8
0
 10
486.78421021
 20
127.35873413
 30
0.0
  0
VERTEX
  8
0
 10
486.91940308
 20
128.1683197
 30
0.0
  0
VERTEX
  8
0
 10
487.20571899
 20
128.97529602
 30
0.0
  0
VERTEX
  8
0
 10
487.59768677
 20
129.66624451
 30
0.0
  0
VERTEX
  8
0
 10
488.38592529
 20
130.47486877
 30
0.0
  0
VERTEX
  8
0
 10
489.35525513
 20
131.16882324
 30
0.0
  0
VERTEX
  8
0
 10
490.38497925
 20
131.69218445
 30
0.0
  0
VERTEX
  8
0
 10
491.35302734
 20
132.22465515
 30
0.0
  0
VERTEX
  8
0
 10
491.85635376
 20
132.52911377
 30
0.0
  0
VERTEX
  8
0
 10
492.66970825
 20
133.24169922
 30
0.0
  0
VERTEX
  8
0
 10
493.03759766
 20
133.88708496
 30
0.0
  0
VERTEX
  8
0
 10
493.26815796
 20
134.65208435
 30
0.0
  0
VERTEX
  8
0
 10
493.32174683
 20
135.39756775
 30
0.0
  0
VERTEX
  8
0
 10
493.02508545
 20
136.43780518
 30
0.0
  0
VERTEX
  8
0
 10
492.78759766
 20
137.02072144
 30
0.0
  0
VERTEX
  8
0
 10
492.37234497
 20
138.0463562
 30
0.0
  0
VERTEX
  8
0
 10
491.90252686
 20
139.07138062
 30
0.0
  0
VERTEX
  8
0
 10
491.38302612
 20
140.0559082
 30
0.0
  0
VERTEX
  8
0
 10
490.80834961
 20
141.03372192
 30
0.0
  0
VERTEX
  8
0
 10
490.20455933
 20
141.96427917
 30
0.0
  0
VERTEX
  8
0
 10
489.52307129
 20
142.83711243
 30
0.0
  0
VERTEX
  8
0
 10
489.16101074
 20
143.35968018
 30
0.0
  0
VERTEX
  8
0
 10
488.3944397
 20
143.9886322
 30
0.0
  0
VERTEX
  8
0
 10
487.78250122
 20
144.31808472
 30
0.0
  0
VERTEX
  8
0
 10
487.05126953
 20
144.52345276
 30
0.0
  0
VERTEX
  8
0
 10
486.12716675
 20
144.60534668
 30
0.0
  0
VERTEX
  8
0
 10
485.33587646
 20
144.5836792
 30
0.0
  0
VERTEX
  8
0
 10
484.61727905
 20
144.52037048
 30
0.0
  0
VERTEX
  8
0
 10
483.5786438
 20
144.19015503
 30
0.0
  0
VERTEX
  8
0
 10
483.09246826
 20
143.84063721
 30
0.0
  0
VERTEX
  8
0
 10
482.08453369
 20
143.35957336
 30
0.0
  0
VERTEX
  8
0
 10
480.99822998
 20
142.92802429
 30
0.0
  0
VERTEX
  8
0
 10
479.85177612
 20
142.64152527
 30
0.0
  0
VERTEX
  8
0
 10
478.89892578
 20
142.62176514
 30
0.0
  0
VERTEX
  8
0
 10
478.20507813
 20
142.80888367
 30
0.0
  0
VERTEX
  8
0
 10
477.39434814
 20
143.28067017
 30
0.0
  0
VERTEX
  8
0
 10
476.76025391
 20
143.7073822
 30
0.0
  0
VERTEX
  8
0
 10
476.15423584
 20
144.15129089
 30
0.0
  0
VERTEX
  8
0
 10
475.38031006
 20
144.83636475
 30
0.0
  0
VERTEX
  8
0
 10
474.79217529
 20
145.2816925
 30
0.0
  0
VERTEX
  8
0
 10
474.040802
 20
146.03546143
 30
0.0
  0
VERTEX
  8
0
 10
473.24179077
 20
146.89268494
 30
0.0
  0
VERTEX
  8
0
 10
472.83804321
 20
148.10069275
 30
0.0
  0
VERTEX
  8
0
 10
472.75286865
 20
149.10760498
 30
0.0
  0
VERTEX
  8
0
 10
472.85137939
 20
149.87875366
 30
0.0
  0
VERTEX
  8
0
 10
473.01538086
 20
150.65664673
 30
0.0
  0
VERTEX
  8
0
 10
473.21148682
 20
151.43043518
 30
0.0
  0
VERTEX
  8
0
 10
473.42437744
 20
152.20161438
 30
0.0
  0
VERTEX
  8
0
 10
473.64108276
 20
152.97154236
 30
0.0
  0
VERTEX
  8
0
 10
473.84466553
 20
153.74398804
 30
0.0
  0
VERTEX
  8
0
 10
473.98632813
 20
154.51777649
 30
0.0
  0
VERTEX
  8
0
 10
473.98928833
 20
155.21582031
 30
0.0
  0
VERTEX
  8
0
 10
473.62954712
 20
156.14480591
 30
0.0
  0
VERTEX
  8
0
 10
473.12774658
 20
156.60580444
 30
0.0
  0
VERTEX
  8
0
 10
472.33630371
 20
157.16056824
 30
0.0
  0
VERTEX
  8
0
 10
471.64196777
 20
157.49339294
 30
0.0
  0
VERTEX
  8
0
 10
470.90194702
 20
157.78796387
 30
0.0
  0
VERTEX
  8
0
 10
470.15267944
 20
158.0657196
 30
0.0
  0
VERTEX
  8
0
 10
469.40127563
 20
158.32380676
 30
0.0
  0
VERTEX
  8
0
 10
468.64065552
 20
158.56013489
 30
0.0
  0
VERTEX
  8
0
 10
467.87084961
 20
158.77264404
 30
0.0
  0
VERTEX
  8
0
 10
467.09683228
 20
158.97007751
 30
0.0
  0
VERTEX
  8
0
 10
466.32092285
 20
159.15821838
 30
0.0
  0
VERTEX
  8
0
 10
465.54528809
 20
159.33615112
 30
0.0
  0
VERTEX
  8
0
 10
464.77334595
 20
159.49188232
 30
0.0
  0
VERTEX
  8
0
 10
464.00418091
 20
159.60630798
 30
0.0
  0
VERTEX
  8
0
 10
463.06762695
 20
159.65507507
 30
0.0
  0
VERTEX
  8
0
 10
462.29916382
 20
159.62261963
 30
0.0
  0
VERTEX
  8
0
 10
461.23831177
 20
159.21600342
 30
0.0
  0
VERTEX
  8
0
 10
460.47869873
 20
158.47094727
 30
0.0
  0
VERTEX
  8
0
 10
460.12985229
 20
157.79595947
 30
0.0
  0
VERTEX
  8
0
 10
459.84307861
 20
157.05323792
 30
0.0
  0
VERTEX
  8
0
 10
459.58459473
 20
156.29721069
 30
0.0
  0
VERTEX
  8
0
 10
459.33074951
 20
155.54016113
 30
0.0
  0
VERTEX
  8
0
 10
459.07601929
 20
154.77978516
 30
0.0
  0
VERTEX
  8
0
 10
458.8145752
 20
154.0267334
 30
0.0
  0
VERTEX
  8
0
 10
458.52682495
 20
153.29890442
 30
0.0
  0
VERTEX
  8
0
 10
458.16558838
 20
152.6245575
 30
0.0
  0
VERTEX
  8
0
 10
457.55047607
 20
151.85098267
 30
0.0
  0
VERTEX
  8
0
 10
456.53955078
 20
151.24586487
 30
0.0
  0
VERTEX
  8
0
 10
455.48669434
 20
150.98136902
 30
0.0
  0
VERTEX
  8
0
 10
454.75073242
 20
150.93087769
 30
0.0
  0
VERTEX
  8
0
 10
453.72546387
 20
150.76913452
 30
0.0
  0
VERTEX
  8
0
 10
452.97918701
 20
150.72669983
 30
0.0
  0
VERTEX
  8
0
 10
452.21737671
 20
150.70591736
 30
0.0
  0
VERTEX
  8
0
 10
451.25598145
 20
150.72689819
 30
0.0
  0
VERTEX
  8
0
 10
450.52307129
 20
150.88861084
 30
0.0
  0
VERTEX
  8
0
 10
449.8109436
 20
151.16525269
 30
0.0
  0
VERTEX
  8
0
 10
449.00967407
 20
151.69125366
 30
0.0
  0
VERTEX
  8
0
 10
448.4357605
 20
152.15655518
 30
0.0
  0
VERTEX
  8
0
 10
447.79702759
 20
153.07336426
 30
0.0
  0
VERTEX
  8
0
 10
447.24267578
 20
154.0637207
 30
0.0
  0
VERTEX
  8
0
 10
446.72506714
 20
155.0688324
 30
0.0
  0
VERTEX
  8
0
 10
446.17953491
 20
156.05801392
 30
0.0
  0
VERTEX
  8
0
 10
445.53909302
 20
156.95506287
 30
0.0
  0
VERTEX
  8
0
 10
444.93569946
 20
157.34638977
 30
0.0
  0
VERTEX
  8
0
 10
444.14776611
 20
157.60868835
 30
0.0
  0
VERTEX
  8
0
 10
443.39282227
 20
157.66021729
 30
0.0
  0
VERTEX
  8
0
 10
442.33218384
 20
157.33215332
 30
0.0
  0
VERTEX
  8
0
 10
441.2885437
 20
156.89877319
 30
0.0
  0
VERTEX
  8
0
 10
440.24606323
 20
156.43408203
 30
0.0
  0
VERTEX
  8
0
 10
439.22845459
 20
155.90507507
 30
0.0
  0
VERTEX
  8
0
 10
438.23580933
 20
155.33558655
 30
0.0
  0
VERTEX
  8
0
 10
437.24246216
 20
154.77536011
 30
0.0
  0
VERTEX
  8
0
 10
436.28619385
 20
154.16116333
 30
0.0
  0
VERTEX
  8
0
 10
435.35357666
 20
153.52400208
 30
0.0
  0
VERTEX
  8
0
 10
434.45568848
 20
152.8568573
 30
0.0
  0
VERTEX
  8
0
 10
433.93676758
 20
152.39247131
 30
0.0
  0
VERTEX
  8
0
 10
433.28921509
 20
151.53868103
 30
0.0
  0
VERTEX
  8
0
 10
433.059021
 20
150.80439758
 30
0.0
  0
VERTEX
  8
0
 10
433.01565552
 20
149.72596741
 30
0.0
  0
VERTEX
  8
0
 10
433.26028442
 20
149.04458618
 30
0.0
  0
VERTEX
  8
0
 10
433.71520996
 20
148.00509644
 30
0.0
  0
VERTEX
  8
0
 10
434.21643066
 20
146.98925781
 30
0.0
  0
VERTEX
  8
0
 10
434.70730591
 20
145.9838562
 30
0.0
  0
VERTEX
  8
0
 10
435.10021973
 20
144.97592163
 30
0.0
  0
VERTEX
  8
0
 10
435.28387451
 20
144.32539368
 30
0.0
  0
VERTEX
  8
0
 10
435.48843384
 20
143.29411316
 30
0.0
  0
VERTEX
  8
0
 10
435.43167114
 20
142.56896973
 30
0.0
  0
VERTEX
  8
0
 10
435.22341919
 20
141.82276917
 30
0.0
  0
VERTEX
  8
0
 10
434.89547729
 20
141.13026428
 30
0.0
  0
VERTEX
  8
0
 10
434.28405762
 20
140.32830811
 30
0.0
  0
VERTEX
  8
0
 10
433.8494873
 20
139.72044373
 30
0.0
  0
VERTEX
  8
0
 10
433.40057373
 20
139.12539673
 30
0.0
  0
VERTEX
  8
0
 10
432.68887329
 20
138.36157227
 30
0.0
  0
VERTEX
  8
0
 10
431.91079712
 20
137.56173706
 30
0.0
  0
VERTEX
  8
0
 10
430.80847168
 20
136.85694885
 30
0.0
  0
VERTEX
  8
0
 10
429.66098022
 20
136.77893066
 30
0.0
  0
VERTEX
  8
0
 10
428.86846924
 20
136.86880493
 30
0.0
  0
VERTEX
  8
0
 10
428.07614136
 20
137.02154541
 30
0.0
  0
VERTEX
  8
0
 10
427.29129028
 20
137.22627258
 30
0.0
  0
VERTEX
  8
0
 10
426.51953125
 20
137.46083069
 30
0.0
  0
VERTEX
  8
0
 10
425.75921631
 20
137.69233704
 30
0.0
  0
VERTEX
  8
0
 10
424.9934082
 20
137.89450073
 30
0.0
  0
VERTEX
  8
0
 10
424.22961426
 20
138.01982117
 30
0.0
  0
VERTEX
  8
0
 10
423.27407837
 20
137.99873352
 30
0.0
  0
VERTEX
  8
0
 10
422.14123535
 20
137.4533844
 30
0.0
  0
VERTEX
  8
0
 10
421.48352051
 20
136.65362549
 30
0.0
  0
VERTEX
  8
0
 10
421.13430786
 20
135.95765686
 30
0.0
  0
VERTEX
  8
0
 10
420.82626343
 20
135.22650146
 30
0.0
  0
VERTEX
  8
0
 10
420.54797363
 20
134.47732544
 30
0.0
  0
VERTEX
  8
0
 10
420.28884888
 20
133.71569824
 30
0.0
  0
VERTEX
  8
0
 10
420.04660034
 20
132.95410156
 30
0.0
  0
VERTEX
  8
0
 10
419.81521606
 20
132.18537903
 30
0.0
  0
VERTEX
  8
0
 10
419.59707642
 20
131.41003418
 30
0.0
  0
VERTEX
  8
0
 10
419.38983154
 20
130.6374054
 30
0.0
  0
VERTEX
  8
0
 10
419.19342041
 20
129.86276245
 30
0.0
  0
VERTEX
  8
0
 10
419.00604248
 20
129.08520508
 30
0.0
  0
VERTEX
  8
0
 10
418.8460083
 20
128.30516052
 30
0.0
  0
VERTEX
  8
0
 10
418.73916626
 20
127.52922821
 30
0.0
  0
VERTEX
  8
0
 10
418.75265503
 20
126.77645111
 30
0.0
  0
VERTEX
  8
0
 10
418.88717651
 20
125.77853394
 30
0.0
  0
VERTEX
  8
0
 10
419.42883301
 20
124.77921295
 30
0.0
  0
VERTEX
  8
0
 10
420.03173828
 20
124.30660248
 30
0.0
  0
VERTEX
  8
0
 10
420.84841919
 20
123.83146667
 30
0.0
  0
VERTEX
  8
0
 10
421.57818604
 20
123.54093933
 30
0.0
  0
VERTEX
  8
0
 10
422.3366394
 20
123.28395081
 30
0.0
  0
VERTEX
  8
0
 10
423.09451294
 20
123.03397369
 30
0.0
  0
VERTEX
  8
0
 10
423.85455322
 20
122.76629639
 30
0.0
  0
VERTEX
  8
0
 10
424.59811401
 20
122.46611023
 30
0.0
  0
VERTEX
  8
0
 10
425.30743408
 20
122.12943268
 30
0.0
  0
VERTEX
  8
0
 10
425.94534302
 20
121.7312088
 30
0.0
  0
VERTEX
  8
0
 10
426.6572876
 20
120.98487854
 30
0.0
  0
VERTEX
  8
0
 10
427.15704346
 20
119.97891235
 30
0.0
  0
VERTEX
  8
0
 10
427.42980957
 20
118.95111847
 30
0.0
  0
VERTEX
  8
0
 10
427.51083374
 20
118.22948456
 30
0.0
  0
VERTEX
  8
0
 10
427.65509033
 20
117.18817902
 30
0.0
  0
VERTEX
  8
0
 10
427.75161743
 20
116.46186066
 30
0.0
  0
VERTEX
  8
0
 10
427.77163696
 20
115.70765686
 30
0.0
  0
VERTEX
  8
0
 10
427.79129028
 20
114.7412796
 30
0.0
  0
VERTEX
  8
0
 10
427.64120483
 20
114.02413177
 30
0.0
  0
VERTEX
  8
0
 10
427.32769775
 20
113.39034271
 30
0.0
  0
VERTEX
  8
0
 10
426.67657471
 20
112.64767456
 30
0.0
  0
VERTEX
  8
0
 10
426.15115356
 20
112.34338379
 30
0.0
  0
VERTEX
  8
0
 10
425.22689819
 20
111.74803162
 30
0.0
  0
VERTEX
  8
0
 10
424.24414063
 20
111.20427704
 30
0.0
  0
VERTEX
  8
0
 10
423.24557495
 20
110.67221832
 30
0.0
  0
VERTEX
  8
0
 10
422.23361206
 20
110.08427429
 30
0.0
  0
VERTEX
  8
0
 10
421.40625
 20
109.22844696
 30
0.0
  0
VERTEX
  8
0
 10
421.08581543
 20
108.43889618
 30
0.0
  0
VERTEX
  8
0
 10
420.99639893
 20
107.62519836
 30
0.0
  0
VERTEX
  8
0
 10
421.21566772
 20
106.52605438
 30
0.0
  0
VERTEX
  8
0
 10
421.50494385
 20
105.40090942
 30
0.0
  0
VERTEX
  8
0
 10
421.85891724
 20
104.86122894
 30
0.0
  0
VERTEX
  8
0
 10
422.33966064
 20
103.83753204
 30
0.0
  0
VERTEX
  8
0
 10
422.83013916
 20
102.81700897
 30
0.0
  0
VERTEX
  8
0
 10
423.36645508
 20
101.80631256
 30
0.0
  0
VERTEX
  8
0
 10
423.96154785
 20
100.8417511
 30
0.0
  0
VERTEX
  8
0
 10
424.54040527
 20
99.87149811
 30
0.0
  0
VERTEX
  8
0
 10
425.13723755
 20
98.91304779
 30
0.0
  0
VERTEX
  8
0
 10
425.47021484
 20
98.34955597
 30
0.0
  0
VERTEX
  8
0
 10
426.33789063
 20
97.56327057
 30
0.0
  0
VERTEX
  8
0
 10
427.15179443
 20
97.17683411
 30
0.0
  0
VERTEX
  8
0
 10
427.98168945
 20
97.02639008
 30
0.0
  0
VERTEX
  8
0
 10
428.72421265
 20
97.06965637
 30
0.0
  0
VERTEX
  8
0
 10
429.7677002
 20
97.48025513
 30
0.0
  0
VERTEX
  8
0
 10
430.78292847
 20
97.98184204
 30
0.0
  0
VERTEX
  8
0
 10
431.79006958
 20
98.49395752
 30
0.0
  0
VERTEX
  8
0
 10
432.80059814
 20
98.96270752
 30
0.0
  0
VERTEX
  8
0
 10
433.81253052
 20
99.23600769
 30
0.0
  0
VERTEX
  8
0
 10
434.48626709
 20
99.36617279
 30
0.0
  0
VERTEX
  8
0
 10
435.25234985
 20
99.33506012
 30
0.0
  0
VERTEX
  8
0
 10
436.05233765
 20
99.20688629
 30
0.0
  0
VERTEX
  8
0
 10
436.84158325
 20
98.943367
 30
0.0
  0
VERTEX
  8
0
 10
437.55706787
 20
98.58970642
 30
0.0
  0
VERTEX
  8
0
 10
438.20532227
 20
98.19312286
 30
0.0
  0
VERTEX
  8
0
 10
438.99365234
 20
97.53276062
 30
0.0
  0
VERTEX
  8
0
 10
439.59133911
 20
97.08856201
 30
0.0
  0
VERTEX
  8
0
 10
440.15585327
 20
96.62438202
 30
0.0
  0
VERTEX
  8
0
 10
440.896698
 20
95.87624359
 30
0.0
  0
VERTEX
  8
0
 10
441.50372314
 20
94.92698669
 30
0.0
  0
VERTEX
  8
0
 10
441.74249268
 20
93.91912842
 30
0.0
  0
VERTEX
  8
0
 10
441.6741333
 20
93.17159271
 30
0.0
  0
VERTEX
  8
0
 10
441.5085144
 20
92.39684296
 30
0.0
  0
VERTEX
  8
0
 10
441.30935669
 20
91.62224579
 30
0.0
  0
VERTEX
  8
0
 10
441.10095215
 20
90.85007477
 30
0.0
  0
VERTEX
  8
0
 10
440.8838501
 20
90.08023834
 30
0.0
  0
VERTEX
  8
0
 10
440.66720581
 20
89.31005859
 30
0.0
  0
VERTEX
  8
0
 10
440.48712158
 20
88.53507233
 30
0.0
  0
VERTEX
  8
0
 10
440.40460205
 20
87.77101898
 30
0.0
  0
VERTEX
  8
0
 10
440.64215088
 20
86.7392807
 30
0.0
  0
VERTEX
  8
0
 10
441.35894775
 20
85.91700745
 30
0.0
  0
VERTEX
  8
0
 10
442.03198242
 20
85.54496765
 30
0.0
  0
VERTEX
  8
0
 10
442.75640869
 20
85.22434998
 30
0.0
  0
VERTEX
  8
0
 10
443.49795532
 20
84.92201996
 30
0.0
  0
VERTEX
  8
0
 10
444.24862671
 20
84.62844849
 30
0.0
  0
VERTEX
  8
0
 10
444.99908447
 20
84.33515167
 30
0.0
  0
VERTEX
  8
0
 10
445.78179932
 20
84.03869629
 30
0.0
  0
SEQEND
  0
POLYLINE
  8
0
 66
1
 10
0.0
 20
0.0
 30
0.0
 70
0
  0
VERTEX
  8
0
 10
448.49517822
 20
101.58906555
 30
0.0
  0
VERTEX
  8
0
 10
449.2175293
 20
101.26716614
 30
0.0
  0
VERTEX
  8
0
 10
449.95309448
 20
100.99249268
 30
0.0
  0
VERTEX
  8
0
 10
450.70477295
 20
100.74817657
 30
0.0
  0
VERTEX
  8
0
 10
451.46755981
 20
100.53153992
 30
0.0
  0
VERTEX
  8
0
 10
452.23760986
 20
100.34399414
 30
0.0
  0
VERTEX
  8
0
 10
453.01190186
 20
100.20009613
 30
0.0
  0
VERTEX
  8
0
 10
453.90426636
 20
100.10449219
 30
0.0
  0
VERTEX
  8
0
 10
454.69256592
 20
100.02601624
 30
0.0
  0
VERTEX
  8
0
 10
455.47229004
 20
99.93615723
 30
0.0
  0
VERTEX
  8
0
 10
456.24978638
 20
99.85400391
 30
0.0
  0
VERTEX
  8
0
 10
457.01412964
 20
99.84286499
 30
0.0
  0
VERTEX
  8
0
 10
458.00665283
 20
99.91362
 30
0.0
  0
VERTEX
  8
0
 10
458.75952148
 20
99.92869568
 30
0.0
  0
VERTEX
  8
0
 10
459.79702759
 20
100.06814575
 30
0.0
  0
VERTEX
  8
0
 10
460.52203369
 20
100.1678772
 30
0.0
  0
VERTEX
  8
0
 10
461.57855225
 20
100.40229797
 30
0.0
  0
VERTEX
  8
0
 10
462.2663269
 20
100.5355835
 30
0.0
  0
VERTEX
  8
0
 10
463.3145752
 20
100.87560272
 30
0.0
  0
VERTEX
  8
0
 10
464.38208008
 20
101.24571228
 30
0.0
  0
VERTEX
  8
0
 10
465.45697021
 20
101.6510849
 30
0.0
  0
VERTEX
  8
0
 10
466.50198364
 20
102.14493561
 30
0.0
  0
VERTEX
  8
0
 10
467.50656128
 20
102.75028229
 30
0.0
  0
VERTEX
  8
0
 10
468.44659424
 20
103.39379883
 30
0.0
  0
VERTEX
  8
0
 10
469.3699646
 20
104.04317474
 30
0.0
  0
VERTEX
  8
0
 10
470.28677368
 20
104.70116425
 30
0.0
  0
VERTEX
  8
0
 10
471.13467407
 20
105.39741516
 30
0.0
  0
VERTEX
  8
0
 10
471.85641479
 20
106.19355774
 30
0.0
  0
VERTEX
  8
0
 10
472.38613892
 20
106.66618347
 30
0.0
  0
VERTEX
  8
0
 10
472.84429932
 20
107.23796082
 30
0.0
  0
VERTEX
  8
0
 10
473.54489136
 20
108.01198578
 30
0.0
  0
VERTEX
  8
0
 10
473.97106934
 20
108.63111115
 30
0.0
  0
VERTEX
  8
0
 10
474.56771851
 20
109.42319489
 30
0.0
  0
VERTEX
  8
0
 10
474.99575806
 20
110.05947113
 30
0.0
  0
VERTEX
  8
0
 10
475.35455322
 20
110.75175476
 30
0.0
  0
VERTEX
  8
0
 10
475.69967651
 20
111.4608078
 30
0.0
  0
VERTEX
  8
0
 10
476.05105591
 20
112.17963409
 30
0.0
  0
VERTEX
  8
0
 10
476.43713379
 20
112.9695816
 30
0.0
  0
VERTEX
  8
0
 10
476.74298096
 20
113.69774628
 30
0.0
  0
VERTEX
  8
0
 10
477.00283813
 20
114.44106293
 30
0.0
  0
VERTEX
  8
0
 10
477.22845459
 20
115.19759369
 30
0.0
  0
VERTEX
  8
0
 10
477.42123413
 20
115.96473694
 30
0.0
  0
VERTEX
  8
0
 10
477.57946777
 20
116.73774719
 30
0.0
  0
VERTEX
  8
0
 10
477.70568848
 20
117.60228729
 30
0.0
  0
VERTEX
  8
0
 10
477.80130005
 20
118.40148163
 30
0.0
  0
VERTEX
  8
0
 10
477.89199829
 20
119.1869812
 30
0.0
  0
VERTEX
  8
0
 10
477.97091675
 20
119.96422577
 30
0.0
  0
VERTEX
  8
0
 10
477.99282837
 20
120.73445129
 30
0.0
  0
VERTEX
  8
0
 10
477.92758179
 20
121.722229
 30
0.0
  0
VERTEX
  8
0
 10
477.92230225
 20
122.48149109
 30
0.0
  0
VERTEX
  8
0
 10
477.84741211
 20
123.21658325
 30
0.0
  0
VERTEX
  8
0
 10
477.68673706
 20
124.24817657
 30
0.0
  0
VERTEX
  8
0
 10
477.58493042
 20
124.96109772
 30
0.0
  0
VERTEX
  8
0
 10
477.34912109
 20
126.00463104
 30
0.0
  0
VERTEX
  8
0
 10
477.17694092
 20
126.67407227
 30
0.0
  0
VERTEX
  8
0
 10
476.90530396
 20
127.72597504
 30
0.0
  0
VERTEX
  8
0
 10
476.49536133
 20
128.75723267
 30
0.0
  0
VERTEX
  8
0
 10
476.16604614
 20
129.2855835
 30
0.0
  0
VERTEX
  8
0
 10
475.76828003
 20
130.30673218
 30
0.0
  0
VERTEX
  8
0
 10
475.24163818
 20
131.28416443
 30
0.0
  0
VERTEX
  8
0
 10
474.66061401
 20
132.22128296
 30
0.0
  0
VERTEX
  8
0
 10
474.36373901
 20
132.74935913
 30
0.0
  0
VERTEX
  8
0
 10
473.71710205
 20
133.66204834
 30
0.0
  0
VERTEX
  8
0
 10
473.03546143
 20
134.52787781
 30
0.0
  0
VERTEX
  8
0
 10
472.56420898
 20
135.01495361
 30
0.0
  0
VERTEX
  8
0
 10
471.83883667
 20
135.81846619
 30
0.0
  0
VERTEX
  8
0
 10
471.2897644
 20
136.28137207
 30
0.0
  0
VERTEX
  8
0
 10
470.5368042
 20
137.02728271
 30
0.0
  0
VERTEX
  8
0
 10
469.94406128
 20
137.46951294
 30
0.0
  0
VERTEX
  8
0
 10
469.15829468
 20
138.10966492
 30
0.0
  0
VERTEX
  8
0
 10
468.52377319
 20
138.5282135
 30
0.0
  0
VERTEX
  8
0
 10
467.84747314
 20
138.90292358
 30
0.0
  0
VERTEX
  8
0
 10
467.17327881
 20
139.30447388
 30
0.0
  0
VERTEX
  8
0
 10
466.38256836
 20
139.82197571
 30
0.0
  0
VERTEX
  8
0
 10
465.68035889
 20
140.16906738
 30
0.0
  0
VERTEX
  8
0
 10
464.95101929
 20
140.46817017
 30
0.0
  0
VERTEX
  8
0
 10
464.20358276
 20
140.74403381
 30
0.0
  0
VERTEX
  8
0
 10
463.44689941
 20
141.00210571
 30
0.0
  0
VERTEX
  8
0
 10
462.68127441
 20
141.23794556
 30
0.0
  0
VERTEX
  8
0
 10
461.90713501
 20
141.44442749
 30
0.0
  0
VERTEX
  8
0
 10
461.13027954
 20
141.62689209
 30
0.0
  0
VERTEX
  8
0
 10
460.35131836
 20
141.78890991
 30
0.0
  0
VERTEX
  8
0
 10
459.57507324
 20
141.92288208
 30
0.0
  0
VERTEX
  8
0
 10
458.80059814
 20
141.99403381
 30
0.0
  0
VERTEX
  8
0
 10
457.8578186
 20
142.00537109
 30
0.0
  0
VERTEX
  8
0
 10
457.07452393
 20
142.05284119
 30
0.0
  0
VERTEX
  8
0
 10
456.30734253
 20
142.08930969
 30
0.0
  0
VERTEX
  8
0
 10
455.29928589
 20
141.99324036
 30
0.0
  0
VERTEX
  8
0
 10
454.54455566
 20
141.93861389
 30
0.0
  0
VERTEX
  8
0
 10
453.80984497
 20
141.88035583
 30
0.0
  0
VERTEX
  8
0
 10
452.77438354
 20
141.67811584
 30
0.0
  0
VERTEX
  8
0
 10
452.07125854
 20
141.57818604
 30
0.0
  0
VERTEX
  8
0
 10
451.03079224
 20
141.27792358
 30
0.0
  0
VERTEX
  8
0
 10
449.98239136
 20
140.90933228
 30
0.0
  0
VERTEX
  8
0
 10
448.91610718
 20
140.52954102
 30
0.0
  0
VERTEX
  8
0
 10
447.85369873
 20
140.09541321
 30
0.0
  0
VERTEX
  8
0
 10
446.79074097
 20
139.60375977
 30
0.0
  0
VERTEX
  8
0
 10
445.82080078
 20
138.98057556
 30
0.0
  0
VERTEX
  8
0
 10
444.88485718
 20
138.32192993
 30
0.0
  0
VERTEX
  8
0
 10
443.97412109
 20
137.64021301
 30
0.0
  0
VERTEX
  8
0
 10
443.10690308
 20
136.94694519
 30
0.0
  0
VERTEX
  8
0
 10
442.60266113
 20
136.46324158
 30
0.0
  0
VERTEX
  8
0
 10
441.82449341
 20
135.70272827
 30
0.0
  0
VERTEX
  8
0
 10
441.29040527
 20
135.21089172
 30
0.0
  0
VERTEX
  8
0
 10
440.60513306
 20
134.39022827
 30
0.0
  0
VERTEX
  8
0
 10
440.13070679
 20
133.81053162
 30
0.0
  0
VERTEX
  8
0
 10
439.50247192
 20
132.99998474
 30
0.0
  0
VERTEX
  8
0
 10
439.10580444
 20
132.34538269
 30
0.0
  0
VERTEX
  8
0
 10
438.68328857
 20
131.68966675
 30
0.0
  0
VERTEX
  8
0
 10
438.16268921
 20
130.88313293
 30
0.0
  0
VERTEX
  8
0
 10
437.81555176
 20
130.18312073
 30
0.0
  0
VERTEX
  8
0
 10
437.50183105
 20
129.4571228
 30
0.0
  0
VERTEX
  8
0
 10
437.21032715
 20
128.71498108
 30
0.0
  0
VERTEX
  8
0
 10
436.94311523
 20
127.95631409
 30
0.0
  0
VERTEX
  8
0
 10
436.70300293
 20
127.19210815
 30
0.0
  0
VERTEX
  8
0
 10
436.48675537
 20
126.41621399
 30
0.0
  0
VERTEX
  8
0
 10
436.29574585
 20
125.63612366
 30
0.0
  0
VERTEX
  8
0
 10
436.12484741
 20
124.85678864
 30
0.0
  0
VERTEX
  8
0
 10
435.97808838
 20
124.0764389
 30
0.0
  0
VERTEX
  8
0
 10
435.86816406
 20
123.30075836
 30
0.0
  0
VERTEX
  8
0
 10
435.82763672
 20
122.51832581
 30
0.0
  0
VERTEX
  8
0
 10
435.81872559
 20
121.56757355
 30
0.0
  0
VERTEX
  8
0
 10
435.77688599
 20
120.79008484
 30
0.0
  0
VERTEX
  8
0
 10
435.76373291
 20
120.02819061
 30
0.0
  0
VERTEX
  8
0
 10
435.87985229
 20
119.01547241
 30
0.0
  0
VERTEX
  8
0
 10
435.91104126
 20
118.26583862
 30
0.0
  0
VERTEX
  8
0
 10
436.05969238
 20
117.21707153
 30
0.0
  0
VERTEX
  8
0
 10
436.18548584
 20
116.50229645
 30
0.0
  0
VERTEX
  8
0
 10
436.45440674
 20
115.43907166
 30
0.0
  0
VERTEX
  8
0
 10
436.70001221
 20
114.33068085
 30
0.0
  0
VERTEX
  8
0
 10
437.01928711
 20
113.74147034
 30
0.0
  0
VERTEX
  8
0
 10
437.44177246
 20
112.70008087
 30
0.0
  0
VERTEX
  8
0
 10
437.8946228
 20
111.65261841
 30
0.0
  0
VERTEX
  8
0
 10
438.43756104
 20
110.64102173
 30
0.0
  0
VERTEX
  8
0
 10
439.04400635
 20
109.66963196
 30
0.0
  0
VERTEX
  8
0
 10
439.67990112
 20
108.73792267
 30
0.0
  0
VERTEX
  8
0
 10
439.93054199
 20
108.11569214
 30
0.0
  0
VERTEX
  8
0
 10
440.78518677
 20
107.3265686
 30
0.0
  0
VERTEX
  8
0
 10
441.53460693
 20
106.51737976
 30
0.0
  0
VERTEX
  8
0
 10
441.98361206
 20
105.95986176
 30
0.0
  0
VERTEX
  8
0
 10
442.82073975
 20
105.26242828
 30
0.0
  0
VERTEX
  8
0
 10
443.3366394
 20
104.72209167
 30
0.0
  0
VERTEX
  8
0
 10
444.1947937
 20
104.12025452
 30
0.0
  0
VERTEX
  8
0
 10
444.8208313
 20
103.68830872
 30
0.0
  0
VERTEX
  8
0
 10
445.61877441
 20
103.09023285
 30
0.0
  0
VERTEX
  8
0
 10
446.28967285
 20
102.7098999
 30
0.0
  0
VERTEX
  8
0
 10
446.98980713
 20
102.35342407
 30
0.0
  0
VERTEX
  8
0
 10
447.70489502
 20
101.99734497
 30
0.0
  0
VERTEX
  8
0
 10
448.49517822
 20
101.58906555
 30
0.0
  0
SEQEND
  0
ENDSEC
  0
SECTION
  2
OBJECTS
  0
ENDSEC
  0
EOF
