999
DXF file created by HALCON
  0
SECTION
  2
HEADER
  9
$ACADVER
  1
AC1009
  0
ENDSEC
  0
SECTION
  2
TABLES
  0
TABLE
  2
LTYPE
 70
1
  0
LTYPE
  2
CONTINUOUS
 70
0
  3
Solid line
 72
65
 73
0
 40
0
  0
ENDTAB
  0
TABLE
  2
LAYER
 70
1
  0
LAYER
  2
0
 70
0
 62
7
  6
CONTINUOUS
  0
ENDTAB
  0
TABLE
  2
APPID
 70
2
  0
APPID
  2
ACAD
 70
64
  0
APPID
  2
HALCON
 70
64
  0
ENDTAB
  0
ENDSEC
  0
SECTION
  2
BLOCKS
  0
ENDSEC
  0
SECTION
  2
ENTITIES
  0
POLYLINE
  8
0
 66
1
 10
0.0
 20
0.0
 30
0.0
 70
0
  0
VERTEX
  8
0
 10
257.07717896
 20
285.21237183
 30
0.0
  0
VERTEX
  8
0
 10
257.99377441
 20
284.9446106
 30
0.0
  0
VERTEX
  8
0
 10
258.97360229
 20
284.78079224
 30
0.0
  0
VERTEX
  8
0
 10
259.98577881
 20
284.69216919
 30
0.0
  0
VERTEX
  8
0
 10
261.0032959
 20
284.65975952
 30
0.0
  0
VERTEX
  8
0
 10
262.00680542
 20
284.66442871
 30
0.0
  0
VERTEX
  8
0
 10
263.00177002
 20
284.67724609
 30
0.0
  0
VERTEX
  8
0
 10
264.00344849
 20
284.68737793
 30
0.0
  0
VERTEX
  8
0
 10
265.0050354
 20
284.69390869
 30
0.0
  0
VERTEX
  8
0
 10
266.00357056
 20
284.69842529
 30
0.0
  0
VERTEX
  8
0
 10
266.99908447
 20
284.69564819
 30
0.0
  0
VERTEX
  8
0
 10
267.99893188
 20
284.68692017
 30
0.0
  0
VERTEX
  8
0
 10
269.00698853
 20
284.68029785
 30
0.0
  0
VERTEX
  8
0
 10
270.00543213
 20
284.68157959
 30
0.0
  0
VERTEX
  8
0
 10
270.99908447
 20
284.68310547
 30
0.0
  0
VERTEX
  8
0
 10
272.00076294
 20
284.68389893
 30
0.0
  0
VERTEX
  8
0
 10
273.0071106
 20
284.68554688
 30
0.0
  0
VERTEX
  8
0
 10
274.0071106
 20
284.69354248
 30
0.0
  0
VERTEX
  8
0
 10
275.00698853
 20
284.70678711
 30
0.0
  0
VERTEX
  8
0
 10
276.00552368
 20
284.71716309
 30
0.0
  0
VERTEX
  8
0
 10
277.00003052
 20
284.71578979
 30
0.0
  0
VERTEX
  8
0
 10
277.99841309
 20
284.7046814
 30
0.0
  0
VERTEX
  8
0
 10
279.00128174
 20
284.69384766
 30
0.0
  0
VERTEX
  8
0
 10
280.0088501
 20
284.69866943
 30
0.0
  0
VERTEX
  8
0
 10
281.00872803
 20
284.70681763
 30
0.0
  0
VERTEX
  8
0
 10
282.00161743
 20
284.70880127
 30
0.0
  0
VERTEX
  8
0
 10
283.00015259
 20
284.70297241
 30
0.0
  0
VERTEX
  8
0
 10
284.00753784
 20
284.70309448
 30
0.0
  0
VERTEX
  8
0
 10
285.00610352
 20
284.70761108
 30
0.0
  0
VERTEX
  8
0
 10
286.00326538
 20
284.70889282
 30
0.0
  0
VERTEX
  8
0
 10
287.00177002
 20
284.70251465
 30
0.0
  0
VERTEX
  8
0
 10
288.00015259
 20
284.69482422
 30
0.0
  0
VERTEX
  8
0
 10
289.00009155
 20
284.68560791
 30
0.0
  0
VERTEX
  8
0
 10
290.00332642
 20
284.67678833
 30
0.0
  0
VERTEX
  8
0
 10
291.00500488
 20
284.6673584
 30
0.0
  0
VERTEX
  8
0
 10
292.00332642
 20
284.6557312
 30
0.0
  0
VERTEX
  8
0
 10
293.00512695
 20
284.65185547
 30
0.0
  0
VERTEX
  8
0
 10
294.01223755
 20
284.6605835
 30
0.0
  0
VERTEX
  8
0
 10
295.01318359
 20
284.69207764
 30
0.0
  0
VERTEX
  8
0
 10
296.01599121
 20
284.73669434
 30
0.0
  0
VERTEX
  8
0
 10
297.02322388
 20
284.80453491
 30
0.0
  0
VERTEX
  8
0
 10
298.01922607
 20
284.90750122
 30
0.0
  0
VERTEX
  8
0
 10
298.98077393
 20
285.09286499
 30
0.0
  0
VERTEX
  8
0
 10
300.21630859
 20
285.65283203
 30
0.0
  0
VERTEX
  8
0
 10
301.39331055
 20
286.59222412
 30
0.0
  0
VERTEX
  8
0
 10
302.32571411
 20
287.74969482
 30
0.0
  0
VERTEX
  8
0
 10
303.11218262
 20
288.9324646
 30
0.0
  0
VERTEX
  8
0
 10
303.87341309
 20
290.07733154
 30
0.0
  0
VERTEX
  8
0
 10
304.5428772
 20
291.26852417
 30
0.0
  0
VERTEX
  8
0
 10
305.00567627
 20
291.99737549
 30
0.0
  0
VERTEX
  8
0
 10
305.73751831
 20
293.15164185
 30
0.0
  0
VERTEX
  8
0
 10
306.13821411
 20
293.9229126
 30
0.0
  0
VERTEX
  8
0
 10
306.85845947
 20
295.07974243
 30
0.0
  0
VERTEX
  8
0
 10
307.46557617
 20
296.29623413
 30
0.0
  0
VERTEX
  8
0
 10
307.94573975
 20
297.0291748
 30
0.0
  0
VERTEX
  8
0
 10
308.61392212
 20
298.2142334
 30
0.0
  0
VERTEX
  8
0
 10
309.0385437
 20
298.97940063
 30
0.0
  0
VERTEX
  8
0
 10
309.75283813
 20
300.13916016
 30
0.0
  0
VERTEX
  8
0
 10
310.14141846
 20
300.92373657
 30
0.0
  0
VERTEX
  8
0
 10
310.87106323
 20
302.07748413
 30
0.0
  0
VERTEX
  8
0
 10
311.4994812
 20
303.27090454
 30
0.0
  0
VERTEX
  8
0
 10
311.97418213
 20
304.01580811
 30
0.0
  0
VERTEX
  8
0
 10
312.66183472
 20
305.19430542
 30
0.0
  0
VERTEX
  8
0
 10
313.06573486
 20
305.96688843
 30
0.0
  0
VERTEX
  8
0
 10
313.77252197
 20
307.13082886
 30
0.0
  0
VERTEX
  8
0
 10
314.34643555
 20
308.37088013
 30
0.0
  0
VERTEX
  8
0
 10
314.88464355
 20
309.06143188
 30
0.0
  0
VERTEX
  8
0
 10
315.49700928
 20
310.27926636
 30
0.0
  0
VERTEX
  8
0
 10
315.9609375
 20
311.02249146
 30
0.0
  0
VERTEX
  8
0
 10
316.61050415
 20
312.21502686
 30
0.0
  0
VERTEX
  8
0
 10
317.04315186
 20
312.97753906
 30
0.0
  0
VERTEX
  8
0
 10
317.79019165
 20
314.1277771
 30
0.0
  0
VERTEX
  8
0
 10
318.40908813
 20
315.32434082
 30
0.0
  0
VERTEX
  8
0
 10
318.91519165
 20
316.04528809
 30
0.0
  0
VERTEX
  8
0
 10
319.52813721
 20
317.25378418
 30
0.0
  0
VERTEX
  8
0
 10
319.94750977
 20
318.02938843
 30
0.0
  0
VERTEX
  8
0
 10
320.54403687
 20
319.23062134
 30
0.0
  0
VERTEX
  8
0
 10
320.96792603
 20
320.01882935
 30
0.0
  0
VERTEX
  8
0
 10
321.35586548
 20
320.84310913
 30
0.0
  0
VERTEX
  8
0
 10
321.80993652
 20
322.05447388
 30
0.0
  0
VERTEX
  8
0
 10
321.91079712
 20
323.00531006
 30
0.0
  0
VERTEX
  8
0
 10
321.85687256
 20
323.97390747
 30
0.0
  0
VERTEX
  8
0
 10
321.644104
 20
324.88262939
 30
0.0
  0
VERTEX
  8
0
 10
321.1262207
 20
326.05599976
 30
0.0
  0
VERTEX
  8
0
 10
320.7951355
 20
326.90768433
 30
0.0
  0
VERTEX
  8
0
 10
320.13366699
 20
328.07266235
 30
0.0
  0
VERTEX
  8
0
 10
319.77511597
 20
328.88909912
 30
0.0
  0
VERTEX
  8
0
 10
319.09390259
 20
330.05487061
 30
0.0
  0
VERTEX
  8
0
 10
318.72122192
 20
330.84698486
 30
0.0
  0
VERTEX
  8
0
 10
317.99438477
 20
331.99987793
 30
0.0
  0
VERTEX
  8
0
 10
317.56661987
 20
332.75466919
 30
0.0
  0
VERTEX
  8
0
 10
316.84835815
 20
333.91970825
 30
0.0
  0
VERTEX
  8
0
 10
316.27990723
 20
334.58639526
 30
0.0
  0
VERTEX
  8
0
 10
315.68267822
 20
335.82550049
 30
0.0
  0
VERTEX
  8
0
 10
314.98727417
 20
336.99685669
 30
0.0
  0
VERTEX
  8
0
 10
314.58880615
 20
337.79776001
 30
0.0
  0
VERTEX
  8
0
 10
313.94317627
 20
338.9732666
 30
0.0
  0
VERTEX
  8
0
 10
313.49221802
 20
339.73950195
 30
0.0
  0
VERTEX
  8
0
 10
312.85037231
 20
340.92340088
 30
0.0
  0
VERTEX
  8
0
 10
312.27297974
 20
341.58151245
 30
0.0
  0
VERTEX
  8
0
 10
311.72875977
 20
342.84988403
 30
0.0
  0
VERTEX
  8
0
 10
311.0093689
 20
344.00942993
 30
0.0
  0
VERTEX
  8
0
 10
310.5607605
 20
344.74572754
 30
0.0
  0
VERTEX
  8
0
 10
309.8850708
 20
345.94125366
 30
0.0
  0
VERTEX
  8
0
 10
309.35235596
 20
346.64920044
 30
0.0
  0
VERTEX
  8
0
 10
308.79159546
 20
347.88830566
 30
0.0
  0
VERTEX
  8
0
 10
308.07247925
 20
349.04406738
 30
0.0
  0
VERTEX
  8
0
 10
307.67025757
 20
349.81829834
 30
0.0
  0
VERTEX
  8
0
 10
306.96282959
 20
350.98382568
 30
0.0
  0
VERTEX
  8
0
 10
306.49890137
 20
351.71963501
 30
0.0
  0
VERTEX
  8
0
 10
305.853302
 20
352.92120361
 30
0.0
  0
VERTEX
  8
0
 10
305.23931885
 20
353.60021973
 30
0.0
  0
VERTEX
  8
0
 10
304.7215271
 20
354.84051514
 30
0.0
  0
VERTEX
  8
0
 10
303.98620605
 20
355.99682617
 30
0.0
  0
VERTEX
  8
0
 10
303.51296997
 20
356.70977783
 30
0.0
  0
VERTEX
  8
0
 10
302.83462524
 20
357.90762329
 30
0.0
  0
VERTEX
  8
0
 10
302.04418945
 20
359.03713989
 30
0.0
  0
VERTEX
  8
0
 10
301.57284546
 20
359.64987183
 30
0.0
  0
VERTEX
  8
0
 10
300.57952881
 20
360.47293091
 30
0.0
  0
VERTEX
  8
0
 10
299.94616699
 20
360.89553833
 30
0.0
  0
VERTEX
  8
0
 10
299.03826904
 20
361.18438721
 30
0.0
  0
VERTEX
  8
0
 10
298.0519104
 20
361.40994263
 30
0.0
  0
VERTEX
  8
0
 10
296.95922852
 20
361.58728027
 30
0.0
  0
VERTEX
  8
0
 10
295.97903442
 20
361.67306519
 30
0.0
  0
VERTEX
  8
0
 10
294.98696899
 20
361.72259521
 30
0.0
  0
VERTEX
  8
0
 10
293.98745728
 20
361.74679565
 30
0.0
  0
VERTEX
  8
0
 10
292.98657227
 20
361.76638794
 30
0.0
  0
VERTEX
  8
0
 10
291.98623657
 20
361.79385376
 30
0.0
  0
VERTEX
  8
0
 10
290.98733521
 20
361.83032227
 30
0.0
  0
VERTEX
  8
0
 10
289.98834229
 20
361.86547852
 30
0.0
  0
VERTEX
  8
0
 10
288.98907471
 20
361.89337158
 30
0.0
  0
VERTEX
  8
0
 10
287.99081421
 20
361.90881348
 30
0.0
  0
VERTEX
  8
0
 10
286.99169922
 20
361.91516113
 30
0.0
  0
VERTEX
  8
0
 10
285.99163818
 20
361.91378784
 30
0.0
  0
VERTEX
  8
0
 10
284.99200439
 20
361.91442871
 30
0.0
  0
VERTEX
  8
0
 10
283.99234009
 20
361.91656494
 30
0.0
  0
VERTEX
  8
0
 10
282.99267578
 20
361.91766357
 30
0.0
  0
VERTEX
  8
0
 10
281.99267578
 20
361.91088867
 30
0.0
  0
VERTEX
  8
0
 10
280.99176025
 20
361.90249634
 30
0.0
  0
VERTEX
  8
0
 10
279.99121094
 20
361.89654541
 30
0.0
  0
VERTEX
  8
0
 10
278.99267578
 20
361.89645386
 30
0.0
  0
VERTEX
  8
0
 10
277.99209595
 20
361.89584351
 30
0.0
  0
VERTEX
  8
0
 10
276.99206543
 20
361.89395142
 30
0.0
  0
VERTEX
  8
0
 10
275.99307251
 20
361.88912964
 30
0.0
  0
VERTEX
  8
0
 10
274.9937439
 20
361.87911987
 30
0.0
  0
VERTEX
  8
0
 10
273.99334717
 20
361.86373901
 30
0.0
  0
VERTEX
  8
0
 10
272.99133301
 20
361.8508606
 30
0.0
  0
VERTEX
  8
0
 10
271.99053955
 20
361.84927368
 30
0.0
  0
VERTEX
  8
0
 10
270.99121094
 20
361.85482788
 30
0.0
  0
VERTEX
  8
0
 10
269.9911499
 20
361.85968018
 30
0.0
  0
VERTEX
  8
0
 10
268.98977661
 20
361.86303711
 30
0.0
  0
VERTEX
  8
0
 10
267.98974609
 20
361.86694336
 30
0.0
  0
VERTEX
  8
0
 10
266.9921875
 20
361.87420654
 30
0.0
  0
VERTEX
  8
0
 10
265.99090576
 20
361.87835693
 30
0.0
  0
VERTEX
  8
0
 10
264.99203491
 20
361.87536621
 30
0.0
  0
VERTEX
  8
0
 10
263.99343872
 20
361.86096191
 30
0.0
  0
VERTEX
  8
0
 10
262.99468994
 20
361.83673096
 30
0.0
  0
VERTEX
  8
0
 10
261.9984436
 20
361.8024292
 30
0.0
  0
VERTEX
  8
0
 10
261.00512695
 20
361.75582886
 30
0.0
  0
VERTEX
  8
0
 10
260.01980591
 20
361.68173218
 30
0.0
  0
VERTEX
  8
0
 10
259.04516602
 20
361.56243896
 30
0.0
  0
VERTEX
  8
0
 10
257.91943359
 20
361.3036499
 30
0.0
  0
VERTEX
  8
0
 10
256.9914856
 20
360.99191284
 30
0.0
  0
VERTEX
  8
0
 10
255.8155365
 20
360.17166138
 30
0.0
  0
VERTEX
  8
0
 10
254.89369202
 20
359.0617981
 30
0.0
  0
VERTEX
  8
0
 10
254.09315491
 20
357.93011475
 30
0.0
  0
VERTEX
  8
0
 10
253.66444397
 20
357.19458008
 30
0.0
  0
VERTEX
  8
0
 10
252.93093872
 20
356.02856445
 30
0.0
  0
VERTEX
  8
0
 10
252.41577148
 20
355.32675171
 30
0.0
  0
VERTEX
  8
0
 10
251.80178833
 20
354.10195923
 30
0.0
  0
VERTEX
  8
0
 10
251.08078003
 20
352.9460144
 30
0.0
  0
VERTEX
  8
0
 10
250.69215393
 20
352.14660645
 30
0.0
  0
VERTEX
  8
0
 10
250.01293945
 20
350.98101807
 30
0.0
  0
VERTEX
  8
0
 10
249.58917236
 20
350.21459961
 30
0.0
  0
VERTEX
  8
0
 10
248.90042114
 20
349.04257202
 30
0.0
  0
VERTEX
  8
0
 10
248.35702515
 20
348.34573364
 30
0.0
  0
VERTEX
  8
0
 10
247.79544067
 20
347.09988403
 30
0.0
  0
VERTEX
  8
0
 10
247.07080078
 20
345.94650269
 30
0.0
  0
VERTEX
  8
0
 10
246.65661621
 20
345.1739502
 30
0.0
  0
VERTEX
  8
0
 10
245.96350098
 20
344.00765991
 30
0.0
  0
VERTEX
  8
0
 10
245.50149536
 20
343.26553345
 30
0.0
  0
VERTEX
  8
0
 10
244.86335754
 20
342.06216431
 30
0.0
  0
VERTEX
  8
0
 10
244.26930237
 20
341.4147644
 30
0.0
  0
VERTEX
  8
0
 10
243.7335968
 20
340.13442993
 30
0.0
  0
VERTEX
  8
0
 10
243.0226593
 20
338.97402954
 30
0.0
  0
VERTEX
  8
0
 10
242.58494568
 20
338.22720337
 30
0.0
  0
VERTEX
  8
0
 10
241.88566589
 20
337.05200195
 30
0.0
  0
VERTEX
  8
0
 10
241.30674744
 20
336.40036011
 30
0.0
  0
VERTEX
  8
0
 10
240.73538208
 20
335.13674927
 30
0.0
  0
VERTEX
  8
0
 10
240.03019714
 20
333.97033691
 30
0.0
  0
VERTEX
  8
0
 10
239.61297607
 20
333.19647217
 30
0.0
  0
VERTEX
  8
0
 10
238.93360901
 20
332.02322388
 30
0.0
  0
VERTEX
  8
0
 10
238.43188477
 20
331.31774902
 30
0.0
  0
VERTEX
  8
0
 10
237.80729675
 20
330.08981323
 30
0.0
  0
VERTEX
  8
0
 10
237.11737061
 20
328.92694092
 30
0.0
  0
VERTEX
  8
0
 10
236.73951721
 20
328.11798096
 30
0.0
  0
VERTEX
  8
0
 10
236.06803894
 20
326.95214844
 30
0.0
  0
VERTEX
  8
0
 10
235.6913147
 20
326.12316895
 30
0.0
  0
VERTEX
  8
0
 10
235.1190033
 20
324.94226074
 30
0.0
  0
VERTEX
  8
0
 10
234.90473938
 20
324.00576782
 30
0.0
  0
VERTEX
  8
0
 10
234.86444092
 20
322.97668457
 30
0.0
  0
VERTEX
  8
0
 10
235.02320862
 20
321.99786377
 30
0.0
  0
VERTEX
  8
0
 10
235.55714417
 20
320.77026367
 30
0.0
  0
VERTEX
  8
0
 10
235.99615479
 20
319.98834229
 30
0.0
  0
VERTEX
  8
0
 10
236.67593384
 20
318.81860352
 30
0.0
  0
VERTEX
  8
0
 10
237.07313538
 20
318.02944946
 30
0.0
  0
VERTEX
  8
0
 10
237.75915527
 20
316.86764526
 30
0.0
  0
VERTEX
  8
0
 10
238.13070679
 20
316.05679321
 30
0.0
  0
VERTEX
  8
0
 10
238.82647705
 20
314.89749146
 30
0.0
  0
VERTEX
  8
0
 10
239.41584778
 20
313.6696167
 30
0.0
  0
VERTEX
  8
0
 10
239.91146851
 20
312.94506836
 30
0.0
  0
VERTEX
  8
0
 10
240.56085205
 20
311.7416687
 30
0.0
  0
VERTEX
  8
0
 10
241.00366211
 20
310.99188232
 30
0.0
  0
VERTEX
  8
0
 10
241.72570801
 20
309.8336792
 30
0.0
  0
VERTEX
  8
0
 10
242.11445618
 20
309.05245972
 30
0.0
  0
VERTEX
  8
0
 10
242.82417297
 20
307.89627075
 30
0.0
  0
VERTEX
  8
0
 10
243.39718628
 20
306.66278076
 30
0.0
  0
VERTEX
  8
0
 10
243.911026
 20
305.9414978
 30
0.0
  0
VERTEX
  8
0
 10
244.57357788
 20
304.75244141
 30
0.0
  0
VERTEX
  8
0
 10
245.01062012
 20
303.99523926
 30
0.0
  0
VERTEX
  8
0
 10
245.72068787
 20
302.83493042
 30
0.0
  0
VERTEX
  8
0
 10
246.11851501
 20
302.05374146
 30
0.0
  0
VERTEX
  8
0
 10
246.84509277
 20
300.90292358
 30
0.0
  0
VERTEX
  8
0
 10
247.44255066
 20
299.68908691
 30
0.0
  0
VERTEX
  8
0
 10
247.92546082
 20
298.95108032
 30
0.0
  0
VERTEX
  8
0
 10
248.56585693
 20
297.7572937
 30
0.0
  0
VERTEX
  8
0
 10
249.00296021
 20
296.990448
 30
0.0
  0
VERTEX
  8
0
 10
249.70417786
 20
295.828125
 30
0.0
  0
VERTEX
  8
0
 10
250.0892334
 20
295.03427124
 30
0.0
  0
VERTEX
  8
0
 10
250.80558777
 20
293.87680054
 30
0.0
  0
VERTEX
  8
0
 10
251.4185791
 20
292.65997314
 30
0.0
  0
VERTEX
  8
0
 10
251.92456055
 20
291.94726563
 30
0.0
  0
VERTEX
  8
0
 10
252.58203125
 20
290.75640869
 30
0.0
  0
VERTEX
  8
0
 10
253.01805115
 20
289.99838257
 30
0.0
  0
VERTEX
  8
0
 10
253.73918152
 20
288.83868408
 30
0.0
  0
VERTEX
  8
0
 10
254.35368347
 20
287.5267334
 30
0.0
  0
VERTEX
  8
0
 10
254.94831848
 20
286.94976807
 30
0.0
  0
VERTEX
  8
0
 10
255.91282654
 20
285.88516235
 30
0.0
  0
VERTEX
  8
0
 10
257.07717896
 20
285.21237183
 30
0.0
  0
SEQEND
  0
POLYLINE
  8
0
 66
1
 10
0.0
 20
0.0
 30
0.0
 70
0
  0
VERTEX
  8
0
 10
275.04022217
 20
302.28186035
 30
0.0
  0
VERTEX
  8
0
 10
276.01742554
 20
302.15673828
 30
0.0
  0
VERTEX
  8
0
 10
277.00622559
 20
302.08544922
 30
0.0
  0
VERTEX
  8
0
 10
278.00109863
 20
302.06039429
 30
0.0
  0
VERTEX
  8
0
 10
278.9972229
 20
302.08056641
 30
0.0
  0
VERTEX
  8
0
 10
279.98721313
 20
302.14575195
 30
0.0
  0
VERTEX
  8
0
 10
280.96548462
 20
302.26382446
 30
0.0
  0
VERTEX
  8
0
 10
281.92398071
 20
302.4654541
 30
0.0
  0
VERTEX
  8
0
 10
283.05670166
 20
302.73699951
 30
0.0
  0
VERTEX
  8
0
 10
284.01470947
 20
302.94430542
 30
0.0
  0
VERTEX
  8
0
 10
284.93908691
 20
303.18704224
 30
0.0
  0
VERTEX
  8
0
 10
286.11386108
 20
303.74041748
 30
0.0
  0
VERTEX
  8
0
 10
286.96185303
 20
304.0814209
 30
0.0
  0
VERTEX
  8
0
 10
288.14379883
 20
304.72454834
 30
0.0
  0
VERTEX
  8
0
 10
289.4420166
 20
305.27975464
 30
0.0
  0
VERTEX
  8
0
 10
290.06756592
 20
305.89248657
 30
0.0
  0
VERTEX
  8
0
 10
291.21102905
 20
306.71209717
 30
0.0
  0
VERTEX
  8
0
 10
292.34655762
 20
307.62609863
 30
0.0
  0
VERTEX
  8
0
 10
293.37805176
 20
308.63772583
 30
0.0
  0
VERTEX
  8
0
 10
294.35546875
 20
309.70239258
 30
0.0
  0
VERTEX
  8
0
 10
295.22952271
 20
310.83358765
 30
0.0
  0
VERTEX
  8
0
 10
296.0357666
 20
311.97674561
 30
0.0
  0
VERTEX
  8
0
 10
296.75222778
 20
313.13116455
 30
0.0
  0
VERTEX
  8
0
 10
297.13427734
 20
313.93225098
 30
0.0
  0
VERTEX
  8
0
 10
297.73339844
 20
315.10977173
 30
0.0
  0
VERTEX
  8
0
 10
298.03607178
 20
315.98529053
 30
0.0
  0
VERTEX
  8
0
 10
298.30731201
 20
316.91595459
 30
0.0
  0
VERTEX
  8
0
 10
298.68530273
 20
318.06451416
 30
0.0
  0
VERTEX
  8
0
 10
298.88146973
 20
319.01712036
 30
0.0
  0
VERTEX
  8
0
 10
299.00402832
 20
319.99810791
 30
0.0
  0
VERTEX
  8
0
 10
299.09213257
 20
320.9921875
 30
0.0
  0
VERTEX
  8
0
 10
299.15682983
 20
321.98669434
 30
0.0
  0
VERTEX
  8
0
 10
299.19186401
 20
322.99371338
 30
0.0
  0
VERTEX
  8
0
 10
299.1781311
 20
324.01049805
 30
0.0
  0
VERTEX
  8
0
 10
299.11154175
 20
325.00741577
 30
0.0
  0
VERTEX
  8
0
 10
299.00369263
 20
325.99966431
 30
0.0
  0
VERTEX
  8
0
 10
298.85073853
 20
326.97058105
 30
0.0
  0
VERTEX
  8
0
 10
298.59616089
 20
327.9045105
 30
0.0
  0
VERTEX
  8
0
 10
298.23001099
 20
329.06408691
 30
0.0
  0
VERTEX
  8
0
 10
297.98809814
 20
329.99588013
 30
0.0
  0
VERTEX
  8
0
 10
297.64807129
 20
330.86276245
 30
0.0
  0
VERTEX
  8
0
 10
297.11859131
 20
332.05392456
 30
0.0
  0
VERTEX
  8
0
 10
296.74102783
 20
332.8664856
 30
0.0
  0
VERTEX
  8
0
 10
296.04608154
 20
334.02813721
 30
0.0
  0
VERTEX
  8
0
 10
295.53704834
 20
334.69104004
 30
0.0
  0
VERTEX
  8
0
 10
294.82144165
 20
335.86138916
 30
0.0
  0
VERTEX
  8
0
 10
293.92266846
 20
336.93328857
 30
0.0
  0
VERTEX
  8
0
 10
292.97546387
 20
337.97790527
 30
0.0
  0
VERTEX
  8
0
 10
291.96582031
 20
338.96444702
 30
0.0
  0
VERTEX
  8
0
 10
290.90188599
 20
339.87750244
 30
0.0
  0
VERTEX
  8
0
 10
289.78326416
 20
340.66925049
 30
0.0
  0
VERTEX
  8
0
 10
289.07092285
 20
341.12234497
 30
0.0
  0
VERTEX
  8
0
 10
287.91104126
 20
341.83502197
 30
0.0
  0
VERTEX
  8
0
 10
287.0819397
 20
342.18392944
 30
0.0
  0
VERTEX
  8
0
 10
285.89978027
 20
342.76876831
 30
0.0
  0
VERTEX
  8
0
 10
285.01855469
 20
343.0696106
 30
0.0
  0
VERTEX
  8
0
 10
284.09378052
 20
343.33734131
 30
0.0
  0
VERTEX
  8
0
 10
282.93429565
 20
343.72927856
 30
0.0
  0
VERTEX
  8
0
 10
281.98547363
 20
343.93338013
 30
0.0
  0
VERTEX
  8
0
 10
281.00384521
 20
344.06408691
 30
0.0
  0
VERTEX
  8
0
 10
280.01141357
 20
344.16320801
 30
0.0
  0
VERTEX
  8
0
 10
279.00692749
 20
344.23797607
 30
0.0
  0
VERTEX
  8
0
 10
278.00497437
 20
344.28720093
 30
0.0
  0
VERTEX
  8
0
 10
276.9928894
 20
344.29638672
 30
0.0
  0
VERTEX
  8
0
 10
275.97851563
 20
344.25408936
 30
0.0
  0
VERTEX
  8
0
 10
274.97589111
 20
344.17080688
 30
0.0
  0
VERTEX
  8
0
 10
273.98440552
 20
344.0579834
 30
0.0
  0
VERTEX
  8
0
 10
273.01049805
 20
343.91323853
 30
0.0
  0
VERTEX
  8
0
 10
272.06149292
 20
343.70977783
 30
0.0
  0
VERTEX
  8
0
 10
270.89746094
 20
343.31381226
 30
0.0
  0
VERTEX
  8
0
 10
269.98583984
 20
343.01779175
 30
0.0
  0
VERTEX
  8
0
 10
269.1317749
 20
342.67721558
 30
0.0
  0
VERTEX
  8
0
 10
267.95303345
 20
342.08621216
 30
0.0
  0
VERTEX
  8
0
 10
267.11975098
 20
341.73483276
 30
0.0
  0
VERTEX
  8
0
 10
265.95718384
 20
341.05776978
 30
0.0
  0
VERTEX
  8
0
 10
264.81158447
 20
340.23684692
 30
0.0
  0
VERTEX
  8
0
 10
263.69195557
 20
339.34399414
 30
0.0
  0
VERTEX
  8
0
 10
262.60501099
 20
338.39584351
 30
0.0
  0
VERTEX
  8
0
 10
261.61288452
 20
337.33569336
 30
0.0
  0
VERTEX
  8
0
 10
260.73751831
 20
336.17242432
 30
0.0
  0
VERTEX
  8
0
 10
259.94857788
 20
335.02185059
 30
0.0
  0
VERTEX
  8
0
 10
259.45053101
 20
334.31030273
 30
0.0
  0
VERTEX
  8
0
 10
258.84259033
 20
333.06951904
 30
0.0
  0
VERTEX
  8
0
 10
258.32925415
 20
332.29107666
 30
0.0
  0
VERTEX
  8
0
 10
257.91351318
 20
331.02325439
 30
0.0
  0
VERTEX
  8
0
 10
257.60360718
 20
330.12753296
 30
0.0
  0
VERTEX
  8
0
 10
257.17294312
 20
328.94421387
 30
0.0
  0
VERTEX
  8
0
 10
256.97409058
 20
327.99676514
 30
0.0
  0
VERTEX
  8
0
 10
256.80502319
 20
327.03033447
 30
0.0
  0
VERTEX
  8
0
 10
256.63842773
 20
326.0489502
 30
0.0
  0
VERTEX
  8
0
 10
256.48916626
 20
324.95181274
 30
0.0
  0
VERTEX
  8
0
 10
256.42675781
 20
323.9894104
 30
0.0
  0
VERTEX
  8
0
 10
256.43591309
 20
323.00686646
 30
0.0
  0
VERTEX
  8
0
 10
256.50460815
 20
322.02719116
 30
0.0
  0
VERTEX
  8
0
 10
256.61834717
 20
320.95321655
 30
0.0
  0
VERTEX
  8
0
 10
256.75747681
 20
319.95800781
 30
0.0
  0
VERTEX
  8
0
 10
256.91229248
 20
318.97515869
 30
0.0
  0
VERTEX
  8
0
 10
257.08758545
 20
318.01104736
 30
0.0
  0
VERTEX
  8
0
 10
257.33956909
 20
317.09317017
 30
0.0
  0
VERTEX
  8
0
 10
257.8163147
 20
315.92565918
 30
0.0
  0
VERTEX
  8
0
 10
258.12689209
 20
315.04650879
 30
0.0
  0
VERTEX
  8
0
 10
258.75408936
 20
313.87796021
 30
0.0
  0
VERTEX
  8
0
 10
259.10400391
 20
313.04797363
 30
0.0
  0
VERTEX
  8
0
 10
259.85339355
 20
311.89511108
 30
0.0
  0
VERTEX
  8
0
 10
260.66732788
 20
310.74304199
 30
0.0
  0
VERTEX
  8
0
 10
261.52624512
 20
309.58544922
 30
0.0
  0
VERTEX
  8
0
 10
262.48156738
 20
308.46551514
 30
0.0
  0
VERTEX
  8
0
 10
263.59509277
 20
307.52005005
 30
0.0
  0
VERTEX
  8
0
 10
264.75570679
 20
306.65563965
 30
0.0
  0
VERTEX
  8
0
 10
265.91760254
 20
305.86178589
 30
0.0
  0
VERTEX
  8
0
 10
267.04867554
 20
305.07128906
 30
0.0
  0
VERTEX
  8
0
 10
267.81552124
 20
304.65539551
 30
0.0
  0
VERTEX
  8
0
 10
269.01028442
 20
304.01480103
 30
0.0
  0
VERTEX
  8
0
 10
269.87463379
 20
303.67416382
 30
0.0
  0
VERTEX
  8
0
 10
271.04968262
 20
303.13150024
 30
0.0
  0
VERTEX
  8
0
 10
271.97833252
 20
302.89901733
 30
0.0
  0
VERTEX
  8
0
 10
272.95794678
 20
302.70825195
 30
0.0
  0
VERTEX
  8
0
 10
273.93353271
 20
302.50430298
 30
0.0
  0
VERTEX
  8
0
 10
275.04022217
 20
302.28186035
 30
0.0
  0
SEQEND
  0
ENDSEC
  0
SECTION
  2
OBJECTS
  0
ENDSEC
  0
EOF
