999
DXF file created by HALCON
  0
SECTION
  2
HEADER
  9
$ACADVER
  1
AC1009
  0
ENDSEC
  0
SECTION
  2
TABLES
  0
TABLE
  2
LTYPE
 70
1
  0
LTYPE
  2
CONTINUOUS
 70
0
  3
Solid line
 72
65
 73
0
 40
0
  0
ENDTAB
  0
TABLE
  2
LAYER
 70
1
  0
LAYER
  2
0
 70
0
 62
7
  6
CONTINUOUS
  0
ENDTAB
  0
TABLE
  2
APPID
 70
2
  0
APPID
  2
ACAD
 70
64
  0
APPID
  2
HALCON
 70
64
  0
ENDTAB
  0
ENDSEC
  0
SECTION
  2
BLOCKS
  0
ENDSEC
  0
SECTION
  2
ENTITIES
  0
POLYLINE
  8
0
 66
1
 10
0.0
 20
0.0
 30
0.0
 70
0
  0
VERTEX
  8
0
 10
57.13171768
 20
307.57666016
 30
0.0
  0
VERTEX
  8
0
 10
57.73530197
 20
306.52520752
 30
0.0
  0
VERTEX
  8
0
 10
58.48820496
 20
305.51324463
 30
0.0
  0
VERTEX
  8
0
 10
59.33689499
 20
304.54165649
 30
0.0
  0
VERTEX
  8
0
 10
60.23990631
 20
303.61688232
 30
0.0
  0
VERTEX
  8
0
 10
61.16269302
 20
302.73834229
 30
0.0
  0
VERTEX
  8
0
 10
62.08486938
 20
301.87481689
 30
0.0
  0
VERTEX
  8
0
 10
63.01081467
 20
301.00286865
 30
0.0
  0
VERTEX
  8
0
 10
63.93346786
 20
300.12774658
 30
0.0
  0
VERTEX
  8
0
 10
64.85160065
 20
299.25341797
 30
0.0
  0
VERTEX
  8
0
 10
65.76053619
 20
298.37512207
 30
0.0
  0
VERTEX
  8
0
 10
66.66821289
 20
297.48754883
 30
0.0
  0
VERTEX
  8
0
 10
67.58524323
 20
296.59466553
 30
0.0
  0
VERTEX
  8
0
 10
68.50042725
 20
295.71749878
 30
0.0
  0
VERTEX
  8
0
 10
69.41146088
 20
294.84475708
 30
0.0
  0
VERTEX
  8
0
 10
70.32918549
 20
293.96429443
 30
0.0
  0
VERTEX
  8
0
 10
71.25193024
 20
293.08050537
 30
0.0
  0
VERTEX
  8
0
 10
72.17444611
 20
292.20812988
 30
0.0
  0
VERTEX
  8
0
 10
73.10149384
 20
291.34060669
 30
0.0
  0
VERTEX
  8
0
 10
74.02477264
 20
290.47167969
 30
0.0
  0
VERTEX
  8
0
 10
74.93399048
 20
289.59555054
 30
0.0
  0
VERTEX
  8
0
 10
75.83822632
 20
288.70709229
 30
0.0
  0
VERTEX
  8
0
 10
76.74682617
 20
287.81491089
 30
0.0
  0
VERTEX
  8
0
 10
77.6734848
 20
286.9329834
 30
0.0
  0
VERTEX
  8
0
 10
78.59602356
 20
286.06079102
 30
0.0
  0
VERTEX
  8
0
 10
79.50675201
 20
285.18914795
 30
0.0
  0
VERTEX
  8
0
 10
80.41576385
 20
284.30535889
 30
0.0
  0
VERTEX
  8
0
 10
81.33812714
 20
283.41931152
 30
0.0
  0
VERTEX
  8
0
 10
82.25627899
 20
282.54498291
 30
0.0
  0
VERTEX
  8
0
 10
83.17028809
 20
281.66891479
 30
0.0
  0
VERTEX
  8
0
 10
84.07878876
 20
280.78463745
 30
0.0
  0
VERTEX
  8
0
 10
84.98603821
 20
279.89929199
 30
0.0
  0
VERTEX
  8
0
 10
85.89338684
 20
279.01123047
 30
0.0
  0
VERTEX
  8
0
 10
86.80403137
 20
278.12057495
 30
0.0
  0
VERTEX
  8
0
 10
87.71278381
 20
277.23074341
 30
0.0
  0
VERTEX
  8
0
 10
88.61650848
 20
276.34188843
 30
0.0
  0
VERTEX
  8
0
 10
89.53024292
 20
275.45703125
 30
0.0
  0
VERTEX
  8
0
 10
90.4598999
 20
274.57901001
 30
0.0
  0
VERTEX
  8
0
 10
91.40396118
 20
273.72729492
 30
0.0
  0
VERTEX
  8
0
 10
92.36126709
 20
272.88598633
 30
0.0
  0
VERTEX
  8
0
 10
93.34305573
 20
272.06201172
 30
0.0
  0
VERTEX
  8
0
 10
94.34549713
 20
271.28005981
 30
0.0
  0
VERTEX
  8
0
 10
95.38882446
 20
270.60385132
 30
0.0
  0
VERTEX
  8
0
 10
97.01255798
 20
270.02960205
 30
0.0
  0
VERTEX
  8
0
 10
98.91647339
 20
269.85415649
 30
0.0
  0
VERTEX
  8
0
 10
100.7883606
 20
270.09356689
 30
0.0
  0
VERTEX
  8
0
 10
102.54885101
 20
270.48449707
 30
0.0
  0
VERTEX
  8
0
 10
104.25291443
 20
270.86291504
 30
0.0
  0
VERTEX
  8
0
 10
105.91368866
 20
271.36450195
 30
0.0
  0
VERTEX
  8
0
 10
106.97859192
 20
271.62463379
 30
0.0
  0
VERTEX
  8
0
 10
108.66400146
 20
272.03753662
 30
0.0
  0
VERTEX
  8
0
 10
109.70934296
 20
272.39111328
 30
0.0
  0
VERTEX
  8
0
 10
111.38639069
 20
272.81658936
 30
0.0
  0
VERTEX
  8
0
 10
113.01237488
 20
273.39614868
 30
0.0
  0
VERTEX
  8
0
 10
114.09675598
 20
273.64477539
 30
0.0
  0
VERTEX
  8
0
 10
115.7509613
 20
274.1418457
 30
0.0
  0
VERTEX
  8
0
 10
116.81285095
 20
274.46878052
 30
0.0
  0
VERTEX
  8
0
 10
118.48706055
 20
274.90216064
 30
0.0
  0
VERTEX
  8
0
 10
119.53298187
 20
275.27862549
 30
0.0
  0
VERTEX
  8
0
 10
121.21595764
 20
275.69296265
 30
0.0
  0
VERTEX
  8
0
 10
122.84113312
 20
276.23266602
 30
0.0
  0
VERTEX
  8
0
 10
123.93099213
 20
276.49703979
 30
0.0
  0
VERTEX
  8
0
 10
125.59729004
 20
276.9710083
 30
0.0
  0
VERTEX
  8
0
 10
126.64672089
 20
277.32299805
 30
0.0
  0
VERTEX
  8
0
 10
128.31771851
 20
277.76678467
 30
0.0
  0
VERTEX
  8
0
 10
129.934021
 20
278.39715576
 30
0.0
  0
VERTEX
  8
0
 10
131.03425598
 20
278.55587769
 30
0.0
  0
VERTEX
  8
0
 10
132.66621399
 20
279.13208008
 30
0.0
  0
VERTEX
  8
0
 10
133.74475098
 20
279.40435791
 30
0.0
  0
VERTEX
  8
0
 10
135.38851929
 20
279.9246521
 30
0.0
  0
VERTEX
  8
0
 10
136.45539856
 20
280.24215698
 30
0.0
  0
VERTEX
  8
0
 10
138.15116882
 20
280.63796997
 30
0.0
  0
VERTEX
  8
0
 10
139.770401
 20
281.18896484
 30
0.0
  0
VERTEX
  8
0
 10
140.86799622
 20
281.40371704
 30
0.0
  0
VERTEX
  8
0
 10
142.49224854
 20
281.97088623
 30
0.0
  0
VERTEX
  8
0
 10
143.55851746
 20
282.31201172
 30
0.0
  0
VERTEX
  8
0
 10
145.16134644
 20
282.88696289
 30
0.0
  0
VERTEX
  8
0
 10
146.24282837
 20
283.23562622
 30
0.0
  0
VERTEX
  8
0
 10
147.32312012
 20
283.64898682
 30
0.0
  0
VERTEX
  8
0
 10
148.80450439
 20
284.35852051
 30
0.0
  0
VERTEX
  8
0
 10
149.73329163
 20
285.14028931
 30
0.0
  0
VERTEX
  8
0
 10
150.536026
 20
286.07443237
 30
0.0
  0
VERTEX
  8
0
 10
151.14065552
 20
287.09350586
 30
0.0
  0
VERTEX
  8
0
 10
151.69876099
 20
288.62335205
 30
0.0
  0
VERTEX
  8
0
 10
152.14492798
 20
289.69430542
 30
0.0
  0
VERTEX
  8
0
 10
152.56419373
 20
291.3427124
 30
0.0
  0
VERTEX
  8
0
 10
152.95419312
 20
292.40560913
 30
0.0
  0
VERTEX
  8
0
 10
153.3560791
 20
294.07211304
 30
0.0
  0
VERTEX
  8
0
 10
153.71174622
 20
295.12515259
 30
0.0
  0
VERTEX
  8
0
 10
154.06053162
 20
296.82000732
 30
0.0
  0
VERTEX
  8
0
 10
154.33293152
 20
297.8873291
 30
0.0
  0
VERTEX
  8
0
 10
154.70030212
 20
299.58578491
 30
0.0
  0
VERTEX
  8
0
 10
154.76637268
 20
300.69619751
 30
0.0
  0
VERTEX
  8
0
 10
155.30967712
 20
302.35598755
 30
0.0
  0
VERTEX
  8
0
 10
155.70352173
 20
304.0401001
 30
0.0
  0
VERTEX
  8
0
 10
156.0433197
 20
305.12387085
 30
0.0
  0
VERTEX
  8
0
 10
156.48635864
 20
306.76800537
 30
0.0
  0
VERTEX
  8
0
 10
156.74755859
 20
307.86621094
 30
0.0
  0
VERTEX
  8
0
 10
157.20147705
 20
309.51467896
 30
0.0
  0
VERTEX
  8
0
 10
157.2518158
 20
310.62515259
 30
0.0
  0
VERTEX
  8
0
 10
157.86941528
 20
312.26504517
 30
0.0
  0
VERTEX
  8
0
 10
158.23088074
 20
313.95947266
 30
0.0
  0
VERTEX
  8
0
 10
158.46794128
 20
315.02822876
 30
0.0
  0
VERTEX
  8
0
 10
158.90107727
 20
316.71710205
 30
0.0
  0
VERTEX
  8
0
 10
159.03617859
 20
317.8338623
 30
0.0
  0
VERTEX
  8
0
 10
159.61286926
 20
319.46157837
 30
0.0
  0
VERTEX
  8
0
 10
159.97129822
 20
321.15228271
 30
0.0
  0
VERTEX
  8
0
 10
160.28413391
 20
322.21490479
 30
0.0
  0
VERTEX
  8
0
 10
160.66181946
 20
323.90426636
 30
0.0
  0
VERTEX
  8
0
 10
160.88444519
 20
324.98599243
 30
0.0
  0
VERTEX
  8
0
 10
161.35043335
 20
326.65396118
 30
0.0
  0
VERTEX
  8
0
 10
161.38568115
 20
327.81573486
 30
0.0
  0
VERTEX
  8
0
 10
162.0027771
 20
329.40673828
 30
0.0
  0
VERTEX
  8
0
 10
162.34680176
 20
331.11218262
 30
0.0
  0
VERTEX
  8
0
 10
162.54077148
 20
332.1812439
 30
0.0
  0
VERTEX
  8
0
 10
162.97351074
 20
333.87460327
 30
0.0
  0
VERTEX
  8
0
 10
163.24356079
 20
335.60400391
 30
0.0
  0
VERTEX
  8
0
 10
163.3510437
 20
336.57958984
 30
0.0
  0
VERTEX
  8
0
 10
163.16574097
 20
338.2069397
 30
0.0
  0
VERTEX
  8
0
 10
162.95768738
 20
339.15100098
 30
0.0
  0
VERTEX
  8
0
 10
162.38064575
 20
340.21414185
 30
0.0
  0
VERTEX
  8
0
 10
161.67607117
 20
341.28833008
 30
0.0
  0
VERTEX
  8
0
 10
160.83172607
 20
342.41195679
 30
0.0
  0
VERTEX
  8
0
 10
160.00982666
 20
343.3527832
 30
0.0
  0
VERTEX
  8
0
 10
159.14518738
 20
344.27087402
 30
0.0
  0
VERTEX
  8
0
 10
158.25141907
 20
345.17233276
 30
0.0
  0
VERTEX
  8
0
 10
157.35240173
 20
346.07077026
 30
0.0
  0
VERTEX
  8
0
 10
156.46075439
 20
346.97592163
 30
0.0
  0
VERTEX
  8
0
 10
155.57835388
 20
347.88803101
 30
0.0
  0
VERTEX
  8
0
 10
154.69470215
 20
348.79904175
 30
0.0
  0
VERTEX
  8
0
 10
153.8044281
 20
349.70367432
 30
0.0
  0
VERTEX
  8
0
 10
152.90412903
 20
350.5960083
 30
0.0
  0
VERTEX
  8
0
 10
151.99502563
 20
351.48077393
 30
0.0
  0
VERTEX
  8
0
 10
151.07826233
 20
352.35928345
 30
0.0
  0
VERTEX
  8
0
 10
150.16368103
 20
353.23925781
 30
0.0
  0
VERTEX
  8
0
 10
149.25038147
 20
354.12060547
 30
0.0
  0
VERTEX
  8
0
 10
148.33616638
 20
355.00106812
 30
0.0
  0
VERTEX
  8
0
 10
147.41471863
 20
355.87457275
 30
0.0
  0
VERTEX
  8
0
 10
146.49102783
 20
356.74743652
 30
0.0
  0
VERTEX
  8
0
 10
145.56977844
 20
357.62219238
 30
0.0
  0
VERTEX
  8
0
 10
144.6555481
 20
358.50054932
 30
0.0
  0
VERTEX
  8
0
 10
143.73899841
 20
359.38018799
 30
0.0
  0
VERTEX
  8
0
 10
142.82180786
 20
360.25823975
 30
0.0
  0
VERTEX
  8
0
 10
141.9030304
 20
361.13262939
 30
0.0
  0
VERTEX
  8
0
 10
140.9793396
 20
362.00262451
 30
0.0
  0
VERTEX
  8
0
 10
140.04995728
 20
362.86859131
 30
0.0
  0
VERTEX
  8
0
 10
139.12129211
 20
363.73831177
 30
0.0
  0
VERTEX
  8
0
 10
138.20367432
 20
364.61724854
 30
0.0
  0
VERTEX
  8
0
 10
137.29368591
 20
365.50146484
 30
0.0
  0
VERTEX
  8
0
 10
136.38243103
 20
366.38568115
 30
0.0
  0
VERTEX
  8
0
 10
135.46862793
 20
367.26968384
 30
0.0
  0
VERTEX
  8
0
 10
134.55654907
 20
368.15301514
 30
0.0
  0
VERTEX
  8
0
 10
133.64968872
 20
369.03723145
 30
0.0
  0
VERTEX
  8
0
 10
132.73667908
 20
369.92184448
 30
0.0
  0
VERTEX
  8
0
 10
131.81959534
 20
370.79785156
 30
0.0
  0
VERTEX
  8
0
 10
130.89271545
 20
371.66314697
 30
0.0
  0
VERTEX
  8
0
 10
129.95706177
 20
372.51959229
 30
0.0
  0
VERTEX
  8
0
 10
129.01483154
 20
373.36459351
 30
0.0
  0
VERTEX
  8
0
 10
128.06446838
 20
374.19577026
 30
0.0
  0
VERTEX
  8
0
 10
127.09720612
 20
374.99475098
 30
0.0
  0
VERTEX
  8
0
 10
126.10002136
 20
375.74295044
 30
0.0
  0
VERTEX
  8
0
 10
124.84175873
 20
376.49636841
 30
0.0
  0
VERTEX
  8
0
 10
123.71798706
 20
377.02728271
 30
0.0
  0
VERTEX
  8
0
 10
121.91985321
 20
377.31088257
 30
0.0
  0
VERTEX
  8
0
 10
120.09954071
 20
377.10577393
 30
0.0
  0
VERTEX
  8
0
 10
118.37108612
 20
376.77398682
 30
0.0
  0
VERTEX
  8
0
 10
117.33154297
 20
376.47772217
 30
0.0
  0
VERTEX
  8
0
 10
115.63424683
 20
376.05554199
 30
0.0
  0
VERTEX
  8
0
 10
114.54524231
 20
375.86627197
 30
0.0
  0
VERTEX
  8
0
 10
112.90567017
 20
375.28509521
 30
0.0
  0
VERTEX
  8
0
 10
111.2286911
 20
374.86114502
 30
0.0
  0
VERTEX
  8
0
 10
110.16964722
 20
374.47119141
 30
0.0
  0
VERTEX
  8
0
 10
108.52246094
 20
374.00161743
 30
0.0
  0
VERTEX
  8
0
 10
107.46026611
 20
373.67276001
 30
0.0
  0
VERTEX
  8
0
 10
105.79865265
 20
373.20568848
 30
0.0
  0
VERTEX
  8
0
 10
104.68815613
 20
373.04577637
 30
0.0
  0
VERTEX
  8
0
 10
103.07803345
 20
372.39926147
 30
0.0
  0
VERTEX
  8
0
 10
101.39998627
 20
371.98080444
 30
0.0
  0
VERTEX
  8
0
 10
100.34119415
 20
371.63793945
 30
0.0
  0
VERTEX
  8
0
 10
98.6806488
 20
371.17996216
 30
0.0
  0
VERTEX
  8
0
 10
97.60482025
 20
370.90698242
 30
0.0
  0
VERTEX
  8
0
 10
95.96199036
 20
370.36669922
 30
0.0
  0
VERTEX
  8
0
 10
94.84860229
 20
370.29663086
 30
0.0
  0
VERTEX
  8
0
 10
93.23182678
 20
369.59576416
 30
0.0
  0
VERTEX
  8
0
 10
91.56015015
 20
369.15884399
 30
0.0
  0
VERTEX
  8
0
 10
90.50242615
 20
368.86016846
 30
0.0
  0
VERTEX
  8
0
 10
88.82839966
 20
368.3994751
 30
0.0
  0
VERTEX
  8
0
 10
87.72514343
 20
368.31219482
 30
0.0
  0
VERTEX
  8
0
 10
86.09046173
 20
367.65802002
 30
0.0
  0
VERTEX
  8
0
 10
84.41875458
 20
367.21054077
 30
0.0
  0
VERTEX
  8
0
 10
83.35600281
 20
366.86911011
 30
0.0
  0
VERTEX
  8
0
 10
81.70192719
 20
366.3927002
 30
0.0
  0
VERTEX
  8
0
 10
80.62198639
 20
366.1882019
 30
0.0
  0
VERTEX
  8
0
 10
78.96992493
 20
365.61349487
 30
0.0
  0
VERTEX
  8
0
 10
77.31531525
 20
365.15585327
 30
0.0
  0
VERTEX
  8
0
 10
76.25774384
 20
364.74768066
 30
0.0
  0
VERTEX
  8
0
 10
74.61740112
 20
364.27105713
 30
0.0
  0
VERTEX
  8
0
 10
73.54325867
 20
363.84356689
 30
0.0
  0
VERTEX
  8
0
 10
71.98044586
 20
363.26593018
 30
0.0
  0
VERTEX
  8
0
 10
70.96042633
 20
362.59707642
 30
0.0
  0
VERTEX
  8
0
 10
70.01824188
 20
361.69039917
 30
0.0
  0
VERTEX
  8
0
 10
69.30249786
 20
360.65466309
 30
0.0
  0
VERTEX
  8
0
 10
68.71136475
 20
359.06109619
 30
0.0
  0
VERTEX
  8
0
 10
68.42538452
 20
357.95901489
 30
0.0
  0
VERTEX
  8
0
 10
68.01869202
 20
356.29013062
 30
0.0
  0
VERTEX
  8
0
 10
67.68808746
 20
355.2182312
 30
0.0
  0
VERTEX
  8
0
 10
67.29406738
 20
353.55111694
 30
0.0
  0
VERTEX
  8
0
 10
66.9209137
 20
352.48193359
 30
0.0
  0
VERTEX
  8
0
 10
66.53800201
 20
350.8085022
 30
0.0
  0
VERTEX
  8
0
 10
65.99739075
 20
349.16595459
 30
0.0
  0
VERTEX
  8
0
 10
65.8137207
 20
348.06661987
 30
0.0
  0
VERTEX
  8
0
 10
65.3495636
 20
346.39364624
 30
0.0
  0
VERTEX
  8
0
 10
65.09536743
 20
345.31768799
 30
0.0
  0
VERTEX
  8
0
 10
64.73749542
 20
343.62216187
 30
0.0
  0
VERTEX
  8
0
 10
64.40612793
 20
342.56500244
 30
0.0
  0
VERTEX
  8
0
 10
64.03874969
 20
340.88217163
 30
0.0
  0
VERTEX
  8
0
 10
63.47820282
 20
339.24880981
 30
0.0
  0
VERTEX
  8
0
 10
63.31409836
 20
338.13644409
 30
0.0
  0
VERTEX
  8
0
 10
62.87461853
 20
336.46502686
 30
0.0
  0
VERTEX
  8
0
 10
62.60860443
 20
335.38735962
 30
0.0
  0
VERTEX
  8
0
 10
62.23791504
 20
333.70043945
 30
0.0
  0
VERTEX
  8
0
 10
61.9148674
 20
332.63528442
 30
0.0
  0
VERTEX
  8
0
 10
61.56764984
 20
330.9425354
 30
0.0
  0
VERTEX
  8
0
 10
61.04678345
 20
329.30569458
 30
0.0
  0
VERTEX
  8
0
 10
60.83963776
 20
328.20523071
 30
0.0
  0
VERTEX
  8
0
 10
60.37573242
 20
326.54898071
 30
0.0
  0
VERTEX
  8
0
 10
60.10129166
 20
325.46240234
 30
0.0
  0
VERTEX
  8
0
 10
59.72071075
 20
323.78143311
 30
0.0
  0
VERTEX
  8
0
 10
59.37485886
 20
322.71591187
 30
0.0
  0
VERTEX
  8
0
 10
59.01243973
 20
321.02609253
 30
0.0
  0
VERTEX
  8
0
 10
58.50315094
 20
319.37283325
 30
0.0
  0
VERTEX
  8
0
 10
58.33937454
 20
318.27523804
 30
0.0
  0
VERTEX
  8
0
 10
57.89368057
 20
316.60662842
 30
0.0
  0
VERTEX
  8
0
 10
57.62599945
 20
315.52908325
 30
0.0
  0
VERTEX
  8
0
 10
57.26596832
 20
313.83300781
 30
0.0
  0
VERTEX
  8
0
 10
56.67439651
 20
312.09133911
 30
0.0
  0
VERTEX
  8
0
 10
56.71121216
 20
311.04003906
 30
0.0
  0
VERTEX
  8
0
 10
56.65764236
 20
309.21691895
 30
0.0
  0
VERTEX
  8
0
 10
57.13171768
 20
307.57666016
 30
0.0
  0
SEQEND
  0
POLYLINE
  8
0
 66
1
 10
0.0
 20
0.0
 30
0.0
 70
0
  0
VERTEX
  8
0
 10
88.59303284
 20
307.40112305
 30
0.0
  0
VERTEX
  8
0
 10
89.37756348
 20
306.42694092
 30
0.0
  0
VERTEX
  8
0
 10
90.2201004
 20
305.49179077
 30
0.0
  0
VERTEX
  8
0
 10
91.10884857
 20
304.59365845
 30
0.0
  0
VERTEX
  8
0
 10
92.03855133
 20
303.73577881
 30
0.0
  0
VERTEX
  8
0
 10
93.00219727
 20
302.92456055
 30
0.0
  0
VERTEX
  8
0
 10
94.00166321
 20
302.17208862
 30
0.0
  0
VERTEX
  8
0
 10
95.05654907
 20
301.51342773
 30
0.0
  0
VERTEX
  8
0
 10
96.33241272
 20
300.76559448
 30
0.0
  0
VERTEX
  8
0
 10
97.39185333
 20
300.11257935
 30
0.0
  0
VERTEX
  8
0
 10
98.4516449
 20
299.52160645
 30
0.0
  0
VERTEX
  8
0
 10
100.01394653
 20
298.99475098
 30
0.0
  0
VERTEX
  8
0
 10
101.09025574
 20
298.56091309
 30
0.0
  0
VERTEX
  8
0
 10
102.73809052
 20
298.10995483
 30
0.0
  0
VERTEX
  8
0
 10
104.4150238
 20
297.47616577
 30
0.0
  0
VERTEX
  8
0
 10
105.52672577
 20
297.48681641
 30
0.0
  0
VERTEX
  8
0
 10
107.29457092
 20
297.23120117
 30
0.0
  0
VERTEX
  8
0
 10
109.13821411
 20
297.06900024
 30
0.0
  0
VERTEX
  8
0
 10
110.97248077
 20
297.08770752
 30
0.0
  0
VERTEX
  8
0
 10
112.80388641
 20
297.20254517
 30
0.0
  0
VERTEX
  8
0
 10
114.59919739
 20
297.46923828
 30
0.0
  0
VERTEX
  8
0
 10
116.34297943
 20
297.80648804
 30
0.0
  0
VERTEX
  8
0
 10
118.0144577
 20
298.23309326
 30
0.0
  0
VERTEX
  8
0
 10
119.06893158
 20
298.63037109
 30
0.0
  0
VERTEX
  8
0
 10
120.65331268
 20
299.18130493
 30
0.0
  0
VERTEX
  8
0
 10
121.70061493
 20
299.71658325
 30
0.0
  0
VERTEX
  8
0
 10
122.76766968
 20
300.32998657
 30
0.0
  0
VERTEX
  8
0
 10
124.12413025
 20
301.04891968
 30
0.0
  0
VERTEX
  8
0
 10
125.14174652
 20
301.74847412
 30
0.0
  0
VERTEX
  8
0
 10
126.1169281
 20
302.53872681
 30
0.0
  0
VERTEX
  8
0
 10
127.07209015
 20
303.37127686
 30
0.0
  0
VERTEX
  8
0
 10
128.00622559
 20
304.22485352
 30
0.0
  0
VERTEX
  8
0
 10
128.92417908
 20
305.11593628
 30
0.0
  0
VERTEX
  8
0
 10
129.80609131
 20
306.05886841
 30
0.0
  0
VERTEX
  8
0
 10
130.62213135
 20
307.03012085
 30
0.0
  0
VERTEX
  8
0
 10
131.39630127
 20
308.03338623
 30
0.0
  0
VERTEX
  8
0
 10
132.1104126
 20
309.05679321
 30
0.0
  0
VERTEX
  8
0
 10
132.69894409
 20
310.13577271
 30
0.0
  0
VERTEX
  8
0
 10
133.38386536
 20
311.5194397
 30
0.0
  0
VERTEX
  8
0
 10
133.98208618
 20
312.58529663
 30
0.0
  0
VERTEX
  8
0
 10
134.43341064
 20
313.67803955
 30
0.0
  0
VERTEX
  8
0
 10
134.99656677
 20
315.23434448
 30
0.0
  0
VERTEX
  8
0
 10
135.36573792
 20
316.31036377
 30
0.0
  0
VERTEX
  8
0
 10
135.75146484
 20
317.98519897
 30
0.0
  0
VERTEX
  8
0
 10
135.86859131
 20
319.03988647
 30
0.0
  0
VERTEX
  8
0
 10
136.24305725
 20
320.74090576
 30
0.0
  0
VERTEX
  8
0
 10
136.36322021
 20
322.5128479
 30
0.0
  0
VERTEX
  8
0
 10
136.41503906
 20
324.30245972
 30
0.0
  0
VERTEX
  8
0
 10
136.35856628
 20
326.09384155
 30
0.0
  0
VERTEX
  8
0
 10
136.18782043
 20
327.86566162
 30
0.0
  0
VERTEX
  8
0
 10
135.86022949
 20
329.57461548
 30
0.0
  0
VERTEX
  8
0
 10
135.60668945
 20
330.61608887
 30
0.0
  0
VERTEX
  8
0
 10
135.17178345
 20
332.28887939
 30
0.0
  0
VERTEX
  8
0
 10
134.71969604
 20
333.337677
 30
0.0
  0
VERTEX
  8
0
 10
134.15194702
 20
334.91305542
 30
0.0
  0
VERTEX
  8
0
 10
133.60983276
 20
335.9637146
 30
0.0
  0
VERTEX
  8
0
 10
132.99874878
 20
337.02233887
 30
0.0
  0
VERTEX
  8
0
 10
132.28204346
 20
338.40118408
 30
0.0
  0
VERTEX
  8
0
 10
131.5929718
 20
339.42272949
 30
0.0
  0
VERTEX
  8
0
 10
130.80926514
 20
340.40594482
 30
0.0
  0
VERTEX
  8
0
 10
129.98794556
 20
341.36975098
 30
0.0
  0
VERTEX
  8
0
 10
129.13409424
 20
342.3218689
 30
0.0
  0
VERTEX
  8
0
 10
128.26011658
 20
343.24835205
 30
0.0
  0
VERTEX
  8
0
 10
127.34165192
 20
344.14712524
 30
0.0
  0
VERTEX
  8
0
 10
126.37580109
 20
345.00076294
 30
0.0
  0
VERTEX
  8
0
 10
125.38465881
 20
345.80654907
 30
0.0
  0
VERTEX
  8
0
 10
124.37772369
 20
346.57550049
 30
0.0
  0
VERTEX
  8
0
 10
123.35879517
 20
347.29974365
 30
0.0
  0
VERTEX
  8
0
 10
122.31098175
 20
347.94836426
 30
0.0
  0
VERTEX
  8
0
 10
120.89699554
 20
348.60986328
 30
0.0
  0
VERTEX
  8
0
 10
119.80200195
 20
349.14083862
 30
0.0
  0
VERTEX
  8
0
 10
118.7204895
 20
349.5803833
 30
0.0
  0
VERTEX
  8
0
 10
117.12145996
 20
350.07629395
 30
0.0
  0
VERTEX
  8
0
 10
116.04948425
 20
350.48764038
 30
0.0
  0
VERTEX
  8
0
 10
114.38954163
 20
350.89053345
 30
0.0
  0
VERTEX
  8
0
 10
112.61859131
 20
351.14678955
 30
0.0
  0
VERTEX
  8
0
 10
110.80808258
 20
351.31436157
 30
0.0
  0
VERTEX
  8
0
 10
108.97890472
 20
351.40255737
 30
0.0
  0
VERTEX
  8
0
 10
107.13800049
 20
351.30480957
 30
0.0
  0
VERTEX
  8
0
 10
105.31325531
 20
351.0098877
 30
0.0
  0
VERTEX
  8
0
 10
103.57880402
 20
350.65060425
 30
0.0
  0
VERTEX
  8
0
 10
102.49688721
 20
350.43734741
 30
0.0
  0
VERTEX
  8
0
 10
100.84880066
 20
349.83624268
 30
0.0
  0
VERTEX
  8
0
 10
99.69404602
 20
349.57519531
 30
0.0
  0
VERTEX
  8
0
 10
98.19809723
 20
348.78027344
 30
0.0
  0
VERTEX
  8
0
 10
97.12638092
 20
348.23284912
 30
0.0
  0
VERTEX
  8
0
 10
95.69114685
 20
347.52841187
 30
0.0
  0
VERTEX
  8
0
 10
94.67560577
 20
346.8359375
 30
0.0
  0
VERTEX
  8
0
 10
93.67061615
 20
346.09991455
 30
0.0
  0
VERTEX
  8
0
 10
92.65478516
 20
345.34802246
 30
0.0
  0
VERTEX
  8
0
 10
91.55298615
 20
344.47491455
 30
0.0
  0
VERTEX
  8
0
 10
90.64916992
 20
343.64877319
 30
0.0
  0
VERTEX
  8
0
 10
89.79319763
 20
342.74121094
 30
0.0
  0
VERTEX
  8
0
 10
88.9942627
 20
341.78387451
 30
0.0
  0
VERTEX
  8
0
 10
88.15356445
 20
340.70062256
 30
0.0
  0
VERTEX
  8
0
 10
87.40544891
 20
339.66711426
 30
0.0
  0
VERTEX
  8
0
 10
86.68257141
 20
338.63113403
 30
0.0
  0
VERTEX
  8
0
 10
85.99488068
 20
337.59429932
 30
0.0
  0
VERTEX
  8
0
 10
85.41809845
 20
336.53234863
 30
0.0
  0
VERTEX
  8
0
 10
84.82748413
 20
335.04406738
 30
0.0
  0
VERTEX
  8
0
 10
84.33837891
 20
333.96600342
 30
0.0
  0
VERTEX
  8
0
 10
83.88459778
 20
332.3444519
 30
0.0
  0
VERTEX
  8
0
 10
83.47478485
 20
331.27679443
 30
0.0
  0
VERTEX
  8
0
 10
83.14664459
 20
329.56210327
 30
0.0
  0
VERTEX
  8
0
 10
82.8782959
 20
327.79138184
 30
0.0
  0
VERTEX
  8
0
 10
82.64624786
 20
325.97601318
 30
0.0
  0
VERTEX
  8
0
 10
82.53561401
 20
324.11029053
 30
0.0
  0
VERTEX
  8
0
 10
82.72328949
 20
322.26516724
 30
0.0
  0
VERTEX
  8
0
 10
83.025383
 20
320.45278931
 30
0.0
  0
VERTEX
  8
0
 10
83.39070892
 20
318.70385742
 30
0.0
  0
VERTEX
  8
0
 10
83.73078156
 20
316.98516846
 30
0.0
  0
VERTEX
  8
0
 10
84.06695557
 20
315.92977905
 30
0.0
  0
VERTEX
  8
0
 10
84.59722137
 20
314.29226685
 30
0.0
  0
VERTEX
  8
0
 10
85.08883667
 20
313.22006226
 30
0.0
  0
VERTEX
  8
0
 10
85.68720245
 20
311.68951416
 30
0.0
  0
VERTEX
  8
0
 10
86.33283234
 20
310.659729
 30
0.0
  0
VERTEX
  8
0
 10
87.06184387
 20
309.62329102
 30
0.0
  0
VERTEX
  8
0
 10
87.77555847
 20
308.57833862
 30
0.0
  0
VERTEX
  8
0
 10
88.59303284
 20
307.40112305
 30
0.0
  0
SEQEND
  0
ENDSEC
  0
SECTION
  2
OBJECTS
  0
ENDSEC
  0
EOF
