999
DXF file created by HALCON
  0
SECTION
  2
HEADER
  9
$ACADVER
  1
AC1009
  0
ENDSEC
  0
SECTION
  2
TABLES
  0
TABLE
  2
LTYPE
 70
1
  0
LTYPE
  2
CONTINUOUS
 70
0
  3
Solid line
 72
65
 73
0
 40
0
  0
ENDTAB
  0
TABLE
  2
LAYER
 70
1
  0
LAYER
  2
0
 70
0
 62
7
  6
CONTINUOUS
  0
ENDTAB
  0
TABLE
  2
APPID
 70
2
  0
APPID
  2
ACAD
 70
64
  0
APPID
  2
HALCON
 70
64
  0
ENDTAB
  0
ENDSEC
  0
SECTION
  2
BLOCKS
  0
ENDSEC
  0
SECTION
  2
ENTITIES
  0
POLYLINE
  8
0
 66
1
 10
0.0
 20
0.0
 30
0.0
 70
0
  0
VERTEX
  8
0
 10
386.01327515
 20
292.66769409
 30
0.0
  0
VERTEX
  8
0
 10
386.77325439
 20
292.29989624
 30
0.0
  0
VERTEX
  8
0
 10
387.6036377
 20
292.01342773
 30
0.0
  0
VERTEX
  8
0
 10
388.4732666
 20
291.78778076
 30
0.0
  0
VERTEX
  8
0
 10
389.35574341
 20
291.6104126
 30
0.0
  0
VERTEX
  8
0
 10
390.23144531
 20
291.46737671
 30
0.0
  0
VERTEX
  8
0
 10
391.10092163
 20
291.33273315
 30
0.0
  0
VERTEX
  8
0
 10
391.9758606
 20
291.19473267
 30
0.0
  0
VERTEX
  8
0
 10
392.85015869
 20
291.05361938
 30
0.0
  0
VERTEX
  8
0
 10
393.7215271
 20
290.91122437
 30
0.0
  0
VERTEX
  8
0
 10
394.58917236
 20
290.76287842
 30
0.0
  0
VERTEX
  8
0
 10
395.45974731
 20
290.60873413
 30
0.0
  0
VERTEX
  8
0
 10
396.33776855
 20
290.4552002
 30
0.0
  0
VERTEX
  8
0
 10
397.20855713
 20
290.30996704
 30
0.0
  0
VERTEX
  8
0
 10
398.07522583
 20
290.16567993
 30
0.0
  0
VERTEX
  8
0
 10
398.9487915
 20
290.01953125
 30
0.0
  0
VERTEX
  8
0
 10
399.82653809
 20
289.87347412
 30
0.0
  0
VERTEX
  8
0
 10
400.69967651
 20
289.73388672
 30
0.0
  0
VERTEX
  8
0
 10
401.57348633
 20
289.59887695
 30
0.0
  0
VERTEX
  8
0
 10
402.44570923
 20
289.46157837
 30
0.0
  0
VERTEX
  8
0
 10
403.31268311
 20
289.31460571
 30
0.0
  0
VERTEX
  8
0
 10
404.18161011
 20
289.15859985
 30
0.0
  0
VERTEX
  8
0
 10
405.05450439
 20
289.00216675
 30
0.0
  0
VERTEX
  8
0
 10
405.93377686
 20
288.85870361
 30
0.0
  0
VERTEX
  8
0
 10
406.80685425
 20
288.71920776
 30
0.0
  0
VERTEX
  8
0
 10
407.6729126
 20
288.57540894
 30
0.0
  0
VERTEX
  8
0
 10
408.54275513
 20
288.42398071
 30
0.0
  0
VERTEX
  8
0
 10
409.4211731
 20
288.27645874
 30
0.0
  0
VERTEX
  8
0
 10
410.29257202
 20
288.1340332
 30
0.0
  0
VERTEX
  8
0
 10
411.16226196
 20
287.98898315
 30
0.0
  0
VERTEX
  8
0
 10
412.03198242
 20
287.83706665
 30
0.0
  0
VERTEX
  8
0
 10
412.90142822
 20
287.684021
 30
0.0
  0
VERTEX
  8
0
 10
413.77200317
 20
287.52944946
 30
0.0
  0
VERTEX
  8
0
 10
414.64547729
 20
287.37469482
 30
0.0
  0
VERTEX
  8
0
 10
415.51754761
 20
287.21966553
 30
0.0
  0
VERTEX
  8
0
 10
416.38635254
 20
287.0632019
 30
0.0
  0
VERTEX
  8
0
 10
417.25933838
 20
286.91299438
 30
0.0
  0
VERTEX
  8
0
 10
418.13879395
 20
286.77297974
 30
0.0
  0
VERTEX
  8
0
 10
419.01620483
 20
286.65371704
 30
0.0
  0
VERTEX
  8
0
 10
419.89715576
 20
286.5456543
 30
0.0
  0
VERTEX
  8
0
 10
420.78536987
 20
286.45718384
 30
0.0
  0
VERTEX
  8
0
 10
421.66897583
 20
286.40100098
 30
0.0
  0
VERTEX
  8
0
 10
422.53457642
 20
286.42169189
 30
0.0
  0
VERTEX
  8
0
 10
423.69400024
 20
286.72888184
 30
0.0
  0
VERTEX
  8
0
 10
424.85800171
 20
287.37548828
 30
0.0
  0
VERTEX
  8
0
 10
425.84069824
 20
288.24810791
 30
0.0
  0
VERTEX
  8
0
 10
426.6998291
 20
289.16418457
 30
0.0
  0
VERTEX
  8
0
 10
427.53143311
 20
290.0508728
 30
0.0
  0
VERTEX
  8
0
 10
428.28973389
 20
290.99145508
 30
0.0
  0
VERTEX
  8
0
 10
428.80014038
 20
291.55917358
 30
0.0
  0
VERTEX
  8
0
 10
429.60745239
 20
292.45840454
 30
0.0
  0
VERTEX
  8
0
 10
430.06991577
 20
293.07217407
 30
0.0
  0
VERTEX
  8
0
 10
430.86749268
 20
293.9753418
 30
0.0
  0
VERTEX
  8
0
 10
431.57519531
 20
294.94711304
 30
0.0
  0
VERTEX
  8
0
 10
432.10128784
 20
295.51583862
 30
0.0
  0
VERTEX
  8
0
 10
432.8576355
 20
296.45123291
 30
0.0
  0
VERTEX
  8
0
 10
433.34005737
 20
297.05621338
 30
0.0
  0
VERTEX
  8
0
 10
434.13290405
 20
297.96279907
 30
0.0
  0
VERTEX
  8
0
 10
434.58670044
 20
298.58999634
 30
0.0
  0
VERTEX
  8
0
 10
435.39205933
 20
299.48907471
 30
0.0
  0
VERTEX
  8
0
 10
436.1149292
 20
300.43759155
 30
0.0
  0
VERTEX
  8
0
 10
436.63803101
 20
301.01754761
 30
0.0
  0
VERTEX
  8
0
 10
437.41036987
 20
301.94439697
 30
0.0
  0
VERTEX
  8
0
 10
437.87579346
 20
302.55886841
 30
0.0
  0
VERTEX
  8
0
 10
438.66268921
 20
303.47018433
 30
0.0
  0
VERTEX
  8
0
 10
439.34487915
 20
304.46734619
 30
0.0
  0
VERTEX
  8
0
 10
439.91540527
 20
304.9906311
 30
0.0
  0
VERTEX
  8
0
 10
440.62786865
 20
305.96279907
 30
0.0
  0
VERTEX
  8
0
 10
441.14135742
 20
306.54284668
 30
0.0
  0
VERTEX
  8
0
 10
441.88253784
 20
307.48751831
 30
0.0
  0
VERTEX
  8
0
 10
442.37155151
 20
308.08898926
 30
0.0
  0
VERTEX
  8
0
 10
443.19152832
 20
308.98245239
 30
0.0
  0
VERTEX
  8
0
 10
443.90658569
 20
309.93511963
 30
0.0
  0
VERTEX
  8
0
 10
444.45358276
 20
310.48959351
 30
0.0
  0
VERTEX
  8
0
 10
445.16516113
 20
311.45352173
 30
0.0
  0
VERTEX
  8
0
 10
445.64453125
 20
312.06835938
 30
0.0
  0
VERTEX
  8
0
 10
446.34072876
 20
313.02838135
 30
0.0
  0
VERTEX
  8
0
 10
446.82589722
 20
313.65353394
 30
0.0
  0
VERTEX
  8
0
 10
447.28497314
 20
314.31542969
 30
0.0
  0
VERTEX
  8
0
 10
447.85848999
 20
315.30517578
 30
0.0
  0
VERTEX
  8
0
 10
448.08578491
 20
316.11950684
 30
0.0
  0
VERTEX
  8
0
 10
448.1807251
 20
316.97198486
 30
0.0
  0
VERTEX
  8
0
 10
448.12841797
 20
317.79553223
 30
0.0
  0
VERTEX
  8
0
 10
447.8487854
 20
318.8946228
 30
0.0
  0
VERTEX
  8
0
 10
447.68493652
 20
319.68579102
 30
0.0
  0
VERTEX
  8
0
 10
447.27890015
 20
320.79855347
 30
0.0
  0
VERTEX
  8
0
 10
447.08590698
 20
321.5630188
 30
0.0
  0
VERTEX
  8
0
 10
446.66278076
 20
322.67938232
 30
0.0
  0
VERTEX
  8
0
 10
446.45391846
 20
323.42471313
 30
0.0
  0
VERTEX
  8
0
 10
445.98910522
 20
324.53652954
 30
0.0
  0
VERTEX
  8
0
 10
445.72674561
 20
325.25738525
 30
0.0
  0
VERTEX
  8
0
 10
445.27120972
 20
326.37857056
 30
0.0
  0
VERTEX
  8
0
 10
444.87322998
 20
327.04321289
 30
0.0
  0
VERTEX
  8
0
 10
444.53408813
 20
328.21121216
 30
0.0
  0
VERTEX
  8
0
 10
444.09939575
 20
329.33453369
 30
0.0
  0
VERTEX
  8
0
 10
443.86932373
 20
330.09130859
 30
0.0
  0
VERTEX
  8
0
 10
443.47866821
 20
331.2109375
 30
0.0
  0
VERTEX
  8
0
 10
443.19772339
 20
331.94515991
 30
0.0
  0
VERTEX
  8
0
 10
442.81161499
 20
333.07156372
 30
0.0
  0
VERTEX
  8
0
 10
442.40457153
 20
333.73007202
 30
0.0
  0
VERTEX
  8
0
 10
442.11593628
 20
334.915802
 30
0.0
  0
VERTEX
  8
0
 10
441.65859985
 20
336.03234863
 30
0.0
  0
VERTEX
  8
0
 10
441.37533569
 20
336.74014282
 30
0.0
  0
VERTEX
  8
0
 10
440.96139526
 20
337.88162231
 30
0.0
  0
VERTEX
  8
0
 10
440.60064697
 20
338.57702637
 30
0.0
  0
VERTEX
  8
0
 10
440.29327393
 20
339.73968506
 30
0.0
  0
VERTEX
  8
0
 10
439.83566284
 20
340.85290527
 30
0.0
  0
VERTEX
  8
0
 10
439.59838867
 20
341.58694458
 30
0.0
  0
VERTEX
  8
0
 10
439.15234375
 20
342.7069397
 30
0.0
  0
VERTEX
  8
0
 10
438.85568237
 20
343.41653442
 30
0.0
  0
VERTEX
  8
0
 10
438.46884155
 20
344.55889893
 30
0.0
  0
VERTEX
  8
0
 10
438.0329895
 20
345.2409668
 30
0.0
  0
VERTEX
  8
0
 10
437.76327515
 20
346.39837646
 30
0.0
  0
VERTEX
  8
0
 10
437.29156494
 20
347.51443481
 30
0.0
  0
VERTEX
  8
0
 10
436.98342896
 20
348.20547485
 30
0.0
  0
VERTEX
  8
0
 10
436.56750488
 20
349.34939575
 30
0.0
  0
VERTEX
  8
0
 10
436.04382324
 20
350.45016479
 30
0.0
  0
VERTEX
  8
0
 10
435.72262573
 20
351.05349731
 30
0.0
  0
VERTEX
  8
0
 10
434.97711182
 20
351.91677856
 30
0.0
  0
VERTEX
  8
0
 10
434.48678589
 20
352.37811279
 30
0.0
  0
VERTEX
  8
0
 10
433.73745728
 20
352.76306152
 30
0.0
  0
VERTEX
  8
0
 10
432.91043091
 20
353.10430908
 30
0.0
  0
VERTEX
  8
0
 10
431.98361206
 20
353.4190979
 30
0.0
  0
VERTEX
  8
0
 10
431.14151001
 20
353.63757324
 30
0.0
  0
VERTEX
  8
0
 10
430.28369141
 20
353.82617188
 30
0.0
  0
VERTEX
  8
0
 10
429.41571045
 20
353.9937439
 30
0.0
  0
VERTEX
  8
0
 10
428.5458374
 20
354.15756226
 30
0.0
  0
VERTEX
  8
0
 10
427.6776123
 20
354.328125
 30
0.0
  0
VERTEX
  8
0
 10
426.81192017
 20
354.50631714
 30
0.0
  0
VERTEX
  8
0
 10
425.94598389
 20
354.68338013
 30
0.0
  0
VERTEX
  8
0
 10
425.07873535
 20
354.85418701
 30
0.0
  0
VERTEX
  8
0
 10
424.21054077
 20
355.01397705
 30
0.0
  0
VERTEX
  8
0
 10
423.340271
 20
355.16595459
 30
0.0
  0
VERTEX
  8
0
 10
422.4680481
 20
355.31134033
 30
0.0
  0
VERTEX
  8
0
 10
421.59646606
 20
355.45840454
 30
0.0
  0
VERTEX
  8
0
 10
420.72512817
 20
355.60678101
 30
0.0
  0
VERTEX
  8
0
 10
419.85360718
 20
355.75424194
 30
0.0
  0
VERTEX
  8
0
 10
418.98062134
 20
355.89489746
 30
0.0
  0
VERTEX
  8
0
 10
418.10662842
 20
356.03433228
 30
0.0
  0
VERTEX
  8
0
 10
417.23330688
 20
356.17578125
 30
0.0
  0
VERTEX
  8
0
 10
416.36257935
 20
356.322052
 30
0.0
  0
VERTEX
  8
0
 10
415.49002075
 20
356.46817017
 30
0.0
  0
VERTEX
  8
0
 10
414.61773682
 20
356.61309814
 30
0.0
  0
VERTEX
  8
0
 10
413.74594116
 20
356.75531006
 30
0.0
  0
VERTEX
  8
0
 10
412.87307739
 20
356.89306641
 30
0.0
  0
VERTEX
  8
0
 10
411.99850464
 20
357.02627563
 30
0.0
  0
VERTEX
  8
0
 10
411.12289429
 20
357.16192627
 30
0.0
  0
VERTEX
  8
0
 10
410.25
 20
357.30722046
 30
0.0
  0
VERTEX
  8
0
 10
409.37942505
 20
357.45852661
 30
0.0
  0
VERTEX
  8
0
 10
408.50811768
 20
357.60934448
 30
0.0
  0
VERTEX
  8
0
 10
407.63540649
 20
357.7590332
 30
0.0
  0
VERTEX
  8
0
 10
406.76400757
 20
357.9090271
 30
0.0
  0
VERTEX
  8
0
 10
405.89523315
 20
358.06155396
 30
0.0
  0
VERTEX
  8
0
 10
405.0227356
 20
358.21191406
 30
0.0
  0
VERTEX
  8
0
 10
404.15130615
 20
358.35574341
 30
0.0
  0
VERTEX
  8
0
 10
403.27844238
 20
358.48953247
 30
0.0
  0
VERTEX
  8
0
 10
402.40402222
 20
358.61477661
 30
0.0
  0
VERTEX
  8
0
 10
401.53027344
 20
358.730896
 30
0.0
  0
VERTEX
  8
0
 10
400.65731812
 20
358.83584595
 30
0.0
  0
VERTEX
  8
0
 10
399.78726196
 20
358.91564941
 30
0.0
  0
VERTEX
  8
0
 10
398.91992188
 20
358.95449829
 30
0.0
  0
VERTEX
  8
0
 10
397.90039063
 20
358.89385986
 30
0.0
  0
VERTEX
  8
0
 10
397.04556274
 20
358.75802612
 30
0.0
  0
VERTEX
  8
0
 10
395.89993286
 20
358.21514893
 30
0.0
  0
VERTEX
  8
0
 10
394.93344116
 20
357.38250732
 30
0.0
  0
VERTEX
  8
0
 10
394.06951904
 20
356.51303101
 30
0.0
  0
VERTEX
  8
0
 10
393.58789063
 20
355.93447876
 30
0.0
  0
VERTEX
  8
0
 10
392.77737427
 20
355.02526855
 30
0.0
  0
VERTEX
  8
0
 10
392.22531128
 20
354.48883057
 30
0.0
  0
VERTEX
  8
0
 10
391.51040649
 20
353.51083374
 30
0.0
  0
VERTEX
  8
0
 10
390.71228027
 20
352.60855103
 30
0.0
  0
VERTEX
  8
0
 10
390.2562561
 20
351.96844482
 30
0.0
  0
VERTEX
  8
0
 10
389.49316406
 20
351.05163574
 30
0.0
  0
VERTEX
  8
0
 10
389.0112915
 20
350.44546509
 30
0.0
  0
VERTEX
  8
0
 10
388.23895264
 20
349.52441406
 30
0.0
  0
VERTEX
  8
0
 10
387.66296387
 20
348.99642944
 30
0.0
  0
VERTEX
  8
0
 10
386.99069214
 20
347.99240112
 30
0.0
  0
VERTEX
  8
0
 10
386.1897583
 20
347.09289551
 30
0.0
  0
VERTEX
  8
0
 10
385.71539307
 20
346.47998047
 30
0.0
  0
VERTEX
  8
0
 10
384.94006348
 20
345.5645752
 30
0.0
  0
VERTEX
  8
0
 10
384.42843628
 20
344.98519897
 30
0.0
  0
VERTEX
  8
0
 10
383.69561768
 20
344.02941895
 30
0.0
  0
VERTEX
  8
0
 10
383.08273315
 20
343.55197144
 30
0.0
  0
VERTEX
  8
0
 10
382.427948
 20
342.5140686
 30
0.0
  0
VERTEX
  8
0
 10
381.63793945
 20
341.60641479
 30
0.0
  0
VERTEX
  8
0
 10
381.14682007
 20
341.01934814
 30
0.0
  0
VERTEX
  8
0
 10
380.36480713
 20
340.09710693
 30
0.0
  0
VERTEX
  8
0
 10
379.76449585
 20
339.61373901
 30
0.0
  0
VERTEX
  8
0
 10
379.08108521
 20
338.59567261
 30
0.0
  0
VERTEX
  8
0
 10
378.29519653
 20
337.6819458
 30
0.0
  0
VERTEX
  8
0
 10
377.81796265
 20
337.06829834
 30
0.0
  0
VERTEX
  8
0
 10
377.05361938
 20
336.14483643
 30
0.0
  0
VERTEX
  8
0
 10
376.51272583
 20
335.60324097
 30
0.0
  0
VERTEX
  8
0
 10
375.78811646
 20
334.62402344
 30
0.0
  0
VERTEX
  8
0
 10
375.01608276
 20
333.71118164
 30
0.0
  0
VERTEX
  8
0
 10
374.5680542
 20
333.06115723
 30
0.0
  0
VERTEX
  8
0
 10
373.81164551
 20
332.14300537
 30
0.0
  0
VERTEX
  8
0
 10
373.36166382
 20
331.47537231
 30
0.0
  0
VERTEX
  8
0
 10
372.68954468
 20
330.52954102
 30
0.0
  0
VERTEX
  8
0
 10
372.36541748
 20
329.74432373
 30
0.0
  0
VERTEX
  8
0
 10
372.17947388
 20
328.85290527
 30
0.0
  0
VERTEX
  8
0
 10
372.17443848
 20
327.97613525
 30
0.0
  0
VERTEX
  8
0
 10
372.46008301
 20
326.82745361
 30
0.0
  0
VERTEX
  8
0
 10
372.72827148
 20
326.08126831
 30
0.0
  0
VERTEX
  8
0
 10
373.14959717
 20
324.96166992
 30
0.0
  0
VERTEX
  8
0
 10
373.38027954
 20
324.21533203
 30
0.0
  0
VERTEX
  8
0
 10
373.8081665
 20
323.10171509
 30
0.0
  0
VERTEX
  8
0
 10
374.01330566
 20
322.34020996
 30
0.0
  0
VERTEX
  8
0
 10
374.45010376
 20
321.22735596
 30
0.0
  0
VERTEX
  8
0
 10
374.7840271
 20
320.0703125
 30
0.0
  0
VERTEX
  8
0
 10
375.11001587
 20
319.36587524
 30
0.0
  0
VERTEX
  8
0
 10
375.49987793
 20
318.22134399
 30
0.0
  0
VERTEX
  8
0
 10
375.77609253
 20
317.50265503
 30
0.0
  0
VERTEX
  8
0
 10
376.2359314
 20
316.38690186
 30
0.0
  0
VERTEX
  8
0
 10
376.4604187
 20
315.64874268
 30
0.0
  0
VERTEX
  8
0
 10
376.90979004
 20
314.53652954
 30
0.0
  0
VERTEX
  8
0
 10
377.22866821
 20
313.37695313
 30
0.0
  0
VERTEX
  8
0
 10
377.5710144
 20
312.67272949
 30
0.0
  0
VERTEX
  8
0
 10
377.97445679
 20
311.53878784
 30
0.0
  0
VERTEX
  8
0
 10
378.24456787
 20
310.81448364
 30
0.0
  0
VERTEX
  8
0
 10
378.69363403
 20
309.69863892
 30
0.0
  0
VERTEX
  8
0
 10
378.92602539
 20
308.95913696
 30
0.0
  0
VERTEX
  8
0
 10
379.39093018
 20
307.84915161
 30
0.0
  0
VERTEX
  8
0
 10
379.73397827
 20
306.70315552
 30
0.0
  0
VERTEX
  8
0
 10
380.04690552
 20
305.98886108
 30
0.0
  0
VERTEX
  8
0
 10
380.43032837
 20
304.85406494
 30
0.0
  0
VERTEX
  8
0
 10
380.69906616
 20
304.12133789
 30
0.0
  0
VERTEX
  8
0
 10
381.14016724
 20
303.00500488
 30
0.0
  0
VERTEX
  8
0
 10
381.35955811
 20
302.25634766
 30
0.0
  0
VERTEX
  8
0
 10
381.81454468
 20
301.14208984
 30
0.0
  0
VERTEX
  8
0
 10
382.17071533
 20
299.99121094
 30
0.0
  0
VERTEX
  8
0
 10
382.50744629
 20
299.29556274
 30
0.0
  0
VERTEX
  8
0
 10
382.90621948
 20
298.16082764
 30
0.0
  0
VERTEX
  8
0
 10
383.17529297
 20
297.43591309
 30
0.0
  0
VERTEX
  8
0
 10
383.63412476
 20
296.31900024
 30
0.0
  0
VERTEX
  8
0
 10
383.97766113
 20
295.08496094
 30
0.0
  0
VERTEX
  8
0
 10
384.41162109
 20
294.49468994
 30
0.0
  0
VERTEX
  8
0
 10
385.09658813
 20
293.42501831
 30
0.0
  0
VERTEX
  8
0
 10
386.01327515
 20
292.66769409
 30
0.0
  0
SEQEND
  0
POLYLINE
  8
0
 66
1
 10
0.0
 20
0.0
 30
0.0
 70
0
  0
VERTEX
  8
0
 10
404.17843628
 20
304.91900635
 30
0.0
  0
VERTEX
  8
0
 10
405.01217651
 20
304.66665649
 30
0.0
  0
VERTEX
  8
0
 10
405.86395264
 20
304.45956421
 30
0.0
  0
VERTEX
  8
0
 10
406.7277832
 20
304.29193115
 30
0.0
  0
VERTEX
  8
0
 10
407.59936523
 20
304.16351318
 30
0.0
  0
VERTEX
  8
0
 10
408.47213745
 20
304.07522583
 30
0.0
  0
VERTEX
  8
0
 10
409.34246826
 20
304.03482056
 30
0.0
  0
VERTEX
  8
0
 10
410.20782471
 20
304.07012939
 30
0.0
  0
VERTEX
  8
0
 10
411.23529053
 20
304.14089966
 30
0.0
  0
VERTEX
  8
0
 10
412.10107422
 20
304.18127441
 30
0.0
  0
VERTEX
  8
0
 10
412.94265747
 20
304.25741577
 30
0.0
  0
VERTEX
  8
0
 10
414.04815674
 20
304.56777954
 30
0.0
  0
VERTEX
  8
0
 10
414.83755493
 20
304.74081421
 30
0.0
  0
VERTEX
  8
0
 10
415.96243286
 20
305.12838745
 30
0.0
  0
VERTEX
  8
0
 10
417.17584229
 20
305.42224121
 30
0.0
  0
VERTEX
  8
0
 10
417.81109619
 20
305.86483765
 30
0.0
  0
VERTEX
  8
0
 10
418.92831421
 20
306.41189575
 30
0.0
  0
VERTEX
  8
0
 10
420.0524292
 20
307.04244995
 30
0.0
  0
VERTEX
  8
0
 10
421.10012817
 20
307.77337646
 30
0.0
  0
VERTEX
  8
0
 10
422.10845947
 20
308.55847168
 30
0.0
  0
VERTEX
  8
0
 10
423.03640747
 20
309.41674805
 30
0.0
  0
VERTEX
  8
0
 10
423.90698242
 20
310.29537964
 30
0.0
  0
VERTEX
  8
0
 10
424.70092773
 20
311.19699097
 30
0.0
  0
VERTEX
  8
0
 10
425.15145874
 20
311.83950806
 30
0.0
  0
VERTEX
  8
0
 10
425.84649658
 20
312.77844238
 30
0.0
  0
VERTEX
  8
0
 10
426.2387085
 20
313.49752808
 30
0.0
  0
VERTEX
  8
0
 10
426.61166382
 20
314.26928711
 30
0.0
  0
VERTEX
  8
0
 10
427.10958862
 20
315.21539307
 30
0.0
  0
VERTEX
  8
0
 10
427.42028809
 20
316.01730347
 30
0.0
  0
VERTEX
  8
0
 10
427.67092896
 20
316.85473633
 30
0.0
  0
VERTEX
  8
0
 10
427.89343262
 20
317.70861816
 30
0.0
  0
VERTEX
  8
0
 10
428.09564209
 20
318.56634521
 30
0.0
  0
VERTEX
  8
0
 10
428.27377319
 20
319.43930054
 30
0.0
  0
VERTEX
  8
0
 10
428.41082764
 20
320.32791138
 30
0.0
  0
VERTEX
  8
0
 10
428.49887085
 20
321.2069397
 30
0.0
  0
VERTEX
  8
0
 10
428.55026245
 20
322.08798218
 30
0.0
  0
VERTEX
  8
0
 10
428.55923462
 20
322.95700073
 30
0.0
  0
VERTEX
  8
0
 10
428.47412109
 20
323.8086853
 30
0.0
  0
VERTEX
  8
0
 10
428.3248291
 20
324.87347412
 30
0.0
  0
VERTEX
  8
0
 10
428.25042725
 20
325.72143555
 30
0.0
  0
VERTEX
  8
0
 10
428.08099365
 20
326.52716064
 30
0.0
  0
VERTEX
  8
0
 10
427.79388428
 20
327.64343262
 30
0.0
  0
VERTEX
  8
0
 10
427.58377075
 20
328.4072876
 30
0.0
  0
VERTEX
  8
0
 10
427.14807129
 20
329.52209473
 30
0.0
  0
VERTEX
  8
0
 10
426.80133057
 20
330.17471313
 30
0.0
  0
VERTEX
  8
0
 10
426.34890747
 20
331.30014038
 30
0.0
  0
VERTEX
  8
0
 10
425.72229004
 20
332.36654663
 30
0.0
  0
VERTEX
  8
0
 10
425.04946899
 20
333.41625977
 30
0.0
  0
VERTEX
  8
0
 10
424.31365967
 20
334.42446899
 30
0.0
  0
VERTEX
  8
0
 10
423.51980591
 20
335.37658691
 30
0.0
  0
VERTEX
  8
0
 10
422.66043091
 20
336.23092651
 30
0.0
  0
VERTEX
  8
0
 10
422.10568237
 20
336.73040771
 30
0.0
  0
VERTEX
  8
0
 10
421.19876099
 20
337.52185059
 30
0.0
  0
VERTEX
  8
0
 10
420.52694702
 20
337.94760132
 30
0.0
  0
VERTEX
  8
0
 10
419.58184814
 20
338.63085938
 30
0.0
  0
VERTEX
  8
0
 10
418.85754395
 20
339.02233887
 30
0.0
  0
VERTEX
  8
0
 10
418.09042358
 20
339.3913269
 30
0.0
  0
VERTEX
  8
0
 10
417.1368103
 20
339.90304565
 30
0.0
  0
VERTEX
  8
0
 10
416.33938599
 20
340.22006226
 30
0.0
  0
VERTEX
  8
0
 10
415.50259399
 20
340.47790527
 30
0.0
  0
VERTEX
  8
0
 10
414.65176392
 20
340.70980835
 30
0.0
  0
VERTEX
  8
0
 10
413.7868042
 20
340.92224121
 30
0.0
  0
VERTEX
  8
0
 10
412.92034912
 20
341.11199951
 30
0.0
  0
VERTEX
  8
0
 10
412.03918457
 20
341.26837158
 30
0.0
  0
VERTEX
  8
0
 10
411.14846802
 20
341.38015747
 30
0.0
  0
VERTEX
  8
0
 10
410.26202393
 20
341.45449829
 30
0.0
  0
VERTEX
  8
0
 10
409.38092041
 20
341.50143433
 30
0.0
  0
VERTEX
  8
0
 10
408.51049805
 20
341.51797485
 30
0.0
  0
VERTEX
  8
0
 10
407.65316772
 20
341.47967529
 30
0.0
  0
VERTEX
  8
0
 10
406.58013916
 20
341.30499268
 30
0.0
  0
VERTEX
  8
0
 10
405.74182129
 20
341.18048096
 30
0.0
  0
VERTEX
  8
0
 10
404.94717407
 20
341.00869751
 30
0.0
  0
VERTEX
  8
0
 10
403.83273315
 20
340.6661377
 30
0.0
  0
VERTEX
  8
0
 10
403.05462646
 20
340.48187256
 30
0.0
  0
VERTEX
  8
0
 10
401.94165039
 20
340.06188965
 30
0.0
  0
VERTEX
  8
0
 10
400.82241821
 20
339.51397705
 30
0.0
  0
VERTEX
  8
0
 10
399.71524048
 20
338.89950562
 30
0.0
  0
VERTEX
  8
0
 10
398.628479
 20
338.23208618
 30
0.0
  0
VERTEX
  8
0
 10
397.60800171
 20
337.45306396
 30
0.0
  0
VERTEX
  8
0
 10
396.67419434
 20
336.5670166
 30
0.0
  0
VERTEX
  8
0
 10
395.81762695
 20
335.67938232
 30
0.0
  0
VERTEX
  8
0
 10
395.27905273
 20
335.13195801
 30
0.0
  0
VERTEX
  8
0
 10
394.56707764
 20
334.13912964
 30
0.0
  0
VERTEX
  8
0
 10
394.00537109
 20
333.5355835
 30
0.0
  0
VERTEX
  8
0
 10
393.45703125
 20
332.49102783
 30
0.0
  0
VERTEX
  8
0
 10
393.05551147
 20
331.75537109
 30
0.0
  0
VERTEX
  8
0
 10
392.50656128
 20
330.78668213
 30
0.0
  0
VERTEX
  8
0
 10
392.1942749
 20
329.98968506
 30
0.0
  0
VERTEX
  8
0
 10
391.9052124
 20
329.17175293
 30
0.0
  0
VERTEX
  8
0
 10
391.61611938
 20
328.34042358
 30
0.0
  0
VERTEX
  8
0
 10
391.32516479
 20
327.40563965
 30
0.0
  0
VERTEX
  8
0
 10
391.12966919
 20
326.57559204
 30
0.0
  0
VERTEX
  8
0
 10
390.99362183
 20
325.71749878
 30
0.0
  0
VERTEX
  8
0
 10
390.90997314
 20
324.85317993
 30
0.0
  0
VERTEX
  8
0
 10
390.85171509
 20
323.90002441
 30
0.0
  0
VERTEX
  8
0
 10
390.82717896
 20
323.01184082
 30
0.0
  0
VERTEX
  8
0
 10
390.81811523
 20
322.13214111
 30
0.0
  0
VERTEX
  8
0
 10
390.82965088
 20
321.26577759
 30
0.0
  0
VERTEX
  8
0
 10
390.91482544
 20
320.4284668
 30
0.0
  0
VERTEX
  8
0
 10
391.15942383
 20
319.34054565
 30
0.0
  0
VERTEX
  8
0
 10
391.3013916
 20
318.52841187
 30
0.0
  0
VERTEX
  8
0
 10
391.67703247
 20
317.4175415
 30
0.0
  0
VERTEX
  8
0
 10
391.86047363
 20
316.64254761
 30
0.0
  0
VERTEX
  8
0
 10
392.34494019
 20
315.5274353
 30
0.0
  0
VERTEX
  8
0
 10
392.88580322
 20
314.40356445
 30
0.0
  0
VERTEX
  8
0
 10
393.46508789
 20
313.26828003
 30
0.0
  0
VERTEX
  8
0
 10
394.13397217
 20
312.15170288
 30
0.0
  0
VERTEX
  8
0
 10
394.96633911
 20
311.16409302
 30
0.0
  0
VERTEX
  8
0
 10
395.85168457
 20
310.24023438
 30
0.0
  0
VERTEX
  8
0
 10
396.74847412
 20
309.37768555
 30
0.0
  0
VERTEX
  8
0
 10
397.61886597
 20
308.52264404
 30
0.0
  0
VERTEX
  8
0
 10
398.22659302
 20
308.0475769
 30
0.0
  0
VERTEX
  8
0
 10
399.17449951
 20
307.31390381
 30
0.0
  0
VERTEX
  8
0
 10
399.87826538
 20
306.89016724
 30
0.0
  0
VERTEX
  8
0
 10
400.82333374
 20
306.24475098
 30
0.0
  0
VERTEX
  8
0
 10
401.59902954
 20
305.90591431
 30
0.0
  0
VERTEX
  8
0
 10
402.42526245
 20
305.5960083
 30
0.0
  0
VERTEX
  8
0
 10
403.24603271
 20
305.275177
 30
0.0
  0
VERTEX
  8
0
 10
404.17843628
 20
304.91900635
 30
0.0
  0
SEQEND
  0
ENDSEC
  0
SECTION
  2
OBJECTS
  0
ENDSEC
  0
EOF
