999
DXF file created by HALCON
  0
SECTION
  2
HEADER
  9
$ACADVER
  1
AC1009
  0
ENDSEC
  0
SECTION
  2
TABLES
  0
TABLE
  2
LTYPE
 70
1
  0
LTYPE
  2
CONTINUOUS
 70
0
  3
Solid line
 72
65
 73
0
 40
0
  0
ENDTAB
  0
TABLE
  2
LAYER
 70
1
  0
LAYER
  2
0
 70
0
 62
7
  6
CONTINUOUS
  0
ENDTAB
  0
TABLE
  2
APPID
 70
2
  0
APPID
  2
ACAD
 70
64
  0
APPID
  2
HALCON
 70
64
  0
ENDTAB
  0
ENDSEC
  0
SECTION
  2
BLOCKS
  0
ENDSEC
  0
SECTION
  2
ENTITIES
  0
POLYLINE
  8
0
 66
1
 10
0.0
 20
0.0
 30
0.0
 70
0
  0
VERTEX
  8
0
 10
-0.47657147
 20
-48.00507355
 30
0.0
  0
VERTEX
  8
0
 10
0.50788671
 20
-48.050457
 30
0.0
  0
VERTEX
  8
0
 10
1.49223435
 20
-48.05735779
 30
0.0
  0
VERTEX
  8
0
 10
2.49185061
 20
-48.03820801
 30
0.0
  0
VERTEX
  8
0
 10
3.48522401
 20
-48.0005722
 30
0.0
  0
VERTEX
  8
0
 10
4.52554512
 20
-47.93682098
 30
0.0
  0
VERTEX
  8
0
 10
5.53304577
 20
-47.84017944
 30
0.0
  0
VERTEX
  8
0
 10
6.53566456
 20
-47.69129181
 30
0.0
  0
VERTEX
  8
0
 10
7.48621035
 20
-47.46241379
 30
0.0
  0
VERTEX
  8
0
 10
8.69029045
 20
-46.67963409
 30
0.0
  0
VERTEX
  8
0
 10
9.38908005
 20
-45.47013855
 30
0.0
  0
VERTEX
  8
0
 10
9.54853821
 20
-44.50477982
 30
0.0
  0
VERTEX
  8
0
 10
9.62852764
 20
-43.50794983
 30
0.0
  0
VERTEX
  8
0
 10
9.6772213
 20
-42.50727081
 30
0.0
  0
VERTEX
  8
0
 10
9.71412563
 20
-41.50768661
 30
0.0
  0
VERTEX
  8
0
 10
9.75838947
 20
-40.51325226
 30
0.0
  0
VERTEX
  8
0
 10
9.83979225
 20
-39.53397751
 30
0.0
  0
VERTEX
  8
0
 10
10.01934814
 20
-38.58215714
 30
0.0
  0
VERTEX
  8
0
 10
10.34744167
 20
-37.45081329
 30
0.0
  0
VERTEX
  8
0
 10
10.89873886
 20
-36.01116943
 30
0.0
  0
VERTEX
  8
0
 10
12.1254015
 20
-34.92958832
 30
0.0
  0
VERTEX
  8
0
 10
13.42264366
 20
-34.33437729
 30
0.0
  0
VERTEX
  8
0
 10
14.59386635
 20
-33.73328781
 30
0.0
  0
VERTEX
  8
0
 10
15.46824551
 20
-33.41724396
 30
0.0
  0
VERTEX
  8
0
 10
16.63291931
 20
-32.90359116
 30
0.0
  0
VERTEX
  8
0
 10
17.53622246
 20
-32.64036179
 30
0.0
  0
VERTEX
  8
0
 10
18.50130844
 20
-32.51129913
 30
0.0
  0
VERTEX
  8
0
 10
19.50031853
 20
-32.49544525
 30
0.0
  0
VERTEX
  8
0
 10
20.46821594
 20
-32.61901855
 30
0.0
  0
VERTEX
  8
0
 10
21.29812813
 20
-32.90643692
 30
0.0
  0
VERTEX
  8
0
 10
22.39377213
 20
-33.63045502
 30
0.0
  0
VERTEX
  8
0
 10
23.43140793
 20
-34.57291031
 30
0.0
  0
VERTEX
  8
0
 10
24.4418354
 20
-35.5608902
 30
0.0
  0
VERTEX
  8
0
 10
25.47989845
 20
-36.52253342
 30
0.0
  0
VERTEX
  8
0
 10
26.02798271
 20
-37.13460159
 30
0.0
  0
VERTEX
  8
0
 10
27.45290756
 20
-37.67445755
 30
0.0
  0
VERTEX
  8
0
 10
28.53072739
 20
-37.7257843
 30
0.0
  0
VERTEX
  8
0
 10
29.50180435
 20
-37.50391769
 30
0.0
  0
VERTEX
  8
0
 10
30.68948555
 20
-36.78616333
 30
0.0
  0
VERTEX
  8
0
 10
31.89275932
 20
-36.02776718
 30
0.0
  0
VERTEX
  8
0
 10
32.48739624
 20
-35.4842186
 30
0.0
  0
VERTEX
  8
0
 10
33.54553986
 20
-34.55109406
 30
0.0
  0
VERTEX
  8
0
 10
34.57490921
 20
-33.57722855
 30
0.0
  0
VERTEX
  8
0
 10
35.58639145
 20
-32.58771896
 30
0.0
  0
VERTEX
  8
0
 10
36.56833649
 20
-31.56327438
 30
0.0
  0
VERTEX
  8
0
 10
37.53122711
 20
-30.52664185
 30
0.0
  0
VERTEX
  8
0
 10
38.4336586
 20
-29.45155334
 30
0.0
  0
VERTEX
  8
0
 10
39.1020813
 20
-28.31230164
 30
0.0
  0
VERTEX
  8
0
 10
39.37188339
 20
-27.47327995
 30
0.0
  0
VERTEX
  8
0
 10
39.42490768
 20
-26.5051384
 30
0.0
  0
VERTEX
  8
0
 10
39.27452469
 20
-25.58374786
 30
0.0
  0
VERTEX
  8
0
 10
38.7967453
 20
-24.93559837
 30
0.0
  0
VERTEX
  8
0
 10
38.14130783
 20
-23.81730461
 30
0.0
  0
VERTEX
  8
0
 10
37.21268082
 20
-22.77833939
 30
0.0
  0
VERTEX
  8
0
 10
36.2069397
 20
-21.77715683
 30
0.0
  0
VERTEX
  8
0
 10
35.25164032
 20
-20.70905113
 30
0.0
  0
VERTEX
  8
0
 10
34.42115784
 20
-19.54472351
 30
0.0
  0
VERTEX
  8
0
 10
33.9180069
 20
-18.39264297
 30
0.0
  0
VERTEX
  8
0
 10
33.75279999
 20
-17.48365021
 30
0.0
  0
VERTEX
  8
0
 10
33.75590134
 20
-16.52828979
 30
0.0
  0
VERTEX
  8
0
 10
33.91651917
 20
-15.59154224
 30
0.0
  0
VERTEX
  8
0
 10
34.30681229
 20
-14.43737221
 30
0.0
  0
VERTEX
  8
0
 10
34.58638382
 20
-13.53145409
 30
0.0
  0
VERTEX
  8
0
 10
35.10146713
 20
-12.32989502
 30
0.0
  0
VERTEX
  8
0
 10
35.48396301
 20
-11.49261856
 30
0.0
  0
VERTEX
  8
0
 10
36.15276718
 20
-10.27087498
 30
0.0
  0
VERTEX
  8
0
 10
37.11086273
 20
-9.05731106
 30
0.0
  0
VERTEX
  8
0
 10
38.42022705
 20
-8.32450104
 30
0.0
  0
VERTEX
  8
0
 10
39.5877037
 20
-7.88773727
 30
0.0
  0
VERTEX
  8
0
 10
40.51855087
 20
-7.71891546
 30
0.0
  0
VERTEX
  8
0
 10
41.50083542
 20
-7.65031052
 30
0.0
  0
VERTEX
  8
0
 10
42.49623489
 20
-7.63549137
 30
0.0
  0
VERTEX
  8
0
 10
43.5
 20
-7.6318841
 30
0.0
  0
VERTEX
  8
0
 10
44.5055542
 20
-7.59191561
 30
0.0
  0
VERTEX
  8
0
 10
45.49491882
 20
-7.46846151
 30
0.0
  0
VERTEX
  8
0
 10
46.8316803
 20
-7.02749014
 30
0.0
  0
VERTEX
  8
0
 10
47.89474487
 20
-5.6720686
 30
0.0
  0
VERTEX
  8
0
 10
48.30068207
 20
-4.46730804
 30
0.0
  0
VERTEX
  8
0
 10
48.43360138
 20
-3.49284911
 30
0.0
  0
VERTEX
  8
0
 10
48.51672363
 20
-2.5013721
 30
0.0
  0
VERTEX
  8
0
 10
48.58152008
 20
-1.50499117
 30
0.0
  0
VERTEX
  8
0
 10
48.63480759
 20
-0.50760442
 30
0.0
  0
VERTEX
  8
0
 10
48.66973877
 20
0.49292755
 30
0.0
  0
VERTEX
  8
0
 10
48.68153
 20
1.50094545
 30
0.0
  0
VERTEX
  8
0
 10
48.67062759
 20
2.50524998
 30
0.0
  0
VERTEX
  8
0
 10
48.63811111
 20
3.50630951
 30
0.0
  0
VERTEX
  8
0
 10
48.58400345
 20
4.5068574
 30
0.0
  0
VERTEX
  8
0
 10
48.50395966
 20
5.50040197
 30
0.0
  0
VERTEX
  8
0
 10
48.38540268
 20
6.48245955
 30
0.0
  0
VERTEX
  8
0
 10
48.19058609
 20
7.42307377
 30
0.0
  0
VERTEX
  8
0
 10
47.64288712
 20
8.59335232
 30
0.0
  0
VERTEX
  8
0
 10
46.53555679
 20
9.57201481
 30
0.0
  0
VERTEX
  8
0
 10
45.58218002
 20
9.86547852
 30
0.0
  0
VERTEX
  8
0
 10
44.46057129
 20
10.0687418
 30
0.0
  0
VERTEX
  8
0
 10
43.48562241
 20
10.1765461
 30
0.0
  0
VERTEX
  8
0
 10
42.49583054
 20
10.24428082
 30
0.0
  0
VERTEX
  8
0
 10
41.49118042
 20
10.29380989
 30
0.0
  0
VERTEX
  8
0
 10
40.49082947
 20
10.3415966
 30
0.0
  0
VERTEX
  8
0
 10
39.49383926
 20
10.41461277
 30
0.0
  0
VERTEX
  8
0
 10
38.50920868
 20
10.55130768
 30
0.0
  0
VERTEX
  8
0
 10
37.19244003
 20
10.97895432
 30
0.0
  0
VERTEX
  8
0
 10
35.94657516
 20
12.12175846
 30
0.0
  0
VERTEX
  8
0
 10
35.31600571
 20
13.40534306
 30
0.0
  0
VERTEX
  8
0
 10
34.66430283
 20
14.57443619
 30
0.0
  0
VERTEX
  8
0
 10
34.32962418
 20
15.42901039
 30
0.0
  0
VERTEX
  8
0
 10
33.77824783
 20
16.59684753
 30
0.0
  0
VERTEX
  8
0
 10
33.51162338
 20
17.50333786
 30
0.0
  0
VERTEX
  8
0
 10
33.31218719
 20
18.45858574
 30
0.0
  0
VERTEX
  8
0
 10
33.18722534
 20
19.47695351
 30
0.0
  0
VERTEX
  8
0
 10
33.24430466
 20
20.54575539
 30
0.0
  0
VERTEX
  8
0
 10
33.46913528
 20
21.51294327
 30
0.0
  0
VERTEX
  8
0
 10
34.12729645
 20
22.76168442
 30
0.0
  0
VERTEX
  8
0
 10
35.04313278
 20
23.93717384
 30
0.0
  0
VERTEX
  8
0
 10
36.09187317
 20
24.92960548
 30
0.0
  0
VERTEX
  8
0
 10
37.06345749
 20
25.9110775
 30
0.0
  0
VERTEX
  8
0
 10
37.55881119
 20
26.45448303
 30
0.0
  0
VERTEX
  8
0
 10
38.28109741
 20
27.59699821
 30
0.0
  0
VERTEX
  8
0
 10
38.4932518
 20
28.50105286
 30
0.0
  0
VERTEX
  8
0
 10
38.49839401
 20
29.49977684
 30
0.0
  0
VERTEX
  8
0
 10
38.29829025
 20
30.41235161
 30
0.0
  0
VERTEX
  8
0
 10
37.57389832
 20
31.55405998
 30
0.0
  0
VERTEX
  8
0
 10
37.08254242
 20
32.16858292
 30
0.0
  0
VERTEX
  8
0
 10
36.22115326
 20
33.25072861
 30
0.0
  0
VERTEX
  8
0
 10
35.29456711
 20
34.31282806
 30
0.0
  0
VERTEX
  8
0
 10
34.32281113
 20
35.30875015
 30
0.0
  0
VERTEX
  8
0
 10
33.28726578
 20
36.27705765
 30
0.0
  0
VERTEX
  8
0
 10
32.23361206
 20
37.17841339
 30
0.0
  0
VERTEX
  8
0
 10
31.10724258
 20
37.98300552
 30
0.0
  0
VERTEX
  8
0
 10
30.48797035
 20
38.4810257
 30
0.0
  0
VERTEX
  8
0
 10
29.34611893
 20
38.96312714
 30
0.0
  0
VERTEX
  8
0
 10
28.49580193
 20
39.14107513
 30
0.0
  0
VERTEX
  8
0
 10
27.54650116
 20
39.12798691
 30
0.0
  0
VERTEX
  8
0
 10
26.40977287
 20
38.89850616
 30
0.0
  0
VERTEX
  8
0
 10
25.46897507
 20
38.59196854
 30
0.0
  0
VERTEX
  8
0
 10
24.6300621
 20
38.26129913
 30
0.0
  0
VERTEX
  8
0
 10
23.50218201
 20
37.49723816
 30
0.0
  0
VERTEX
  8
0
 10
23.04332161
 20
36.90590286
 30
0.0
  0
VERTEX
  8
0
 10
22.00570869
 20
35.9719162
 30
0.0
  0
VERTEX
  8
0
 10
20.85663033
 20
35.06947327
 30
0.0
  0
VERTEX
  8
0
 10
19.583992
 20
34.31957626
 30
0.0
  0
VERTEX
  8
0
 10
18.44883347
 20
33.9580574
 30
0.0
  0
VERTEX
  8
0
 10
17.55079269
 20
33.93634796
 30
0.0
  0
VERTEX
  8
0
 10
16.4117527
 20
34.21440125
 30
0.0
  0
VERTEX
  8
0
 10
15.5003891
 20
34.50106812
 30
0.0
  0
VERTEX
  8
0
 10
14.61658669
 20
34.81829834
 30
0.0
  0
VERTEX
  8
0
 10
13.44602776
 20
35.36507034
 30
0.0
  0
VERTEX
  8
0
 10
12.58313847
 20
35.69034195
 30
0.0
  0
VERTEX
  8
0
 10
11.41523933
 20
36.3274498
 30
0.0
  0
VERTEX
  8
0
 10
10.1535778
 20
37.07169724
 30
0.0
  0
VERTEX
  8
0
 10
9.24130726
 20
38.37653351
 30
0.0
  0
VERTEX
  8
0
 10
8.78223228
 20
39.55327988
 30
0.0
  0
VERTEX
  8
0
 10
8.6268959
 20
40.51256561
 30
0.0
  0
VERTEX
  8
0
 10
8.54765511
 20
41.50312805
 30
0.0
  0
VERTEX
  8
0
 10
8.50838184
 20
42.50017166
 30
0.0
  0
VERTEX
  8
0
 10
8.49014664
 20
43.50004959
 30
0.0
  0
VERTEX
  8
0
 10
8.47691727
 20
44.49976349
 30
0.0
  0
VERTEX
  8
0
 10
8.44705009
 20
45.49783707
 30
0.0
  0
VERTEX
  8
0
 10
8.3425169
 20
46.47557831
 30
0.0
  0
VERTEX
  8
0
 10
8.09856892
 20
47.31334686
 30
0.0
  0
VERTEX
  8
0
 10
7.33799458
 20
48.29935074
 30
0.0
  0
VERTEX
  8
0
 10
6.57304144
 20
48.67401123
 30
0.0
  0
VERTEX
  8
0
 10
5.42768764
 20
49.05837631
 30
0.0
  0
VERTEX
  8
0
 10
4.47740793
 20
49.21114349
 30
0.0
  0
VERTEX
  8
0
 10
3.48592377
 20
49.30184937
 30
0.0
  0
VERTEX
  8
0
 10
2.48933125
 20
49.36912918
 30
0.0
  0
VERTEX
  8
0
 10
1.49713266
 20
49.41206741
 30
0.0
  0
VERTEX
  8
0
 10
0.50161582
 20
49.42567444
 30
0.0
  0
VERTEX
  8
0
 10
-0.49645996
 20
49.40745163
 30
0.0
  0
VERTEX
  8
0
 10
-1.49424016
 20
49.36968231
 30
0.0
  0
VERTEX
  8
0
 10
-2.49100518
 20
49.32010269
 30
0.0
  0
VERTEX
  8
0
 10
-3.48380232
 20
49.2583847
 30
0.0
  0
VERTEX
  8
0
 10
-4.46431875
 20
49.1713562
 30
0.0
  0
VERTEX
  8
0
 10
-5.4268527
 20
49.03579712
 30
0.0
  0
VERTEX
  8
0
 10
-6.56677294
 20
48.76220703
 30
0.0
  0
VERTEX
  8
0
 10
-7.4763875
 20
48.45083618
 30
0.0
  0
VERTEX
  8
0
 10
-8.60382652
 20
47.58730698
 30
0.0
  0
VERTEX
  8
0
 10
-9.25017548
 20
46.42490768
 30
0.0
  0
VERTEX
  8
0
 10
-9.42901325
 20
45.49215317
 30
0.0
  0
VERTEX
  8
0
 10
-9.5094223
 20
44.50019073
 30
0.0
  0
VERTEX
  8
0
 10
-9.55118275
 20
43.50232697
 30
0.0
  0
VERTEX
  8
0
 10
-9.58708
 20
42.50488663
 30
0.0
  0
VERTEX
  8
0
 10
-9.62281227
 20
41.50313187
 30
0.0
  0
VERTEX
  8
0
 10
-9.66920185
 20
40.50777054
 30
0.0
  0
VERTEX
  8
0
 10
-9.75605392
 20
39.53334045
 30
0.0
  0
VERTEX
  8
0
 10
-9.9499588
 20
38.59695053
 30
0.0
  0
VERTEX
  8
0
 10
-10.41299725
 20
37.45160675
 30
0.0
  0
VERTEX
  8
0
 10
-11.41022301
 20
36.36782837
 30
0.0
  0
VERTEX
  8
0
 10
-12.57845306
 20
35.67750168
 30
0.0
  0
VERTEX
  8
0
 10
-13.44273567
 20
35.35604477
 30
0.0
  0
VERTEX
  8
0
 10
-14.61433887
 20
34.79864883
 30
0.0
  0
VERTEX
  8
0
 10
-15.49379444
 20
34.4832077
 30
0.0
  0
VERTEX
  8
0
 10
-16.39958382
 20
34.18818283
 30
0.0
  0
VERTEX
  8
0
 10
-17.5594368
 20
33.87247086
 30
0.0
  0
VERTEX
  8
0
 10
-18.49526024
 20
33.80646133
 30
0.0
  0
VERTEX
  8
0
 10
-19.44695854
 20
33.8855629
 30
0.0
  0
VERTEX
  8
0
 10
-20.59388924
 20
34.2319603
 30
0.0
  0
VERTEX
  8
0
 10
-21.44681931
 20
34.58622742
 30
0.0
  0
VERTEX
  8
0
 10
-22.53750038
 20
35.45869064
 30
0.0
  0
VERTEX
  8
0
 10
-23.55310249
 20
36.4492569
 30
0.0
  0
VERTEX
  8
0
 10
-24.52992058
 20
37.4705162
 30
0.0
  0
VERTEX
  8
0
 10
-25.5345459
 20
38.46279526
 30
0.0
  0
VERTEX
  8
0
 10
-26.62027931
 20
39.31098938
 30
0.0
  0
VERTEX
  8
0
 10
-27.48229027
 20
39.56611633
 30
0.0
  0
VERTEX
  8
0
 10
-28.51975441
 20
39.60116577
 30
0.0
  0
VERTEX
  8
0
 10
-29.44292831
 20
39.39525986
 30
0.0
  0
VERTEX
  8
0
 10
-30.59797478
 20
38.62596512
 30
0.0
  0
VERTEX
  8
0
 10
-31.69526863
 20
37.73647308
 30
0.0
  0
VERTEX
  8
0
 10
-32.78009415
 20
36.80983734
 30
0.0
  0
VERTEX
  8
0
 10
-33.81230545
 20
35.81495285
 30
0.0
  0
VERTEX
  8
0
 10
-34.80023193
 20
34.78038406
 30
0.0
  0
VERTEX
  8
0
 10
-35.79231262
 20
33.75666428
 30
0.0
  0
VERTEX
  8
0
 10
-36.72076035
 20
32.6814003
 30
0.0
  0
VERTEX
  8
0
 10
-37.61275864
 20
31.58698654
 30
0.0
  0
VERTEX
  8
0
 10
-38.45246887
 20
30.46895981
 30
0.0
  0
VERTEX
  8
0
 10
-38.90984344
 20
29.72834206
 30
0.0
  0
VERTEX
  8
0
 10
-39.38331985
 20
28.47533035
 30
0.0
  0
VERTEX
  8
0
 10
-39.39891815
 20
27.51355362
 30
0.0
  0
VERTEX
  8
0
 10
-39.0685463
 20
26.20550156
 30
0.0
  0
VERTEX
  8
0
 10
-38.53370285
 20
25.47550964
 30
0.0
  0
VERTEX
  8
0
 10
-37.61986542
 20
24.39078712
 30
0.0
  0
VERTEX
  8
0
 10
-36.65891647
 20
23.3508625
 30
0.0
  0
VERTEX
  8
0
 10
-35.7140274
 20
22.31976509
 30
0.0
  0
VERTEX
  8
0
 10
-34.88568115
 20
21.25091362
 30
0.0
  0
VERTEX
  8
0
 10
-34.43490601
 20
20.53625107
 30
0.0
  0
VERTEX
  8
0
 10
-33.82408142
 20
19.37261581
 30
0.0
  0
VERTEX
  8
0
 10
-33.63502121
 20
18.48329735
 30
0.0
  0
VERTEX
  8
0
 10
-33.6200676
 20
17.51500893
 30
0.0
  0
VERTEX
  8
0
 10
-33.76762772
 20
16.56865883
 30
0.0
  0
VERTEX
  8
0
 10
-34.21618271
 20
15.39059544
 30
0.0
  0
VERTEX
  8
0
 10
-34.52155685
 20
14.50791168
 30
0.0
  0
VERTEX
  8
0
 10
-34.8486557
 20
13.63547802
 30
0.0
  0
VERTEX
  8
0
 10
-35.43096161
 20
12.46757889
 30
0.0
  0
VERTEX
  8
0
 10
-36.08000183
 20
11.23298073
 30
0.0
  0
VERTEX
  8
0
 10
-37.15144348
 20
9.99734497
 30
0.0
  0
VERTEX
  8
0
 10
-38.49924088
 20
9.49696922
 30
0.0
  0
VERTEX
  8
0
 10
-39.48104477
 20
9.32371807
 30
0.0
  0
VERTEX
  8
0
 10
-40.48493958
 20
9.22586823
 30
0.0
  0
VERTEX
  8
0
 10
-41.49830246
 20
9.19300556
 30
0.0
  0
VERTEX
  8
0
 10
-42.50654602
 20
9.20052338
 30
0.0
  0
VERTEX
  8
0
 10
-43.5
 20
9.20845032
 30
0.0
  0
VERTEX
  8
0
 10
-44.48959732
 20
9.17926693
 30
0.0
  0
VERTEX
  8
0
 10
-45.44956207
 20
9.05868149
 30
0.0
  0
VERTEX
  8
0
 10
-46.58745193
 20
8.69460773
 30
0.0
  0
VERTEX
  8
0
 10
-47.75199127
 20
7.63925838
 30
0.0
  0
VERTEX
  8
0
 10
-48.25683212
 20
6.44742298
 30
0.0
  0
VERTEX
  8
0
 10
-48.42863464
 20
5.48938704
 30
0.0
  0
VERTEX
  8
0
 10
-48.53867722
 20
4.50374937
 30
0.0
  0
VERTEX
  8
0
 10
-48.60662079
 20
3.50707173
 30
0.0
  0
VERTEX
  8
0
 10
-48.64717484
 20
2.50226426
 30
0.0
  0
VERTEX
  8
0
 10
-48.66751862
 20
1.50347185
 30
0.0
  0
VERTEX
  8
0
 10
-48.67232895
 20
0.5
 30
0.0
  0
VERTEX
  8
0
 10
-48.65889359
 20
-0.50672561
 30
0.0
  0
VERTEX
  8
0
 10
-48.633358
 20
-1.5063169
 30
0.0
  0
VERTEX
  8
0
 10
-48.59414291
 20
-2.50448298
 30
0.0
  0
VERTEX
  8
0
 10
-48.54308319
 20
-3.5029633
 30
0.0
  0
VERTEX
  8
0
 10
-48.45831299
 20
-4.49470663
 30
0.0
  0
VERTEX
  8
0
 10
-48.31126785
 20
-5.46266842
 30
0.0
  0
VERTEX
  8
0
 10
-48.0282135
 20
-6.36021137
 30
0.0
  0
VERTEX
  8
0
 10
-47.51316071
 20
-7.50868559
 30
0.0
  0
VERTEX
  8
0
 10
-46.50959396
 20
-8.51449013
 30
0.0
  0
VERTEX
  8
0
 10
-45.61935043
 20
-8.86722946
 30
0.0
  0
VERTEX
  8
0
 10
-44.47193527
 20
-9.14718819
 30
0.0
  0
VERTEX
  8
0
 10
-43.49418259
 20
-9.23669052
 30
0.0
  0
VERTEX
  8
0
 10
-42.49394226
 20
-9.27581882
 30
0.0
  0
VERTEX
  8
0
 10
-41.49689865
 20
-9.30675983
 30
0.0
  0
VERTEX
  8
0
 10
-40.49094391
 20
-9.35813713
 30
0.0
  0
VERTEX
  8
0
 10
-39.49323273
 20
-9.45432568
 30
0.0
  0
VERTEX
  8
0
 10
-38.52364731
 20
-9.6064043
 30
0.0
  0
VERTEX
  8
0
 10
-37.6178093
 20
-9.85756397
 30
0.0
  0
VERTEX
  8
0
 10
-36.49979782
 20
-10.4997282
 30
0.0
  0
VERTEX
  8
0
 10
-35.54408264
 20
-11.52835846
 30
0.0
  0
VERTEX
  8
0
 10
-34.8527565
 20
-12.66362858
 30
0.0
  0
VERTEX
  8
0
 10
-34.49974442
 20
-13.49989319
 30
0.0
  0
VERTEX
  8
0
 10
-33.95764542
 20
-14.69692612
 30
0.0
  0
VERTEX
  8
0
 10
-33.58442307
 20
-15.5333128
 30
0.0
  0
VERTEX
  8
0
 10
-33.29301453
 20
-16.43024254
 30
0.0
  0
VERTEX
  8
0
 10
-32.92681885
 20
-17.58163261
 30
0.0
  0
VERTEX
  8
0
 10
-32.85244751
 20
-18.49446487
 30
0.0
  0
VERTEX
  8
0
 10
-33.00354767
 20
-19.36532974
 30
0.0
  0
VERTEX
  8
0
 10
-33.52068329
 20
-20.48638725
 30
0.0
  0
VERTEX
  8
0
 10
-34.04263306
 20
-21.03742599
 30
0.0
  0
VERTEX
  8
0
 10
-34.93940735
 20
-22.07875061
 30
0.0
  0
VERTEX
  8
0
 10
-35.92460251
 20
-23.07896423
 30
0.0
  0
VERTEX
  8
0
 10
-36.93290329
 20
-24.07076454
 30
0.0
  0
VERTEX
  8
0
 10
-37.93745422
 20
-25.13431549
 30
0.0
  0
VERTEX
  8
0
 10
-38.62575912
 20
-26.45350838
 30
0.0
  0
VERTEX
  8
0
 10
-38.72990036
 20
-27.5135231
 30
0.0
  0
VERTEX
  8
0
 10
-38.5485878
 20
-28.52057838
 30
0.0
  0
VERTEX
  8
0
 10
-37.89604187
 20
-29.76033401
 30
0.0
  0
VERTEX
  8
0
 10
-37.15037918
 20
-31.00644112
 30
0.0
  0
VERTEX
  8
0
 10
-36.53472137
 20
-31.52782631
 30
0.0
  0
VERTEX
  8
0
 10
-35.59552383
 20
-32.58444977
 30
0.0
  0
VERTEX
  8
0
 10
-34.64576721
 20
-33.63380051
 30
0.0
  0
VERTEX
  8
0
 10
-33.64456177
 20
-34.65513992
 30
0.0
  0
VERTEX
  8
0
 10
-32.58925629
 20
-35.60032272
 30
0.0
  0
VERTEX
  8
0
 10
-31.5514183
 20
-36.55810547
 30
0.0
  0
VERTEX
  8
0
 10
-30.49619484
 20
-37.49534988
 30
0.0
  0
VERTEX
  8
0
 10
-29.89727783
 20
-38.05273438
 30
0.0
  0
VERTEX
  8
0
 10
-28.57844353
 20
-38.68758011
 30
0.0
  0
VERTEX
  8
0
 10
-27.46583366
 20
-38.86222076
 30
0.0
  0
VERTEX
  8
0
 10
-26.41772842
 20
-38.74831009
 30
0.0
  0
VERTEX
  8
0
 10
-25.54302025
 20
-38.43317032
 30
0.0
  0
VERTEX
  8
0
 10
-24.4378376
 20
-37.57104111
 30
0.0
  0
VERTEX
  8
0
 10
-23.39872742
 20
-36.60984039
 30
0.0
  0
VERTEX
  8
0
 10
-22.37308311
 20
-35.63890839
 30
0.0
  0
VERTEX
  8
0
 10
-21.32801819
 20
-34.71875
 30
0.0
  0
VERTEX
  8
0
 10
-20.21193695
 20
-34.03236771
 30
0.0
  0
VERTEX
  8
0
 10
-19.45051003
 20
-33.63747406
 30
0.0
  0
VERTEX
  8
0
 10
-18.52121925
 20
-33.40315628
 30
0.0
  0
VERTEX
  8
0
 10
-17.51685143
 20
-33.27314377
 30
0.0
  0
VERTEX
  8
0
 10
-16.47736168
 20
-33.30918503
 30
0.0
  0
VERTEX
  8
0
 10
-15.49436951
 20
-33.47943115
 30
0.0
  0
VERTEX
  8
0
 10
-14.57672215
 20
-33.72496414
 30
0.0
  0
VERTEX
  8
0
 10
-13.39763641
 20
-34.23700333
 30
0.0
  0
VERTEX
  8
0
 10
-12.52373409
 20
-34.55754471
 30
0.0
  0
VERTEX
  8
0
 10
-11.68247223
 20
-34.9137764
 30
0.0
  0
VERTEX
  8
0
 10
-10.52920914
 20
-35.54787827
 30
0.0
  0
VERTEX
  8
0
 10
-9.46503735
 20
-36.47049332
 30
0.0
  0
VERTEX
  8
0
 10
-8.82146168
 20
-37.59391022
 30
0.0
  0
VERTEX
  8
0
 10
-8.63835716
 20
-38.51419067
 30
0.0
  0
VERTEX
  8
0
 10
-8.56219292
 20
-39.50157928
 30
0.0
  0
VERTEX
  8
0
 10
-8.52627754
 20
-40.50067139
 30
0.0
  0
VERTEX
  8
0
 10
-8.5023098
 20
-41.5001297
 30
0.0
  0
VERTEX
  8
0
 10
-8.48961926
 20
-42.49989319
 30
0.0
  0
VERTEX
  8
0
 10
-8.4762125
 20
-43.49987793
 30
0.0
  0
VERTEX
  8
0
 10
-8.41731167
 20
-44.4926796
 30
0.0
  0
VERTEX
  8
0
 10
-8.2453289
 20
-45.43777847
 30
0.0
  0
VERTEX
  8
0
 10
-7.59477806
 20
-46.59026337
 30
0.0
  0
VERTEX
  8
0
 10
-6.44403648
 20
-47.32174683
 30
0.0
  0
VERTEX
  8
0
 10
-5.50540113
 20
-47.52907181
 30
0.0
  0
VERTEX
  8
0
 10
-4.52334881
 20
-47.65652466
 30
0.0
  0
VERTEX
  8
0
 10
-3.52732682
 20
-47.75600815
 30
0.0
  0
VERTEX
  8
0
 10
-2.5234344
 20
-47.8417511
 30
0.0
  0
VERTEX
  8
0
 10
-1.51987112
 20
-47.92723083
 30
0.0
  0
VERTEX
  8
0
 10
-0.47657147
 20
-48.00507355
 30
0.0
  0
SEQEND
  0
POLYLINE
  8
0
 66
1
 10
0.0
 20
0.0
 30
0.0
 70
0
  0
VERTEX
  8
0
 10
-3.44667625
 20
-26.00605392
 30
0.0
  0
VERTEX
  8
0
 10
-2.46671247
 20
-26.13579559
 30
0.0
  0
VERTEX
  8
0
 10
-1.48761213
 20
-26.20423889
 30
0.0
  0
VERTEX
  8
0
 10
-0.5
 20
-26.23058319
 30
0.0
  0
VERTEX
  8
0
 10
0.49115163
 20
-26.21980095
 30
0.0
  0
VERTEX
  8
0
 10
1.48068178
 20
-26.1715889
 30
0.0
  0
VERTEX
  8
0
 10
2.45979261
 20
-26.06954575
 30
0.0
  0
VERTEX
  8
0
 10
3.56333494
 20
-25.86775208
 30
0.0
  0
VERTEX
  8
0
 10
4.53607464
 20
-25.68232346
 30
0.0
  0
VERTEX
  8
0
 10
5.50255919
 20
-25.51357841
 30
0.0
  0
VERTEX
  8
0
 10
6.4636426
 20
-25.33639145
 30
0.0
  0
VERTEX
  8
0
 10
7.38378906
 20
-25.07873535
 30
0.0
  0
VERTEX
  8
0
 10
8.54838276
 20
-24.64202881
 30
0.0
  0
VERTEX
  8
0
 10
9.4454937
 20
-24.35701942
 30
0.0
  0
VERTEX
  8
0
 10
10.63966942
 20
-23.82201576
 30
0.0
  0
VERTEX
  8
0
 10
11.47333527
 20
-23.4454155
 30
0.0
  0
VERTEX
  8
0
 10
12.65661907
 20
-22.78983498
 30
0.0
  0
VERTEX
  8
0
 10
13.43379688
 20
-22.3862133
 30
0.0
  0
VERTEX
  8
0
 10
14.5697403
 20
-21.60698128
 30
0.0
  0
VERTEX
  8
0
 10
15.71807098
 20
-20.78486824
 30
0.0
  0
VERTEX
  8
0
 10
16.86278534
 20
-19.91785049
 30
0.0
  0
VERTEX
  8
0
 10
17.94032288
 20
-18.95537758
 30
0.0
  0
VERTEX
  8
0
 10
18.92980957
 20
-17.87360382
 30
0.0
  0
VERTEX
  8
0
 10
19.82844925
 20
-16.7689476
 30
0.0
  0
VERTEX
  8
0
 10
20.705019
 20
-15.66317844
 30
0.0
  0
VERTEX
  8
0
 10
21.57066154
 20
-14.54942036
 30
0.0
  0
VERTEX
  8
0
 10
22.34017181
 20
-13.41421604
 30
0.0
  0
VERTEX
  8
0
 10
22.92301369
 20
-12.20401287
 30
0.0
  0
VERTEX
  8
0
 10
23.39038086
 20
-11.44968319
 30
0.0
  0
VERTEX
  8
0
 10
23.73683357
 20
-10.60187817
 30
0.0
  0
VERTEX
  8
0
 10
24.30217171
 20
-9.42568398
 30
0.0
  0
VERTEX
  8
0
 10
24.59350204
 20
-8.53245926
 30
0.0
  0
VERTEX
  8
0
 10
25.02784729
 20
-7.3714695
 30
0.0
  0
VERTEX
  8
0
 10
25.31533051
 20
-6.4570322
 30
0.0
  0
VERTEX
  8
0
 10
25.49997139
 20
-5.49999428
 30
0.0
  0
VERTEX
  8
0
 10
25.66224098
 20
-4.5277195
 30
0.0
  0
VERTEX
  8
0
 10
25.82858276
 20
-3.5415051
 30
0.0
  0
VERTEX
  8
0
 10
26.01129532
 20
-2.45773363
 30
0.0
  0
VERTEX
  8
0
 10
26.11969566
 20
-1.47647607
 30
0.0
  0
VERTEX
  8
0
 10
26.16765213
 20
-0.49335304
 30
0.0
  0
VERTEX
  8
0
 10
26.16984367
 20
0.49346223
 30
0.0
  0
VERTEX
  8
0
 10
26.12893867
 20
1.48135364
 30
0.0
  0
VERTEX
  8
0
 10
26.04454803
 20
2.46404338
 30
0.0
  0
VERTEX
  8
0
 10
25.88929749
 20
3.54507661
 30
0.0
  0
VERTEX
  8
0
 10
25.72056961
 20
4.5369482
 30
0.0
  0
VERTEX
  8
0
 10
25.55075073
 20
5.51064491
 30
0.0
  0
VERTEX
  8
0
 10
25.36978531
 20
6.47029066
 30
0.0
  0
VERTEX
  8
0
 10
25.12296104
 20
7.401299
 30
0.0
  0
VERTEX
  8
0
 10
24.69452858
 20
8.56216908
 30
0.0
  0
VERTEX
  8
0
 10
24.41900253
 20
9.470397
 30
0.0
  0
VERTEX
  8
0
 10
24.06861496
 20
10.32498074
 30
0.0
  0
VERTEX
  8
0
 10
23.51026344
 20
11.50453758
 30
0.0
  0
VERTEX
  8
0
 10
23.13545609
 20
12.32299614
 30
0.0
  0
VERTEX
  8
0
 10
22.48282433
 20
13.49023914
 30
0.0
  0
VERTEX
  8
0
 10
22.03909302
 20
14.23162365
 30
0.0
  0
VERTEX
  8
0
 10
21.34050751
 20
15.39618778
 30
0.0
  0
VERTEX
  8
0
 10
20.48348999
 20
16.48697662
 30
0.0
  0
VERTEX
  8
0
 10
19.90143967
 20
17.00351906
 30
0.0
  0
VERTEX
  8
0
 10
19.06259155
 20
18.08651352
 30
0.0
  0
VERTEX
  8
0
 10
18.08479309
 20
19.07139969
 30
0.0
  0
VERTEX
  8
0
 10
17.05607224
 20
19.98869133
 30
0.0
  0
VERTEX
  8
0
 10
16.51297188
 20
20.51639748
 30
0.0
  0
VERTEX
  8
0
 10
15.41428185
 20
21.38114738
 30
0.0
  0
VERTEX
  8
0
 10
14.29025745
 20
22.17731857
 30
0.0
  0
VERTEX
  8
0
 10
13.5526762
 20
22.59406471
 30
0.0
  0
VERTEX
  8
0
 10
12.39829445
 20
23.30001831
 30
0.0
  0
VERTEX
  8
0
 10
11.57602787
 20
23.66020203
 30
0.0
  0
VERTEX
  8
0
 10
10.4090271
 20
24.28733444
 30
0.0
  0
VERTEX
  8
0
 10
9.54174519
 20
24.60726166
 30
0.0
  0
VERTEX
  8
0
 10
8.37289524
 20
25.09598923
 30
0.0
  0
VERTEX
  8
0
 10
7.46391773
 20
25.37272835
 30
0.0
  0
VERTEX
  8
0
 10
6.5204134
 20
25.58207893
 30
0.0
  0
VERTEX
  8
0
 10
5.5698905
 20
25.82436371
 30
0.0
  0
VERTEX
  8
0
 10
4.43864155
 20
26.16433144
 30
0.0
  0
VERTEX
  8
0
 10
3.47386909
 20
26.33141327
 30
0.0
  0
VERTEX
  8
0
 10
2.49357438
 20
26.4313488
 30
0.0
  0
VERTEX
  8
0
 10
1.49985051
 20
26.49700928
 30
0.0
  0
VERTEX
  8
0
 10
0.50135225
 20
26.53805542
 30
0.0
  0
VERTEX
  8
0
 10
-0.5
 20
26.54929543
 30
0.0
  0
VERTEX
  8
0
 10
-1.50113869
 20
26.52231979
 30
0.0
  0
VERTEX
  8
0
 10
-2.49704647
 20
26.46560097
 30
0.0
  0
VERTEX
  8
0
 10
-3.48818398
 20
26.38361359
 30
0.0
  0
VERTEX
  8
0
 10
-4.4661355
 20
26.26899719
 30
0.0
  0
VERTEX
  8
0
 10
-5.41971445
 20
26.0796814
 30
0.0
  0
VERTEX
  8
0
 10
-6.55378437
 20
25.75901413
 30
0.0
  0
VERTEX
  8
0
 10
-7.50954771
 20
25.53819084
 30
0.0
  0
VERTEX
  8
0
 10
-8.44205093
 20
25.30988693
 30
0.0
  0
VERTEX
  8
0
 10
-9.61631775
 20
24.83732224
 30
0.0
  0
VERTEX
  8
0
 10
-10.50161839
 20
24.50426292
 30
0.0
  0
VERTEX
  8
0
 10
-11.36161137
 20
24.17393303
 30
0.0
  0
VERTEX
  8
0
 10
-12.53109646
 20
23.56438828
 30
0.0
  0
VERTEX
  8
0
 10
-13.33848
 20
23.19531441
 30
0.0
  0
VERTEX
  8
0
 10
-14.47918224
 20
22.46649361
 30
0.0
  0
VERTEX
  8
0
 10
-15.60516548
 20
21.65296936
 30
0.0
  0
VERTEX
  8
0
 10
-16.74863052
 20
20.81966782
 30
0.0
  0
VERTEX
  8
0
 10
-17.86818123
 20
19.92260933
 30
0.0
  0
VERTEX
  8
0
 10
-18.96800423
 20
18.95640182
 30
0.0
  0
VERTEX
  8
0
 10
-19.90965462
 20
17.86553764
 30
0.0
  0
VERTEX
  8
0
 10
-20.79800415
 20
16.74419785
 30
0.0
  0
VERTEX
  8
0
 10
-21.64798164
 20
15.60413456
 30
0.0
  0
VERTEX
  8
0
 10
-22.44167137
 20
14.46566963
 30
0.0
  0
VERTEX
  8
0
 10
-22.87461472
 20
13.70708466
 30
0.0
  0
VERTEX
  8
0
 10
-23.53770638
 20
12.51959038
 30
0.0
  0
VERTEX
  8
0
 10
-24.00351715
 20
11.74067497
 30
0.0
  0
VERTEX
  8
0
 10
-24.5339489
 20
10.51402187
 30
0.0
  0
VERTEX
  8
0
 10
-24.89710999
 20
9.65094852
 30
0.0
  0
VERTEX
  8
0
 10
-25.36278915
 20
8.45663261
 30
0.0
  0
VERTEX
  8
0
 10
-25.60613441
 20
7.53134584
 30
0.0
  0
VERTEX
  8
0
 10
-25.88011932
 20
6.59556055
 30
0.0
  0
VERTEX
  8
0
 10
-26.2181778
 20
5.44422245
 30
0.0
  0
VERTEX
  8
0
 10
-26.38609886
 20
4.48204517
 30
0.0
  0
VERTEX
  8
0
 10
-26.50473785
 20
3.50060105
 30
0.0
  0
VERTEX
  8
0
 10
-26.59103012
 20
2.50766087
 30
0.0
  0
VERTEX
  8
0
 10
-26.64231873
 20
1.50354028
 30
0.0
  0
VERTEX
  8
0
 10
-26.65917587
 20
0.50238764
 30
0.0
  0
VERTEX
  8
0
 10
-26.64328575
 20
-0.50432014
 30
0.0
  0
VERTEX
  8
0
 10
-26.59565353
 20
-1.50710297
 30
0.0
  0
VERTEX
  8
0
 10
-26.5242157
 20
-2.50187182
 30
0.0
  0
VERTEX
  8
0
 10
-26.42341995
 20
-3.48927116
 30
0.0
  0
VERTEX
  8
0
 10
-26.28017616
 20
-4.45802355
 30
0.0
  0
VERTEX
  8
0
 10
-26.0513382
 20
-5.41026783
 30
0.0
  0
VERTEX
  8
0
 10
-25.72492599
 20
-6.55305958
 30
0.0
  0
VERTEX
  8
0
 10
-25.49943542
 20
-7.49984455
 30
0.0
  0
VERTEX
  8
0
 10
-25.24507332
 20
-8.41776562
 30
0.0
  0
VERTEX
  8
0
 10
-24.74681664
 20
-9.59049988
 30
0.0
  0
VERTEX
  8
0
 10
-24.4436245
 20
-10.47799206
 30
0.0
  0
VERTEX
  8
0
 10
-23.89360619
 20
-11.68240261
 30
0.0
  0
VERTEX
  8
0
 10
-23.48939705
 20
-12.49457836
 30
0.0
  0
VERTEX
  8
0
 10
-22.79007721
 20
-13.67367744
 30
0.0
  0
VERTEX
  8
0
 10
-22.10268211
 20
-14.91518021
 30
0.0
  0
VERTEX
  8
0
 10
-21.51108932
 20
-15.50824833
 30
0.0
  0
VERTEX
  8
0
 10
-20.63542938
 20
-16.60672951
 30
0.0
  0
VERTEX
  8
0
 10
-19.72125435
 20
-17.70173073
 30
0.0
  0
VERTEX
  8
0
 10
-18.71178436
 20
-18.72179031
 30
0.0
  0
VERTEX
  8
0
 10
-17.64044952
 20
-19.67113686
 30
0.0
  0
VERTEX
  8
0
 10
-16.54787636
 20
-20.56248283
 30
0.0
  0
VERTEX
  8
0
 10
-16.02685356
 20
-21.21946716
 30
0.0
  0
VERTEX
  8
0
 10
-14.72260857
 20
-21.86233139
 30
0.0
  0
VERTEX
  8
0
 10
-13.53742218
 20
-22.56657219
 30
0.0
  0
VERTEX
  8
0
 10
-12.80152702
 20
-23.07564354
 30
0.0
  0
VERTEX
  8
0
 10
-11.55081654
 20
-23.61483383
 30
0.0
  0
VERTEX
  8
0
 10
-10.74087334
 20
-24.0796032
 30
0.0
  0
VERTEX
  8
0
 10
-9.49882698
 20
-24.4967308
 30
0.0
  0
VERTEX
  8
0
 10
-8.59527969
 20
-24.79252434
 30
0.0
  0
VERTEX
  8
0
 10
-7.42677021
 20
-25.22650909
 30
0.0
  0
VERTEX
  8
0
 10
-6.48773813
 20
-25.44453049
 30
0.0
  0
VERTEX
  8
0
 10
-5.52211571
 20
-25.62358856
 30
0.0
  0
VERTEX
  8
0
 10
-4.53872204
 20
-25.79686737
 30
0.0
  0
VERTEX
  8
0
 10
-3.44667625
 20
-26.00605392
 30
0.0
  0
SEQEND
  0
ENDSEC
  0
SECTION
  2
OBJECTS
  0
ENDSEC
  0
EOF
