999
DXF file created by HALCON
  0
SECTION
  2
HEADER
  9
$ACADVER
  1
AC1009
  0
ENDSEC
  0
SECTION
  2
TABLES
  0
TABLE
  2
LTYPE
 70
1
  0
LTYPE
  2
CONTINUOUS
 70
0
  3
Solid line
 72
65
 73
0
 40
0
  0
ENDTAB
  0
TABLE
  2
LAYER
 70
1
  0
LAYER
  2
0
 70
0
 62
7
  6
CONTINUOUS
  0
ENDTAB
  0
TABLE
  2
APPID
 70
2
  0
APPID
  2
ACAD
 70
64
  0
APPID
  2
HALCON
 70
64
  0
ENDTAB
  0
ENDSEC
  0
SECTION
  2
BLOCKS
  0
ENDSEC
  0
SECTION
  2
ENTITIES
  0
POLYLINE
  8
0
 66
1
 10
0.0
 20
0.0
 30
0.0
 70
0
  0
VERTEX
  8
0
 10
-21.42580032
 20
-38.27740097
 30
0.0
  0
VERTEX
  8
0
 10
-20.50931358
 20
-38.54527664
 30
0.0
  0
VERTEX
  8
0
 10
-19.52956772
 20
-38.7092514
 30
0.0
  0
VERTEX
  8
0
 10
-18.51743889
 20
-38.79803848
 30
0.0
  0
VERTEX
  8
0
 10
-17.5
 20
-38.83060074
 30
0.0
  0
VERTEX
  8
0
 10
-16.49654961
 20
-38.82611847
 30
0.0
  0
VERTEX
  8
0
 10
-15.50164127
 20
-38.81343842
 30
0.0
  0
VERTEX
  8
0
 10
-14.5
 20
-38.80348206
 30
0.0
  0
VERTEX
  8
0
 10
-13.49849129
 20
-38.79712677
 30
0.0
  0
VERTEX
  8
0
 10
-12.5
 20
-38.79277039
 30
0.0
  0
VERTEX
  8
0
 10
-11.50454903
 20
-38.79571533
 30
0.0
  0
VERTEX
  8
0
 10
-10.50475883
 20
-38.80459213
 30
0.0
  0
VERTEX
  8
0
 10
-9.49675655
 20
-38.81139755
 30
0.0
  0
VERTEX
  8
0
 10
-8.49838448
 20
-38.8102684
 30
0.0
  0
VERTEX
  8
0
 10
-7.50477695
 20
-38.80889893
 30
0.0
  0
VERTEX
  8
0
 10
-6.50314569
 20
-38.80828094
 30
0.0
  0
VERTEX
  8
0
 10
-5.49686956
 20
-38.80678558
 30
0.0
  0
VERTEX
  8
0
 10
-4.49693394
 20
-38.79895401
 30
0.0
  0
VERTEX
  8
0
 10
-3.49708271
 20
-38.78588486
 30
0.0
  0
VERTEX
  8
0
 10
-2.49860787
 20
-38.77566147
 30
0.0
  0
VERTEX
  8
0
 10
-1.50417912
 20
-38.77721405
 30
0.0
  0
VERTEX
  8
0
 10
-0.50585747
 20
-38.78847885
 30
0.0
  0
VERTEX
  8
0
 10
0.49695972
 20
-38.79946899
 30
0.0
  0
VERTEX
  8
0
 10
1.50446677
 20
-38.79480362
 30
0.0
  0
VERTEX
  8
0
 10
2.50430274
 20
-38.78684235
 30
0.0
  0
VERTEX
  8
0
 10
3.4971354
 20
-38.78501892
 30
0.0
  0
VERTEX
  8
0
 10
4.49561262
 20
-38.79101944
 30
0.0
  0
VERTEX
  8
0
 10
5.50292492
 20
-38.79103851
 30
0.0
  0
VERTEX
  8
0
 10
6.50144053
 20
-38.78668594
 30
0.0
  0
VERTEX
  8
0
 10
7.49855042
 20
-38.78557968
 30
0.0
  0
VERTEX
  8
0
 10
8.49700356
 20
-38.79213333
 30
0.0
  0
VERTEX
  8
0
 10
9.49533653
 20
-38.79998779
 30
0.0
  0
VERTEX
  8
0
 10
10.49521637
 20
-38.80934143
 30
0.0
  0
VERTEX
  8
0
 10
11.49836731
 20
-38.81835175
 30
0.0
  0
VERTEX
  8
0
 10
12.5
 20
-38.82793045
 30
0.0
  0
VERTEX
  8
0
 10
13.49824905
 20
-38.83970642
 30
0.0
  0
VERTEX
  8
0
 10
14.5
 20
-38.84375
 30
0.0
  0
VERTEX
  8
0
 10
15.50705719
 20
-38.83520889
 30
0.0
  0
VERTEX
  8
0
 10
16.50795555
 20
-38.8038826
 30
0.0
  0
VERTEX
  8
0
 10
17.51069832
 20
-38.75941849
 30
0.0
  0
VERTEX
  8
0
 10
18.5178833
 20
-38.69174576
 30
0.0
  0
VERTEX
  8
0
 10
19.51386642
 20
-38.58893967
 30
0.0
  0
VERTEX
  8
0
 10
20.47538185
 20
-38.40376282
 30
0.0
  0
VERTEX
  8
0
 10
21.71093369
 20
-37.84402084
 30
0.0
  0
VERTEX
  8
0
 10
22.88801765
 20
-36.90488815
 30
0.0
  0
VERTEX
  8
0
 10
23.82056808
 20
-35.747612
 30
0.0
  0
VERTEX
  8
0
 10
24.60718727
 20
-34.56505585
 30
0.0
  0
VERTEX
  8
0
 10
25.36857224
 20
-33.42039108
 30
0.0
  0
VERTEX
  8
0
 10
26.03816795
 20
-32.22937393
 30
0.0
  0
VERTEX
  8
0
 10
26.50107765
 20
-31.50062752
 30
0.0
  0
VERTEX
  8
0
 10
27.23305511
 20
-30.34654617
 30
0.0
  0
VERTEX
  8
0
 10
27.63387299
 20
-29.5753994
 30
0.0
  0
VERTEX
  8
0
 10
28.35424423
 20
-28.41874504
 30
0.0
  0
VERTEX
  8
0
 10
28.96154594
 20
-27.20243263
 30
0.0
  0
VERTEX
  8
0
 10
29.44178772
 20
-26.46958542
 30
0.0
  0
VERTEX
  8
0
 10
30.11012077
 20
-25.284729
 30
0.0
  0
VERTEX
  8
0
 10
30.53486443
 20
-24.51967239
 30
0.0
  0
VERTEX
  8
0
 10
31.24931145
 20
-23.36008072
 30
0.0
  0
VERTEX
  8
0
 10
31.63796997
 20
-22.57561111
 30
0.0
  0
VERTEX
  8
0
 10
32.36779022
 20
-21.42204857
 30
0.0
  0
VERTEX
  8
0
 10
32.99636459
 20
-20.22881126
 30
0.0
  0
VERTEX
  8
0
 10
33.47114182
 20
-19.48403931
 30
0.0
  0
VERTEX
  8
0
 10
34.15894318
 20
-18.30570221
 30
0.0
  0
VERTEX
  8
0
 10
34.56294632
 20
-17.5332222
 30
0.0
  0
VERTEX
  8
0
 10
35.26989365
 20
-16.3694725
 30
0.0
  0
VERTEX
  8
0
 10
35.84397125
 20
-15.12958908
 30
0.0
  0
VERTEX
  8
0
 10
36.38227463
 20
-14.43915367
 30
0.0
  0
VERTEX
  8
0
 10
36.99479675
 20
-13.22149086
 30
0.0
  0
VERTEX
  8
0
 10
37.45882797
 20
-12.47839165
 30
0.0
  0
VERTEX
  8
0
 10
38.10855103
 20
-11.28603935
 30
0.0
  0
VERTEX
  8
0
 10
38.54128647
 20
-10.52362633
 30
0.0
  0
VERTEX
  8
0
 10
39.28847122
 20
-9.3735981
 30
0.0
  0
VERTEX
  8
0
 10
39.90752792
 20
-8.17720413
 30
0.0
  0
VERTEX
  8
0
 10
40.41374588
 20
-7.45637131
 30
0.0
  0
VERTEX
  8
0
 10
41.02682877
 20
-6.2480526
 30
0.0
  0
VERTEX
  8
0
 10
41.44632339
 20
-5.4725523
 30
0.0
  0
VERTEX
  8
0
 10
42.04299545
 20
-4.27149773
 30
0.0
  0
VERTEX
  8
0
 10
42.46699524
 20
-3.48340273
 30
0.0
  0
VERTEX
  8
0
 10
42.85504913
 20
-2.65923429
 30
0.0
  0
VERTEX
  8
0
 10
43.30929947
 20
-1.44799101
 30
0.0
  0
VERTEX
  8
0
 10
43.41029739
 20
-0.49722573
 30
0.0
  0
VERTEX
  8
0
 10
43.35655212
 20
0.4713107
 30
0.0
  0
VERTEX
  8
0
 10
43.14395142
 20
1.38000572
 30
0.0
  0
VERTEX
  8
0
 10
42.62626266
 20
2.5534184
 30
0.0
  0
VERTEX
  8
0
 10
42.29536057
 20
3.40511107
 30
0.0
  0
VERTEX
  8
0
 10
41.63411331
 20
4.57010555
 30
0.0
  0
VERTEX
  8
0
 10
41.27571869
 20
5.38657045
 30
0.0
  0
VERTEX
  8
0
 10
40.59472656
 20
6.55237722
 30
0.0
  0
VERTEX
  8
0
 10
40.22220993
 20
7.34450769
 30
0.0
  0
VERTEX
  8
0
 10
39.4955864
 20
8.49744606
 30
0.0
  0
VERTEX
  8
0
 10
39.06797791
 20
9.25226593
 30
0.0
  0
VERTEX
  8
0
 10
38.34994888
 20
10.41737747
 30
0.0
  0
VERTEX
  8
0
 10
37.78163147
 20
11.08410263
 30
0.0
  0
VERTEX
  8
0
 10
37.18463898
 20
12.32323837
 30
0.0
  0
VERTEX
  8
0
 10
36.48947144
 20
13.49464226
 30
0.0
  0
VERTEX
  8
0
 10
36.09116364
 20
14.29558182
 30
0.0
  0
VERTEX
  8
0
 10
35.44576645
 20
15.47111893
 30
0.0
  0
VERTEX
  8
0
 10
34.99494934
 20
16.23737335
 30
0.0
  0
VERTEX
  8
0
 10
34.35335159
 20
17.42131233
 30
0.0
  0
VERTEX
  8
0
 10
33.77607346
 20
18.07948494
 30
0.0
  0
VERTEX
  8
0
 10
33.2321167
 20
19.34786797
 30
0.0
  0
VERTEX
  8
0
 10
32.51293945
 20
20.50745773
 30
0.0
  0
VERTEX
  8
0
 10
32.06447601
 20
21.24380875
 30
0.0
  0
VERTEX
  8
0
 10
31.38903618
 20
22.43935776
 30
0.0
  0
VERTEX
  8
0
 10
30.85645866
 20
23.14737511
 30
0.0
  0
VERTEX
  8
0
 10
30.29592896
 20
24.38649178
 30
0.0
  0
VERTEX
  8
0
 10
29.57705879
 20
25.54231453
 30
0.0
  0
VERTEX
  8
0
 10
29.17496872
 20
26.31654549
 30
0.0
  0
VERTEX
  8
0
 10
28.46776962
 20
27.48211479
 30
0.0
  0
VERTEX
  8
0
 10
28.00401688
 20
28.2179718
 30
0.0
  0
VERTEX
  8
0
 10
27.35864067
 20
29.41957092
 30
0.0
  0
VERTEX
  8
0
 10
26.74481392
 20
30.09864235
 30
0.0
  0
VERTEX
  8
0
 10
26.22724724
 20
31.33897781
 30
0.0
  0
VERTEX
  8
0
 10
25.49214745
 20
32.49532318
 30
0.0
  0
VERTEX
  8
0
 10
25.0190506
 20
33.20832825
 30
0.0
  0
VERTEX
  8
0
 10
24.34093666
 20
34.40621567
 30
0.0
  0
VERTEX
  8
0
 10
23.55074883
 20
35.53580475
 30
0.0
  0
VERTEX
  8
0
 10
23.07951736
 20
36.14855194
 30
0.0
  0
VERTEX
  8
0
 10
22.08638763
 20
36.97172546
 30
0.0
  0
VERTEX
  8
0
 10
21.45314407
 20
37.39442062
 30
0.0
  0
VERTEX
  8
0
 10
20.54534912
 20
37.68341446
 30
0.0
  0
VERTEX
  8
0
 10
19.55909348
 20
37.90910721
 30
0.0
  0
VERTEX
  8
0
 10
18.46648216
 20
38.0866127
 30
0.0
  0
VERTEX
  8
0
 10
17.48635674
 20
38.17254639
 30
0.0
  0
VERTEX
  8
0
 10
16.49435997
 20
38.22225571
 30
0.0
  0
VERTEX
  8
0
 10
15.49490643
 20
38.2466011
 30
0.0
  0
VERTEX
  8
0
 10
14.49410057
 20
38.2663765
 30
0.0
  0
VERTEX
  8
0
 10
13.49382019
 20
38.29400253
 30
0.0
  0
VERTEX
  8
0
 10
12.49499321
 20
38.33061218
 30
0.0
  0
VERTEX
  8
0
 10
11.49605656
 20
38.36593246
 30
0.0
  0
VERTEX
  8
0
 10
10.49685097
 20
38.39399338
 30
0.0
  0
VERTEX
  8
0
 10
9.49865723
 20
38.40960312
 30
0.0
  0
VERTEX
  8
0
 10
8.49957848
 20
38.41612244
 30
0.0
  0
VERTEX
  8
0
 10
7.49957037
 20
38.41490936
 30
0.0
  0
VERTEX
  8
0
 10
6.5
 20
38.41570282
 30
0.0
  0
VERTEX
  8
0
 10
5.50040817
 20
38.41799927
 30
0.0
  0
VERTEX
  8
0
 10
4.50079155
 20
38.41926193
 30
0.0
  0
VERTEX
  8
0
 10
3.50085211
 20
38.41264725
 30
0.0
  0
VERTEX
  8
0
 10
2.5
 20
38.40444565
 30
0.0
  0
VERTEX
  8
0
 10
1.49949324
 20
38.39864349
 30
0.0
  0
VERTEX
  8
0
 10
0.50100273
 20
38.3987236
 30
0.0
  0
VERTEX
  8
0
 10
-0.49950129
 20
38.39826202
 30
0.0
  0
VERTEX
  8
0
 10
-1.49949288
 20
38.39654922
 30
0.0
  0
VERTEX
  8
0
 10
-2.49841809
 20
38.39189911
 30
0.0
  0
VERTEX
  8
0
 10
-3.49769855
 20
38.38205338
 30
0.0
  0
VERTEX
  8
0
 10
-4.49804163
 20
38.36683655
 30
0.0
  0
VERTEX
  8
0
 10
-5.5
 20
38.35412216
 30
0.0
  0
VERTEX
  8
0
 10
-6.5007329
 20
38.35268402
 30
0.0
  0
VERTEX
  8
0
 10
-7.5
 20
38.35840607
 30
0.0
  0
VERTEX
  8
0
 10
-8.5
 20
38.36343765
 30
0.0
  0
VERTEX
  8
0
 10
-9.50133038
 20
38.36695099
 30
0.0
  0
VERTEX
  8
0
 10
-10.50129604
 20
38.37101746
 30
0.0
  0
VERTEX
  8
0
 10
-11.49879074
 20
38.37843704
 30
0.0
  0
VERTEX
  8
0
 10
-12.5
 20
38.38274384
 30
0.0
  0
VERTEX
  8
0
 10
-13.49882317
 20
38.3799324
 30
0.0
  0
VERTEX
  8
0
 10
-14.49736595
 20
38.36567688
 30
0.0
  0
VERTEX
  8
0
 10
-15.49606037
 20
38.34161758
 30
0.0
  0
VERTEX
  8
0
 10
-16.49225998
 20
38.30747986
 30
0.0
  0
VERTEX
  8
0
 10
-17.4855175
 20
38.26104736
 30
0.0
  0
VERTEX
  8
0
 10
-18.47081757
 20
38.18710709
 30
0.0
  0
VERTEX
  8
0
 10
-19.44540596
 20
38.06799698
 30
0.0
  0
VERTEX
  8
0
 10
-20.57113075
 20
37.80941391
 30
0.0
  0
VERTEX
  8
0
 10
-21.4990654
 20
37.49782944
 30
0.0
  0
VERTEX
  8
0
 10
-22.67507553
 20
36.67783356
 30
0.0
  0
VERTEX
  8
0
 10
-23.59705925
 20
35.56818771
 30
0.0
  0
VERTEX
  8
0
 10
-24.39773369
 20
34.43669128
 30
0.0
  0
VERTEX
  8
0
 10
-24.82653046
 20
33.70125961
 30
0.0
  0
VERTEX
  8
0
 10
-25.56019974
 20
32.53543091
 30
0.0
  0
VERTEX
  8
0
 10
-26.0754528
 20
31.83376312
 30
0.0
  0
VERTEX
  8
0
 10
-26.68959045
 20
30.60912514
 30
0.0
  0
VERTEX
  8
0
 10
-27.41075134
 20
29.45337105
 30
0.0
  0
VERTEX
  8
0
 10
-27.79948807
 20
28.65407181
 30
0.0
  0
VERTEX
  8
0
 10
-28.4788475
 20
27.48867226
 30
0.0
  0
VERTEX
  8
0
 10
-28.90272331
 20
26.72236252
 30
0.0
  0
VERTEX
  8
0
 10
-29.59162712
 20
25.55049896
 30
0.0
  0
VERTEX
  8
0
 10
-30.13510704
 20
24.85378456
 30
0.0
  0
VERTEX
  8
0
 10
-30.69686508
 20
23.60810471
 30
0.0
  0
VERTEX
  8
0
 10
-31.42164803
 20
22.45490265
 30
0.0
  0
VERTEX
  8
0
 10
-31.83592987
 20
21.68247986
 30
0.0
  0
VERTEX
  8
0
 10
-32.52920532
 20
20.51637459
 30
0.0
  0
VERTEX
  8
0
 10
-32.99130249
 20
19.77436447
 30
0.0
  0
VERTEX
  8
0
 10
-33.62960052
 20
18.5711689
 30
0.0
  0
VERTEX
  8
0
 10
-34.22373199
 20
17.9239006
 30
0.0
  0
VERTEX
  8
0
 10
-34.75962067
 20
16.64371872
 30
0.0
  0
VERTEX
  8
0
 10
-35.47069931
 20
15.48349857
 30
0.0
  0
VERTEX
  8
0
 10
-35.9085083
 20
14.73677921
 30
0.0
  0
VERTEX
  8
0
 10
-36.6079483
 20
13.56177425
 30
0.0
  0
VERTEX
  8
0
 10
-37.18693924
 20
12.91025448
 30
0.0
  0
VERTEX
  8
0
 10
-37.75847244
 20
11.64682484
 30
0.0
  0
VERTEX
  8
0
 10
-38.46380997
 20
10.48059177
 30
0.0
  0
VERTEX
  8
0
 10
-38.88113403
 20
9.70683479
 30
0.0
  0
VERTEX
  8
0
 10
-39.5606575
 20
8.53377438
 30
0.0
  0
VERTEX
  8
0
 10
-40.06246948
 20
7.82842207
 30
0.0
  0
VERTEX
  8
0
 10
-40.68722916
 20
6.6006484
 30
0.0
  0
VERTEX
  8
0
 10
-41.37730408
 20
5.43796206
 30
0.0
  0
VERTEX
  8
0
 10
-41.75526428
 20
4.62911558
 30
0.0
  0
VERTEX
  8
0
 10
-42.42689896
 20
3.46344876
 30
0.0
  0
VERTEX
  8
0
 10
-42.80373383
 20
2.63458848
 30
0.0
  0
VERTEX
  8
0
 10
-43.37620163
 20
1.45383799
 30
0.0
  0
VERTEX
  8
0
 10
-43.59061432
 20
0.51742601
 30
0.0
  0
VERTEX
  8
0
 10
-43.63106918
 20
-0.51158613
 30
0.0
  0
VERTEX
  8
0
 10
-43.47248459
 20
-1.49036932
 30
0.0
  0
VERTEX
  8
0
 10
-42.93877792
 20
-2.71799207
 30
0.0
  0
VERTEX
  8
0
 10
-42.49991989
 20
-3.49995804
 30
0.0
  0
VERTEX
  8
0
 10
-41.82036972
 20
-4.66971922
 30
0.0
  0
VERTEX
  8
0
 10
-41.42331696
 20
-5.45890474
 30
0.0
  0
VERTEX
  8
0
 10
-40.73752594
 20
-6.62075377
 30
0.0
  0
VERTEX
  8
0
 10
-40.36612701
 20
-7.43160868
 30
0.0
  0
VERTEX
  8
0
 10
-39.67058563
 20
-8.59097862
 30
0.0
  0
VERTEX
  8
0
 10
-39.08145523
 20
-9.81886196
 30
0.0
  0
VERTEX
  8
0
 10
-38.58598328
 20
-10.54345894
 30
0.0
  0
VERTEX
  8
0
 10
-37.93682861
 20
-11.74690247
 30
0.0
  0
VERTEX
  8
0
 10
-37.49416351
 20
-12.49670601
 30
0.0
  0
VERTEX
  8
0
 10
-36.77235413
 20
-13.65496063
 30
0.0
  0
VERTEX
  8
0
 10
-36.38376236
 20
-14.43619442
 30
0.0
  0
VERTEX
  8
0
 10
-35.67427444
 20
-15.59243393
 30
0.0
  0
VERTEX
  8
0
 10
-35.10148621
 20
-16.82596588
 30
0.0
  0
VERTEX
  8
0
 10
-34.58779907
 20
-17.54727554
 30
0.0
  0
VERTEX
  8
0
 10
-33.92547989
 20
-18.73637772
 30
0.0
  0
VERTEX
  8
0
 10
-33.48858643
 20
-19.49360275
 30
0.0
  0
VERTEX
  8
0
 10
-32.77875137
 20
-20.65396118
 30
0.0
  0
VERTEX
  8
0
 10
-32.38108063
 20
-21.43519592
 30
0.0
  0
VERTEX
  8
0
 10
-31.65473366
 20
-22.58605957
 30
0.0
  0
VERTEX
  8
0
 10
-31.05750656
 20
-23.79992485
 30
0.0
  0
VERTEX
  8
0
 10
-30.57474518
 20
-24.5379715
 30
0.0
  0
VERTEX
  8
0
 10
-29.93458366
 20
-25.73177719
 30
0.0
  0
VERTEX
  8
0
 10
-29.49762535
 20
-26.4986496
 30
0.0
  0
VERTEX
  8
0
 10
-28.79664421
 20
-27.66103554
 30
0.0
  0
VERTEX
  8
0
 10
-28.41173553
 20
-28.45490837
 30
0.0
  0
VERTEX
  8
0
 10
-27.69560623
 20
-29.61241722
 30
0.0
  0
VERTEX
  8
0
 10
-27.08285713
 20
-30.82927704
 30
0.0
  0
VERTEX
  8
0
 10
-26.57701874
 20
-31.5420475
 30
0.0
  0
VERTEX
  8
0
 10
-25.91977692
 20
-32.73292542
 30
0.0
  0
VERTEX
  8
0
 10
-25.4839077
 20
-33.49098206
 30
0.0
  0
VERTEX
  8
0
 10
-24.76301384
 20
-34.65073395
 30
0.0
  0
VERTEX
  8
0
 10
-24.14875221
 20
-35.96271133
 30
0.0
  0
VERTEX
  8
0
 10
-23.55424881
 20
-36.5397377
 30
0.0
  0
VERTEX
  8
0
 10
-22.58998108
 20
-37.6044426
 30
0.0
  0
VERTEX
  8
0
 10
-21.42580032
 20
-38.27740097
 30
0.0
  0
SEQEND
  0
POLYLINE
  8
0
 66
1
 10
0.0
 20
0.0
 30
0.0
 70
0
  0
VERTEX
  8
0
 10
-3.46097732
 20
-21.21183205
 30
0.0
  0
VERTEX
  8
0
 10
-2.48387122
 20
-21.33709908
 30
0.0
  0
VERTEX
  8
0
 10
-1.49511695
 20
-21.40855217
 30
0.0
  0
VERTEX
  8
0
 10
-0.50032318
 20
-21.43374825
 30
0.0
  0
VERTEX
  8
0
 10
0.49577221
 20
-21.41375351
 30
0.0
  0
VERTEX
  8
0
 10
1.48570192
 20
-21.34874153
 30
0.0
  0
VERTEX
  8
0
 10
2.46392465
 20
-21.23082161
 30
0.0
  0
VERTEX
  8
0
 10
3.42242408
 20
-21.02937317
 30
0.0
  0
VERTEX
  8
0
 10
4.55509663
 20
-20.75801277
 30
0.0
  0
VERTEX
  8
0
 10
5.51310205
 20
-20.55086708
 30
0.0
  0
VERTEX
  8
0
 10
6.43746805
 20
-20.30830383
 30
0.0
  0
VERTEX
  8
0
 10
7.61226845
 20
-19.75515556
 30
0.0
  0
VERTEX
  8
0
 10
8.46027279
 20
-19.41432381
 30
0.0
  0
VERTEX
  8
0
 10
9.64224243
 20
-18.77140427
 30
0.0
  0
VERTEX
  8
0
 10
10.94048119
 20
-18.21644402
 30
0.0
  0
VERTEX
  8
0
 10
11.56608582
 20
-17.60384941
 30
0.0
  0
VERTEX
  8
0
 10
12.70962238
 20
-16.78448868
 30
0.0
  0
VERTEX
  8
0
 10
13.84524536
 20
-15.87071419
 30
0.0
  0
VERTEX
  8
0
 10
14.87685108
 20
-14.85932255
 30
0.0
  0
VERTEX
  8
0
 10
15.85438347
 20
-13.7948885
 30
0.0
  0
VERTEX
  8
0
 10
16.72854996
 20
-12.66389465
 30
0.0
  0
VERTEX
  8
0
 10
17.53495789
 20
-11.52093315
 30
0.0
  0
VERTEX
  8
0
 10
18.2515583
 20
-10.36668968
 30
0.0
  0
VERTEX
  8
0
 10
18.63370323
 20
-9.56571865
 30
0.0
  0
VERTEX
  8
0
 10
19.23300362
 20
-8.38837433
 30
0.0
  0
VERTEX
  8
0
 10
19.53578568
 20
-7.51294374
 30
0.0
  0
VERTEX
  8
0
 10
19.8071785
 20
-6.58237219
 30
0.0
  0
VERTEX
  8
0
 10
20.18534088
 20
-5.43393898
 30
0.0
  0
VERTEX
  8
0
 10
20.38164711
 20
-4.4814105
 30
0.0
  0
VERTEX
  8
0
 10
20.50435257
 20
-3.50051069
 30
0.0
  0
VERTEX
  8
0
 10
20.59261703
 20
-2.50651574
 30
0.0
  0
VERTEX
  8
0
 10
20.65747261
 20
-1.51205146
 30
0.0
  0
VERTEX
  8
0
 10
20.69265938
 20
-0.50509685
 30
0.0
  0
VERTEX
  8
0
 10
20.67910004
 20
0.5116173
 30
0.0
  0
VERTEX
  8
0
 10
20.61267853
 20
1.50848114
 30
0.0
  0
VERTEX
  8
0
 10
20.50499535
 20
2.50069833
 30
0.0
  0
VERTEX
  8
0
 10
20.35222816
 20
3.47158217
 30
0.0
  0
VERTEX
  8
0
 10
20.09780502
 20
4.40550852
 30
0.0
  0
VERTEX
  8
0
 10
19.731884
 20
5.56509018
 30
0.0
  0
VERTEX
  8
0
 10
19.49013329
 20
6.49684715
 30
0.0
  0
VERTEX
  8
0
 10
19.15026474
 20
7.36373949
 30
0.0
  0
VERTEX
  8
0
 10
18.62100029
 20
8.55493259
 30
0.0
  0
VERTEX
  8
0
 10
18.24359512
 20
9.36749554
 30
0.0
  0
VERTEX
  8
0
 10
17.54888535
 20
10.52920437
 30
0.0
  0
VERTEX
  8
0
 10
17.03997803
 20
11.19213867
 30
0.0
  0
VERTEX
  8
0
 10
16.32460213
 20
12.36256123
 30
0.0
  0
VERTEX
  8
0
 10
15.42606735
 20
13.43453312
 30
0.0
  0
VERTEX
  8
0
 10
14.47909355
 20
14.47925758
 30
0.0
  0
VERTEX
  8
0
 10
13.46964741
 20
15.46588516
 30
0.0
  0
VERTEX
  8
0
 10
12.4059515
 20
16.37907982
 30
0.0
  0
VERTEX
  8
0
 10
11.28750134
 20
17.17096901
 30
0.0
  0
VERTEX
  8
0
 10
10.57527256
 20
17.62416077
 30
0.0
  0
VERTEX
  8
0
 10
9.41557884
 20
18.33697891
 30
0.0
  0
VERTEX
  8
0
 10
8.58658695
 20
18.68600082
 30
0.0
  0
VERTEX
  8
0
 10
7.40458488
 20
19.27100372
 30
0.0
  0
VERTEX
  8
0
 10
6.52345085
 20
19.57196999
 30
0.0
  0
VERTEX
  8
0
 10
5.59878874
 20
19.83983421
 30
0.0
  0
VERTEX
  8
0
 10
4.43942261
 20
20.23194504
 30
0.0
  0
VERTEX
  8
0
 10
3.49069381
 20
20.43618584
 30
0.0
  0
VERTEX
  8
0
 10
2.50914025
 20
20.56702995
 30
0.0
  0
VERTEX
  8
0
 10
1.51680124
 20
20.66633224
 30
0.0
  0
VERTEX
  8
0
 10
0.51237148
 20
20.74124336
 30
0.0
  0
VERTEX
  8
0
 10
-0.4895137
 20
20.7906208
 30
0.0
  0
VERTEX
  8
0
 10
-1.50155437
 20
20.79998398
 30
0.0
  0
VERTEX
  8
0
 10
-2.51586795
 20
20.75785637
 30
0.0
  0
VERTEX
  8
0
 10
-3.5184412
 20
20.67475128
 30
0.0
  0
VERTEX
  8
0
 10
-4.50988722
 20
20.56210327
 30
0.0
  0
VERTEX
  8
0
 10
-5.48375559
 20
20.41752815
 30
0.0
  0
VERTEX
  8
0
 10
-6.43276024
 20
20.21423149
 30
0.0
  0
VERTEX
  8
0
 10
-7.59677219
 20
19.81846809
 30
0.0
  0
VERTEX
  8
0
 10
-8.50839043
 20
19.52261734
 30
0.0
  0
VERTEX
  8
0
 10
-9.36247063
 20
19.18219566
 30
0.0
  0
VERTEX
  8
0
 10
-10.54124165
 20
18.59142685
 30
0.0
  0
VERTEX
  8
0
 10
-11.37452698
 20
18.24019623
 30
0.0
  0
VERTEX
  8
0
 10
-12.53714657
 20
17.56336784
 30
0.0
  0
VERTEX
  8
0
 10
-13.68280506
 20
16.74268913
 30
0.0
  0
VERTEX
  8
0
 10
-14.80254078
 20
15.85004711
 30
0.0
  0
VERTEX
  8
0
 10
-15.88957787
 20
14.90214539
 30
0.0
  0
VERTEX
  8
0
 10
-16.88181496
 20
13.84222031
 30
0.0
  0
VERTEX
  8
0
 10
-17.7573185
 20
12.67914581
 30
0.0
  0
VERTEX
  8
0
 10
-18.54640007
 20
11.52876186
 30
0.0
  0
VERTEX
  8
0
 10
-19.04454803
 20
10.81735229
 30
0.0
  0
VERTEX
  8
0
 10
-19.6526432
 20
9.57674789
 30
0.0
  0
VERTEX
  8
0
 10
-20.16607285
 20
8.79843521
 30
0.0
  0
VERTEX
  8
0
 10
-20.58201599
 20
7.53075552
 30
0.0
  0
VERTEX
  8
0
 10
-20.89204979
 20
6.63511324
 30
0.0
  0
VERTEX
  8
0
 10
-21.32287025
 20
5.45194864
 30
0.0
  0
VERTEX
  8
0
 10
-21.52186966
 20
4.50458002
 30
0.0
  0
VERTEX
  8
0
 10
-21.69109535
 20
3.53821898
 30
0.0
  0
VERTEX
  8
0
 10
-21.85782051
 20
2.55692601
 30
0.0
  0
VERTEX
  8
0
 10
-22.00725174
 20
1.45989263
 30
0.0
  0
VERTEX
  8
0
 10
-22.06983757
 20
0.49754193
 30
0.0
  0
VERTEX
  8
0
 10
-22.06084442
 20
-0.48494327
 30
0.0
  0
VERTEX
  8
0
 10
-21.9922924
 20
-1.46457863
 30
0.0
  0
VERTEX
  8
0
 10
-21.87875748
 20
-2.53851771
 30
0.0
  0
VERTEX
  8
0
 10
-21.73977661
 20
-3.53369832
 30
0.0
  0
VERTEX
  8
0
 10
-21.58512688
 20
-4.51649046
 30
0.0
  0
VERTEX
  8
0
 10
-21.41002083
 20
-5.48058319
 30
0.0
  0
VERTEX
  8
0
 10
-21.15821075
 20
-6.39843941
 30
0.0
  0
VERTEX
  8
0
 10
-20.68166161
 20
-7.56596661
 30
0.0
  0
VERTEX
  8
0
 10
-20.37125778
 20
-8.44513893
 30
0.0
  0
VERTEX
  8
0
 10
-19.74427223
 20
-9.61371231
 30
0.0
  0
VERTEX
  8
0
 10
-19.39452362
 20
-10.44370556
 30
0.0
  0
VERTEX
  8
0
 10
-18.64536667
 20
-11.59662056
 30
0.0
  0
VERTEX
  8
0
 10
-17.83167267
 20
-12.7487545
 30
0.0
  0
VERTEX
  8
0
 10
-16.97300339
 20
-13.90643311
 30
0.0
  0
VERTEX
  8
0
 10
-16.01790428
 20
-15.02646446
 30
0.0
  0
VERTEX
  8
0
 10
-14.90461254
 20
-15.97204781
 30
0.0
  0
VERTEX
  8
0
 10
-13.74419785
 20
-16.83659744
 30
0.0
  0
VERTEX
  8
0
 10
-12.58249187
 20
-17.63061142
 30
0.0
  0
VERTEX
  8
0
 10
-11.45163059
 20
-18.4212265
 30
0.0
  0
VERTEX
  8
0
 10
-10.68487549
 20
-18.83724403
 30
0.0
  0
VERTEX
  8
0
 10
-9.4902792
 20
-19.47798157
 30
0.0
  0
VERTEX
  8
0
 10
-8.62605667
 20
-19.81874275
 30
0.0
  0
VERTEX
  8
0
 10
-7.45114279
 20
-20.36157227
 30
0.0
  0
VERTEX
  8
0
 10
-6.52259111
 20
-20.59420967
 30
0.0
  0
VERTEX
  8
0
 10
-5.54306459
 20
-20.7851162
 30
0.0
  0
VERTEX
  8
0
 10
-4.56757116
 20
-20.98921585
 30
0.0
  0
VERTEX
  8
0
 10
-3.46097732
 20
-21.21183205
 30
0.0
  0
SEQEND
  0
ENDSEC
  0
SECTION
  2
OBJECTS
  0
ENDSEC
  0
EOF
